<?xml version="1.0" encoding="utf-8"?>
<!-- Generator: Adobe Illustrator 16.0.0, SVG Export Plug-In . SVG Version: 6.00 Build 0)  -->
<!DOCTYPE svg PUBLIC "-//W3C//DTD SVG 1.0//EN" "http://www.w3.org/TR/2001/REC-SVG-20010904/DTD/svg10.dtd">
<svg version="1.0" id="Layer_1" xmlns="http://www.w3.org/2000/svg" xmlns:xlink="http://www.w3.org/1999/xlink" x="0px" y="0px"
	 width="556.833px" height="220.999px" viewBox="0 0 556.833 220.999" enable-background="new 0 0 556.833 220.999"
	 xml:space="preserve">
<g>
	<g>
		<g>
			<rect x="100.552" y="3.26" fill="#457F3C" width="83.408" height="44.102"/>
			<path fill="#D3D1C2" d="M233.546,111.811c-10.131-23.466-39.391-94.135-43.765-102.23c-5.295-9.816-11.668-5.738-16.526-4.328
				c-4.857,1.41-14.667,5.484-14.667,5.484l3.933,103.916v40.956h367.951v-43.798H233.546z"/>
			<rect x="141.305" y="15.38" fill="#FEC455" width="79.339" height="108.604"/>
			<rect x="443.4" y="111.811" fill="#457F3C" width="113.433" height="43.798"/>
			<rect x="193.316" y="155.608" fill="#3A2316" width="357.954" height="36.983"/>
			<path fill="#3A2316" d="M551.271,192.633v26.078c0,0-2.805,6.826-7.77-3.104c-4.968-9.937-13.029-22.975-13.029-22.975H551.271z"
				/>
			<path fill="#F89C4A" d="M114.427,26.745c0,0,11.479-8.72,18.545-10.428c7.065-1.711,13.473-2.618,21.195,11.53
				c7.716,14.15,7.615,14.445,10.977,26.266c3.368,11.822,18.816,63.573,18.816,63.573l-37.965-3.974L114.427,26.745z"/>
			<path fill="#FEC455" d="M193.316,26.745c0,0,11.477-8.72,18.541-10.428c7.063-1.711,13.477-2.618,21.192,11.53
				c7.716,14.15,7.622,14.445,10.983,26.266c3.361,11.822,18.813,63.573,18.813,63.573h-48.334L193.316,26.745z"/>
			<path fill="#8FA73E" d="M152.043,111.811c-10.135-23.466-39.394-94.135-43.765-102.23c-5.298-9.816-11.672-5.738-16.529-4.328
				s-14.667,5.484-14.667,5.484l3.936,103.916v40.956h367.948v-43.798H152.043z"/>
			<rect x="85.449" y="155.608" fill="#5B341E" width="357.951" height="36.983"/>
			<path fill="#3A2316" d="M443.4,192.633v26.078c0,0-2.802,6.826-7.767-3.104c-4.972-9.937-13.033-22.975-13.033-22.975H443.4z"/>
			<path fill="#3A2316" d="M85.449,192.633v26.078c0,0,2.801,6.826,7.763-3.104c4.972-9.937,13.036-22.975,13.036-22.975H85.449z"/>
			<path fill="#3A2316" d="M193.316,192.633v26.078c0,0,2.798,6.826,7.763-3.104c4.972-9.937,13.036-22.975,13.036-22.975H193.316z"
				/>
		</g>
		<g>
			<g>
				<rect x="20.576" y="80.422" transform="matrix(0.9679 0.2511 -0.2511 0.9679 26.8398 -2.3506)" width="4.106" height="47.12"/>
				<g opacity="0.15">
					<g>
						<defs>
							<rect id="SVGID_1_" x="4.237" y="94.127" width="26.328" height="33.512"/>
						</defs>
						<use xlink:href="#SVGID_1_"  overflow="visible"/>
						<clipPath id="SVGID_2_">
							<use xlink:href="#SVGID_1_"  overflow="visible"/>
						</clipPath>
						<polygon clip-path="url(#SVGID_2_)" points="27.573,127.635 30.565,94.121 4.237,94.121 7.236,127.635 						"/>
					</g>
				</g>
				<g opacity="0.3">
					<g>
						<defs>
							<rect id="SVGID_3_" x="5.499" y="108.869" width="23.802" height="18.77"/>
						</defs>
						<use xlink:href="#SVGID_3_"  overflow="visible"/>
						<clipPath id="SVGID_4_">
							<use xlink:href="#SVGID_3_"  overflow="visible"/>
						</clipPath>
						<polygon clip-path="url(#SVGID_4_)" points="29.301,108.869 5.506,108.869 7.223,127.635 27.573,127.635 						"/>
					</g>
				</g>
			</g>
			<g>
				<path fill="#47345B" d="M94.792,24.215c-2.532-1.391-8.49-0.988-11.69-2.174L72.111,3.014c-1.396-2.43-4.502-3.262-6.938-1.861
					L51.701,8.939c-2.429,1.398-3.264,4.506-1.865,6.93l6.783,11.73c-0.832,0.528-1.66,1.06-2.482,1.574
					c-4.979,3.166-10.077,6.441-14.653,10.24c-6.139,5.102-9.081,12.166-9.081,21.605v61.254h6.706V61.02
					c0-7.528,1.959-12.829,6.612-16.695c4.264-3.541,9.135-6.704,13.945-9.761c0.423-0.269,0.792-0.536,1.215-0.808
					c0.986,2.402-3.563,7.864-3.711,11.442c-0.147,3.638,5.482,25.908,5.482,25.908l51.83-29.234
					C112.482,41.872,97.983,25.964,94.792,24.215"/>
				<path fill="#783F7F" d="M68.857,127.639c-0.067-4.055-3.368-7.32-7.441-7.32H28.178c-4.065,0-7.373,3.266-7.434,7.32H68.857z"/>
			</g>
			<g>
				<rect x="-0.022" y="127.639" fill="#3A2316" width="144.36" height="77.762"/>
				<rect x="51.647" y="127.869" fill="#5B341E" width="92.69" height="77.531"/>
				<rect x="60.269" y="135.082" fill="#3A2316" width="75.444" height="63.105"/>
				<rect x="63.08" y="137.438" fill="#5B341E" width="69.818" height="58.396"/>
				<path fill="#3A2316" d="M51.647,205.4v14.338c0,0,1.536,3.758,4.267-1.704c2.73-5.464,7.166-12.634,7.166-12.634H51.647z"/>
				<path fill="#3A2316" d="M-0.022,205.4v14.338c0,0,1.543,3.758,4.268-1.704c2.73-5.464,7.172-12.634,7.172-12.634H-0.022z"/>
				<path fill="#3A2316" d="M144.338,205.4v14.338c0,0-1.537,3.758-4.268-1.704c-2.73-5.464-7.172-12.634-7.172-12.634H144.338z"/>
				<path fill="#FBFCEF" d="M128.926,166.52c0-3.133-2.536-5.674-5.669-5.674c-3.134,0-5.677,2.541-5.677,5.674
					s2.543,5.675,5.677,5.675C126.39,172.194,128.926,169.652,128.926,166.52z"/>
			</g>
		</g>
	</g>
	<g>
		<polygon fill="#DBC9BF" points="64.212,59.904 50.647,128 84,128 		"/>
		<polygon fill="#FAEBE1" points="140.324,126.618 80.75,126.618 66.211,67.043 127.272,67.043 		"/>
		<polygon fill="#EE8122" points="128.008,70.402 67.03,70.402 64.437,59.773 125.68,59.773 		"/>
		<g>
			<path fill="#010101" d="M81.881,92.213c0.3,0.782,0.66,1.367,1.082,1.754c0.771,0.705,1.884,1.058,3.342,1.058
				c0.874,0,1.561-0.093,2.062-0.279c0.949-0.356,1.31-1.019,1.08-1.986c-0.134-0.565-0.491-1.003-1.072-1.313
				c-0.579-0.301-1.446-0.568-2.604-0.801l-1.979-0.406c-1.946-0.402-3.322-0.841-4.128-1.313c-1.362-0.791-2.247-2.025-2.653-3.707
				c-0.37-1.533-0.104-2.807,0.803-3.822c0.906-1.014,2.476-1.521,4.706-1.521c1.862,0,3.564,0.479,5.105,1.436
				c1.54,0.956,2.557,2.344,3.05,4.164h-3.498c-0.309-1.029-0.951-1.762-1.928-2.195c-0.65-0.287-1.408-0.43-2.273-0.43
				c-0.962,0-1.686,0.186-2.17,0.557c-0.485,0.373-0.647,0.891-0.487,1.557c0.146,0.612,0.539,1.069,1.177,1.371
				c0.411,0.201,1.238,0.438,2.482,0.709l3.223,0.709c1.413,0.31,2.514,0.724,3.305,1.242c1.226,0.807,2.019,1.972,2.378,3.498
				c0.369,1.563,0.063,2.863-0.919,3.896c-0.979,1.034-2.586,1.551-4.82,1.551c-2.281,0-4.198-0.509-5.75-1.527
				c-1.555-1.018-2.547-2.418-2.977-4.199H81.881z"/>
			<path fill="#010101" d="M106.188,83.406h-9.226l0.848,3.637h8.456l0.683,2.975h-8.445l1.025,4.402h9.607l0.705,3.078H96.707
				l-4.016-17.123h12.803L106.188,83.406z"/>
			<path fill="#010101" d="M81.961,103.639h3.787l9.69,11.939l-2.827-11.939h3.366l4.03,17.123h-3.586l-9.901-12.149l2.914,12.149
				h-3.343L81.961,103.639z"/>
			<path fill="#010101" d="M106.646,120.762h-3.563l-4.009-17.123h3.589L106.646,120.762z"/>
			<path fill="#010101" d="M105.982,103.639h3.787l9.571,11.939l-2.708-11.939h3.365l3.86,17.123h-3.586l-9.78-12.149l2.792,12.149
				h-3.342L105.982,103.639z"/>
		</g>
		<circle fill="#FAEBE1" cx="76.146" cy="59.52" r="2.854"/>
		<circle fill="#FAEBE1" cx="114.146" cy="59.52" r="2.854"/>
	</g>
</g>
</svg>
