<?xml version="1.0" encoding="utf-8"?>
<!-- Generator: Adobe Illustrator 16.0.0, SVG Export Plug-In . SVG Version: 6.00 Build 0)  -->
<!DOCTYPE svg PUBLIC "-//W3C//DTD SVG 1.1//EN" "http://www.w3.org/Graphics/SVG/1.1/DTD/svg11.dtd">
<svg version="1.1" id="Layer_1" xmlns="http://www.w3.org/2000/svg" xmlns:xlink="http://www.w3.org/1999/xlink" x="0px" y="0px"
	 width="800px" height="275.046px" viewBox="0 0 800 275.046" enable-background="new 0 0 800 275.046" xml:space="preserve">
<path fill="#85D1F5" d="M787.98,191.97v-11.125h6.027v-2.187h-94.013v2.187h5.703v11.125h-12.021v24.2h-18.331v-55.801h-75.068
	v-12.178h-5.76v12.178h-10.728v92.024h-20.356v-55.012h-13.222V65.315l-46.221-20.928l-46.22,20.928v63.797H441.96v-16.255h-15.348
	v16.255h-12.631v-6.339h-10.624v6.339h-9.332V16.517h-18.489V8.259h12.95V2.716h-80.161v5.543h12.95v8.258h-18.489v112.596v68.27
	h-20.313V16.517h-9.188V0h-28.181v16.517h-16.503V0h-28.181v16.517h-9.188v176.787H149.43v-15.282h-18.416v15.282h-6.074v33.997
	H80.743v-50.935L0,143.983v131.063h61.195h19.548h44.196h22.735h43.559h20.186h35.647h35.406h20.313h91.239h32.587h31.16h15.943
	h40.487h36.01h13.222h20.356h69.588h2.718h19.25h18.331h11.65H800V191.97H787.98z M329.043,8.259h38.727v8.258h-38.727V8.259z
	 M711.458,191.97v-11.125h70.762v11.125H711.458z"/>
</svg>
