<?xml version="1.0" encoding="utf-8"?>
<!-- Generator: Adobe Illustrator 16.0.0, SVG Export Plug-In . SVG Version: 6.00 Build 0)  -->
<!DOCTYPE svg PUBLIC "-//W3C//DTD SVG 1.1 Tiny//EN" "http://www.w3.org/Graphics/SVG/1.1/DTD/svg11-tiny.dtd">
<svg version="1.1" baseProfile="tiny" id="Layer_1" xmlns="http://www.w3.org/2000/svg" xmlns:xlink="http://www.w3.org/1999/xlink"
	 x="0px" y="0px" width="515.137px" height="225.777px" viewBox="0 0 515.137 225.777" overflow="scroll" xml:space="preserve">
<g>
	<line fill="#D3C26A" x1="39.354" y1="225.646" x2="42.305" y2="215.853"/>
	<path fill="#D3C26A" d="M35.666,215.853l20.146-66.836c0.08-0.262,0.08-0.54,0-0.802l-0.279-0.927
		c-0.267-0.884,0.395-1.774,1.317-1.774h0.018h4.773h0.017c0.923,0,1.583,0.891,1.317,1.774l-0.278,0.927
		c-0.079,0.262-0.079,0.54,0,0.802l20.144,66.836l2.416,8.005c0.268,0.891-0.401,1.788-1.332,1.788h-3.738
		c-0.612,0-1.156-0.401-1.332-0.987l-2.652-8.806l-15.617-51.81c-0.399-1.317-2.265-1.317-2.661,0l-15.618,51.81l-2.652,8.806
		c-0.176,0.586-0.718,0.987-1.331,0.987h-3.739c-0.93,0-1.597-0.897-1.329-1.788L35.666,215.853z"/>
	<rect x="37.331" y="210.511" fill="#D3C26A" width="43.331" height="6.528"/>
	<path fill="#E2D17A" d="M32.529,119.604H20.662V88.962h9.806c1.139,0,2.062,0.923,2.062,2.062V119.604z"/>
	<path fill="#D3C26A" d="M56.158,139.801H37.23l-5.795-39.528c-1.265-7.944-6.402-11.311-10.773-11.311h13.957
		c6.23,0,11.901,4.657,13.189,10.834L56.158,139.801z"/>
	<path fill="#D3C26A" d="M38.172,139.801H6.127c0-2.047,1.661-3.708,3.71-3.708h24.114l-4.637-35.82
		c-0.563-4.334-4.281-7.603-8.652-7.603v-3.708c6.23,0,11.531,4.657,12.329,10.834L38.172,139.801z"/>
	<line fill="#D3C26A" x1="52.933" y1="225.646" x2="49.98" y2="215.853"/>
	<path fill="#D3C26A" d="M56.622,215.853l-20.146-66.836c-0.08-0.262-0.08-0.54,0-0.802l0.277-0.927
		c0.267-0.884-0.395-1.774-1.314-1.774h-0.019h-4.773h-0.019c-0.922,0-1.583,0.891-1.316,1.774l0.279,0.927
		c0.08,0.262,0.08,0.54,0,0.802L9.446,215.853l-2.413,8.005c-0.271,0.891,0.398,1.788,1.329,1.788h3.741
		c0.611,0,1.153-0.401,1.329-0.987l2.655-8.806l15.615-51.81c0.398-1.317,2.264-1.317,2.66,0l15.617,51.81l2.655,8.806
		c0.176,0.586,0.716,0.987,1.329,0.987h3.741c0.931,0,1.597-0.897,1.329-1.788L56.622,215.853z"/>
	<rect x="11.627" y="210.511" fill="#D3C26A" width="43.33" height="6.528"/>
	<path fill="#E2D17A" d="M101.453,135.666h42.251c2,0,3.62,2.063,3.62,4.608H97.836C97.836,137.729,99.455,135.666,101.453,135.666"
		/>
	<rect x="178.694" y="139.801" fill="#A5742A" width="67.194" height="7.954"/>
	<rect x="163.253" y="139.801" fill="#D3C26A" width="82.636" height="7.954"/>
	<path fill="#E2D17A" d="M59.758,119.604h11.868V88.962h-9.807c-1.138,0-2.062,0.923-2.062,2.062V119.604z"/>
	<rect y="139.801" fill="#D3C26A" width="245.889" height="7.954"/>
	<path fill="#D3C26A" d="M228.018,215.853l-20.146-66.836c-0.077-0.262-0.077-0.54,0-0.802l0.278-0.927
		c0.267-0.884-0.395-1.774-1.314-1.774h-0.019h-4.773h-0.019c-0.923,0-1.581,0.891-1.317,1.774l0.28,0.927
		c0.08,0.262,0.08,0.54,0,0.802l-20.146,66.836l-2.414,8.005c-0.268,0.891,0.399,1.788,1.33,1.788h3.74
		c0.611,0,1.154-0.401,1.33-0.987l2.654-8.806l15.615-51.81c0.398-1.317,2.265-1.317,2.663,0l15.616,51.81l2.654,8.806
		c0.176,0.586,0.718,0.987,1.329,0.987h3.739c0.933,0,1.599-0.897,1.331-1.788L228.018,215.853z"/>
	<rect x="182.767" y="210.511" fill="#D3C26A" width="43.328" height="6.528"/>
	<path fill="#D3C26A" d="M125.213,212.233h-8.559l-9.81-38.185c-0.667-2.278,0.653-4.663,2.935-5.312
		c2.274-0.645,4.641,0.678,5.283,2.951L125.213,212.233z"/>
	<path fill="#D3C26A" d="M116.116,209.792l9.308,1.804c0,0,4.07,9.683,4.07,10.625c0,0.628-31.777,0-31.777,0
		s0.592-2.829,1.968-3.614C101.063,217.817,116.116,209.792,116.116,209.792"/>
	<path fill="#D3C26A" d="M142.579,212.233h-8.56l-9.809-38.185c-0.667-2.278,0.65-4.663,2.935-5.312
		c2.274-0.645,4.639,0.678,5.281,2.951L142.579,212.233z"/>
	<path fill="#D3C26A" d="M133.236,209.792l9.307,1.804c0,0,4.069,9.683,4.069,10.625c0,0.628-31.776,0-31.776,0
		s0.591-2.829,1.967-3.614C118.18,217.817,133.236,209.792,133.236,209.792"/>
	<path fill="#D3C26A" d="M114.345,165.879h40.93c0,4.349-3.524,7.871-7.87,7.871h-40.637
		C106.768,169.404,109.996,165.879,114.345,165.879"/>
	<path fill="#D3C26A" d="M125.826,161.657h40.93c0,4.346-3.523,7.872-7.869,7.872h-40.638
		C118.249,165.18,121.479,161.657,125.826,161.657"/>
	<path fill="#D3C26A" d="M131.461,165.879h49.785c0,4.349-3.521,7.871-7.869,7.871h-49.491
		C123.886,169.404,127.115,165.879,131.461,165.879"/>
	<path fill="#D3C26A" d="M36.129,139.801h18.926l5.799-39.528c1.264-7.944,6.399-11.311,10.772-11.311H57.667
		c-6.229,0-11.899,4.657-13.189,10.834L36.129,139.801z"/>
	<path fill="#D3C26A" d="M34.223,139.801h32.043c0-2.047-1.661-3.708-3.711-3.708H38.442l4.636-35.82
		c0.563-4.334,4.281-7.603,8.652-7.603v-3.708c-6.23,0-11.531,4.657-12.329,10.834L34.223,139.801z"/>
	<path fill="#D3C26A" d="M104.824,119.615l-95.527,0.017c-3.262,0-5.902-2.711-5.898-6.051l0.039-63.735
		c0.002-3.344,2.646-6.054,5.909-6.054l95.539-0.017c3.26,0,5.9,2.708,5.898,6.052l-0.054,63.736
		C110.727,116.905,108.082,119.615,104.824,119.615"/>
	<path fill="#E2D17A" d="M110.584,119.615l-95.527,0.017c-3.261,0-5.9-2.711-5.896-6.051l0.039-63.735
		c0.002-3.344,2.646-6.054,5.906-6.054l95.539-0.017c3.261,0,5.9,2.708,5.898,6.052l-0.051,63.736
		C116.488,116.905,113.844,119.615,110.584,119.615"/>
	<rect x="14.64" y="49.753" fill="#D3C26A" width="96.128" height="63.772"/>
	<path fill="#D3C26A" d="M144.915,122.042c0,0-4.606,14.038-5.188,21.725c-0.583,7.684-0.183,14.677,1.564,19.209l13.002-0.544
		l9.777-0.766c0,0,2.021-41.461,2.021-42.61c0-1.146-11.09-7.702-11.09-7.702L144.915,122.042z"/>
	<path fill="#D3C26A" d="M148.885,105.508l-7.647,10.216c0,0-0.192,0.269,0.231,0.33s2.371,0.122,2.561,0.359
		c0.192,0.241,0.035,0.568-0.417,1.401c-0.45,0.832-6.982,13.715-12.372,13.971c0,0-1.83,0.354-2.773,1.203
		c-0.94,0.845-0.899,2.4-0.899,2.4s-0.082,2.185,1.501,2.896c1.585,0.71,1.789,0.602,1.789,0.602s3.169,0.219,7.129-2.594
		c3.961-2.814,3.961-3.579,3.961-3.579l5.571-16.518l1.456-5.044c0,0,0.346-1.672,0.11-2.785
		C148.848,107.259,148.885,105.508,148.885,105.508"/>
	<path fill="#F6EA92" d="M190.346,89.286c0,0-3.112,4.263-4.479,5.682c-1.366,1.42-4.179,3.688-5.381,4.342
		c-1.203,0.656-3.934,1.968-4.862,4.152c-0.929,2.186-1.01,2.484-1.01,2.484l-3.033,2.242l-22.625,2.941l-0.2,0.023
		c0,0,0.205-0.631,0.129-1.832c-0.123-1.734,0.108-5.039-2.622-6.951c-2.732-1.913-6.855-2.76-12.236-9.178
		c-5.382-6.418-7.483-12.046-8.632-21.822c-1.146-9.78,0.821-28.243,0.821-28.243s1-5.526,1.155-5.818
		c0.155-0.29,49.572-0.172,49.572-0.172L190.346,89.286z"/>
	<path fill="#D3C26A" d="M172.538,108.014c0,0-21.465,2.828-23.817,3.049c0,0-4.041,11.471-4.114,11.873
		c-0.075,0.402,9.776-9.997,9.776-9.997s0.439-0.589,0.937,0.35c0.497,0.937,5.622,8.985,5.954,9.095
		c0.331,0.111,2.507-1.35,2.507-1.35l2.233-1.654L172.538,108.014z"/>
	<path fill-rule="evenodd" fill="#D3C26A" d="M189.108,163.46c0,0-5.304-29.978-7.072-37.192
		c-1.767-7.218-3.976-14.804-3.976-14.804l-9.868-1.03c0,0-2.504,3.901-2.801,8.248c-0.294,4.344-2.871,26.954-2.062,34.174
		c0,0-0.589,9.13,1.123,11.948c1.712,2.816,4.199,2.708,4.199,2.708L189.108,163.46z"/>
	<polygon fill-rule="evenodd" fill="#D3C26A" points="175.852,104.91 180.416,110.949 173.569,120.67 168.192,110.434 	"/>
	<path fill-rule="evenodd" fill="#D3C26A" d="M176.99,130.802c0,0-3.086-4.044-3.824-4.126c-0.738-0.081-1.174,0.549-1.585,1.175
		c-0.409,0.63-2.456,3.853-2.456,3.853l8.029-0.52L176.99,130.802z"/>
	
		<rect x="168.069" y="131.077" transform="matrix(-0.9956 0.0934 -0.0934 -0.9956 358.5109 249.2547)" fill-rule="evenodd" fill="#D3C26A" width="10.709" height="3.876"/>
	<path fill="#E2D17A" d="M196.519,42.253c-0.383-4.809-3.278-10.599-4.698-14.587c-1.419-3.988-6.009-15.621-18.026-21.959
		C161.776-0.629,145.78-0.202,144.158,0.2c-1.619,0.4-0.19,1.21,0.192,1.447c0.382,0.237,4.426,2.058,5.062,2.912
		c0.639,0.857,0.074,0.835-1.251,0.328c-1.325-0.504-9.055-3.332-18.633-1.837c-9.577,1.493-18.354,5.753-19.011,6.263
		c-0.654,0.512,11.071,0.583,14.424,5.863c0,0,0.473,0.656-2.514,0.235c-2.988-0.417-10.963-0.8-19.237,6.164
		c0,0-5.683,5.408-6.337,7.32c-0.656,1.912,2.229-0.681,9.404-1.192c7.175-0.51,10.161,0.691,13.329,2.295s7.639,4.852,7.721,6.082
		c0.082,1.228-0.138,2.047-0.138,2.047s2.098-0.079,5.395-0.169c0.959,1.691,2.102,4.782,3.191,10.427
		c2.58,13.347,1.367,23.054,1.367,23.054s2.981-2.479,5.661-0.254c2.266,1.882,2.073,4.349,1.466,7.079
		c-0.605,2.73-4.246,4.551-4.246,4.551s2.889,6.646,4.455,10.091c0.303,0.454,1.461,6.895,21.936,11.292
		c0,0,18.763-2.303,24.246-14.409l2.104-4.739c0,0-0.004-0.012-0.013-0.036c1.559-3.708,3.281-9.893,3.514-19.381
		C196.246,65.632,196.901,47.059,196.519,42.253"/>
	<path fill="#D3C26A" d="M148.547,105.987c0,0,1.569-0.153,7.386,0.103c5.816,0.254,19.931-1.219,19.931-1.219
		s2.929,1.878,0.602,4.115c-2.325,2.237-29.232,2.695-29.232,2.695L148.547,105.987z"/>
	<path fill="#E2D17A" d="M136.646,225.777L136.646,225.777c-2.994,0-5.422-2.43-5.422-5.424v-5.422h5.422
		c2.996,0,5.422,2.428,5.422,5.422S139.643,225.777,136.646,225.777"/>
	<path fill="#E2D17A" d="M151.509,225.777L151.509,225.777c-2.994,0-5.422-2.43-5.422-5.424v-5.422h5.422
		c2.994,0,5.422,2.428,5.422,5.422S154.503,225.777,151.509,225.777"/>
	<path fill="#E2D17A" d="M188.679,225.777L188.679,225.777c-2.993,0-5.422-2.43-5.422-5.424v-5.422h5.422
		c2.995,0,5.423,2.428,5.423,5.422S191.674,225.777,188.679,225.777"/>
	<path fill="#E2D17A" d="M131.253,214.931h2.982c0-4.328,3.521-7.85,7.851-7.85h24.122v-2.979h-24.122
		C136.114,204.102,131.253,208.958,131.253,214.931"/>
	<path fill="#E2D17A" d="M146.162,214.931h2.982c0-4.328,3.521-7.85,7.85-7.85h9.214v-2.979h-9.214
		C151.022,204.102,146.162,208.958,146.162,214.931"/>
	<path fill="#E2D17A" d="M203.613,225.625L203.613,225.625c-2.994,0-5.422-2.43-5.422-5.424v-5.422h5.422
		c2.994,0,5.422,2.428,5.422,5.422S206.607,225.625,203.613,225.625"/>
	<path fill="#E2D17A" d="M198.182,214.931h2.981c0-5.973-4.859-10.829-10.831-10.829h-24.124v2.979h24.124
		C194.659,207.082,198.182,210.603,198.182,214.931"/>
	<path fill="#E2D17A" d="M166.208,194.065c1.297,0,2.346-1.049,2.346-2.346v-17.262c0-1.297-1.049-2.346-2.346-2.346
		c-1.294,0-2.346,1.049-2.346,2.346v17.262C163.862,193.016,164.914,194.065,166.208,194.065"/>
	<path fill="#E2D17A" d="M188.572,168.565v6.709h-21.701c-2.805,0-5.074,2.272-5.074,5.074h-45.166
		c0-6.508,5.275-11.783,11.783-11.783H188.572z"/>
	<path fill="#E2D17A" d="M161.682,160.11v-57.994c0-6.139,4.975-11.112,11.109-11.112h22.942c6.138,0,11.111,4.974,11.111,11.112
		v58.917c0,7.866-6.377,14.241-14.241,14.241h-48.942v-6.709h9.563C157.896,168.565,161.682,164.78,161.682,160.11"/>
	<path fill="#E2D17A" d="M183.273,214.931h2.982c0-5.973-4.861-10.829-10.834-10.829h-9.214v2.979h9.214
		C179.752,207.082,183.273,210.603,183.273,214.931"/>
	<rect x="162.859" y="191.719" fill="#E2D17A" width="6.701" height="15.37"/>
	<path fill="#D3C26A" d="M110.22,131.526c0,0,11.642,2.274,19.742,0.598c1.371-0.284,2.773,0.299,3.563,1.452
		c1.462,2.141,0.168,5.071-2.399,5.426c-5.297,0.732-13.714,0.689-21.859-1.078C109.424,136.805,110.22,131.526,110.22,131.526"/>
	<path fill="#F6EA92" d="M110.263,131.614c0,0-2.146-4.004-7.752-2.744c-5.605,1.262-8.42,7.588-8.42,10.102h15.262L110.263,131.614
		z"/>
	<path fill="#E2D17A" d="M473.495,119.604h-11.866V88.962h9.805c1.139,0,2.062,0.923,2.062,2.062V119.604z"/>
	<line fill="#D3C26A" x1="461.579" y1="225.646" x2="464.531" y2="215.853"/>
	<path fill="#D3C26A" d="M457.89,215.853l20.146-66.836c0.08-0.262,0.08-0.54,0-0.802l-0.277-0.927
		c-0.267-0.884,0.395-1.774,1.314-1.774h0.019h4.774h0.018c0.923,0,1.583,0.891,1.317,1.774l-0.28,0.927
		c-0.08,0.262-0.08,0.54,0,0.802l20.146,66.836l2.413,8.005c0.271,0.891-0.398,1.788-1.329,1.788h-3.741
		c-0.611,0-1.152-0.401-1.329-0.987l-2.654-8.806l-15.615-51.81c-0.399-1.317-2.265-1.317-2.661,0l-15.617,51.81l-2.655,8.806
		c-0.176,0.586-0.716,0.987-1.329,0.987h-3.74c-0.932,0-1.598-0.897-1.33-1.788L457.89,215.853z"/>
	<rect x="459.555" y="210.511" fill="#D3C26A" width="43.33" height="6.528"/>
	<path fill="#E2D17A" d="M413.059,135.666h-42.251c-2,0-3.62,2.063-3.62,4.608h49.488
		C416.676,137.729,415.057,135.666,413.059,135.666"/>
	<rect x="268.623" y="139.801" fill="#A5742A" width="67.195" height="7.954"/>
	<rect x="268.623" y="139.801" fill="#D3C26A" width="82.637" height="7.954"/>
	<rect x="268.623" y="139.801" fill="#D3C26A" width="245.889" height="7.954"/>
	<path fill="#D3C26A" d="M286.494,215.853l20.146-66.836c0.077-0.262,0.077-0.54,0-0.802l-0.28-0.927
		c-0.265-0.884,0.395-1.774,1.317-1.774h0.018h4.774h0.019c0.922,0,1.58,0.891,1.316,1.774l-0.28,0.927
		c-0.079,0.262-0.079,0.54,0,0.802l20.146,66.836l2.414,8.005c0.268,0.891-0.4,1.788-1.332,1.788h-3.738
		c-0.611,0-1.154-0.401-1.33-0.987l-2.654-8.806l-15.615-51.81c-0.398-1.317-2.264-1.317-2.663,0l-15.615,51.81l-2.655,8.806
		c-0.176,0.586-0.717,0.987-1.329,0.987h-3.739c-0.932,0-1.599-0.897-1.33-1.788L286.494,215.853z"/>
	<rect x="288.417" y="210.511" fill="#D3C26A" width="43.329" height="6.528"/>
	<path fill="#D3C26A" d="M389.299,212.233h8.56l9.809-38.185c0.667-2.278-0.652-4.663-2.935-5.312
		c-2.274-0.645-4.641,0.678-5.283,2.951L389.299,212.233z"/>
	<path fill="#D3C26A" d="M398.396,209.792l-9.308,1.804c0,0-4.07,9.683-4.07,10.625c0,0.628,31.777,0,31.777,0
		s-0.591-2.829-1.968-3.614C413.449,217.817,398.396,209.792,398.396,209.792"/>
	<path fill="#D3C26A" d="M371.933,212.233h8.56l9.809-38.185c0.667-2.278-0.652-4.663-2.935-5.312
		c-2.274-0.645-4.641,0.678-5.281,2.951L371.933,212.233z"/>
	<path fill="#D3C26A" d="M381.275,209.792l-9.306,1.804c0,0-4.07,9.683-4.07,10.625c0,0.628,31.776,0,31.776,0
		s-0.591-2.829-1.967-3.614C396.332,217.817,381.275,209.792,381.275,209.792"/>
	<path fill="#D3C26A" d="M400.167,165.879h-40.929c0,4.349,3.523,7.871,7.869,7.871h40.635
		C407.742,169.404,404.516,165.879,400.167,165.879"/>
	<path fill="#D3C26A" d="M388.686,161.657h-40.93c0,4.346,3.523,7.872,7.87,7.872h40.637
		C396.263,165.18,393.033,161.657,388.686,161.657"/>
	<path fill="#D3C26A" d="M383.051,165.879h-49.785c0,4.349,3.521,7.871,7.87,7.871h49.49
		C390.626,169.404,387.396,165.879,383.051,165.879"/>
	<path fill="#D3C26A" d="M478.383,139.801h-18.926l-5.799-39.528c-1.264-7.944-6.401-11.311-10.771-11.311h13.958
		c6.229,0,11.899,4.657,13.189,10.834L478.383,139.801z"/>
	<path fill="#D3C26A" d="M480.289,139.801h-32.043c0-2.047,1.661-3.708,3.709-3.708h24.115l-4.637-35.82
		c-0.563-4.334-4.28-7.603-8.651-7.603v-3.708c6.229,0,11.528,4.657,12.329,10.834L480.289,139.801z"/>
	<path fill="#D3C26A" d="M409.688,119.615l95.527,0.017c3.262,0,5.902-2.711,5.898-6.051l-0.039-63.735
		c-0.004-3.344-2.646-6.054-5.908-6.054l-95.54-0.017c-3.26,0-5.899,2.708-5.897,6.052l0.053,63.736
		C403.785,116.905,406.43,119.615,409.688,119.615"/>
	<path fill="#E2D17A" d="M403.928,119.615l95.527,0.017c3.258,0,5.9-2.711,5.896-6.051l-0.039-63.735
		c-0.002-3.344-2.646-6.054-5.906-6.054l-95.539-0.017c-3.26,0-5.902,2.708-5.898,6.052l0.051,63.736
		C398.023,116.905,400.668,119.615,403.928,119.615"/>
	<rect x="403.554" y="49.753" fill="#D3C26A" width="96.131" height="63.772"/>
	<path fill="#D3C26A" d="M360.672,122.042c0,0,2.665,14.038,3.002,21.725c0.338,7.684,0.106,14.677-0.906,19.209l-7.522-0.544
		l-5.657-0.766c0,0-1.167-41.461-1.167-42.61c0-1.146,6.413-7.702,6.413-7.702L360.672,122.042z"/>
	<path fill="#D3C26A" d="M365.627,105.508l5.51,10.505c0,0,0.461-0.011,0.037,0.049c-0.424,0.063-0.501,0.114-0.691,0.352
		c-0.192,0.241-0.034,0.568,0.415,1.401c0.452,0.832,6.983,13.715,12.374,13.971c0,0,1.83,0.354,2.773,1.203
		c0.94,0.845,0.899,2.4,0.899,2.4s0.082,2.185-1.501,2.896c-1.585,0.71-1.789,0.602-1.789,0.602s-3.169,0.219-7.128-2.594
		c-3.962-2.814-3.962-3.579-3.962-3.579l-5.571-16.518l-1.456-5.044c0,0-0.346-1.672-0.11-2.785
		C365.664,107.259,365.627,105.508,365.627,105.508"/>
	<path fill="#F6EA92" d="M324.166,89.461c0,0,3.088,4.228,4.444,5.637c1.354,1.409,4.144,3.657,5.336,4.308s3.9,1.951,4.823,4.119
		c0.92,2.165,1.002,2.464,1.002,2.464l3.006,2.222l22.443,2.919l0.197,0.023c0,0-0.2-0.625-0.127-1.817
		c0.123-1.72-0.107-4.999,2.602-6.895c2.711-1.898,6.801-2.737,12.137-9.104c5.339-6.367,7.425-11.948,8.563-21.647
		c1.138-9.7-0.813-28.013-0.813-28.013s-0.994-5.481-1.147-5.772c-0.153-0.288-49.172-0.172-49.172-0.172L324.166,89.461z"/>
	<path fill="#D3C26A" d="M341.974,108.014c0,0,21.465,2.828,23.817,3.049c0,0,4.041,11.471,4.115,11.873
		c0.073,0.402-9.777-9.997-9.777-9.997s-0.439-0.589-0.937,0.35c-0.497,0.937-5.622,8.985-5.953,9.095
		c-0.331,0.111-2.51-1.35-2.51-1.35l-2.231-1.654L341.974,108.014z"/>
	<path fill-rule="evenodd" fill="#D3C26A" d="M325.403,163.46c0,0,5.304-29.978,7.07-37.192c1.77-7.218,3.978-14.804,3.978-14.804
		l9.869-1.03c0,0,2.503,3.901,2.798,8.248c0.296,4.344,2.873,26.954,2.063,34.174c0,0,0.589,9.13-1.123,11.948
		c-1.714,2.816-4.199,2.708-4.199,2.708L325.403,163.46z"/>
	<polygon fill-rule="evenodd" fill="#D3C26A" points="338.66,104.91 334.096,110.949 340.943,120.67 346.32,110.434 	"/>
	<path fill-rule="evenodd" fill="#D3C26A" d="M337.521,130.802c0,0,3.086-4.044,3.824-4.126c0.738-0.081,1.174,0.549,1.583,1.175
		c0.411,0.63,2.459,3.853,2.459,3.853l-8.029-0.52L337.521,130.802z"/>
	
		<rect x="335.734" y="131.077" transform="matrix(0.9956 0.0934 -0.0934 0.9956 13.9114 -31.2697)" fill-rule="evenodd" fill="#D3C26A" width="10.709" height="3.876"/>
	<path fill="#D3C26A" d="M365.965,105.987c0,0-1.568-0.153-7.386,0.103c-5.816,0.254-19.931-1.219-19.931-1.219
		s-2.929,1.878-0.604,4.115c2.328,2.237,29.234,2.695,29.234,2.695L365.965,105.987z"/>
	<path fill="#E2D17A" d="M377.866,225.777L377.866,225.777c2.992,0,5.421-2.43,5.421-5.424v-5.422h-5.421
		c-2.997,0-5.424,2.428-5.424,5.422S374.869,225.777,377.866,225.777"/>
	<path fill="#E2D17A" d="M363.003,225.777L363.003,225.777c2.995,0,5.422-2.43,5.422-5.424v-5.422h-5.422
		c-2.994,0-5.422,2.428-5.422,5.422S360.009,225.777,363.003,225.777"/>
	<path fill="#E2D17A" d="M325.833,225.777L325.833,225.777c2.994,0,5.422-2.43,5.422-5.424v-5.422h-5.422
		c-2.994,0-5.422,2.428-5.422,5.422S322.839,225.777,325.833,225.777"/>
	<path fill="#E2D17A" d="M383.257,214.931h-2.981c0-4.328-3.52-7.85-7.85-7.85h-24.122v-2.979h24.122
		C378.397,204.102,383.257,208.958,383.257,214.931"/>
	<path fill="#E2D17A" d="M368.35,214.931h-2.982c0-4.328-3.521-7.85-7.85-7.85h-9.214v-2.979h9.214
		C363.49,204.102,368.35,208.958,368.35,214.931"/>
	<path fill="#E2D17A" d="M310.898,225.625L310.898,225.625c2.994,0,5.422-2.43,5.422-5.424v-5.422h-5.422
		c-2.994,0-5.422,2.428-5.422,5.422S307.904,225.625,310.898,225.625"/>
	<path fill="#E2D17A" d="M316.33,214.931h-2.981c0-5.973,4.859-10.829,10.831-10.829h24.124v2.979H324.18
		C319.853,207.082,316.33,210.603,316.33,214.931"/>
	<path fill="#E2D17A" d="M348.304,194.065c-1.296,0-2.346-1.049-2.346-2.346v-17.262c0-1.297,1.05-2.346,2.346-2.346
		c1.295,0,2.345,1.049,2.345,2.346v17.262C350.648,193.016,349.599,194.065,348.304,194.065"/>
	<path fill="#E2D17A" d="M325.939,168.565v6.709h21.702c2.804,0,5.074,2.272,5.074,5.074h45.163c0-6.508-5.273-11.783-11.783-11.783
		H325.939z"/>
	<path fill="#E2D17A" d="M352.83,160.11v-57.994c0-6.139-4.975-11.112-11.109-11.112h-22.941c-6.139,0-11.112,4.974-11.112,11.112
		v58.917c0,7.866,6.377,14.241,14.241,14.241h48.942v-6.709h-9.563C356.616,168.565,352.83,164.78,352.83,160.11"/>
	<path fill="#E2D17A" d="M331.238,214.931h-2.981c0-5.973,4.859-10.829,10.833-10.829h9.214v2.979h-9.214
		C334.76,207.082,331.238,210.603,331.238,214.931"/>
	<rect x="344.951" y="191.719" fill="#E2D17A" width="6.701" height="15.37"/>
	<path fill="#D3C26A" d="M404.292,131.526c0,0-11.642,2.274-19.742,0.598c-1.37-0.284-2.773,0.299-3.563,1.452
		c-1.463,2.141-0.168,5.071,2.398,5.426c5.296,0.732,13.712,0.689,21.859-1.078C405.088,136.805,404.292,131.526,404.292,131.526"/>
	<path fill="#F6EA92" d="M404.25,131.614c0,0,2.145-4.004,7.751-2.744c5.605,1.262,8.42,7.588,8.42,10.102h-15.262L404.25,131.614z"
		/>
	<path fill="#E2D17A" d="M383.5,46.462c1.174-0.897,2.518-1.622,3.76-2.34c0.268-0.153,0.537-0.298,0.806-0.45
		c-1.075-7.301-3.689-15.169-9.621-20.959c-10.603-10.354-28.228-14.611-48.004-2.822c-20.008,11.924-10.031,44.098-8.169,46.517
		c1.864,2.421,3.01,0.538,2.437-1.432c-0.572-1.972-3.009-9.862-3.725-12.685c-0.718-2.822-1.147-8.739-1.147-8.739
		c12.897-2.555,26.367-6.993,26.367-6.993c-0.859,1.481-1.002,3.768-0.43,6.455c0.573,2.689,1.576,3.092,2.866,0.135
		s8.884-7.932,13.612-9.95c5.447,0.271,20.778,5.418,20.778,5.418L383.5,46.462z"/>
	<path fill="#E2D17A" d="M324.826,88.897c1.532,1.256,29.826-3.563,36.426-17.155c0,0-4.826-5.259-3.796-7.191
		c1.585-2.97,4.126-2.542,4.588-2.376c1.704,0.609,3.364,1.583,3.364,1.583s16.233-16.299,17.916-17.091
		c1.682-0.791,3.068-5.146,2.869-5.74c-0.197-0.594-8.809-11.086-12.866-11.779c-4.06-0.693-47.114,5.741-47.114,6.038
		c0,0.296-7.226,6.73-7.226,6.73S311.859,78.274,324.826,88.897"/>
	<path fill="#E2D17A" d="M361.467,12.622c-15.3-3.104-27.016-0.277-34.566,6.836c-2.36-2.643-8.639-8.061-16.275-7.105
		c-8.724,1.088-20.173,4.77-22.625,20.854c-2.389,15.642,7.99,34.376,29.126,31.006c0.908,10.627,3.259,18.398,6.474,22.951
		c0,0,5.972-7.34,7.336-13.339c-3.544,0-6.134-2.861-5.452-6.541c0.681-3.681,5.997-4.362,8.179-1.91
		c1.634-6.405,3.271-16.355,3.271-16.355s24.807-2.454,37.757-11.04l10.087,3.816C384.776,41.793,388.319,18.075,361.467,12.622"/>
	<path fill="#D3C26A" d="M359.205,110.212c0,0,12.869,12.8,13,14.385c0.133,1.583-11.746,12.735-11.812,12.997
		c-0.065,0.266-6.269-23.424-6.269-23.424L359.205,110.212z"/>
	<path fill="#D3C26A" d="M362.836,142.38c0,0,10.095-5.644,9.7-10.492c-0.397-4.852-4.158-9.601-4.158-9.601l-9.206,6.334
		L362.836,142.38z"/>
	<line fill="#D3C26A" x1="508.976" y1="225.646" x2="506.022" y2="215.853"/>
	<path fill="#D3C26A" d="M512.664,215.853l-20.146-66.836c-0.079-0.262-0.079-0.54,0-0.802l0.281-0.927
		c0.266-0.884-0.396-1.774-1.318-1.774h-0.018h-4.771h-0.019c-0.923,0-1.583,0.891-1.319,1.774l0.28,0.927
		c0.079,0.262,0.079,0.54,0,0.802l-20.146,66.836l-2.412,8.005c-0.27,0.891,0.397,1.788,1.33,1.788h3.738
		c0.611,0,1.154-0.401,1.33-0.987l2.654-8.806l15.617-51.81c0.398-1.317,2.264-1.317,2.659,0l15.617,51.81l2.655,8.806
		c0.176,0.586,0.718,0.987,1.329,0.987h3.741c0.93,0,1.597-0.897,1.329-1.788L512.664,215.853z"/>
	<rect x="467.668" y="210.511" fill="#D3C26A" width="43.331" height="6.528"/>
</g>
</svg>
