<?xml version="1.0" encoding="utf-8"?>
<!-- Generator: Adobe Illustrator 16.0.0, SVG Export Plug-In . SVG Version: 6.00 Build 0)  -->
<!DOCTYPE svg PUBLIC "-//W3C//DTD SVG 1.0//EN" "http://www.w3.org/TR/2001/REC-SVG-20010904/DTD/svg10.dtd">
<svg version="1.0" id="Layer_1" xmlns="http://www.w3.org/2000/svg" xmlns:xlink="http://www.w3.org/1999/xlink" x="0px" y="0px"
	 width="224.865px" height="360.119px" viewBox="0 0 224.865 360.119" enable-background="new 0 0 224.865 360.119"
	 xml:space="preserve">
<g>
	<g>
		<g>
			<g>
				<rect x="185.476" y="140.188" fill="#C2B59B" width="39.39" height="79.186"/>
				<g>
					<rect y="140.188" fill="#F2F2F2" width="95.704" height="79.186"/>
					<rect x="5.932" y="148.165" fill="#C2B59B" width="83.841" height="62.116"/>
					<rect x="35.374" y="148.165" fill="#9A857A" width="54.398" height="62.116"/>
				</g>
				<g>
					<rect x="89.772" y="140.188" fill="#F2F2F2" width="95.703" height="79.186"/>
					<rect x="95.704" y="148.165" fill="#C2B59B" width="83.84" height="62.116"/>
					<rect x="125.146" y="148.165" fill="#9A857A" width="54.397" height="62.116"/>
				</g>
			</g>
			<g>
				<rect x="185.476" y="210.838" fill="#C2B59B" width="39.39" height="79.188"/>
				<g>
					<rect y="210.838" fill="#F2F2F2" width="95.704" height="79.188"/>
					<rect x="5.932" y="218.814" fill="#C2B59B" width="83.841" height="62.117"/>
					<rect x="35.374" y="218.814" fill="#9A857A" width="54.398" height="62.117"/>
				</g>
				<g>
					<rect x="89.772" y="210.838" fill="#F2F2F2" width="95.703" height="79.188"/>
					<rect x="95.704" y="218.814" fill="#C2B59B" width="83.84" height="62.117"/>
					<rect x="125.146" y="218.814" fill="#9A857A" width="54.397" height="62.117"/>
				</g>
			</g>
			<g>
				<rect x="185.476" y="280.932" fill="#C2B59B" width="39.39" height="79.188"/>
				<g>
					<rect y="280.932" fill="#F2F2F2" width="95.704" height="79.188"/>
					<rect x="5.932" y="288.908" fill="#C2B59B" width="83.841" height="62.117"/>
					<rect x="35.374" y="288.908" fill="#9A857A" width="54.398" height="62.117"/>
				</g>
				<g>
					<rect x="89.772" y="280.932" fill="#F2F2F2" width="95.703" height="79.188"/>
					<rect x="95.704" y="288.908" fill="#C2B59B" width="83.84" height="62.117"/>
					<rect x="125.146" y="288.908" fill="#9A857A" width="54.397" height="62.117"/>
				</g>
			</g>
		</g>
		<g>
			<g>
				<rect x="185.476" fill="#C2B59B" width="39.39" height="79.188"/>
				<g>
					<rect x="89.772" fill="#F2F2F2" width="95.703" height="79.188"/>
					<rect x="95.704" y="7.977" fill="#C2B59B" width="83.84" height="62.117"/>
					<rect x="125.146" y="7.977" fill="#9A857A" width="54.397" height="62.117"/>
				</g>
			</g>
			<g>
				<rect x="185.476" y="70.094" fill="#C2B59B" width="39.39" height="79.188"/>
				<g>
					<rect y="70.094" fill="#F2F2F2" width="95.704" height="79.188"/>
					<rect x="5.932" y="78.071" fill="#C2B59B" width="83.841" height="62.116"/>
					<rect x="35.374" y="78.071" fill="#9A857A" width="54.398" height="62.116"/>
				</g>
				<g>
					<rect x="89.772" y="70.094" fill="#F2F2F2" width="95.703" height="79.188"/>
					<rect x="95.704" y="78.071" fill="#C2B59B" width="83.84" height="62.116"/>
					<rect x="125.146" y="78.071" fill="#9A857A" width="54.397" height="62.116"/>
				</g>
			</g>
		</g>
	</g>
	<g>
		<rect x="163.457" y="110.225" fill="#046938" width="9.225" height="29.958"/>
		<rect x="142.465" y="110.225" fill-rule="evenodd" clip-rule="evenodd" fill="#00A79C" width="20.992" height="29.958"/>
		<rect x="145.858" y="128.199" fill="#11232F" width="3.817" height="6.391"/>
		<path fill="#F9FAE9" d="M159.063,131.195c0,1.764-1.432,3.197-3.194,3.197c-1.766,0-3.197-1.434-3.197-3.197
			c0-1.766,1.432-3.197,3.197-3.197C157.632,127.998,159.063,129.43,159.063,131.195"/>
	</g>
	<g>
		<rect x="127.624" y="110.227" fill="#E6382E" width="9.226" height="29.959"/>
		<rect x="106.632" y="110.227" fill="#A02A2A" width="20.992" height="29.959"/>
		<rect x="110.026" y="128.201" fill="#11232F" width="3.817" height="6.391"/>
		<path fill="#F9FAE9" d="M123.231,131.197c0,1.764-1.432,3.197-3.195,3.197c-1.765,0-3.197-1.434-3.197-3.197
			c0-1.768,1.433-3.197,3.197-3.197C121.8,128,123.231,129.43,123.231,131.197"/>
	</g>
	<g>
		<rect x="114.449" y="314.396" fill="#2075BC" width="14.017" height="36.629"/>
		<rect x="104.858" y="314.396" fill-rule="evenodd" clip-rule="evenodd" fill="#29AAE1" width="9.591" height="36.629"/>
		<rect x="107.573" y="341.045" fill="#FFFFFF" width="4.668" height="7.811"/>
	</g>
	<g>
		<rect x="27.188" y="173.652" fill="#046938" width="14.014" height="36.627"/>
		<rect x="17.595" y="173.652" fill-rule="evenodd" clip-rule="evenodd" fill="#8EC641" width="9.593" height="36.627"/>
		<rect x="20.312" y="200.299" fill="#FFFFFF" width="4.668" height="7.811"/>
	</g>
	<g>
		<rect x="115.106" y="165.491" fill="#652930" width="14.016" height="44.788"/>
		<rect x="105.516" y="165.491" fill-rule="evenodd" clip-rule="evenodd" fill="#BE202E" width="9.591" height="44.788"/>
		<rect x="108.23" y="175.274" fill="#FFFFFF" width="4.667" height="27.836"/>
	</g>
	<g>
		<path fill="#44803C" d="M124.564,49.549c0,3.146-2.551,5.696-5.696,5.696s-5.696-2.551-5.696-5.696v-29.6
			c0-3.143,2.551-5.695,5.696-5.695s5.696,2.553,5.696,5.695V49.549z"/>
		<path fill="#F6B397" d="M130.158,48.196c0,4.046-3.278,7.325-7.322,7.325h-7.935c-4.045,0-7.323-3.279-7.323-7.325
			c0-4.044,3.278-7.325,7.323-7.325h7.935C126.88,40.871,130.158,44.152,130.158,48.196"/>
		<path fill="#053435" d="M107.296,42.752v20.252c0,3.914,3.171,7.09,7.087,7.09h8.971c3.916,0,7.092-3.176,7.092-7.09V42.752
			H107.296z"/>
		<path fill="#2E5328" d="M124.248,24.788c-0.257,0.261-0.677,0.261-0.938,0c-0.261-0.259-0.261-0.681,0-0.939l3.223-3.225
			c0.261-0.261,0.685-0.261,0.941,0c0.261,0.261,0.261,0.681,0,0.941L124.248,24.788z"/>
		<path fill="#2E5328" d="M124.248,19.688c-0.257,0.259-0.677,0.259-0.938,0c-0.261-0.261-0.261-0.683,0-0.941l3.223-3.225
			c0.261-0.261,0.685-0.261,0.941,0c0.261,0.261,0.261,0.683,0,0.941L124.248,19.688z"/>
		<path fill="#2E5328" d="M124.248,29.425c-0.257,0.261-0.677,0.261-0.938,0s-0.261-0.683,0-0.938l3.223-3.228
			c0.261-0.261,0.685-0.261,0.941,0c0.261,0.261,0.261,0.683,0,0.941L124.248,29.425z"/>
		<path fill="#2E5328" d="M124.248,34.061c-0.257,0.261-0.677,0.261-0.938,0c-0.261-0.26-0.261-0.679,0-0.939l3.223-3.223
			c0.261-0.264,0.685-0.264,0.941,0c0.261,0.259,0.261,0.678,0,0.939L124.248,34.061z"/>
		<path fill="#2E5328" d="M124.248,38.697c-0.257,0.261-0.677,0.261-0.938,0c-0.261-0.262-0.261-0.681,0-0.941l3.223-3.223
			c0.261-0.262,0.685-0.262,0.941,0c0.261,0.256,0.261,0.68,0,0.941L124.248,38.697z"/>
		<path fill="#2E5328" d="M113.651,20.155c0.261,0.259,0.685,0.259,0.941,0c0.261-0.264,0.261-0.683,0-0.943l-3.227-3.224
			c-0.258-0.261-0.682-0.261-0.938,0c-0.262,0.262-0.262,0.679,0,0.94L113.651,20.155z"/>
		<path fill="#2E5328" d="M113.651,24.788c0.261,0.261,0.685,0.261,0.941,0c0.261-0.259,0.261-0.681,0-0.939l-3.227-3.225
			c-0.258-0.261-0.682-0.261-0.938,0c-0.262,0.261-0.262,0.681,0,0.941L113.651,24.788z"/>
		<path fill="#2E5328" d="M113.651,29.425c0.261,0.261,0.685,0.261,0.941,0c0.261-0.261,0.261-0.683,0-0.938l-3.227-3.228
			c-0.258-0.261-0.682-0.261-0.938,0c-0.262,0.261-0.262,0.683,0,0.941L113.651,29.425z"/>
		<path fill="#2E5328" d="M113.651,34.061c0.261,0.261,0.685,0.261,0.941,0c0.261-0.26,0.261-0.679,0-0.939l-3.227-3.223
			c-0.258-0.264-0.682-0.264-0.938,0c-0.262,0.259-0.262,0.678,0,0.939L113.651,34.061z"/>
		<path fill="#2E5328" d="M113.651,38.697c0.261,0.261,0.685,0.261,0.941,0c0.261-0.262,0.261-0.681,0-0.941l-3.227-3.223
			c-0.258-0.262-0.682-0.262-0.938,0c-0.262,0.256-0.262,0.68,0,0.941L113.651,38.697z"/>
		<path fill="#2E5328" d="M119.532,24.086c0,0.368-0.296,0.666-0.664,0.666s-0.663-0.298-0.663-0.666v-1.594
			c0-0.366,0.295-0.666,0.663-0.666s0.664,0.3,0.664,0.666V24.086z"/>
		<path fill="#2E5328" d="M119.532,19.554c0,0.368-0.296,0.666-0.664,0.666s-0.663-0.298-0.663-0.666v-1.592
			c0-0.368,0.295-0.666,0.663-0.666s0.664,0.298,0.664,0.666V19.554z"/>
		<path fill="#2E5328" d="M119.532,29.083c0,0.365-0.296,0.661-0.664,0.661s-0.663-0.296-0.663-0.661v-1.597
			c0-0.366,0.295-0.666,0.663-0.666s0.664,0.3,0.664,0.666V29.083z"/>
		<path fill="#2E5328" d="M119.532,34.077c0,0.366-0.296,0.665-0.664,0.665s-0.663-0.299-0.663-0.665v-1.595
			c0-0.367,0.295-0.667,0.663-0.667s0.664,0.3,0.664,0.667V34.077z"/>
		<path fill="#2E5328" d="M119.532,39.074c0,0.363-0.296,0.661-0.664,0.661s-0.663-0.298-0.663-0.661v-1.595
			c0-0.37,0.295-0.665,0.663-0.665s0.664,0.295,0.664,0.665V39.074z"/>
	</g>
	<g>
		<g>
			<rect x="37.603" y="103.557" fill="#2075BC" width="14.016" height="36.629"/>
			<rect x="28.011" y="103.557" fill-rule="evenodd" clip-rule="evenodd" fill="#29AAE1" width="9.592" height="36.629"/>
			<rect x="30.727" y="130.205" fill="#FFFFFF" width="4.667" height="7.811"/>
		</g>
		<g>
			<rect x="50.067" y="103.557" fill="#046938" width="14.014" height="36.629"/>
			<rect x="40.474" y="103.557" fill-rule="evenodd" clip-rule="evenodd" fill="#8EC641" width="9.594" height="36.629"/>
			<rect x="43.191" y="130.205" fill="#FFFFFF" width="4.667" height="7.811"/>
		</g>
		<g>
			<rect x="62.737" y="95.397" fill="#652930" width="14.016" height="44.788"/>
			<rect x="53.146" y="95.397" fill-rule="evenodd" clip-rule="evenodd" fill="#BE202E" width="9.591" height="44.788"/>
			<rect x="55.862" y="105.182" fill="#FFFFFF" width="4.666" height="27.835"/>
		</g>
		<g>
			<rect x="75.758" y="103.557" fill="#2075BC" width="14.017" height="36.629"/>
			<rect x="66.167" y="103.557" fill-rule="evenodd" clip-rule="evenodd" fill="#29AAE1" width="9.591" height="36.629"/>
			<rect x="68.883" y="130.205" fill="#FFFFFF" width="4.667" height="7.811"/>
		</g>
	</g>
	<g>
		<rect x="31.388" y="244.305" fill="#2075BC" width="14.017" height="36.627"/>
		<rect x="21.797" y="244.305" fill-rule="evenodd" clip-rule="evenodd" fill="#29AAE1" width="9.591" height="36.627"/>
		<rect x="24.513" y="270.951" fill="#FFFFFF" width="4.667" height="7.811"/>
	</g>
	<g>
		<rect x="43.853" y="244.305" fill="#046938" width="14.014" height="36.627"/>
		<rect x="34.26" y="244.305" fill-rule="evenodd" clip-rule="evenodd" fill="#8EC641" width="9.593" height="36.627"/>
		<rect x="36.978" y="270.951" fill="#FFFFFF" width="4.666" height="7.811"/>
	</g>
	<g>
		<rect x="40.662" y="173.652" fill="#046938" width="14.015" height="36.627"/>
		<rect x="31.069" y="173.652" fill-rule="evenodd" clip-rule="evenodd" fill="#8EC641" width="9.593" height="36.627"/>
		<rect x="33.786" y="200.299" fill="#FFFFFF" width="4.668" height="7.811"/>
	</g>
	<g>
		<rect x="129.122" y="165.491" fill="#652930" width="14.017" height="44.788"/>
		<rect x="119.532" y="165.491" fill-rule="evenodd" clip-rule="evenodd" fill="#BE202E" width="9.59" height="44.788"/>
		<rect x="122.247" y="175.274" fill="#FFFFFF" width="4.667" height="27.836"/>
	</g>
	<g>
		<rect x="69.544" y="244.305" fill="#2075BC" width="14.016" height="36.627"/>
		<rect x="59.953" y="244.305" fill-rule="evenodd" clip-rule="evenodd" fill="#29AAE1" width="9.591" height="36.627"/>
		<rect x="62.669" y="270.951" fill="#FFFFFF" width="4.667" height="7.811"/>
	</g>
	<g>
		<g>
			<rect x="118.87" y="244.303" fill="#2075BC" width="14.017" height="36.629"/>
			<rect x="109.279" y="244.303" fill-rule="evenodd" clip-rule="evenodd" fill="#29AAE1" width="9.591" height="36.629"/>
			<rect x="111.995" y="270.951" fill="#FFFFFF" width="4.667" height="7.811"/>
		</g>
		<g>
			<rect x="131.335" y="244.303" fill="#046938" width="14.014" height="36.629"/>
			<rect x="121.741" y="244.303" fill-rule="evenodd" clip-rule="evenodd" fill="#8EC641" width="9.594" height="36.629"/>
			<rect x="124.46" y="270.951" fill="#FFFFFF" width="4.667" height="7.811"/>
		</g>
		<g>
			<rect x="144.005" y="236.142" fill="#652930" width="14.017" height="44.79"/>
			<rect x="134.415" y="236.142" fill-rule="evenodd" clip-rule="evenodd" fill="#BE202E" width="9.59" height="44.79"/>
			<rect x="137.13" y="245.927" fill="#FFFFFF" width="4.667" height="27.836"/>
		</g>
		<g>
			<rect x="157.026" y="244.303" fill="#2075BC" width="14.016" height="36.629"/>
			<rect x="147.436" y="244.303" fill-rule="evenodd" clip-rule="evenodd" fill="#29AAE1" width="9.591" height="36.629"/>
			<rect x="150.151" y="270.951" fill="#FFFFFF" width="4.667" height="7.811"/>
		</g>
	</g>
	<g>
		<rect x="58.083" y="165.489" fill="#046938" width="14.014" height="44.79"/>
		<rect x="48.489" y="165.489" fill-rule="evenodd" clip-rule="evenodd" fill="#8EC641" width="9.594" height="44.79"/>
		<rect x="51.207" y="200.299" fill="#FFFFFF" width="4.668" height="7.811"/>
	</g>
	<g>
		<rect x="143.427" y="165.489" fill="#652930" width="14.018" height="44.79"/>
		<rect x="133.837" y="165.489" fill-rule="evenodd" clip-rule="evenodd" fill="#BE202E" width="9.59" height="44.79"/>
		<rect x="136.552" y="175.274" fill="#FFFFFF" width="4.668" height="27.836"/>
	</g>
	<g>
		<g>
			<rect x="137.207" y="306.237" fill="#652930" width="14.016" height="44.788"/>
			<rect x="127.616" y="306.237" fill-rule="evenodd" clip-rule="evenodd" fill="#BE202E" width="9.591" height="44.788"/>
			<rect x="130.332" y="316.021" fill="#FFFFFF" width="4.667" height="27.835"/>
		</g>
		<g>
			<rect x="151.223" y="306.237" fill="#652930" width="14.017" height="44.788"/>
			<rect x="141.632" y="306.237" fill-rule="evenodd" clip-rule="evenodd" fill="#BE202E" width="9.591" height="44.788"/>
			<rect x="144.348" y="316.021" fill="#FFFFFF" width="4.667" height="27.835"/>
		</g>
		<g>
			<rect x="165.528" y="306.235" fill="#652930" width="14.016" height="44.79"/>
			<rect x="155.938" y="306.235" fill-rule="evenodd" clip-rule="evenodd" fill="#BE202E" width="9.591" height="44.79"/>
			<rect x="158.653" y="316.021" fill="#FFFFFF" width="4.666" height="27.835"/>
		</g>
	</g>
	<g>
		<rect x="156.448" y="173.65" fill="#2075BC" width="14.017" height="36.629"/>
		<rect x="146.857" y="173.65" fill-rule="evenodd" clip-rule="evenodd" fill="#29AAE1" width="9.591" height="36.629"/>
		<rect x="149.573" y="200.299" fill="#FFFFFF" width="4.667" height="7.811"/>
	</g>
	<g>
		<rect x="72.099" y="173.65" fill="#2075BC" width="14.017" height="36.629"/>
		<rect x="62.508" y="173.65" fill-rule="evenodd" clip-rule="evenodd" fill="#29AAE1" width="9.591" height="36.629"/>
		<rect x="65.224" y="200.299" fill="#FFFFFF" width="4.667" height="7.811"/>
	</g>
	<g>
		<g>
			<g>
				<rect x="122.48" y="59.244" fill="#FAAF42" width="34.206" height="10.85"/>
				<rect x="156.687" y="59.244" fill="#8A5E3C" width="22.855" height="10.85"/>
				<rect x="159.403" y="60.982" fill="#FFFFFF" width="20.139" height="7.42"/>
			</g>
			<g>
				<rect x="124.988" y="61.191" fill="#F9FAE9" width="5.563" height="7.049"/>
			</g>
		</g>
		<g>
			<g>
				<rect x="122.48" y="48.395" fill="#BE202E" width="34.206" height="10.85"/>
				<rect x="156.687" y="48.395" fill="#652930" width="22.855" height="10.85"/>
				<rect x="159.403" y="50.787" fill="#FFFFFF" width="20.139" height="6.767"/>
			</g>
			<g>
				<rect x="124.988" y="50.342" fill="#F9FAE9" width="5.563" height="7.049"/>
			</g>
		</g>
		<g>
			<g>
				<rect x="122.48" y="37.546" fill="#FAAF42" width="34.206" height="10.849"/>
				<rect x="156.687" y="37.546" fill="#8A5E3C" width="22.855" height="10.849"/>
				<rect x="159.403" y="39.283" fill="#FFFFFF" width="20.139" height="7.42"/>
			</g>
			<g>
				<rect x="124.988" y="39.493" fill="#F9FAE9" width="5.563" height="7.049"/>
			</g>
		</g>
	</g>
	<g>
		<g>
			<g>
				<g>
					<rect x="32.71" y="340.176" fill="#FAAF42" width="34.206" height="10.85"/>
					<rect x="66.916" y="340.176" fill="#8A5E3C" width="22.856" height="10.85"/>
					<rect x="69.634" y="341.913" fill="#FFFFFF" width="20.139" height="7.421"/>
				</g>
				<g>
					<rect x="35.218" y="342.123" fill="#F9FAE9" width="5.564" height="7.049"/>
				</g>
			</g>
			<g>
				<g>
					<rect x="32.71" y="329.326" fill="#BE202E" width="34.206" height="10.85"/>
					<rect x="66.916" y="329.326" fill="#652930" width="22.856" height="10.85"/>
					<rect x="69.634" y="331.719" fill="#FFFFFF" width="20.139" height="6.767"/>
				</g>
				<g>
					<rect x="35.218" y="331.273" fill="#F9FAE9" width="5.564" height="7.049"/>
				</g>
			</g>
			<g>
				<g>
					<rect x="32.71" y="318.478" fill="#FAAF42" width="34.206" height="10.849"/>
					<rect x="66.916" y="318.478" fill="#8A5E3C" width="22.856" height="10.849"/>
					<rect x="69.634" y="320.215" fill="#FFFFFF" width="20.139" height="7.419"/>
				</g>
				<g>
					<rect x="35.218" y="320.425" fill="#F9FAE9" width="5.564" height="7.049"/>
				</g>
			</g>
		</g>
		<g>
			<g>
				<rect x="55.566" y="307.629" fill="#8A5E3C" width="34.206" height="10.849"/>
				<rect x="32.71" y="307.629" fill="#FAAF42" width="22.856" height="10.849"/>
				<rect x="32.71" y="309.366" fill="#FFFFFF" width="20.139" height="7.421"/>
			</g>
			<g>
				<rect x="81.7" y="309.576" fill="#F9FAE9" width="5.564" height="7.048"/>
			</g>
		</g>
		<g>
			<g>
				<rect x="55.566" y="296.779" fill="#652930" width="34.206" height="10.85"/>
				<rect x="32.71" y="296.779" fill="#BE202E" width="22.856" height="10.85"/>
				<rect x="32.71" y="299.172" fill="#FFFFFF" width="20.139" height="6.766"/>
			</g>
			<g>
				<rect x="81.7" y="298.727" fill="#F9FAE9" width="5.564" height="7.049"/>
			</g>
		</g>
	</g>
	<g>
		<g>
			<g>
				<rect x="42.548" y="59.244" fill="#8A5E3C" width="34.205" height="10.85"/>
				<rect x="19.691" y="59.244" fill="#FAAF42" width="22.856" height="10.85"/>
				<rect x="19.691" y="60.982" fill="#FFFFFF" width="20.139" height="7.42"/>
			</g>
			<g>
				<rect x="68.682" y="61.191" fill="#F9FAE9" width="5.563" height="7.049"/>
			</g>
		</g>
		<g>
			<g>
				<rect x="42.548" y="48.395" fill="#652930" width="34.205" height="10.85"/>
				<rect x="19.691" y="48.395" fill="#BE202E" width="22.856" height="10.85"/>
				<rect x="19.691" y="50.787" fill="#FFFFFF" width="20.139" height="6.767"/>
			</g>
			<g>
				<rect x="68.682" y="50.342" fill="#F9FAE9" width="5.563" height="7.049"/>
			</g>
		</g>
	</g>
</g>
</svg>
