<?xml version="1.0" encoding="utf-8"?>
<!-- Generator: Adobe Illustrator 16.0.0, SVG Export Plug-In . SVG Version: 6.00 Build 0)  -->
<!DOCTYPE svg PUBLIC "-//W3C//DTD SVG 1.1//EN" "http://www.w3.org/Graphics/SVG/1.1/DTD/svg11.dtd">
<svg version="1.1" id="Layer_1" xmlns="http://www.w3.org/2000/svg" xmlns:xlink="http://www.w3.org/1999/xlink" x="0px" y="0px"
	 width="188px" height="468px" viewBox="0 0 188 468" enable-background="new 0 0 188 468" xml:space="preserve">
<g>
	<polygon fill="#9BADC2" points="21,15 0,15 0,468 22,468 	"/>
	<polygon fill="#9BADC2" points="167,16 188,16 188,468 166,468 	"/>
	<polygon fill="#5F80A5" points="21.326,10 8,16 8,468 36,468 	"/>
	<polygon fill="#5F80A5" points="137.091,10 179,16 179,468 151,468 	"/>
	<g opacity="0.5">
		<defs>
			<polygon id="SVGID_1_" opacity="0.5" points="137.091,10 179,16 179,468 151,468 			"/>
		</defs>
		<clipPath id="SVGID_2_">
			<use xlink:href="#SVGID_1_"  overflow="visible"/>
		</clipPath>
		<line clip-path="url(#SVGID_2_)" fill="none" stroke="#5F80A5" stroke-miterlimit="10" x1="179" y1="468" x2="137.091" y2="462"/>
		<line clip-path="url(#SVGID_2_)" fill="none" stroke="#5F80A5" stroke-miterlimit="10" x1="179" y1="457" x2="137.091" y2="451"/>
		<line clip-path="url(#SVGID_2_)" fill="none" stroke="#5F80A5" stroke-miterlimit="10" x1="179" y1="447" x2="137.091" y2="441"/>
		<line clip-path="url(#SVGID_2_)" fill="none" stroke="#5F80A5" stroke-miterlimit="10" x1="179" y1="437" x2="137.091" y2="431"/>
		<line clip-path="url(#SVGID_2_)" fill="none" stroke="#5F80A5" stroke-miterlimit="10" x1="179" y1="427" x2="137.091" y2="421"/>
		<line clip-path="url(#SVGID_2_)" fill="none" stroke="#5F80A5" stroke-miterlimit="10" x1="179" y1="417" x2="137.091" y2="411"/>
		<line clip-path="url(#SVGID_2_)" fill="none" stroke="#5F80A5" stroke-miterlimit="10" x1="179" y1="407" x2="137.091" y2="401"/>
		<line clip-path="url(#SVGID_2_)" fill="none" stroke="#5F80A5" stroke-miterlimit="10" x1="179" y1="397" x2="137.091" y2="391"/>
		<line clip-path="url(#SVGID_2_)" fill="none" stroke="#5F80A5" stroke-miterlimit="10" x1="179" y1="387" x2="137.091" y2="381"/>
		<line clip-path="url(#SVGID_2_)" fill="none" stroke="#5F80A5" stroke-miterlimit="10" x1="179" y1="377" x2="137.091" y2="371"/>
		<line clip-path="url(#SVGID_2_)" fill="none" stroke="#5F80A5" stroke-miterlimit="10" x1="179" y1="367" x2="137.091" y2="361"/>
		<line clip-path="url(#SVGID_2_)" fill="none" stroke="#5F80A5" stroke-miterlimit="10" x1="179" y1="357" x2="137.091" y2="351"/>
		<line clip-path="url(#SVGID_2_)" fill="none" stroke="#5F80A5" stroke-miterlimit="10" x1="179" y1="347" x2="137.091" y2="341"/>
		<line clip-path="url(#SVGID_2_)" fill="none" stroke="#5F80A5" stroke-miterlimit="10" x1="179" y1="337" x2="137.091" y2="331"/>
		<line clip-path="url(#SVGID_2_)" fill="none" stroke="#5F80A5" stroke-miterlimit="10" x1="179" y1="327" x2="137.091" y2="321"/>
		<line clip-path="url(#SVGID_2_)" fill="none" stroke="#5F80A5" stroke-miterlimit="10" x1="179" y1="317" x2="137.091" y2="311"/>
		<line clip-path="url(#SVGID_2_)" fill="none" stroke="#5F80A5" stroke-miterlimit="10" x1="179" y1="307" x2="137.091" y2="301"/>
		<line clip-path="url(#SVGID_2_)" fill="none" stroke="#5F80A5" stroke-miterlimit="10" x1="179" y1="297" x2="137.091" y2="291"/>
		<line clip-path="url(#SVGID_2_)" fill="none" stroke="#5F80A5" stroke-miterlimit="10" x1="179" y1="287" x2="137.091" y2="281"/>
		<line clip-path="url(#SVGID_2_)" fill="none" stroke="#5F80A5" stroke-miterlimit="10" x1="179" y1="277" x2="137.091" y2="271"/>
		<line clip-path="url(#SVGID_2_)" fill="none" stroke="#5F80A5" stroke-miterlimit="10" x1="179" y1="267" x2="137.091" y2="261"/>
		<line clip-path="url(#SVGID_2_)" fill="none" stroke="#5F80A5" stroke-miterlimit="10" x1="179" y1="257" x2="137.091" y2="251"/>
		<line clip-path="url(#SVGID_2_)" fill="none" stroke="#5F80A5" stroke-miterlimit="10" x1="179" y1="247" x2="137.091" y2="241"/>
		<line clip-path="url(#SVGID_2_)" fill="none" stroke="#5F80A5" stroke-miterlimit="10" x1="179" y1="237" x2="137.091" y2="231"/>
		<line clip-path="url(#SVGID_2_)" fill="none" stroke="#5F80A5" stroke-miterlimit="10" x1="179" y1="227" x2="137.091" y2="221"/>
		<line clip-path="url(#SVGID_2_)" fill="none" stroke="#5F80A5" stroke-miterlimit="10" x1="179" y1="217" x2="137.091" y2="211"/>
		<line clip-path="url(#SVGID_2_)" fill="none" stroke="#5F80A5" stroke-miterlimit="10" x1="179" y1="207" x2="137.091" y2="201"/>
		<line clip-path="url(#SVGID_2_)" fill="none" stroke="#5F80A5" stroke-miterlimit="10" x1="179" y1="196" x2="137.091" y2="190"/>
		<line clip-path="url(#SVGID_2_)" fill="none" stroke="#5F80A5" stroke-miterlimit="10" x1="179" y1="186" x2="137.091" y2="180"/>
		<line clip-path="url(#SVGID_2_)" fill="none" stroke="#5F80A5" stroke-miterlimit="10" x1="179" y1="176" x2="137.091" y2="170"/>
		<line clip-path="url(#SVGID_2_)" fill="none" stroke="#5F80A5" stroke-miterlimit="10" x1="179" y1="166" x2="137.091" y2="160"/>
		<line clip-path="url(#SVGID_2_)" fill="none" stroke="#5F80A5" stroke-miterlimit="10" x1="179" y1="156" x2="137.091" y2="150"/>
		<line clip-path="url(#SVGID_2_)" fill="none" stroke="#5F80A5" stroke-miterlimit="10" x1="179" y1="146" x2="137.091" y2="140"/>
		<line clip-path="url(#SVGID_2_)" fill="none" stroke="#5F80A5" stroke-miterlimit="10" x1="179" y1="136" x2="137.091" y2="130"/>
		<line clip-path="url(#SVGID_2_)" fill="none" stroke="#5F80A5" stroke-miterlimit="10" x1="179" y1="126" x2="137.091" y2="120"/>
		<line clip-path="url(#SVGID_2_)" fill="none" stroke="#5F80A5" stroke-miterlimit="10" x1="179" y1="116" x2="137.091" y2="110"/>
		<line clip-path="url(#SVGID_2_)" fill="none" stroke="#5F80A5" stroke-miterlimit="10" x1="179" y1="106" x2="137.091" y2="100"/>
		<line clip-path="url(#SVGID_2_)" fill="none" stroke="#5F80A5" stroke-miterlimit="10" x1="179" y1="96" x2="137.091" y2="90"/>
		<line clip-path="url(#SVGID_2_)" fill="none" stroke="#5F80A5" stroke-miterlimit="10" x1="179" y1="86" x2="137.091" y2="80"/>
		<line clip-path="url(#SVGID_2_)" fill="none" stroke="#5F80A5" stroke-miterlimit="10" x1="179" y1="76" x2="137.091" y2="70"/>
		<line clip-path="url(#SVGID_2_)" fill="none" stroke="#5F80A5" stroke-miterlimit="10" x1="179" y1="66" x2="137.091" y2="60"/>
		<line clip-path="url(#SVGID_2_)" fill="none" stroke="#5F80A5" stroke-miterlimit="10" x1="179" y1="56" x2="137.091" y2="50"/>
		<line clip-path="url(#SVGID_2_)" fill="none" stroke="#5F80A5" stroke-miterlimit="10" x1="179" y1="46" x2="137.091" y2="40"/>
		<line clip-path="url(#SVGID_2_)" fill="none" stroke="#5F80A5" stroke-miterlimit="10" x1="179" y1="36" x2="137.091" y2="30"/>
		<line clip-path="url(#SVGID_2_)" fill="none" stroke="#5F80A5" stroke-miterlimit="10" x1="179" y1="26" x2="137.091" y2="20"/>
		<line clip-path="url(#SVGID_2_)" fill="none" stroke="#5F80A5" stroke-miterlimit="10" x1="179" y1="16" x2="137.091" y2="10"/>
	</g>
	<g opacity="0.5">
		<defs>
			<polygon id="SVGID_3_" opacity="0.5" points="49.954,10 8,16 8,468 36.091,468 			"/>
		</defs>
		<clipPath id="SVGID_4_">
			<use xlink:href="#SVGID_3_"  overflow="visible"/>
		</clipPath>
		<line clip-path="url(#SVGID_4_)" fill="none" stroke="#5F80A5" stroke-miterlimit="10" x1="8.091" y1="468" x2="50" y2="462"/>
		<line clip-path="url(#SVGID_4_)" fill="none" stroke="#5F80A5" stroke-miterlimit="10" x1="8.091" y1="457" x2="50" y2="451"/>
		<line clip-path="url(#SVGID_4_)" fill="none" stroke="#5F80A5" stroke-miterlimit="10" x1="8.091" y1="447" x2="50" y2="441"/>
		<line clip-path="url(#SVGID_4_)" fill="none" stroke="#5F80A5" stroke-miterlimit="10" x1="8.091" y1="437" x2="50" y2="431"/>
		<line clip-path="url(#SVGID_4_)" fill="none" stroke="#5F80A5" stroke-miterlimit="10" x1="8.091" y1="427" x2="50" y2="421"/>
		<line clip-path="url(#SVGID_4_)" fill="none" stroke="#5F80A5" stroke-miterlimit="10" x1="8.091" y1="417" x2="50" y2="411"/>
		<line clip-path="url(#SVGID_4_)" fill="none" stroke="#5F80A5" stroke-miterlimit="10" x1="8.091" y1="407" x2="50" y2="401"/>
		<line clip-path="url(#SVGID_4_)" fill="none" stroke="#5F80A5" stroke-miterlimit="10" x1="8.091" y1="397" x2="50" y2="391"/>
		<line clip-path="url(#SVGID_4_)" fill="none" stroke="#5F80A5" stroke-miterlimit="10" x1="8.091" y1="387" x2="50" y2="381"/>
		<line clip-path="url(#SVGID_4_)" fill="none" stroke="#5F80A5" stroke-miterlimit="10" x1="8.091" y1="377" x2="50" y2="371"/>
		<line clip-path="url(#SVGID_4_)" fill="none" stroke="#5F80A5" stroke-miterlimit="10" x1="8.091" y1="367" x2="50" y2="361"/>
		<line clip-path="url(#SVGID_4_)" fill="none" stroke="#5F80A5" stroke-miterlimit="10" x1="8.091" y1="357" x2="50" y2="351"/>
		<line clip-path="url(#SVGID_4_)" fill="none" stroke="#5F80A5" stroke-miterlimit="10" x1="8.091" y1="347" x2="50" y2="341"/>
		<line clip-path="url(#SVGID_4_)" fill="none" stroke="#5F80A5" stroke-miterlimit="10" x1="8.091" y1="337" x2="50" y2="331"/>
		<line clip-path="url(#SVGID_4_)" fill="none" stroke="#5F80A5" stroke-miterlimit="10" x1="8.091" y1="327" x2="50" y2="321"/>
		<line clip-path="url(#SVGID_4_)" fill="none" stroke="#5F80A5" stroke-miterlimit="10" x1="8.091" y1="317" x2="50" y2="311"/>
		<line clip-path="url(#SVGID_4_)" fill="none" stroke="#5F80A5" stroke-miterlimit="10" x1="8.091" y1="307" x2="50" y2="301"/>
		<line clip-path="url(#SVGID_4_)" fill="none" stroke="#5F80A5" stroke-miterlimit="10" x1="8.091" y1="297" x2="50" y2="291"/>
		<line clip-path="url(#SVGID_4_)" fill="none" stroke="#5F80A5" stroke-miterlimit="10" x1="8.091" y1="287" x2="50" y2="281"/>
		<line clip-path="url(#SVGID_4_)" fill="none" stroke="#5F80A5" stroke-miterlimit="10" x1="8.091" y1="277" x2="50" y2="271"/>
		<line clip-path="url(#SVGID_4_)" fill="none" stroke="#5F80A5" stroke-miterlimit="10" x1="8.091" y1="267" x2="50" y2="261"/>
		<line clip-path="url(#SVGID_4_)" fill="none" stroke="#5F80A5" stroke-miterlimit="10" x1="8.091" y1="257" x2="50" y2="251"/>
		<line clip-path="url(#SVGID_4_)" fill="none" stroke="#5F80A5" stroke-miterlimit="10" x1="8.091" y1="247" x2="50" y2="241"/>
		<line clip-path="url(#SVGID_4_)" fill="none" stroke="#5F80A5" stroke-miterlimit="10" x1="8.091" y1="237" x2="50" y2="231"/>
		<line clip-path="url(#SVGID_4_)" fill="none" stroke="#5F80A5" stroke-miterlimit="10" x1="8.091" y1="227" x2="50" y2="221"/>
		<line clip-path="url(#SVGID_4_)" fill="none" stroke="#5F80A5" stroke-miterlimit="10" x1="8.091" y1="217" x2="50" y2="211"/>
		<line clip-path="url(#SVGID_4_)" fill="none" stroke="#5F80A5" stroke-miterlimit="10" x1="8.091" y1="207" x2="50" y2="201"/>
		<line clip-path="url(#SVGID_4_)" fill="none" stroke="#5F80A5" stroke-miterlimit="10" x1="8.091" y1="196" x2="50" y2="190"/>
		<line clip-path="url(#SVGID_4_)" fill="none" stroke="#5F80A5" stroke-miterlimit="10" x1="8.091" y1="186" x2="50" y2="180"/>
		<line clip-path="url(#SVGID_4_)" fill="none" stroke="#5F80A5" stroke-miterlimit="10" x1="8.091" y1="176" x2="50" y2="170"/>
		<line clip-path="url(#SVGID_4_)" fill="none" stroke="#5F80A5" stroke-miterlimit="10" x1="8.091" y1="166" x2="50" y2="160"/>
		<line clip-path="url(#SVGID_4_)" fill="none" stroke="#5F80A5" stroke-miterlimit="10" x1="8.091" y1="156" x2="50" y2="150"/>
		<line clip-path="url(#SVGID_4_)" fill="none" stroke="#5F80A5" stroke-miterlimit="10" x1="8.091" y1="146" x2="50" y2="140"/>
		<line clip-path="url(#SVGID_4_)" fill="none" stroke="#5F80A5" stroke-miterlimit="10" x1="8.091" y1="136" x2="50" y2="130"/>
		<line clip-path="url(#SVGID_4_)" fill="none" stroke="#5F80A5" stroke-miterlimit="10" x1="8.091" y1="126" x2="50" y2="120"/>
		<line clip-path="url(#SVGID_4_)" fill="none" stroke="#5F80A5" stroke-miterlimit="10" x1="8.091" y1="116" x2="50" y2="110"/>
		<line clip-path="url(#SVGID_4_)" fill="none" stroke="#5F80A5" stroke-miterlimit="10" x1="8.091" y1="106" x2="50" y2="100"/>
		<line clip-path="url(#SVGID_4_)" fill="none" stroke="#5F80A5" stroke-miterlimit="10" x1="8.091" y1="96" x2="50" y2="90"/>
		<line clip-path="url(#SVGID_4_)" fill="none" stroke="#5F80A5" stroke-miterlimit="10" x1="8.091" y1="86" x2="50" y2="80"/>
		<line clip-path="url(#SVGID_4_)" fill="none" stroke="#5F80A5" stroke-miterlimit="10" x1="8.091" y1="76" x2="50" y2="70"/>
		<line clip-path="url(#SVGID_4_)" fill="none" stroke="#5F80A5" stroke-miterlimit="10" x1="8.091" y1="66" x2="50" y2="60"/>
		<line clip-path="url(#SVGID_4_)" fill="none" stroke="#5F80A5" stroke-miterlimit="10" x1="8.091" y1="56" x2="50" y2="50"/>
		<line clip-path="url(#SVGID_4_)" fill="none" stroke="#5F80A5" stroke-miterlimit="10" x1="8.091" y1="46" x2="50" y2="40"/>
		<line clip-path="url(#SVGID_4_)" fill="none" stroke="#5F80A5" stroke-miterlimit="10" x1="8.091" y1="36" x2="50" y2="30"/>
		<line clip-path="url(#SVGID_4_)" fill="none" stroke="#5F80A5" stroke-miterlimit="10" x1="8.091" y1="26" x2="50" y2="20"/>
		<line clip-path="url(#SVGID_4_)" fill="none" stroke="#5F80A5" stroke-miterlimit="10" x1="8.091" y1="16" x2="50" y2="10"/>
	</g>
	<polygon fill="#FAEBE1" points="146,1 21.596,1 21.596,331 31.596,468 166,468 166,166 	"/>
	<polygon fill="#9BADC2" points="136,1 31.596,1 31.596,331 41.596,468 156,468 156,166 	"/>
	<g opacity="0.5">
		<defs>
			<polygon id="SVGID_5_" opacity="0.5" points="136,1 31.596,1 31.596,331 41.596,468 156,468 156,166 			"/>
		</defs>
		<clipPath id="SVGID_6_">
			<use xlink:href="#SVGID_5_"  overflow="visible"/>
		</clipPath>
		<line clip-path="url(#SVGID_6_)" fill="none" stroke="#5F80A5" stroke-miterlimit="10" x1="155.5" y1="1" x2="155.5" y2="468"/>
		<line clip-path="url(#SVGID_6_)" fill="none" stroke="#5F80A5" stroke-miterlimit="10" x1="145.5" y1="1" x2="145.5" y2="468"/>
		<line clip-path="url(#SVGID_6_)" fill="none" stroke="#5F80A5" stroke-miterlimit="10" x1="35.5" y1="1" x2="35.5" y2="468"/>
		<line clip-path="url(#SVGID_6_)" fill="none" stroke="#5F80A5" stroke-miterlimit="10" x1="45.5" y1="1" x2="45.5" y2="468"/>
		<line clip-path="url(#SVGID_6_)" fill="none" stroke="#5F80A5" stroke-miterlimit="10" x1="55.5" y1="1" x2="55.5" y2="468"/>
		<line clip-path="url(#SVGID_6_)" fill="none" stroke="#5F80A5" stroke-miterlimit="10" x1="65.5" y1="1" x2="65.5" y2="468"/>
		<line clip-path="url(#SVGID_6_)" fill="none" stroke="#5F80A5" stroke-miterlimit="10" x1="75.5" y1="1" x2="75.5" y2="468"/>
		<line clip-path="url(#SVGID_6_)" fill="none" stroke="#5F80A5" stroke-miterlimit="10" x1="85.5" y1="1" x2="85.5" y2="468"/>
		<line clip-path="url(#SVGID_6_)" fill="none" stroke="#5F80A5" stroke-miterlimit="10" x1="95.5" y1="1" x2="95.5" y2="468"/>
		<line clip-path="url(#SVGID_6_)" fill="none" stroke="#5F80A5" stroke-miterlimit="10" x1="105.5" y1="1" x2="105.5" y2="468"/>
		<line clip-path="url(#SVGID_6_)" fill="none" stroke="#5F80A5" stroke-miterlimit="10" x1="115.5" y1="1" x2="115.5" y2="468"/>
		<line clip-path="url(#SVGID_6_)" fill="none" stroke="#5F80A5" stroke-miterlimit="10" x1="125.5" y1="1" x2="125.5" y2="468"/>
		<line clip-path="url(#SVGID_6_)" fill="none" stroke="#5F80A5" stroke-miterlimit="10" x1="135.5" y1="1" x2="135.5" y2="468"/>
		<g clip-path="url(#SVGID_6_)">
			<line fill="none" stroke="#5F80A5" stroke-miterlimit="10" x1="166" y1="462.5" x2="22" y2="462.5"/>
			<line fill="none" stroke="#5F80A5" stroke-miterlimit="10" x1="166" y1="452.5" x2="22" y2="452.5"/>
		</g>
		<g clip-path="url(#SVGID_6_)">
			<line fill="none" stroke="#5F80A5" stroke-miterlimit="10" x1="166" y1="432.5" x2="22" y2="432.5"/>
			<line fill="none" stroke="#5F80A5" stroke-miterlimit="10" x1="166" y1="422.5" x2="22" y2="422.5"/>
		</g>
		<g clip-path="url(#SVGID_6_)">
			<line fill="none" stroke="#5F80A5" stroke-miterlimit="10" x1="166" y1="401.5" x2="22" y2="401.5"/>
			<line fill="none" stroke="#5F80A5" stroke-miterlimit="10" x1="166" y1="391.5" x2="22" y2="391.5"/>
		</g>
		<g clip-path="url(#SVGID_6_)">
			<line fill="none" stroke="#5F80A5" stroke-miterlimit="10" x1="166" y1="371.5" x2="22" y2="371.5"/>
			<line fill="none" stroke="#5F80A5" stroke-miterlimit="10" x1="166" y1="361.5" x2="22" y2="361.5"/>
		</g>
		<g clip-path="url(#SVGID_6_)">
			<line fill="none" stroke="#5F80A5" stroke-miterlimit="10" x1="166" y1="341.5" x2="22" y2="341.5"/>
			<line fill="none" stroke="#5F80A5" stroke-miterlimit="10" x1="166" y1="331.5" x2="22" y2="331.5"/>
		</g>
		<g clip-path="url(#SVGID_6_)">
			<line fill="none" stroke="#5F80A5" stroke-miterlimit="10" x1="166" y1="311.5" x2="22" y2="311.5"/>
			<line fill="none" stroke="#5F80A5" stroke-miterlimit="10" x1="166" y1="301.5" x2="22" y2="301.5"/>
		</g>
		<g clip-path="url(#SVGID_6_)">
			<line fill="none" stroke="#5F80A5" stroke-miterlimit="10" x1="166" y1="281.5" x2="22" y2="281.5"/>
			<line fill="none" stroke="#5F80A5" stroke-miterlimit="10" x1="166" y1="271.5" x2="22" y2="271.5"/>
		</g>
		<g clip-path="url(#SVGID_6_)">
			<line fill="none" stroke="#5F80A5" stroke-miterlimit="10" x1="166" y1="251.5" x2="22" y2="251.5"/>
			<line fill="none" stroke="#5F80A5" stroke-miterlimit="10" x1="166" y1="241.5" x2="22" y2="241.5"/>
		</g>
		<g clip-path="url(#SVGID_6_)">
			<line fill="none" stroke="#5F80A5" stroke-miterlimit="10" x1="166" y1="221.5" x2="22" y2="221.5"/>
			<line fill="none" stroke="#5F80A5" stroke-miterlimit="10" x1="166" y1="211.5" x2="22" y2="211.5"/>
		</g>
		<g clip-path="url(#SVGID_6_)">
			<line fill="none" stroke="#5F80A5" stroke-miterlimit="10" x1="166" y1="191.5" x2="22" y2="191.5"/>
			<line fill="none" stroke="#5F80A5" stroke-miterlimit="10" x1="166" y1="181.5" x2="22" y2="181.5"/>
		</g>
		<g clip-path="url(#SVGID_6_)">
			<line fill="none" stroke="#5F80A5" stroke-miterlimit="10" x1="166" y1="161.5" x2="22" y2="161.5"/>
			<line fill="none" stroke="#5F80A5" stroke-miterlimit="10" x1="166" y1="151.5" x2="22" y2="151.5"/>
		</g>
		<g clip-path="url(#SVGID_6_)">
			<line fill="none" stroke="#5F80A5" stroke-miterlimit="10" x1="166" y1="131.5" x2="22" y2="131.5"/>
			<line fill="none" stroke="#5F80A5" stroke-miterlimit="10" x1="166" y1="121.5" x2="22" y2="121.5"/>
		</g>
		<g clip-path="url(#SVGID_6_)">
			<line fill="none" stroke="#5F80A5" stroke-miterlimit="10" x1="166" y1="101.5" x2="22" y2="101.5"/>
			<line fill="none" stroke="#5F80A5" stroke-miterlimit="10" x1="166" y1="91.5" x2="22" y2="91.5"/>
		</g>
		<g clip-path="url(#SVGID_6_)">
			<line fill="none" stroke="#5F80A5" stroke-miterlimit="10" x1="166" y1="71.5" x2="22" y2="71.5"/>
			<line fill="none" stroke="#5F80A5" stroke-miterlimit="10" x1="166" y1="61.5" x2="22" y2="61.5"/>
		</g>
		<g clip-path="url(#SVGID_6_)">
			<line fill="none" stroke="#5F80A5" stroke-miterlimit="10" x1="166" y1="41.5" x2="22" y2="41.5"/>
			<line fill="none" stroke="#5F80A5" stroke-miterlimit="10" x1="166" y1="31.5" x2="22" y2="31.5"/>
		</g>
		<g clip-path="url(#SVGID_6_)">
			<line fill="none" stroke="#5F80A5" stroke-miterlimit="10" x1="166" y1="11.5" x2="22" y2="11.5"/>
			<line fill="none" stroke="#5F80A5" stroke-miterlimit="10" x1="166" y1="1.5" x2="22" y2="1.5"/>
		</g>
	</g>
	<g>
		<g>
			<path fill="#9BADC2" d="M101.851,19.615c-0.996-0.557-2.505,0.162-3.368,1.605c-0.86,1.441-0.753,3.063,0.247,3.621
				c0.995,0.558,2.502-0.16,3.364-1.603C102.957,21.796,102.848,20.174,101.851,19.615"/>
			<path fill="#9BADC2" d="M99.302,36.637v-6.158c0-1.674-0.202-2.624-0.742-3.49c-0.784-1.34-2.146-1.968-4.055-1.968
				c-2.179,0-3.738,0.759-4.958,2.435l-0.014-0.012v-1.918h-2.426h-0.565h-2.96v0.896l0.162,0.001
				c1.772,0.029,1.967,0.221,1.967,2.528v7.687c0,2.422-0.168,2.586-2.021,2.61l-0.133,0.003v0.983h8.15V39.25l-0.163-0.003
				c-1.824-0.024-1.994-0.161-1.994-2.61v-5.549c0-0.887,0.309-1.993,0.756-2.777c0.695-1.152,1.682-1.748,2.819-1.748
				c1.619,0,2.365,1.086,2.365,4.082v5.992c0,2.395-0.198,2.586-1.994,2.61l-0.165,0.003v0.983h8.156V39.25l-0.162-0.003
				C99.467,39.223,99.302,39.059,99.302,36.637"/>
			<path fill="#9BADC2" d="M49.15,25.156c-1.003,0-1.843,0.191-2.573,0.598v1.377c0.548-0.525,1.214-0.817,1.897-0.817
				c1.818,0,3.537,2.14,3.537,6.616c0,4.471-1.77,6.59-3.678,6.59c-3.092,0-3.148-2.859-3.272-3.568c0,0-0.019-16.501,0-16.845
				h-1.856H39v0.952h0.164c1.851,0,2.009,0.436,2.009,2.778v11.992c0,4.683,5.072,5.659,6.984,5.659c4.32,0,7.932-3.038,7.932-8.021
				C56.089,27.894,53.133,25.156,49.15,25.156"/>
			<path fill="#9BADC2" d="M76.812,25.356c-1.745,0-2.984,0.512-4.181,1.68v-1.502l-6.053,0.007v1.165
				c1.521,0.021,2.052,0.195,2.128,1.678v17.585c-0.069,1.452-0.411,1.559-1.972,1.6l-0.156,0.005v0.964h8.196v-0.964l-0.155-0.005
				c-1.219-0.046-1.752-0.109-1.982-0.662v-16.01c0.411-2.81,1.575-4.352,3.273-4.352c1.822,0,2.912,2.087,2.912,6.479
				c0,4.516-1.139,6.563-3.251,6.563c-0.441,0-0.876-0.129-1.268-0.361v1.177c0.572,0.183,1.184,0.263,1.917,0.263
				c1.959,0,3.785-0.752,4.895-2.074c1.13-1.342,1.784-3.504,1.784-5.947C82.899,28.046,80.714,25.356,76.812,25.356"/>
			<path fill="#9BADC2" d="M62.656,32.276c0.007-0.035,0.01-0.067,0.01-0.102v-5.459h2.843v-1.185h-2.843v-4.305h-1.628
				l-0.022,0.137c-0.253,1.352-0.528,2.116-1.019,2.854c-0.619,0.935-1.662,1.316-2.854,1.37l-0.602,0.007v1.122h2.055v4.862
				l0.007,0.158c-0.007,4.41-0.14,5.765,0.721,6.826c0.715,0.886,2.123,2.074,5.188,2.074c0.732,0,1.349-0.078,1.917-0.259v-1.179
				c-0.391,0.229-0.826,0.36-1.269,0.36C62.607,39.56,62.656,38.18,62.656,32.276"/>
			<path fill="#9BADC2" d="M80.797,15.415c0.154-0.234,0.334-0.429,0.539-0.594c0.219-0.164,0.465-0.292,0.743-0.378
				c0.281-0.096,0.586-0.141,0.921-0.141c0.354,0,0.678,0.049,0.972,0.153c0.312,0.104,0.572,0.261,0.79,0.474
				c0.23,0.204,0.402,0.455,0.52,0.76c0.126,0.297,0.188,0.635,0.188,1.017v4.149c0,0.08-0.075,0.153-0.159,0.153h-0.25
				c-0.087,0-0.161-0.073-0.161-0.153v-4.113c0-0.352-0.053-0.64-0.152-0.867c-0.1-0.239-0.238-0.434-0.412-0.578
				c-0.168-0.154-0.372-0.266-0.601-0.332c-0.227-0.076-0.471-0.116-0.733-0.116c-0.367,0-0.683,0.07-0.952,0.204
				c-0.272,0.128-0.503,0.305-0.691,0.53c-0.181,0.219-0.319,0.477-0.415,0.778c-0.096,0.301-0.145,0.618-0.145,0.953v3.541
				c0,0.08-0.074,0.153-0.158,0.153h-0.252c-0.082,0-0.157-0.073-0.157-0.153V14.6c0-0.078,0.075-0.151,0.157-0.151h0.252
				c0.084,0,0.158,0.073,0.158,0.151V15.415z"/>
			<path fill="#9BADC2" d="M67.31,18.852c0.112,0.351,0.271,0.651,0.478,0.913c0.212,0.259,0.474,0.462,0.78,0.615
				c0.306,0.15,0.648,0.226,1.038,0.226c0.4,0,0.742-0.076,1.024-0.225c0.299-0.152,0.542-0.356,0.728-0.611
				c0.199-0.269,0.351-0.577,0.445-0.926c0.107-0.35,0.158-0.72,0.158-1.104c0-0.352-0.048-0.701-0.146-1.045
				c-0.089-0.35-0.228-0.658-0.418-0.927c-0.189-0.272-0.436-0.494-0.735-0.662c-0.281-0.168-0.632-0.257-1.056-0.257
				c-0.75,0-1.339,0.248-1.785,0.739c-0.448,0.482-0.682,1.193-0.682,2.151C67.139,18.131,67.195,18.502,67.31,18.852
				 M67.139,19.803v1.054c0,0.081-0.073,0.15-0.156,0.15h-0.253c-0.084,0-0.157-0.069-0.157-0.15v-8.689
				c0-0.083,0.073-0.153,0.157-0.153h0.253c0.083,0,0.156,0.07,0.156,0.153v3.449c0.167-0.289,0.391-0.544,0.663-0.757
				c0.48-0.373,1.086-0.557,1.804-0.557c0.468,0,0.894,0.093,1.262,0.284c0.366,0.189,0.669,0.442,0.912,0.762
				c0.245,0.317,0.432,0.681,0.554,1.093c0.131,0.413,0.197,0.846,0.197,1.299c0,0.483-0.066,0.932-0.197,1.348
				c-0.132,0.413-0.325,0.775-0.585,1.085c-0.249,0.3-0.557,0.538-0.923,0.711c-0.36,0.174-0.767,0.259-1.22,0.259
				c-0.695,0-1.289-0.183-1.777-0.557C67.546,20.363,67.315,20.104,67.139,19.803"/>
			<path fill="#9BADC2" d="M78.158,17.5c-0.061,0.038-0.132,0.07-0.205,0.098c-0.187,0.058-0.399,0.106-0.636,0.141
				c-0.233,0.033-0.487,0.053-0.763,0.061c-0.261,0.009-0.514,0.021-0.766,0.039c-0.245,0.015-0.489,0.047-0.726,0.094
				c-0.214,0.035-0.409,0.112-0.573,0.222c-0.16,0.095-0.29,0.238-0.389,0.427c-0.093,0.174-0.148,0.416-0.148,0.735
				c0,0.161,0.028,0.319,0.081,0.485c0.058,0.147,0.149,0.275,0.286,0.401c0.135,0.115,0.304,0.213,0.529,0.298
				c0.22,0.072,0.5,0.112,0.842,0.112c0.401,0,0.754-0.068,1.06-0.196c0.313-0.129,0.566-0.299,0.769-0.5
				c0.213-0.214,0.37-0.457,0.474-0.728c0.109-0.276,0.165-0.559,0.165-0.848V17.5z M78.158,20.023l-0.069,0.09
				c-0.157,0.202-0.354,0.377-0.592,0.533c-0.234,0.157-0.501,0.275-0.802,0.359c-0.303,0.095-0.627,0.141-0.98,0.141
				c-0.678,0-1.24-0.143-1.671-0.441c-0.441-0.318-0.657-0.791-0.657-1.39c0-0.403,0.066-0.743,0.209-1.008
				c0.145-0.255,0.334-0.46,0.568-0.604c0.231-0.153,0.486-0.25,0.777-0.302c0.276-0.061,0.552-0.097,0.826-0.115l1.15-0.058
				c0.313-0.024,0.559-0.064,0.745-0.115c0.191-0.06,0.309-0.138,0.378-0.226c0.07-0.096,0.117-0.241,0.117-0.459
				c0-0.179-0.016-0.365-0.047-0.559c-0.031-0.179-0.107-0.342-0.227-0.492c-0.105-0.146-0.271-0.27-0.502-0.365
				c-0.227-0.104-0.541-0.16-0.96-0.16c-0.658,0-1.145,0.16-1.486,0.451c-0.341,0.283-0.538,0.693-0.578,1.247
				c-0.005,0.071-0.081,0.14-0.158,0.14h-0.251c-0.091,0-0.166-0.073-0.158-0.158c0.016-0.311,0.083-0.6,0.2-0.867
				c0.119-0.278,0.287-0.52,0.506-0.723c0.228-0.201,0.5-0.356,0.81-0.469c0.325-0.113,0.698-0.167,1.116-0.167
				c0.297,0,0.579,0.028,0.844,0.089c0.282,0.06,0.526,0.17,0.74,0.33c0.216,0.154,0.384,0.355,0.513,0.601
				c0.13,0.254,0.198,0.563,0.207,0.919v4.614c0,0.08-0.077,0.151-0.159,0.151h-0.251c-0.085,0-0.158-0.071-0.158-0.151V20.023z"/>
			<path fill="#9BADC2" d="M92.31,20.885l-2.941-3.929l2.269-2.29c0,0,0.088-0.084,0.081-0.125
				c-0.006-0.028-0.046-0.057-0.073-0.057c0,0-0.453,0.007-0.488,0.007c-0.156,0-0.251,0.11-0.251,0.11l-3.36,3.233v-5.683
				c0-0.082-0.076-0.152-0.158-0.152h-0.31c-0.083,0-0.156,0.07-0.156,0.152v8.706c0,0.079,0.073,0.151,0.156,0.151h0.31
				c0.085,0,0.158-0.072,0.158-0.151v-2.226l1.34-1.251l2.58,3.524c0.041,0.057,0.084,0.097,0.21,0.097
				c0.124,0,0.547-0.003,0.547-0.003c0.03-0.004,0.078-0.023,0.092-0.047C92.326,20.931,92.323,20.904,92.31,20.885"/>
		</g>
		<g>
			<path fill="#EE8122" d="M101.851,17.615c-0.996-0.557-2.505,0.162-3.368,1.605c-0.86,1.441-0.753,3.063,0.247,3.621
				c0.995,0.558,2.502-0.16,3.364-1.603C102.957,19.796,102.848,18.174,101.851,17.615"/>
			<path fill="#EE8122" d="M99.302,34.637v-6.158c0-1.674-0.202-2.624-0.742-3.49c-0.784-1.34-2.146-1.968-4.055-1.968
				c-2.179,0-3.738,0.759-4.958,2.435l-0.014-0.012v-1.918h-2.426h-0.565h-2.96v0.896l0.162,0.001
				c1.772,0.029,1.967,0.221,1.967,2.528v7.687c0,2.422-0.168,2.586-2.021,2.61l-0.133,0.003v0.983h8.15V37.25l-0.163-0.003
				c-1.824-0.024-1.994-0.161-1.994-2.61v-5.549c0-0.887,0.309-1.993,0.756-2.777c0.695-1.152,1.682-1.748,2.819-1.748
				c1.619,0,2.365,1.086,2.365,4.082v5.992c0,2.395-0.198,2.586-1.994,2.61l-0.165,0.003v0.983h8.156V37.25l-0.162-0.003
				C99.467,37.223,99.302,37.059,99.302,34.637"/>
			<path fill="#EE8122" d="M49.15,23.156c-1.003,0-1.843,0.191-2.573,0.598v1.377c0.548-0.525,1.214-0.817,1.897-0.817
				c1.818,0,3.537,2.14,3.537,6.616c0,4.471-1.77,6.59-3.678,6.59c-3.092,0-3.148-2.859-3.272-3.568c0,0-0.019-16.501,0-16.845
				h-1.856H39v0.952h0.164c1.851,0,2.009,0.436,2.009,2.778v11.992c0,4.683,5.072,5.659,6.984,5.659c4.32,0,7.932-3.038,7.932-8.021
				C56.089,25.894,53.133,23.156,49.15,23.156"/>
			<path fill="#EE8122" d="M76.812,23.356c-1.745,0-2.984,0.512-4.181,1.68v-1.502l-6.053,0.007v1.165
				c1.521,0.021,2.052,0.195,2.128,1.678v17.585c-0.069,1.452-0.411,1.559-1.972,1.6l-0.156,0.005v0.964h8.196v-0.964l-0.155-0.005
				c-1.219-0.046-1.752-0.109-1.982-0.662v-16.01c0.411-2.81,1.575-4.352,3.273-4.352c1.822,0,2.912,2.087,2.912,6.479
				c0,4.516-1.139,6.563-3.251,6.563c-0.441,0-0.876-0.129-1.268-0.361v1.177c0.572,0.183,1.184,0.263,1.917,0.263
				c1.959,0,3.785-0.752,4.895-2.074c1.13-1.342,1.784-3.504,1.784-5.947C82.899,26.046,80.714,23.356,76.812,23.356"/>
			<path fill="#EE8122" d="M62.656,30.276c0.007-0.035,0.01-0.067,0.01-0.102v-5.459h2.843v-1.185h-2.843v-4.305h-1.628
				l-0.022,0.137c-0.253,1.352-0.528,2.116-1.019,2.854c-0.619,0.935-1.662,1.316-2.854,1.37l-0.602,0.007v1.122h2.055v4.862
				l0.007,0.158c-0.007,4.41-0.14,5.765,0.721,6.826c0.715,0.886,2.123,2.074,5.188,2.074c0.732,0,1.349-0.078,1.917-0.259v-1.179
				c-0.391,0.229-0.826,0.36-1.269,0.36C62.607,37.56,62.656,36.18,62.656,30.276"/>
			<path fill="#7E6B57" d="M80.797,13.415c0.154-0.234,0.334-0.429,0.539-0.594c0.219-0.164,0.465-0.292,0.743-0.378
				c0.281-0.096,0.586-0.141,0.921-0.141c0.354,0,0.678,0.049,0.972,0.153c0.312,0.104,0.572,0.261,0.79,0.474
				c0.23,0.204,0.402,0.455,0.52,0.76c0.126,0.297,0.188,0.635,0.188,1.017v4.149c0,0.08-0.075,0.153-0.159,0.153h-0.25
				c-0.087,0-0.161-0.073-0.161-0.153v-4.113c0-0.352-0.053-0.64-0.152-0.867c-0.1-0.239-0.238-0.434-0.412-0.578
				c-0.168-0.154-0.372-0.266-0.601-0.332c-0.227-0.076-0.471-0.116-0.733-0.116c-0.367,0-0.683,0.07-0.952,0.204
				c-0.272,0.128-0.503,0.305-0.691,0.53c-0.181,0.219-0.319,0.477-0.415,0.778c-0.096,0.301-0.145,0.618-0.145,0.953v3.541
				c0,0.08-0.074,0.153-0.158,0.153h-0.252c-0.082,0-0.157-0.073-0.157-0.153V12.6c0-0.078,0.075-0.151,0.157-0.151h0.252
				c0.084,0,0.158,0.073,0.158,0.151V13.415z"/>
			<path fill="#7E6B57" d="M67.31,16.852c0.112,0.351,0.271,0.651,0.478,0.913c0.212,0.259,0.474,0.462,0.78,0.615
				c0.306,0.15,0.648,0.226,1.038,0.226c0.4,0,0.742-0.076,1.024-0.225c0.299-0.152,0.542-0.356,0.728-0.611
				c0.199-0.269,0.351-0.577,0.445-0.926c0.107-0.35,0.158-0.72,0.158-1.104c0-0.352-0.048-0.701-0.146-1.045
				c-0.089-0.35-0.228-0.658-0.418-0.927c-0.189-0.272-0.436-0.494-0.735-0.662c-0.281-0.168-0.632-0.257-1.056-0.257
				c-0.75,0-1.339,0.248-1.785,0.739c-0.448,0.482-0.682,1.193-0.682,2.151C67.139,16.131,67.195,16.502,67.31,16.852
				 M67.139,17.803v1.054c0,0.081-0.073,0.15-0.156,0.15h-0.253c-0.084,0-0.157-0.069-0.157-0.15v-8.689
				c0-0.083,0.073-0.153,0.157-0.153h0.253c0.083,0,0.156,0.07,0.156,0.153v3.449c0.167-0.289,0.391-0.544,0.663-0.757
				c0.48-0.373,1.086-0.557,1.804-0.557c0.468,0,0.894,0.093,1.262,0.284c0.366,0.189,0.669,0.442,0.912,0.762
				c0.245,0.317,0.432,0.681,0.554,1.093c0.131,0.413,0.197,0.846,0.197,1.299c0,0.483-0.066,0.932-0.197,1.348
				c-0.132,0.413-0.325,0.775-0.585,1.085c-0.249,0.3-0.557,0.538-0.923,0.711c-0.36,0.174-0.767,0.259-1.22,0.259
				c-0.695,0-1.289-0.183-1.777-0.557C67.546,18.363,67.315,18.104,67.139,17.803"/>
			<path fill="#7E6B57" d="M78.158,15.5c-0.061,0.038-0.132,0.07-0.205,0.098c-0.187,0.058-0.399,0.106-0.636,0.141
				c-0.233,0.033-0.487,0.053-0.763,0.061c-0.261,0.009-0.514,0.021-0.766,0.039c-0.245,0.015-0.489,0.047-0.726,0.094
				c-0.214,0.035-0.409,0.112-0.573,0.222c-0.16,0.095-0.29,0.238-0.389,0.427c-0.093,0.174-0.148,0.416-0.148,0.735
				c0,0.161,0.028,0.319,0.081,0.485c0.058,0.147,0.149,0.275,0.286,0.401c0.135,0.115,0.304,0.213,0.529,0.298
				c0.22,0.072,0.5,0.112,0.842,0.112c0.401,0,0.754-0.068,1.06-0.196c0.313-0.129,0.566-0.299,0.769-0.5
				c0.213-0.214,0.37-0.457,0.474-0.728c0.109-0.276,0.165-0.559,0.165-0.848V15.5z M78.158,18.023l-0.069,0.09
				c-0.157,0.202-0.354,0.377-0.592,0.533c-0.234,0.157-0.501,0.275-0.802,0.359c-0.303,0.095-0.627,0.141-0.98,0.141
				c-0.678,0-1.24-0.143-1.671-0.441c-0.441-0.318-0.657-0.791-0.657-1.39c0-0.403,0.066-0.743,0.209-1.008
				c0.145-0.255,0.334-0.46,0.568-0.604c0.231-0.153,0.486-0.25,0.777-0.302c0.276-0.061,0.552-0.097,0.826-0.115l1.15-0.058
				c0.313-0.024,0.559-0.064,0.745-0.115c0.191-0.06,0.309-0.138,0.378-0.226c0.07-0.096,0.117-0.241,0.117-0.459
				c0-0.179-0.016-0.365-0.047-0.559c-0.031-0.179-0.107-0.342-0.227-0.492c-0.105-0.146-0.271-0.27-0.502-0.365
				c-0.227-0.104-0.541-0.16-0.96-0.16c-0.658,0-1.145,0.16-1.486,0.451c-0.341,0.283-0.538,0.693-0.578,1.247
				c-0.005,0.071-0.081,0.14-0.158,0.14h-0.251c-0.091,0-0.166-0.073-0.158-0.158c0.016-0.311,0.083-0.6,0.2-0.867
				c0.119-0.278,0.287-0.52,0.506-0.723c0.228-0.201,0.5-0.356,0.81-0.469c0.325-0.113,0.698-0.167,1.116-0.167
				c0.297,0,0.579,0.028,0.844,0.089c0.282,0.06,0.526,0.17,0.74,0.33c0.216,0.154,0.384,0.355,0.513,0.601
				c0.13,0.254,0.198,0.563,0.207,0.919v4.614c0,0.08-0.077,0.151-0.159,0.151h-0.251c-0.085,0-0.158-0.071-0.158-0.151V18.023z"/>
			<path fill="#7E6B57" d="M92.31,18.885l-2.941-3.929l2.269-2.29c0,0,0.088-0.084,0.081-0.125
				c-0.006-0.028-0.046-0.057-0.073-0.057c0,0-0.453,0.007-0.488,0.007c-0.156,0-0.251,0.11-0.251,0.11l-3.36,3.233v-5.683
				c0-0.082-0.076-0.152-0.158-0.152h-0.31c-0.083,0-0.156,0.07-0.156,0.152v8.706c0,0.079,0.073,0.151,0.156,0.151h0.31
				c0.085,0,0.158-0.072,0.158-0.151v-2.226l1.34-1.251l2.58,3.524c0.041,0.057,0.084,0.097,0.21,0.097
				c0.124,0,0.547-0.003,0.547-0.003c0.03-0.004,0.078-0.023,0.092-0.047C92.326,18.931,92.323,18.904,92.31,18.885"/>
		</g>
	</g>
</g>
</svg>
