<?xml version="1.0" encoding="utf-8"?>
<!-- Generator: Adobe Illustrator 16.0.0, SVG Export Plug-In . SVG Version: 6.00 Build 0)  -->
<!DOCTYPE svg PUBLIC "-//W3C//DTD SVG 1.1//EN" "http://www.w3.org/Graphics/SVG/1.1/DTD/svg11.dtd">
<svg version="1.1" id="Layer_1" xmlns="http://www.w3.org/2000/svg" xmlns:xlink="http://www.w3.org/1999/xlink" x="0px" y="0px"
	 width="93.667px" height="56.666px" viewBox="0 0 93.667 56.666" enable-background="new 0 0 93.667 56.666" xml:space="preserve">
<g>
	<path fill="#EE8122" d="M957.305-104.921c-1.376-0.771-3.462,0.224-4.655,2.22c-1.189,1.992-1.041,4.233,0.341,5.006
		c1.375,0.77,3.459-0.223,4.65-2.217C958.834-101.906,958.685-104.149,957.305-104.921"/>
	<path fill="#EE8122" d="M953.781-81.392v-8.513c0-2.314-0.279-3.627-1.025-4.825c-1.084-1.853-2.967-2.72-5.604-2.72
		c-3.013,0-5.168,1.049-6.854,3.365l-0.019-0.017v-2.651h-3.354h-0.78h-4.093v1.238l0.226,0.001
		c2.448,0.041,2.719,0.306,2.719,3.496v10.625c0,3.347-0.232,3.574-2.796,3.608l-0.184,0.005v1.358h11.268v-1.358l-0.227-0.005
		c-2.521-0.034-2.756-0.222-2.756-3.608v-7.67c0-1.226,0.427-2.756,1.046-3.839c0.96-1.594,2.323-2.417,3.896-2.417
		c2.238,0,3.27,1.501,3.27,5.643v8.283c0,3.31-0.274,3.574-2.757,3.608l-0.228,0.005v1.358h11.274v-1.358l-0.224-0.005
		C954.011-77.817,953.781-78.045,953.781-81.392"/>
	<path fill="#EE8122" d="M884.453-97.262c-1.386,0-2.547,0.265-3.556,0.827v1.903c0.757-0.727,1.677-1.131,2.622-1.131
		c2.515,0,4.89,2.958,4.89,9.146c0,6.18-2.445,9.11-5.085,9.11c-4.273,0-4.352-3.953-4.523-4.934c0,0-0.024-22.811,0-23.286h-2.566
		h-5.813v1.317h0.228c2.558,0,2.777,0.601,2.777,3.84v16.577c0,6.474,7.011,7.823,9.653,7.823c5.973,0,10.966-4.199,10.966-11.088
		C894.046-93.478,889.96-97.262,884.453-97.262"/>
	<path fill="#EE8122" d="M922.692-96.984c-2.412,0-4.125,0.707-5.779,2.321v-2.077l-8.367,0.011v1.61
		c2.102,0.029,2.835,0.27,2.94,2.319v24.309c-0.096,2.007-0.568,2.153-2.724,2.211l-0.217,0.007v1.332h11.33v-1.332l-0.215-0.007
		c-1.684-0.063-2.423-0.151-2.741-0.915v-22.133c0.568-3.883,2.178-6.014,4.526-6.014c2.519,0,4.024,2.885,4.024,8.955
		c0,6.243-1.573,9.073-4.493,9.073c-0.61,0-1.212-0.181-1.753-0.5v1.627c0.791,0.252,1.638,0.362,2.651,0.362
		c2.706,0,5.232-1.041,6.765-2.867c1.563-1.854,2.468-4.844,2.468-8.221C931.108-93.267,928.086-96.984,922.692-96.984"/>
	<path fill="#EE8122" d="M903.123-87.42c0.01-0.048,0.014-0.092,0.014-0.14v-7.546h3.931v-1.639h-3.931v-5.951h-2.25l-0.03,0.19
		c-0.351,1.868-0.73,2.926-1.409,3.945c-0.854,1.291-2.296,1.819-3.945,1.894l-0.832,0.008v1.553h2.841v6.721l0.009,0.219
		c-0.009,6.098-0.192,7.97,0.996,9.437c0.988,1.225,2.936,2.867,7.172,2.867c1.012,0,1.863-0.108,2.65-0.358v-1.629
		c-0.541,0.316-1.142,0.499-1.754,0.499C903.057-77.351,903.123-79.259,903.123-87.42"/>
	<path fill="#7E6B57" d="M928.201-110.728c0.213-0.325,0.462-0.593,0.745-0.821c0.302-0.227,0.642-0.404,1.026-0.521
		c0.39-0.133,0.811-0.195,1.274-0.195c0.487,0,0.938,0.068,1.343,0.213c0.43,0.145,0.791,0.36,1.092,0.653
		c0.319,0.283,0.557,0.631,0.72,1.05c0.173,0.412,0.257,0.879,0.257,1.407v5.735c0,0.111-0.104,0.212-0.219,0.212h-0.345
		c-0.122,0-0.224-0.101-0.224-0.212v-5.687c0-0.485-0.074-0.884-0.21-1.197c-0.139-0.333-0.331-0.601-0.571-0.801
		c-0.231-0.213-0.513-0.366-0.829-0.458c-0.313-0.105-0.65-0.162-1.014-0.162c-0.509,0-0.944,0.099-1.317,0.284
		c-0.377,0.175-0.695,0.421-0.955,0.732c-0.25,0.303-0.441,0.658-0.573,1.075c-0.134,0.416-0.2,0.855-0.2,1.318v4.895
		c0,0.111-0.104,0.212-0.218,0.212h-0.351c-0.113,0-0.217-0.101-0.217-0.212v-8.648c0-0.107,0.104-0.208,0.217-0.208h0.351
		c0.114,0,0.218,0.101,0.218,0.208V-110.728z"/>
	<path fill="#7E6B57" d="M909.557-105.978c0.155,0.485,0.373,0.901,0.661,1.263c0.293,0.357,0.653,0.639,1.078,0.85
		c0.422,0.209,0.896,0.313,1.436,0.313c0.553,0,1.024-0.105,1.416-0.311c0.412-0.211,0.748-0.492,1.005-0.844
		c0.276-0.372,0.484-0.799,0.615-1.281c0.148-0.483,0.219-0.994,0.219-1.524c0-0.487-0.066-0.97-0.203-1.444
		c-0.122-0.484-0.314-0.912-0.578-1.283c-0.261-0.375-0.602-0.682-1.016-0.914c-0.389-0.232-0.872-0.355-1.458-0.355
		c-1.037,0-1.852,0.344-2.469,1.022c-0.619,0.667-0.942,1.649-0.942,2.975C909.32-106.973,909.399-106.461,909.557-105.978
		 M909.32-104.662v1.457c0,0.112-0.102,0.208-0.217,0.208h-0.35c-0.115,0-0.217-0.096-0.217-0.208v-12.013
		c0-0.114,0.102-0.212,0.217-0.212h0.35c0.115,0,0.217,0.098,0.217,0.212v4.769c0.23-0.4,0.54-0.752,0.916-1.047
		c0.665-0.516,1.502-0.77,2.495-0.77c0.646,0,1.233,0.129,1.743,0.394c0.507,0.261,0.925,0.61,1.26,1.052
		c0.34,0.44,0.598,0.941,0.767,1.512c0.181,0.571,0.273,1.17,0.273,1.796c0,0.667-0.093,1.288-0.273,1.862
		c-0.183,0.571-0.45,1.071-0.809,1.5c-0.345,0.414-0.771,0.742-1.276,0.982c-0.498,0.24-1.06,0.357-1.685,0.357
		c-0.962,0-1.784-0.252-2.457-0.77C909.883-103.887,909.565-104.246,909.32-104.662"/>
	<path fill="#7E6B57" d="M924.553-107.846c-0.084,0.053-0.182,0.098-0.283,0.135c-0.257,0.08-0.552,0.147-0.879,0.194
		c-0.322,0.046-0.673,0.074-1.055,0.085c-0.358,0.012-0.708,0.028-1.058,0.053c-0.339,0.021-0.677,0.065-1.002,0.129
		c-0.297,0.051-0.566,0.156-0.793,0.308c-0.221,0.132-0.401,0.33-0.537,0.591c-0.129,0.239-0.206,0.575-0.206,1.016
		c0,0.223,0.04,0.441,0.111,0.67c0.08,0.205,0.208,0.382,0.396,0.557c0.187,0.158,0.42,0.293,0.731,0.41
		c0.304,0.102,0.69,0.156,1.164,0.156c0.554,0,1.042-0.095,1.465-0.271c0.431-0.179,0.782-0.414,1.062-0.691
		c0.295-0.296,0.512-0.632,0.654-1.007c0.153-0.381,0.229-0.771,0.229-1.171V-107.846z M924.553-104.357l-0.096,0.125
		c-0.217,0.279-0.488,0.521-0.818,0.736c-0.323,0.218-0.691,0.381-1.107,0.498c-0.419,0.129-0.867,0.193-1.354,0.193
		c-0.938,0-1.715-0.197-2.312-0.611c-0.609-0.438-0.908-1.092-0.908-1.92c0-0.557,0.092-1.027,0.29-1.393
		c0.199-0.354,0.46-0.637,0.784-0.835c0.32-0.212,0.672-0.346,1.075-0.417c0.382-0.084,0.763-0.135,1.142-0.158l1.59-0.08
		c0.435-0.035,0.774-0.09,1.031-0.16c0.264-0.082,0.427-0.191,0.521-0.313c0.098-0.131,0.162-0.333,0.162-0.634
		c0-0.247-0.021-0.504-0.064-0.772c-0.042-0.246-0.148-0.473-0.312-0.681c-0.146-0.2-0.376-0.372-0.695-0.505
		c-0.313-0.143-0.748-0.221-1.327-0.221c-0.909,0-1.582,0.221-2.055,0.624c-0.47,0.39-0.743,0.958-0.799,1.724
		c-0.007,0.099-0.113,0.192-0.219,0.192h-0.348c-0.124,0-0.229-0.101-0.219-0.219c0.021-0.429,0.115-0.827,0.278-1.197
		c0.163-0.386,0.396-0.72,0.699-0.999c0.313-0.279,0.691-0.493,1.119-0.648c0.449-0.156,0.965-0.231,1.542-0.231
		c0.411,0,0.801,0.04,1.166,0.122c0.392,0.084,0.729,0.235,1.024,0.457c0.299,0.214,0.531,0.491,0.708,0.83
		c0.181,0.352,0.274,0.779,0.285,1.271v6.379c0,0.111-0.104,0.209-0.219,0.209h-0.347c-0.118,0-0.22-0.098-0.22-0.209V-104.357z"/>
	<path fill="#7E6B57" d="M944.115-103.167l-4.066-5.431l3.137-3.165c0,0,0.121-0.116,0.111-0.173
		c-0.008-0.039-0.063-0.08-0.101-0.08c0,0-0.626,0.011-0.674,0.011c-0.218,0-0.349,0.153-0.349,0.153l-4.644,4.469v-7.855
		c0-0.112-0.106-0.211-0.219-0.211h-0.429c-0.115,0-0.217,0.099-0.217,0.211v12.035c0,0.11,0.102,0.209,0.217,0.209h0.429
		c0.117,0,0.219-0.099,0.219-0.209v-3.076l1.851-1.729l3.566,4.872c0.057,0.079,0.118,0.133,0.291,0.133s0.757-0.004,0.757-0.004
		c0.04-0.004,0.106-0.031,0.126-0.064C944.139-103.103,944.135-103.139,944.115-103.167"/>
</g>
<g>
	<path fill="#EE8122" d="M89.756,13.881c-1.376-0.771-3.462,0.224-4.655,2.22c-1.189,1.992-1.041,4.233,0.341,5.006
		c1.375,0.77,3.459-0.223,4.65-2.217C91.285,16.896,91.136,14.653,89.756,13.881"/>
	<path fill="#EE8122" d="M86.232,37.411v-8.513c0-2.314-0.279-3.627-1.025-4.825c-1.084-1.853-2.967-2.72-5.604-2.72
		c-3.013,0-5.168,1.049-6.854,3.365l-0.019-0.017V22.05h-3.354h-0.78h-4.093v1.238l0.226,0.001c2.448,0.041,2.719,0.306,2.719,3.496
		v10.625c0,3.347-0.232,3.574-2.796,3.608l-0.184,0.005v1.358h11.268v-1.358l-0.227-0.005c-2.521-0.034-2.756-0.222-2.756-3.608
		v-7.67c0-1.226,0.427-2.756,1.046-3.839c0.96-1.594,2.323-2.417,3.896-2.417c2.238,0,3.27,1.501,3.27,5.643v8.283
		c0,3.31-0.274,3.574-2.757,3.608l-0.228,0.005v1.358h11.274v-1.358l-0.224-0.005C86.462,40.985,86.232,40.757,86.232,37.411"/>
	<path fill="#EE8122" d="M16.904,21.541c-1.386,0-2.547,0.265-3.556,0.827v1.903c0.757-0.727,1.677-1.131,2.622-1.131
		c2.515,0,4.89,2.958,4.89,9.146c0,6.18-2.445,9.11-5.085,9.11c-4.273,0-4.352-3.953-4.523-4.934c0,0-0.024-22.811,0-23.286H8.686
		H2.873v1.317h0.228c2.558,0,2.777,0.601,2.777,3.84v16.577c0,6.474,7.011,7.823,9.653,7.823c5.973,0,10.966-4.199,10.966-11.088
		C26.497,25.325,22.411,21.541,16.904,21.541"/>
	<path fill="#EE8122" d="M55.144,21.818c-2.412,0-4.125,0.707-5.779,2.321v-2.077l-8.367,0.011v1.61
		c2.102,0.029,2.835,0.27,2.94,2.319v24.309c-0.096,2.007-0.568,2.153-2.724,2.211l-0.217,0.007v1.332h11.33v-1.332l-0.215-0.007
		c-1.684-0.063-2.423-0.151-2.741-0.915V29.474c0.568-3.883,2.178-6.014,4.526-6.014c2.519,0,4.024,2.885,4.024,8.955
		c0,6.243-1.573,9.073-4.493,9.073c-0.61,0-1.212-0.181-1.753-0.5v1.627c0.791,0.252,1.638,0.362,2.651,0.362
		c2.706,0,5.232-1.041,6.765-2.867c1.563-1.854,2.468-4.844,2.468-8.221C63.56,25.536,60.537,21.818,55.144,21.818"/>
	<path fill="#EE8122" d="M35.574,31.382c0.01-0.048,0.014-0.092,0.014-0.14v-7.546h3.931v-1.639h-3.931v-5.951h-2.25l-0.03,0.19
		c-0.351,1.868-0.73,2.926-1.409,3.945c-0.854,1.291-2.296,1.819-3.945,1.894l-0.832,0.008v1.553h2.841v6.721l0.009,0.219
		c-0.009,6.098-0.192,7.97,0.996,9.437c0.988,1.225,2.936,2.867,7.172,2.867c1.012,0,1.863-0.108,2.65-0.358v-1.629
		c-0.541,0.316-1.142,0.499-1.754,0.499C35.508,41.452,35.574,39.543,35.574,31.382"/>
	<path fill="#7E6B57" d="M60.652,8.075c0.213-0.325,0.462-0.593,0.745-0.821c0.302-0.227,0.642-0.404,1.026-0.521
		c0.39-0.133,0.811-0.195,1.274-0.195c0.487,0,0.938,0.068,1.343,0.213c0.43,0.145,0.791,0.36,1.092,0.653
		c0.319,0.283,0.557,0.631,0.72,1.05c0.173,0.412,0.257,0.879,0.257,1.407v5.735c0,0.111-0.104,0.212-0.219,0.212h-0.345
		c-0.122,0-0.224-0.101-0.224-0.212V9.909c0-0.485-0.074-0.884-0.21-1.197c-0.139-0.333-0.331-0.601-0.571-0.801
		c-0.231-0.213-0.513-0.366-0.829-0.458c-0.313-0.105-0.65-0.162-1.014-0.162c-0.509,0-0.944,0.099-1.317,0.284
		c-0.377,0.175-0.695,0.421-0.955,0.732c-0.25,0.303-0.441,0.658-0.573,1.075c-0.134,0.416-0.2,0.855-0.2,1.318v4.895
		c0,0.111-0.104,0.212-0.218,0.212h-0.351c-0.113,0-0.217-0.101-0.217-0.212V6.947c0-0.107,0.104-0.208,0.217-0.208h0.351
		c0.114,0,0.218,0.101,0.218,0.208V8.075z"/>
	<path fill="#7E6B57" d="M42.008,12.825c0.155,0.485,0.373,0.901,0.661,1.263c0.293,0.357,0.653,0.639,1.078,0.85
		c0.422,0.209,0.896,0.313,1.436,0.313c0.553,0,1.024-0.105,1.416-0.311c0.412-0.211,0.748-0.492,1.005-0.844
		c0.276-0.372,0.484-0.799,0.615-1.281c0.148-0.483,0.219-0.994,0.219-1.524c0-0.487-0.066-0.97-0.203-1.444
		c-0.122-0.484-0.314-0.912-0.578-1.283c-0.261-0.375-0.602-0.682-1.016-0.914c-0.389-0.232-0.872-0.355-1.458-0.355
		c-1.037,0-1.852,0.344-2.469,1.022c-0.619,0.667-0.942,1.649-0.942,2.975C41.771,11.83,41.851,12.341,42.008,12.825 M41.771,14.14
		v1.457c0,0.112-0.102,0.208-0.217,0.208h-0.35c-0.115,0-0.217-0.096-0.217-0.208V3.584c0-0.114,0.102-0.212,0.217-0.212h0.35
		c0.115,0,0.217,0.098,0.217,0.212v4.769c0.23-0.4,0.54-0.752,0.916-1.047c0.665-0.516,1.502-0.77,2.495-0.77
		c0.646,0,1.233,0.129,1.743,0.394c0.507,0.261,0.925,0.61,1.26,1.052c0.34,0.44,0.598,0.941,0.767,1.512
		c0.181,0.571,0.273,1.17,0.273,1.796c0,0.667-0.093,1.288-0.273,1.862c-0.183,0.571-0.45,1.071-0.809,1.5
		c-0.345,0.414-0.771,0.742-1.276,0.982c-0.498,0.24-1.06,0.357-1.685,0.357c-0.962,0-1.784-0.252-2.457-0.77
		C42.334,14.916,42.017,14.556,41.771,14.14"/>
	<path fill="#7E6B57" d="M57.004,10.957c-0.084,0.053-0.182,0.098-0.283,0.135c-0.257,0.08-0.552,0.147-0.879,0.194
		c-0.322,0.046-0.673,0.074-1.055,0.085c-0.358,0.012-0.708,0.028-1.058,0.053c-0.339,0.021-0.677,0.065-1.002,0.129
		c-0.297,0.051-0.566,0.156-0.793,0.308c-0.221,0.132-0.401,0.33-0.537,0.591c-0.129,0.239-0.206,0.575-0.206,1.016
		c0,0.223,0.04,0.441,0.111,0.67c0.08,0.205,0.208,0.382,0.396,0.557c0.187,0.158,0.42,0.293,0.731,0.41
		c0.304,0.102,0.69,0.156,1.164,0.156c0.554,0,1.042-0.095,1.465-0.271c0.431-0.179,0.782-0.414,1.062-0.691
		c0.295-0.296,0.512-0.632,0.654-1.007c0.153-0.381,0.229-0.771,0.229-1.171V10.957z M57.004,14.445l-0.096,0.125
		c-0.217,0.279-0.488,0.521-0.818,0.736c-0.323,0.218-0.691,0.381-1.107,0.498c-0.419,0.129-0.867,0.193-1.354,0.193
		c-0.938,0-1.715-0.197-2.312-0.611c-0.609-0.438-0.908-1.092-0.908-1.92c0-0.557,0.092-1.027,0.29-1.393
		c0.199-0.354,0.46-0.637,0.784-0.835c0.32-0.212,0.672-0.346,1.075-0.417c0.382-0.084,0.763-0.135,1.142-0.158l1.59-0.08
		c0.435-0.035,0.774-0.09,1.031-0.16c0.264-0.082,0.427-0.191,0.521-0.313c0.098-0.131,0.162-0.333,0.162-0.634
		c0-0.247-0.021-0.504-0.064-0.772c-0.042-0.246-0.148-0.473-0.312-0.681c-0.146-0.2-0.376-0.372-0.695-0.505
		c-0.313-0.143-0.748-0.221-1.327-0.221c-0.909,0-1.582,0.221-2.055,0.624c-0.47,0.39-0.743,0.958-0.799,1.724
		c-0.007,0.099-0.113,0.192-0.219,0.192h-0.348c-0.124,0-0.229-0.101-0.219-0.219c0.021-0.429,0.115-0.827,0.278-1.197
		c0.163-0.386,0.396-0.72,0.699-0.999c0.313-0.279,0.691-0.493,1.119-0.648c0.449-0.156,0.965-0.231,1.542-0.231
		c0.411,0,0.801,0.04,1.166,0.122c0.392,0.084,0.729,0.235,1.024,0.457c0.299,0.214,0.531,0.491,0.708,0.83
		c0.181,0.352,0.274,0.779,0.285,1.271v6.379c0,0.111-0.104,0.209-0.219,0.209h-0.347c-0.118,0-0.22-0.098-0.22-0.209V14.445z"/>
	<path fill="#7E6B57" d="M76.566,15.635L72.5,10.205l3.137-3.165c0,0,0.121-0.116,0.111-0.173c-0.008-0.039-0.063-0.08-0.101-0.08
		c0,0-0.626,0.011-0.674,0.011c-0.218,0-0.349,0.153-0.349,0.153l-4.644,4.469V3.564c0-0.112-0.106-0.211-0.219-0.211h-0.429
		c-0.115,0-0.217,0.099-0.217,0.211v12.035c0,0.11,0.102,0.209,0.217,0.209h0.429c0.117,0,0.219-0.099,0.219-0.209v-3.076
		l1.851-1.729l3.566,4.872c0.057,0.079,0.118,0.133,0.291,0.133s0.757-0.004,0.757-0.004c0.04-0.004,0.106-0.031,0.126-0.064
		C76.59,15.7,76.586,15.664,76.566,15.635"/>
</g>
</svg>
