<?xml version="1.0" encoding="utf-8"?>
<!-- Generator: Adobe Illustrator 16.0.0, SVG Export Plug-In . SVG Version: 6.00 Build 0)  -->
<!DOCTYPE svg PUBLIC "-//W3C//DTD SVG 1.1//EN" "http://www.w3.org/Graphics/SVG/1.1/DTD/svg11.dtd">
<svg version="1.1" id="Layer_1" xmlns="http://www.w3.org/2000/svg" xmlns:xlink="http://www.w3.org/1999/xlink" x="0px" y="0px"
	 width="28.585px" height="16.621px" viewBox="0 0 28.585 16.621" enable-background="new 0 0 28.585 16.621" xml:space="preserve">
<g>
	<g>
		<path fill="#FAFCFD" d="M28.21,3.465c-0.453-0.253-1.14,0.074-1.532,0.73c-0.392,0.656-0.343,1.394,0.112,1.647
			c0.453,0.253,1.139-0.073,1.53-0.729C28.713,4.457,28.664,3.719,28.21,3.465"/>
		<path fill="#FAFCFD" d="M27.051,11.208V8.406c0-0.762-0.092-1.193-0.338-1.588c-0.356-0.609-0.977-0.895-1.845-0.895
			c-0.991,0-1.7,0.346-2.255,1.107l-0.007-0.006V6.153h-1.104h-0.257h-1.347v0.407h0.074c0.806,0.014,0.895,0.102,0.895,1.151v3.496
			c0,1.102-0.076,1.177-0.92,1.188h-0.06v0.447h3.707v-0.447h-0.074c-0.83-0.012-0.907-0.074-0.907-1.188V8.684
			c0-0.402,0.141-0.906,0.344-1.263c0.316-0.524,0.766-0.796,1.282-0.796c0.737,0,1.076,0.494,1.076,1.857v2.726
			c0,1.089-0.09,1.177-0.906,1.188h-0.076v0.447h3.711v-0.447h-0.074C27.126,12.385,27.051,12.31,27.051,11.208"/>
		<path fill="#FAFCFD" d="M4.236,5.985c-0.456,0-0.838,0.087-1.171,0.272v0.626c0.25-0.239,0.553-0.372,0.863-0.372
			c0.827,0,1.609,0.974,1.609,3.01c0,2.034-0.805,2.998-1.674,2.998c-1.406,0-1.432-1.301-1.488-1.623c0,0-0.008-7.507,0-7.662
			H1.531h-1.912v0.433h0.074c0.842,0,0.914,0.198,0.914,1.264v5.456c0,2.129,2.308,2.573,3.177,2.573
			c1.966,0,3.608-1.382,3.608-3.648C7.393,7.23,6.048,5.985,4.236,5.985"/>
		<path fill="#FAFCFD" d="M16.819,6.076c-0.794,0-1.357,0.233-1.901,0.765V6.157L12.164,6.16v0.531
			c0.691,0.009,0.934,0.088,0.969,0.762v8c-0.032,0.661-0.188,0.709-0.897,0.729l-0.071,0.002v0.438h3.729v-0.438l-0.07-0.002
			c-0.554-0.021-0.797-0.051-0.902-0.302V8.597c0.188-1.278,0.717-1.979,1.489-1.979c0.829,0,1.325,0.949,1.325,2.947
			c0,2.055-0.519,2.986-1.479,2.986c-0.2,0-0.398-0.061-0.576-0.165v0.535c0.261,0.083,0.539,0.12,0.872,0.12
			c0.891,0,1.722-0.344,2.227-0.943c0.515-0.611,0.812-1.595,0.812-2.706C19.589,7.301,18.595,6.076,16.819,6.076"/>
		<path fill="#FAFCFD" d="M10.38,9.225c0.003-0.016,0.005-0.031,0.005-0.047V6.695h1.293V6.156h-1.293V4.197h-0.74L9.634,4.26
			C9.519,4.875,9.394,5.223,9.17,5.559C8.889,5.983,8.414,6.157,7.872,6.182L7.599,6.185v0.511h0.935v2.211l0.003,0.072
			c-0.003,2.007-0.063,2.623,0.328,3.105c0.325,0.403,0.966,0.943,2.359,0.943c0.333,0,0.613-0.035,0.872-0.117v-0.536
			c-0.178,0.104-0.375,0.164-0.577,0.164C10.358,12.538,10.38,11.91,10.38,9.225"/>
		<path fill="#FAFCFD" d="M18.633,1.555c0.07-0.107,0.151-0.195,0.245-0.271c0.1-0.075,0.211-0.133,0.338-0.172
			c0.128-0.044,0.267-0.064,0.419-0.064c0.16,0,0.309,0.022,0.442,0.07c0.142,0.048,0.26,0.118,0.359,0.215
			c0.104,0.093,0.183,0.208,0.236,0.346c0.058,0.136,0.085,0.29,0.085,0.463v1.888c0,0.037-0.034,0.069-0.072,0.069h-0.113
			c-0.04,0-0.073-0.032-0.073-0.069V2.158c0-0.16-0.024-0.291-0.069-0.395C20.384,1.654,20.32,1.566,20.241,1.5
			c-0.076-0.07-0.169-0.12-0.272-0.15c-0.104-0.035-0.215-0.053-0.334-0.053c-0.167,0-0.311,0.031-0.434,0.093
			c-0.124,0.058-0.229,0.139-0.313,0.241c-0.083,0.1-0.146,0.217-0.189,0.354s-0.065,0.281-0.065,0.434v1.611
			c0,0.037-0.034,0.069-0.072,0.069h-0.115c-0.037,0-0.071-0.032-0.071-0.069V1.184c0-0.035,0.034-0.068,0.071-0.068h0.115
			c0.038,0,0.072,0.033,0.072,0.068V1.555z"/>
		<path fill="#FAFCFD" d="M12.497,3.117c0.051,0.16,0.123,0.297,0.218,0.416c0.096,0.117,0.215,0.21,0.354,0.279
			c0.139,0.068,0.295,0.104,0.473,0.104c0.182,0,0.337-0.035,0.466-0.104c0.136-0.068,0.246-0.161,0.331-0.277
			c0.091-0.122,0.159-0.263,0.202-0.422c0.049-0.158,0.072-0.326,0.072-0.501c0-0.16-0.021-0.319-0.067-0.476
			c-0.04-0.159-0.104-0.3-0.19-0.422c-0.086-0.123-0.197-0.225-0.334-0.301c-0.128-0.076-0.287-0.117-0.479-0.117
			c-0.342,0-0.609,0.113-0.813,0.336c-0.204,0.22-0.31,0.543-0.31,0.979C12.42,2.79,12.445,2.958,12.497,3.117 M12.42,3.551v0.479
			c0,0.037-0.033,0.068-0.072,0.068h-0.114c-0.038,0-0.071-0.031-0.071-0.068V0.076c0-0.037,0.033-0.069,0.071-0.069h0.114
			c0.039,0,0.072,0.032,0.072,0.069v1.57c0.075-0.133,0.177-0.248,0.301-0.346c0.219-0.169,0.494-0.253,0.821-0.253
			c0.212,0,0.406,0.042,0.573,0.13c0.167,0.086,0.305,0.201,0.415,0.346c0.112,0.146,0.196,0.311,0.252,0.498
			c0.06,0.188,0.09,0.385,0.09,0.591c0,0.22-0.03,0.424-0.09,0.612s-0.147,0.354-0.266,0.494c-0.113,0.137-0.254,0.244-0.42,0.323
			c-0.164,0.079-0.35,0.118-0.555,0.118c-0.316,0-0.587-0.084-0.809-0.254C12.604,3.806,12.5,3.688,12.42,3.551"/>
		<path fill="#FAFCFD" d="M17.432,2.503c-0.027,0.017-0.06,0.032-0.093,0.044c-0.085,0.026-0.182,0.049-0.289,0.064
			c-0.106,0.015-0.222,0.023-0.347,0.027c-0.119,0.004-0.233,0.01-0.349,0.018c-0.111,0.007-0.223,0.021-0.33,0.043
			C15.927,2.715,15.838,2.75,15.764,2.8c-0.072,0.044-0.132,0.108-0.177,0.194c-0.042,0.079-0.067,0.189-0.067,0.334
			c0,0.074,0.013,0.146,0.036,0.221c0.026,0.067,0.068,0.126,0.131,0.184c0.062,0.052,0.138,0.096,0.24,0.135
			c0.101,0.033,0.228,0.051,0.383,0.051c0.183,0,0.344-0.031,0.482-0.088c0.142-0.06,0.258-0.137,0.35-0.229
			c0.097-0.097,0.169-0.207,0.216-0.33c0.05-0.126,0.074-0.255,0.074-0.387V2.503z M17.432,3.65L17.4,3.691
			c-0.071,0.092-0.16,0.172-0.27,0.242c-0.106,0.072-0.227,0.125-0.364,0.164c-0.138,0.043-0.285,0.064-0.445,0.064
			c-0.309,0-0.564-0.065-0.761-0.201c-0.2-0.145-0.299-0.359-0.299-0.633c0-0.183,0.03-0.338,0.095-0.458
			c0.065-0.116,0.152-0.209,0.259-0.274c0.105-0.07,0.221-0.113,0.354-0.138c0.126-0.027,0.251-0.044,0.376-0.052l0.523-0.026
			c0.143-0.011,0.254-0.03,0.339-0.053c0.087-0.026,0.141-0.063,0.172-0.103c0.032-0.043,0.053-0.109,0.053-0.209
			c0-0.081-0.007-0.166-0.021-0.254c-0.015-0.081-0.049-0.156-0.103-0.225c-0.049-0.065-0.124-0.122-0.229-0.166
			c-0.103-0.047-0.246-0.072-0.437-0.072c-0.299,0-0.521,0.072-0.676,0.205c-0.155,0.129-0.245,0.315-0.263,0.567
			c-0.003,0.032-0.037,0.063-0.072,0.063h-0.114c-0.041,0-0.075-0.033-0.072-0.072c0.007-0.141,0.038-0.271,0.092-0.394
			c0.054-0.127,0.13-0.237,0.229-0.329c0.104-0.092,0.228-0.162,0.368-0.213c0.148-0.052,0.317-0.076,0.508-0.076
			c0.135,0,0.264,0.013,0.384,0.04c0.129,0.027,0.24,0.077,0.337,0.149c0.099,0.07,0.175,0.162,0.233,0.273
			c0.06,0.116,0.09,0.258,0.094,0.418v2.1c0,0.037-0.034,0.068-0.072,0.068h-0.114c-0.038,0-0.072-0.031-0.072-0.068V3.65z"/>
		<path fill="#FAFCFD" d="M23.87,4.042l-1.339-1.787l1.032-1.042c0,0,0.04-0.037,0.037-0.057c-0.003-0.012-0.021-0.025-0.033-0.025
			c0,0-0.206,0.003-0.222,0.003c-0.072,0-0.115,0.05-0.115,0.05l-1.528,1.472V0.07c0-0.037-0.034-0.07-0.071-0.07H21.49
			c-0.038,0-0.072,0.033-0.072,0.07v3.96c0,0.036,0.034,0.069,0.072,0.069h0.141c0.038,0,0.071-0.033,0.071-0.069V3.018l0.609-0.568
			l1.174,1.604c0.019,0.025,0.038,0.043,0.096,0.043c0.057,0,0.249-0.001,0.249-0.001c0.014-0.001,0.035-0.011,0.042-0.021
			C23.877,4.063,23.876,4.052,23.87,4.042"/>
	</g>
</g>
</svg>
