<?xml version="1.0" encoding="utf-8"?>
<!-- Generator: Adobe Illustrator 16.0.0, SVG Export Plug-In . SVG Version: 6.00 Build 0)  -->
<!DOCTYPE svg PUBLIC "-//W3C//DTD SVG 1.1//EN" "http://www.w3.org/Graphics/SVG/1.1/DTD/svg11.dtd">
<svg version="1.1" id="Layer_1" xmlns="http://www.w3.org/2000/svg" xmlns:xlink="http://www.w3.org/1999/xlink" x="0px" y="0px"
	 width="425.01px" height="244.002px" viewBox="0 0 425.01 244.002" enable-background="new 0 0 425.01 244.002"
	 xml:space="preserve">
<g>
	<g>
		<rect x="143.843" y="28.082" fill="#E76424" width="5.616" height="18.721"/>
		<rect x="149.459" y="28.082" fill="#F08E21" width="7.8" height="18.721"/>
		<rect x="254.455" y="28.082" fill="#E76424" width="5.617" height="18.721"/>
		<rect x="260.072" y="28.082" fill="#F08E21" width="7.799" height="18.721"/>
		<rect x="126.994" fill="#C4242E" width="12.79" height="35.57"/>
		<rect x="139.784" fill="#E13726" width="142.597" height="35.57"/>
		<rect x="146.04" y="5.929" fill="#FFFFFF" width="130.084" height="23.714"/>
		<text transform="matrix(1 0 0 1 176.3906 24.0605)" fill="#DB3127" font-family="'JeniusSansDraft-Bold'" font-size="17.3966">BUS STOP</text>
		<rect y="44.931" fill="#E76424" width="146.337" height="13.418"/>
		<rect x="146.337" y="44.931" fill="#F08E21" width="217.792" height="13.418"/>
		<rect x="24.026" y="58.349" fill="#FFCA1A" width="115.758" height="172.548"/>
		<rect x="36.817" y="72.702" fill="#D2D3D4" width="93.921" height="141.656"/>
		<rect x="24.026" y="230.896" fill="#E76424" width="9.047" height="13.105"/>
		<rect x="130.738" y="230.896" fill="#E76424" width="9.046" height="13.105"/>
		<rect x="265.217" y="214.358" fill="#F08E21" width="9.05" height="29.644"/>
		<rect x="337.458" y="58.349" fill="#F08E21" width="9.046" height="185.653"/>
		<rect x="139.784" y="58.349" fill="#FFCA1A" width="134.482" height="143.165"/>
		<rect x="139.784" y="201.514" fill="#F08E21" width="162.875" height="12.845"/>
		<rect x="139.784" y="186.068" fill="#F08E21" width="129.958" height="12.845"/>
		<rect x="139.784" y="170.623" fill="#F08E21" width="129.958" height="12.846"/>
		<rect x="139.784" y="155.178" fill="#F08E21" width="129.958" height="12.846"/>
		<rect x="139.784" y="58.349" fill="#E9B320" width="134.482" height="14.354"/>
		<rect x="24.026" y="58.349" fill="#E9B320" width="115.758" height="7.176"/>
		<rect x="337.458" y="58.349" fill="#E76424" width="9.046" height="14.354"/>
		<rect x="139.784" y="201.514" fill="#E76424" width="22.129" height="12.845"/>
		<rect x="139.784" y="186.068" fill="#E76424" width="13.573" height="12.845"/>
		<rect x="139.784" y="170.623" fill="#E76424" width="13.573" height="12.846"/>
		<rect x="139.784" y="155.178" fill="#E76424" width="13.573" height="12.846"/>
		<rect x="130.738" y="230.896" fill="#D25327" width="9.046" height="5.771"/>
		<rect x="24.026" y="230.896" fill="#D25327" width="9.047" height="5.771"/>
		<rect x="265.217" y="214.358" fill="#E76424" width="9.05" height="7.801"/>
		<rect x="33.073" y="72.702" fill="#FFFFFF" width="93.921" height="141.656"/>
		<rect x="139.135" y="58.349" fill="#FEEA00" width="4.057" height="172.548"/>
	</g>
	<g>
		<rect x="396.719" y="98.871" fill="#F08E21" width="5.182" height="145.131"/>
		<rect x="396.719" y="98.871" fill="#E76424" width="5.182" height="45.752"/>
		<g>
			<path fill="#D2D3D4" d="M424.222,128.689c-0.002,3.535-2.866,6.402-6.402,6.402h-37.805c-3.536-0.001-6.404-2.867-6.402-6.402
				V90.886c0-3.537,2.866-6.403,6.402-6.403h37.805c3.536,0,6.4,2.866,6.402,6.403V128.689z"/>
			<path fill="#FFFFFF" d="M425.01,128.688c-0.002,3.536-2.867,6.403-6.402,6.403h-37.805c-3.536,0-6.402-2.867-6.402-6.402V90.885
				c0-3.536,2.866-6.403,6.402-6.402h37.805c3.535,0,6.4,2.866,6.402,6.402V128.688z"/>
			<path fill="#FFCA1A" d="M423.375,127.469c0,3.308-2.681,5.989-5.989,5.989h-35.362c-3.309,0-5.991-2.682-5.991-5.989V92.105
				c0-3.309,2.683-5.99,5.991-5.99h35.364c3.307,0,5.987,2.682,5.989,5.989L423.375,127.469z"/>
		</g>
		<g>
			<g>
				<rect x="390.371" y="120.162" fill="#FFFFFF" width="3.394" height="5.404"/>
				<rect x="404.858" y="120.162" fill="#FFFFFF" width="3.39" height="5.404"/>
			</g>
			<path fill="#FFFFFF" d="M411.499,118.183c0,3.746-1.905,3.392-5.653,3.392h-13.072c-3.744,0-5.652,0.354-5.652-3.392v-17.734
				c0-3.746,1.908-5.653,5.652-5.653h13.072c3.748,0,5.653,1.907,5.653,5.653V118.183z"/>
			<path fill="#FFCA1A" d="M410.212,108.307c0,1.938-1.704,1.755-5.054,1.755h-11.693c-3.35,0-5.057,0.183-5.057-1.755v-9.173
				c0-1.939,1.707-2.925,5.057-2.925h11.693c3.35,0,5.054,0.985,5.054,2.925V108.307z"/>
			<g>
				<circle fill="#FFCA1A" cx="390.583" cy="113.521" r="1.554"/>
				<circle fill="#FFCA1A" cx="408.036" cy="113.521" r="1.554"/>
			</g>
		</g>
	</g>
</g>
</svg>
