<?xml version="1.0" encoding="utf-8"?>
<!-- Generator: Adobe Illustrator 16.0.0, SVG Export Plug-In . SVG Version: 6.00 Build 0)  -->
<!DOCTYPE svg PUBLIC "-//W3C//DTD SVG 1.0//EN" "http://www.w3.org/TR/2001/REC-SVG-20010904/DTD/svg10.dtd">
<svg version="1.0" id="Layer_1" xmlns="http://www.w3.org/2000/svg" xmlns:xlink="http://www.w3.org/1999/xlink" x="0px" y="0px"
	 width="145.513px" height="43.22px" viewBox="0 0 145.513 43.22" enable-background="new 0 0 145.513 43.22" xml:space="preserve">
<g>
	<path fill="#2D2E2D" d="M53.178,32.677c-0.03-0.367-0.049-0.736-0.049-1.111c0-7.322,5.937-13.258,13.259-13.258
		c0.178,0,0.354,0.006,0.528,0.014C70.357,11.719,77.259,7.21,85.22,7.21c8.662,0,16.07,5.338,19.132,12.902
		c0.137-0.004,0.274-0.011,0.413-0.011c4.952,0,9.208,2.942,11.143,7.169c2.102-1.793,4.821-2.881,7.801-2.881
		c4.644,0,8.671,2.631,10.68,6.481c0.102-0.004,0.204-0.007,0.308-0.007c4.272,0,7.735,3.462,7.735,7.734
		c0,0.219-0.012,0.434-0.03,0.648c1.741,0.518,3.015,2.088,3.112,3.973H110.46h-3.969H99.07c-0.021-0.01-0.04-0.02-0.062-0.029
		c-0.01,0.01-0.021,0.02-0.034,0.029H48.607c-0.504-1.008-0.794-2.143-0.794-3.348C47.813,36.471,50.077,33.601,53.178,32.677z"/>
	<path fill="#2D2E2D" d="M48.44,43.22H1.607C0.6,41.813,0,40.094,0,38.231c0-4.742,3.845-8.586,8.585-8.586
		c0.098,0,0.194,0.004,0.291,0.008c2.142-5.297,7.33-9.034,13.396-9.034c5.572,0,10.405,3.157,12.816,7.78
		c0.122-0.006,0.245-0.01,0.37-0.01c5.127,0,9.282,4.156,9.282,9.283c0,0.264-0.013,0.521-0.034,0.779
		C46.796,39.073,48.325,40.958,48.44,43.22z"/>
	<g>
		<path fill="#457F3C" d="M36.301,43.22H49.97c0.023-0.013,0.049-0.021,0.072-0.035c0.013,0.012,0.027,0.023,0.041,0.035h60.452
			c0.606-1.21,0.955-2.572,0.955-4.019c0-4.081-2.719-7.526-6.439-8.635c0.035-0.44,0.058-0.886,0.058-1.335
			c0-8.788-7.124-15.912-15.912-15.912c-0.214,0-0.424,0.008-0.633,0.016C84.432,5.411,76.147,0,66.594,0
			C56.198,0,47.305,6.407,43.632,15.485c-0.165-0.006-0.33-0.012-0.496-0.012c-8.128,0-14.715,6.588-14.715,14.715
			C28.421,35.849,31.616,40.759,36.301,43.22z"/>
		<path fill="#8FA73E" d="M20.273,43.22h46.833c1.008-1.406,1.607-3.126,1.607-4.988c0-4.742-3.844-8.586-8.585-8.586
			c-0.097,0-0.194,0.004-0.291,0.008c-2.142-5.297-7.329-9.034-13.395-9.034c-5.573,0-10.406,3.157-12.817,7.78
			c-0.121-0.006-0.245-0.01-0.369-0.01c-5.128,0-9.284,4.156-9.284,9.283c0,0.264,0.015,0.521,0.036,0.779
			C21.919,39.073,20.39,40.958,20.273,43.22z"/>
	</g>
</g>
</svg>
