<?xml version="1.0" encoding="utf-8"?>
<!-- Generator: Adobe Illustrator 16.0.0, SVG Export Plug-In . SVG Version: 6.00 Build 0)  -->
<!DOCTYPE svg PUBLIC "-//W3C//DTD SVG 1.0//EN" "http://www.w3.org/TR/2001/REC-SVG-20010904/DTD/svg10.dtd">
<svg version="1.0" id="Layer_1" xmlns="http://www.w3.org/2000/svg" xmlns:xlink="http://www.w3.org/1999/xlink" x="0px" y="0px"
	 width="107.232px" height="156.738px" viewBox="0 0 107.232 156.738" enable-background="new 0 0 107.232 156.738"
	 xml:space="preserve">
<g>
	<g>
		<path fill="#18232D" d="M37.117,112.528H21.254c-0.959,0-1.735-0.776-1.735-1.733c0-0.956,0.776-1.733,1.735-1.733h15.863
			c2.086,0,3.787-1.702,3.787-3.786v-6.469c0-0.956,0.776-1.733,1.732-1.733c0.957,0,1.736,0.777,1.736,1.733v6.469
			C44.373,109.272,41.117,112.528,37.117,112.528"/>
		<path fill="#18232D" d="M59.119,103.739H40.035c-3.072,0-5.561-2.488-5.561-5.556c0-3.072,2.488-5.56,5.561-5.56h19.084
			c3.069,0,5.558,2.487,5.558,5.56C64.677,101.251,62.188,103.739,59.119,103.739"/>
	</g>
	<path fill="#A5A8AB" d="M49.577,119.861c-1.508,0-2.729-1.221-2.729-2.729V97.056c0-1.505,1.222-2.729,2.729-2.729
		c1.505,0,2.728,1.225,2.728,2.729v20.076C52.305,118.641,51.082,119.861,49.577,119.861"/>
	<path fill="#A5A8AB" d="M83.956,156.738L83.956,156.738c3.483,0,6.306-2.821,6.306-6.305v-6.307h-6.306
		c-3.482,0-6.306,2.826-6.306,6.307C77.65,153.917,80.474,156.738,83.956,156.738"/>
	<path fill="#A5A8AB" d="M66.671,156.738L66.671,156.738c3.481,0,6.306-2.821,6.306-6.305v-6.307h-6.306
		c-3.482,0-6.306,2.826-6.306,6.307C60.365,153.917,63.188,156.738,66.671,156.738"/>
	<path fill="#A5A8AB" d="M23.443,156.738L23.443,156.738c3.482,0,6.304-2.821,6.304-6.305v-6.307h-6.304
		c-3.484,0-6.308,2.826-6.308,6.307C17.136,153.917,19.959,156.738,23.443,156.738"/>
	<path fill="#A5A8AB" d="M6.306,156.738L6.306,156.738c3.482,0,6.306-2.821,6.306-6.305v-6.307H6.306
		c-3.481,0-6.306,2.826-6.306,6.307C0,153.917,2.824,156.738,6.306,156.738"/>
	<path fill="#C0B8A7" d="M23.564,90.206v7.802h25.24c3.26,0,5.904,2.643,5.904,5.902h52.523c0-7.569-6.135-13.704-13.704-13.704
		H23.564z"/>
	<path fill="#C0B8A7" d="M54.841,80.372V12.923C54.841,5.787,49.057,0,41.92,0H15.237C8.104,0,2.316,5.787,2.316,12.923v68.524
		c0,9.145,7.414,16.561,16.562,16.561h56.92v-7.802H64.677C59.244,90.206,54.841,85.801,54.841,80.372"/>
	<g>
		<path fill="#18232D" d="M12.39,144.127H8.923c0-6.946,5.652-12.598,12.599-12.598h28.056V135H21.521
			C16.486,135,12.39,139.094,12.39,144.127"/>
		<path fill="#18232D" d="M90.229,144.127H86.76c0-5.033-4.094-9.127-9.129-9.127H49.577v-3.471h28.054
			C84.576,131.529,90.229,137.181,90.229,144.127"/>
		<path fill="#18232D" d="M29.729,144.127h-3.467c0-6.946,5.649-12.598,12.599-12.598h10.716V135H38.861
			C33.826,135,29.729,139.094,29.729,144.127"/>
		<path fill="#18232D" d="M72.889,144.127h-3.467c0-5.033-4.096-9.127-9.129-9.127H49.577v-3.471h10.716
			C67.237,131.529,72.889,137.181,72.889,144.127"/>
		<rect x="45.678" y="117.132" fill="#18232D" width="7.794" height="17.877"/>
	</g>
</g>
</svg>
