<?xml version="1.0" encoding="utf-8"?>
<!-- Generator: Adobe Illustrator 16.0.0, SVG Export Plug-In . SVG Version: 6.00 Build 0)  -->
<!DOCTYPE svg PUBLIC "-//W3C//DTD SVG 1.0//EN" "http://www.w3.org/TR/2001/REC-SVG-20010904/DTD/svg10.dtd">
<svg version="1.0" id="Layer_1" xmlns="http://www.w3.org/2000/svg" xmlns:xlink="http://www.w3.org/1999/xlink" x="0px" y="0px"
	 width="136.76px" height="245.881px" viewBox="0 0 136.76 245.881" enable-background="new 0 0 136.76 245.881"
	 xml:space="preserve">
<g>
	<path fill="#FAAB6D" d="M43.843,143.708c0,0-9.7,2.086-10.318,5.55c-0.618,3.463,0.777,4.885,1.724,4.798
		c0.852,2.19,4.859,11.426,6.436,11.514c1.575,0.087,8.05,0.516,11.765-4.711L43.843,143.708z"/>
	<path fill="#E8833E" d="M51.33,163.067c0.76-0.594,1.481-1.313,2.119-2.208l-9.606-17.151c0,0-1.357,0.292-3.089,0.839
		C43.167,148.659,47.839,156.695,51.33,163.067z"/>
	<path fill="#E1D6CF" d="M82.612,95.708c0,0,13.547,35.35-29.13,67.19c-1.792-3.318-11.092-19.564-11.092-19.564
		c17.594-6.433,41.738-14.688,36.014-44.809L82.612,95.708z"/>
</g>
<path fill="#696969" d="M106.961,89.078c0,0-9.821,3.322-32.553,0.754l3.532,5.703l23.424-0.486L106.961,89.078z"/>
<rect x="78.264" y="86.483" transform="matrix(-0.9999 0.0133 -0.0133 -0.9999 182.4518 189.4562)" fill="#FAAB6D" width="24.663" height="17.705"/>
<path fill="#E8833E" d="M78.176,88.677c0,0,6.187,4.62,13.751,4.519c7.565-0.101,10.91-4.847,10.91-4.847
	S86.461,84.166,78.176,88.677z"/>
<g>
	<path fill="#424242" d="M127.974,31.504c8.049-3.789,13.129,2.926,0.791,29.953c-10.156,22.249-4.918-5.521-4.918-5.521
		L127.974,31.504z"/>
	<path fill="#FAAB6D" d="M64.295,73.396c1.471,4.021,3.889,7.627,7.636,10.497c4.896,3.75,12.11,5.599,18.084,6.61
		c8.281,1.403,16.98,1.841,23.766-3.85c11.229-9.414,12.787-26.688,14.386-40.156c0.638-5.364,0.575-9.672,0.122-12.425
		c-3.318-0.457-6.639-0.915-9.955-1.373c-0.563-0.076-1.124-0.153-1.686-0.231c-11.07-1.526-22.142-3.054-33.213-4.579
		c-1.061-0.146-2.121-0.291-3.183-0.439c-3.976-0.548-7.95-1.095-11.927-1.644c-0.796,2.428-1.431,6.271-2.476,11.036
		C63.484,47.616,60.178,62.137,64.295,73.396z"/>
	<path fill="#424242" d="M129.856,47.343c0.638-5.364,1.42-11.363,0.965-14.117c-2.559-0.353-7.655,0.142-10.215-0.212
		l-12.164,5.872c0,0,8.541,5.317,9.99,6.65c1.447,1.332,1.111,9.927,1.111,9.927l-0.84,25.769
		C125.532,71.479,128.528,58.524,129.856,47.343z"/>
	<circle fill="#424242" cx="69.524" cy="48.304" r="4.05"/>
	<circle fill="#424242" cx="97.587" cy="55.308" r="4.05"/>
	<g>
		<path fill="#424242" d="M64.755,35.637c5.221-1.409,9.03,3.111,10.61,7.52c0.786,2.199,4.327,1.298,3.534-0.919
			c-2.252-6.284-7.775-12.104-15.063-10.135C61.564,32.716,62.481,36.251,64.755,35.637L64.755,35.637z"/>
	</g>
	<g>
		<path fill="#424242" d="M108.379,42.44c-5.95-4.644-13.303-1.426-17.815,3.49c-1.592,1.733,1.319,3.94,2.899,2.22
			c3.168-3.451,8.435-6.136,12.696-2.809C108.017,46.789,110.233,43.889,108.379,42.44L108.379,42.44z"/>
	</g>
	<g>
		<g>
			<path fill="#F6A569" d="M119.545,55.463c11.136-4.378,13.042,14.812-1.163,7.896L119.545,55.463z"/>
			<path fill="#E8833E" d="M120.851,59.252c5.119-1.508,4.438,4.596-0.461,2.188L120.851,59.252z"/>
		</g>
		
			<ellipse transform="matrix(0.3493 -0.937 0.937 0.3493 27.7216 154.1334)" opacity="0.3" fill="#FFFFFF" enable-background="new    " cx="124.833" cy="57.108" rx="1.036" ry="1.784"/>
	</g>
	<ellipse fill="#BD7E50" cx="78.013" cy="74.62" rx="6.662" ry="4.527"/>
	<path fill="#EE8122" d="M135.125,44.254L67.164,30.529c0,0,2.584-17.977,6.267-22.088c3.68-4.11,18.697-8.221,32.359-6.988
		c13.662,1.233,28.607,12.941,30.384,20.242C137.95,28.996,135.125,44.254,135.125,44.254z"/>
	<polygon fill="#D66F28" points="112.711,39.711 106.631,30.891 69.294,25.209 52.048,31.562 	"/>
</g>
<g>
	<path fill="#232323" d="M72.913,232.407l-12.389,4.707c0,0-10.096-0.948-11.823,4.78c-1.133,3.76-1.482,3.558-1.482,3.558
		c9.901-0.613,35.537-0.804,35.537-0.804c-0.031-3.255-4.011-11.747-4.011-11.747L72.913,232.407z"/>
	<path fill="#333333" d="M73.523,168.989c0,0-14.406,14.152-14.152,35.001c0.103,8.455,5.846,20.424,5.891,32.599
		c1.544,1.345,17.659,5.474,17.659,5.474c-1.478-8.033-8.149-27.335-11.962-37.267c-2.396-6.241,2.274-23.803,15.615-33.796
		L73.523,168.989z"/>
</g>
<g>
	<path fill="#2E2E2E" d="M108.791,232.497l-12.598,4.118c0,0-10.04-1.426-12.036,4.216c-1.309,3.7-1.682,5.051-1.682,5.051
		c9.918-0.146,35.566-0.693,35.566-0.693c0.123-3.25-3.088-10.702-3.088-10.702L108.791,232.497z"/>
	<path fill="#424242" d="M100.871,168.813c0,0-15.864,20.153-12.051,39.368c1.817,9.142,4.743,13.957,9.276,28.555
		c1.832,0.915,19.877,4.845,19.877,4.845c-1.667-9.331-7.846-18.223-18.818-36.923c-3.62-6.168,6.064-21.943,16.262-35.659
		L100.871,168.813z"/>
</g>
<path fill="#FAEBE1" d="M74.408,89.832c0.017,10.969-12.655,65.987-12.301,66.468l56.839-0.159
	c-0.254-2.123-10.688-63.616-11.985-67.063l-27.028,6.379L74.408,89.832z"/>
<path fill="#424242" d="M62.107,156.3c0,0,1.071,11.709,6.167,15.244c5.1,3.533,33.063,11.511,47.7-0.912
	c3.068-3.168,3.846-10.469,3.065-14.785L62.107,156.3z"/>
<polygon fill="#E1D6CF" points="86.097,94.418 96.133,101.635 106.961,89.078 "/>
<polygon fill="#E1D6CF" points="74.408,89.832 73.431,98.693 81.642,95.664 "/>
<g>
	<polygon fill="#EE8122" points="76.466,101.077 69.088,130.14 76.919,141.72 86.813,129.738 84.726,100.488 	"/>
	<polygon fill="#BE6928" points="76.276,94.854 75.487,101.265 85.433,101.766 86.271,94.144 	"/>
	<polygon fill="#BE6928" points="75.791,103.735 84.976,104.014 84.76,100.989 76.335,101.59 	"/>
	<polygon fill="#EE8122" points="75.381,96.063 74.64,101.91 86.375,102.267 87.142,95.314 	"/>
</g>
<g>
	<g>
		<path fill="#FAAB6D" d="M30.181,88.888l-4.474-4.99l-7.62-10.667c0,0-6.056-11.172-5.985-11.976
			c0.189-2.188,2.495-2.88,3.967-2.073c0.953,0.521,4.991,9.722,4.991,9.722l1.838-0.813c0,0-4.292-11.813-4.955-14.2
			c-0.727-2.621,4.032-3.663,4.729-2.048c0.771,1.787,4.7,13.095,4.7,13.095l2.485-0.867c0,0-3.041-10.62-3.688-14.377
			c-0.354-2.064,3.646-2.865,4.545-1.054c0.452,0.913,4.105,14.213,4.105,14.213l6.542,9.729l1.345,9.628L30.181,88.888z"/>
		<path fill="#FAAB6D" d="M41.689,83.062c0,0,4.641-10.073,4.553-12.631c-0.087-2.558-1.369-6.417-2.278-8.224
			c-1.251-2.49-0.422-4.107-1.743-5.04c-1.001-0.706-4.278,0.241-4.051,2.276c0.23,2.051,1.291,4.928,1.347,5.57
			c0.055,0.641-1.146,4.178-1.146,4.178l-6.828,4.421l0.153,6.551L41.689,83.062z"/>
	</g>
	<path fill="#FAEBE1" d="M103.522,106.555c0,0-33.258,30.641-76.33-18.488c4.357-2.873,17.203-10.656,17.203-10.656
		c12.296,17.572,32.531,41.872,54.774,25.318L103.522,106.555z"/>
</g>
<g>
	<path fill="#FAFCFD" d="M99.626,16.549c-0.335-0.265-0.936-0.088-1.339,0.395c-0.402,0.48-0.459,1.086-0.122,1.352
		c0.335,0.264,0.934,0.088,1.337-0.394C99.905,17.419,99.961,16.813,99.626,16.549"/>
	<path fill="#FAFCFD" d="M97.681,22.685l0.363-2.274c0.1-0.618,0.08-0.98-0.068-1.333c-0.209-0.541-0.677-0.853-1.381-0.966
		c-0.806-0.129-1.426,0.06-1.976,0.606l-0.004-0.005l0.112-0.709l-0.896-0.143l-0.209-0.033l-1.093-0.175l-0.053,0.331l0.06,0.01
		c0.653,0.115,0.714,0.197,0.577,1.05l-0.453,2.839c-0.143,0.895-0.215,0.945-0.9,0.845l-0.05-0.007l-0.058,0.363l3.011,0.481
		l0.058-0.363l-0.061-0.011c-0.672-0.117-0.727-0.178-0.582-1.082l0.326-2.049c0.054-0.328,0.232-0.719,0.443-0.981
		c0.324-0.385,0.725-0.547,1.146-0.479c0.598,0.096,0.81,0.541,0.632,1.646l-0.354,2.214c-0.142,0.884-0.227,0.942-0.891,0.847
		l-0.063-0.009l-0.057,0.363l3.012,0.481l0.059-0.363l-0.061-0.012C97.589,23.649,97.538,23.579,97.681,22.685"/>
	<path fill="#FAFCFD" d="M79.836,15.486c-0.371-0.06-0.692-0.038-0.985,0.069l-0.082,0.509c0.233-0.162,0.498-0.23,0.75-0.19
		c0.672,0.107,1.18,0.999,0.916,2.652c-0.265,1.651-1.043,2.329-1.748,2.217c-1.142-0.183-0.994-1.242-0.998-1.511
		c0,0,0.967-6.096,0.994-6.222l-0.687-0.109l-1.554-0.248l-0.055,0.352l0.061,0.01c0.684,0.109,0.716,0.279,0.576,1.145
		l-0.707,4.429c-0.275,1.729,1.541,2.39,2.246,2.502c1.597,0.256,3.108-0.654,3.402-2.494
		C82.235,16.906,81.308,15.721,79.836,15.486"/>
	<path fill="#FAFCFD" d="M90.04,17.191c-0.645-0.103-1.133,0.014-1.645,0.374l0.09-0.555l-2.236-0.354l-0.068,0.431
		c0.561,0.097,0.746,0.192,0.688,0.745l-1.037,6.494c-0.111,0.532-0.244,0.552-0.822,0.475l-0.059-0.007l-0.057,0.355l3.026,0.483
		l0.058-0.355l-0.058-0.012c-0.446-0.088-0.642-0.144-0.692-0.361l0.943-5.913c0.316-1.013,0.839-1.514,1.467-1.413
		c0.674,0.107,0.951,0.941,0.692,2.563c-0.267,1.668-0.808,2.357-1.588,2.232c-0.162-0.026-0.316-0.1-0.446-0.208l-0.07,0.435
		c0.201,0.101,0.424,0.167,0.693,0.21c0.725,0.115,1.441-0.055,1.93-0.477c0.498-0.43,0.866-1.189,1.01-2.092
		C92.13,18.544,91.481,17.422,90.04,17.191"/>
	<path fill="#FAFCFD" d="M84.403,18.912c0.005-0.012,0.008-0.023,0.01-0.037l0.322-2.016l1.05,0.168l0.069-0.438l-1.051-0.168
		l0.254-1.59l-0.601-0.096l-0.017,0.049c-0.174,0.484-0.32,0.751-0.545,0.994c-0.283,0.309-0.691,0.388-1.136,0.338l-0.223-0.033
		l-0.065,0.414l0.758,0.121l-0.285,1.796l-0.008,0.06c-0.263,1.628-0.392,2.12-0.137,2.563c0.213,0.37,0.662,0.892,1.795,1.072
		c0.271,0.043,0.502,0.051,0.723,0.018l0.07-0.435c-0.158,0.062-0.326,0.084-0.49,0.058C83.956,21.6,84.056,21.093,84.403,18.912"/>
	<path fill="#FAFCFD" d="M92.099,13.756c0.07-0.078,0.148-0.139,0.233-0.188c0.091-0.049,0.188-0.081,0.297-0.096
		c0.108-0.02,0.226-0.018,0.349,0.002c0.131,0.021,0.248,0.058,0.351,0.113c0.108,0.058,0.196,0.131,0.264,0.222
		c0.073,0.089,0.122,0.192,0.147,0.312c0.029,0.117,0.031,0.246,0.009,0.387l-0.245,1.532c-0.004,0.03-0.036,0.052-0.066,0.048
		l-0.092-0.016c-0.033-0.005-0.057-0.036-0.052-0.065l0.243-1.52c0.021-0.13,0.018-0.239-0.006-0.329
		c-0.022-0.095-0.063-0.174-0.118-0.238c-0.054-0.066-0.121-0.119-0.202-0.158c-0.079-0.041-0.167-0.07-0.264-0.086
		c-0.137-0.021-0.256-0.014-0.364,0.02c-0.108,0.031-0.204,0.083-0.286,0.155c-0.08,0.07-0.146,0.157-0.199,0.263
		c-0.053,0.105-0.09,0.22-0.109,0.344l-0.209,1.308c-0.004,0.029-0.036,0.052-0.066,0.047l-0.094-0.015
		c-0.03-0.005-0.055-0.036-0.049-0.065l0.369-2.312c0.004-0.028,0.035-0.051,0.066-0.046l0.094,0.015
		c0.029,0.005,0.055,0.037,0.049,0.065L92.099,13.756z"/>
	<path fill="#FAFCFD" d="M86.914,14.229c0.021,0.137,0.062,0.257,0.123,0.365c0.063,0.108,0.147,0.199,0.252,0.273
		c0.104,0.074,0.226,0.122,0.369,0.145c0.147,0.024,0.278,0.016,0.393-0.022c0.119-0.038,0.222-0.1,0.306-0.183
		c0.088-0.088,0.162-0.192,0.219-0.315c0.061-0.123,0.101-0.257,0.123-0.398c0.021-0.13,0.023-0.262,0.008-0.395
		c-0.014-0.134-0.045-0.257-0.1-0.367c-0.056-0.111-0.133-0.208-0.232-0.288c-0.094-0.078-0.219-0.132-0.375-0.157
		c-0.277-0.044-0.509,0.014-0.703,0.169c-0.193,0.151-0.322,0.4-0.378,0.754C86.894,13.953,86.894,14.093,86.914,14.229
		 M86.795,14.57l-0.063,0.389c-0.004,0.03-0.035,0.052-0.065,0.047l-0.095-0.016c-0.029-0.004-0.053-0.034-0.049-0.064l0.514-3.209
		c0.005-0.031,0.035-0.053,0.066-0.048l0.094,0.015c0.031,0.006,0.054,0.036,0.05,0.066l-0.204,1.274
		c0.079-0.098,0.176-0.179,0.289-0.241c0.199-0.109,0.436-0.142,0.699-0.1c0.173,0.028,0.324,0.088,0.449,0.18
		c0.123,0.092,0.221,0.203,0.291,0.336c0.072,0.132,0.119,0.276,0.142,0.436c0.022,0.16,0.022,0.324-0.004,0.492
		c-0.029,0.178-0.08,0.34-0.152,0.485c-0.073,0.146-0.166,0.267-0.28,0.366c-0.108,0.096-0.236,0.166-0.383,0.208
		c-0.144,0.043-0.299,0.051-0.466,0.023c-0.257-0.041-0.465-0.144-0.623-0.31C86.912,14.801,86.842,14.691,86.795,14.57"/>
	<path fill="#FAFCFD" d="M91,14.37c-0.024,0.01-0.052,0.018-0.081,0.023c-0.072,0.011-0.152,0.016-0.243,0.015
		c-0.088-0.002-0.184-0.01-0.284-0.022c-0.098-0.013-0.19-0.021-0.285-0.031c-0.092-0.009-0.185-0.012-0.273-0.008
		c-0.081,0.001-0.158,0.017-0.225,0.048c-0.064,0.025-0.121,0.071-0.17,0.135c-0.043,0.059-0.078,0.145-0.099,0.263
		c-0.009,0.06-0.008,0.12,0.002,0.185c0.013,0.058,0.039,0.11,0.082,0.165c0.043,0.05,0.101,0.097,0.179,0.141
		c0.076,0.04,0.178,0.071,0.305,0.091c0.148,0.024,0.281,0.02,0.402-0.01c0.123-0.029,0.227-0.076,0.313-0.139
		c0.092-0.066,0.163-0.147,0.218-0.241c0.058-0.095,0.095-0.196,0.111-0.303L91,14.37z M90.853,15.302l-0.031,0.029
		c-0.069,0.065-0.152,0.118-0.25,0.161c-0.096,0.045-0.201,0.072-0.316,0.086c-0.117,0.018-0.24,0.015-0.371-0.006
		c-0.25-0.04-0.449-0.126-0.591-0.262c-0.144-0.144-0.196-0.33-0.161-0.552c0.023-0.149,0.068-0.271,0.137-0.36
		c0.068-0.085,0.15-0.149,0.246-0.189c0.094-0.043,0.193-0.063,0.305-0.065c0.105-0.006,0.209-0.003,0.313,0.007l0.43,0.047
		c0.117,0.009,0.209,0.009,0.281,0.001c0.073-0.011,0.122-0.033,0.152-0.062c0.031-0.031,0.059-0.082,0.07-0.162
		c0.011-0.066,0.016-0.136,0.016-0.209c-0.001-0.068-0.02-0.133-0.055-0.195c-0.03-0.061-0.084-0.115-0.164-0.165
		c-0.077-0.052-0.19-0.091-0.346-0.115c-0.242-0.039-0.432-0.009-0.574,0.079c-0.144,0.084-0.24,0.224-0.287,0.426
		c-0.006,0.026-0.038,0.047-0.066,0.043l-0.093-0.016c-0.033-0.005-0.058-0.036-0.05-0.067c0.023-0.113,0.066-0.216,0.125-0.308
		c0.061-0.097,0.137-0.176,0.229-0.237c0.097-0.062,0.206-0.103,0.327-0.126c0.126-0.022,0.268-0.021,0.422,0.004
		c0.109,0.018,0.213,0.045,0.307,0.083c0.102,0.039,0.186,0.094,0.254,0.165c0.072,0.07,0.121,0.154,0.154,0.253
		c0.032,0.101,0.039,0.22,0.021,0.351l-0.271,1.705c-0.005,0.029-0.037,0.051-0.066,0.046l-0.094-0.015
		c-0.031-0.005-0.055-0.035-0.049-0.065L90.853,15.302z"/>
	<path fill="#FAFCFD" d="M96.026,16.454l-0.854-1.624l0.973-0.712c0,0,0.039-0.026,0.037-0.042c0-0.01-0.013-0.023-0.022-0.025
		c0,0-0.167-0.023-0.181-0.025c-0.059-0.01-0.101,0.025-0.101,0.025l-1.433,0.996l0.337-2.099c0.005-0.03-0.021-0.061-0.05-0.065
		l-0.114-0.019c-0.031-0.005-0.063,0.017-0.065,0.047l-0.515,3.216c-0.005,0.029,0.019,0.061,0.049,0.064l0.114,0.019
		c0.031,0.005,0.063-0.017,0.066-0.046l0.131-0.822l0.568-0.383l0.745,1.453c0.013,0.023,0.024,0.041,0.072,0.049
		c0.046,0.007,0.202,0.031,0.202,0.031c0.011,0,0.029-0.004,0.037-0.013C96.03,16.473,96.03,16.463,96.026,16.454"/>
</g>
</svg>
