<?xml version="1.0" encoding="utf-8"?>
<!-- Generator: Adobe Illustrator 16.0.0, SVG Export Plug-In . SVG Version: 6.00 Build 0)  -->
<!DOCTYPE svg PUBLIC "-//W3C//DTD SVG 1.0//EN" "http://www.w3.org/TR/2001/REC-SVG-20010904/DTD/svg10.dtd">
<svg version="1.0" id="Layer_1" xmlns="http://www.w3.org/2000/svg" xmlns:xlink="http://www.w3.org/1999/xlink" x="0px" y="0px"
	 width="126.506px" height="263.279px" viewBox="0 0 126.506 263.279" enable-background="new 0 0 126.506 263.279"
	 xml:space="preserve">
<g>
	<path fill="#FAAB6D" d="M106.576,148.919c0,0,10.389,0.866,11.499,4.392s-0.15,5.194-1.148,5.231
		c-0.592,2.397-3.522,12.562-5.153,12.866c-1.63,0.304-8.317,1.623-12.894-3.322L106.576,148.919z"/>
	<path fill="#E8833E" d="M101.385,170.102c-0.872-0.516-1.721-1.168-2.505-2.016l7.696-19.167c0,0,1.454,0.122,3.331,0.458
		C107.947,153.986,104.163,162.99,101.385,170.102z"/>
	<path fill="#E1D6CF" d="M59.705,104.133c0,0-9.347,38.662,39.414,66.082c1.421-3.699,8.918-21.881,8.918-21.881
		c-19.198-4.33-45.47-9.676-43.567-41.834L59.705,104.133z"/>
</g>
<path fill="#696969" d="M33.227,93.924c0,0,9.017,6.116,32.753,9.882l-5.174,4.786l-23.584-7.055L33.227,93.924z"/>
<rect x="35.088" y="95.542" transform="matrix(-0.9602 -0.2794 0.2794 -0.9602 64.8828 218.9337)" fill="#FAAB6D" width="25.914" height="18.602"/>
<path fill="#E8833E" d="M62.488,101.58c0,0-7.557,2.945-15.19,0.725c-7.634-2.222-9.691-7.965-9.691-7.965
	S55.361,94.691,62.488,101.58z"/>
<g>
	<path fill="#636363" d="M28.074,29.735c-7.089-6.091-14.113-0.715-9.189,30.111c4.053,25.375,6.525-4.214,6.525-4.214
		L28.074,29.735z"/>
	<path fill="#FAAB6D" d="M80.824,89.994c-2.615,3.661-6.074,6.635-10.672,8.492c-6.007,2.426-13.831,2.276-20.164,1.628
		C41.209,99.216,32.277,97.223,27,89.56c-8.732-12.679-5.473-30.606-3.319-44.693c0.857-5.61,2.126-9.955,3.356-12.616
		c3.489,0.467,6.979,0.933,10.466,1.397c0.591,0.081,1.181,0.159,1.771,0.237c11.639,1.555,23.276,3.109,34.916,4.666
		c1.114,0.149,2.23,0.299,3.346,0.446c4.179,0.56,8.357,1.118,12.538,1.676c0.126,2.682-0.308,6.751-0.583,11.87
		C88.866,64.115,88.147,79.746,80.824,89.994z"/>
	<path fill="#636363" d="M21.73,45.247c0.857-5.61,1.745-11.905,2.977-14.566c2.691,0.36,7.714,2.288,10.404,2.647l10.672,9.353
		c0,0-10.138,2.993-11.978,3.937s-3.907,9.741-3.907,9.741l-6.367,26.33C19.35,70.9,19.943,56.941,21.73,45.247z"/>
	<path fill="#424242" d="M96.897,39.34c-1.606,3.231-8.365,4.316-13.091,1.514c0,0,1.716,1.101,4.726,2.803
		c7.447,4.213-39.963,18.011-61.495-11.406C5.506,2.832,42.49-2.262,59.264,1.547C78.085,5.82,91.412,13.91,97.365,24.505
		c5.954,10.595-8.314,2.196-8.314,2.196S101.3,30.482,96.897,39.34z"/>
	<circle fill="#424242" cx="82.558" cy="63.12" r="4.255"/>
	<circle fill="#424242" cx="52.178" cy="62.353" r="4.255"/>
	<g>
		<path fill="#424242" d="M90.317,54.205c-3.514-4.465-9.562-3.047-13.659-0.323c-2.043,1.358-4.461-1.624-2.401-2.993
			c5.841-3.883,14.148-5.318,19.054,0.916C94.84,53.746,91.848,56.15,90.317,54.205L90.317,54.205z"/>
	</g>
	<g>
		<path fill="#424242" d="M44.004,48.961c6.139-5.021,13.938-1.819,18.799,3.236c1.714,1.782-1.292,4.171-2.993,2.401
			c-3.411-3.548-9.007-6.241-13.404-2.645C44.49,53.521,42.089,50.526,44.004,48.961L44.004,48.961z"/>
	</g>
	<g>
		<g>
			<path fill="#F6A569" d="M29.898,56.358c-10.05-7.552-17.355,11.346-1.033,8.322L29.898,56.358z"/>
			<path fill="#E8833E" d="M27.517,59.83c-4.762-2.96-5.784,3.41-0.148,2.345L27.517,59.83z"/>
		</g>
		
			<ellipse transform="matrix(-0.9962 0.0867 -0.0867 -0.9962 52.9668 110.7896)" opacity="0.3" fill="#FFFFFF" cx="24.077" cy="56.545" rx="1.875" ry="1.088"/>
	</g>
	<g>
		<g>
			<path fill="#BD7E50" d="M72.576,82.705c-6.148,2.959-13.736,0.638-19.152-2.667c-1.656-1.01-3.162,1.585-1.514,2.591
				c6.437,3.927,15.015,6.115,22.18,2.667C75.833,84.457,74.311,81.87,72.576,82.705L72.576,82.705z"/>
		</g>
	</g>
</g>
<g>
	<path fill="#232323" d="M44.175,249.692l12.935,5.159c0,0,10.621-0.822,12.338,5.227c1.126,3.969,1.496,3.764,1.496,3.764
		c-10.391-0.816-37.32-1.461-37.32-1.461c0.09-3.418,4.419-12.271,4.419-12.271L44.175,249.692z"/>
	<path fill="#333333" d="M44.629,183.059c0,0,14.89,15.116,14.262,37.014c-0.253,8.881-6.493,21.355-6.751,34.145
		c-1.645,1.387-18.645,5.445-18.645,5.445c1.69-8.414,9.034-28.575,13.21-38.943c2.623-6.514-1.977-25.043-15.818-35.773
		L44.629,183.059z"/>
</g>
<g>
	<path fill="#2E2E2E" d="M18.047,249.726l13.332,4.021c0,0,10.51-1.738,12.743,4.14c1.465,3.856,1.89,5.265,1.89,5.265
		c-10.422,0.087-37.377,0.129-37.377,0.129c-0.209-3.411,2.986-11.315,2.986-11.315L18.047,249.726z"/>
	<path fill="#424242" d="M24.831,182.642c0,0,17.149,20.787,13.604,41.063c-1.686,9.646-4.645,14.774-9.054,30.216
		c-1.901,1.006-20.762,5.569-20.762,5.569c1.525-9.843,7.8-19.33,18.877-39.238c3.654-6.565-6.899-22.903-17.94-37.065
		L24.831,182.642z"/>
</g>
<path fill="#FAEBE1" d="M65.979,103.806c-3.089,11.103-5.667,70.366-6.16,70.754L2.304,158.479
	c0.854-2.08,28.642-61.428,30.923-64.555l25.584,14.03L65.979,103.806z"/>
<path fill="#424242" d="M59.819,174.56c0,0-4.365,11.558-10.515,13.71c-6.154,2.15-36.705,2.396-48.048-14.283
	c-2.221-4.068-0.963-11.68,1.036-15.832L59.819,174.56z"/>
<g>
	<path fill="#FFCA1A" d="M97.621,155.779c-17.122,5.608-33.121,28.982-8.375,38.385c24.744,9.402,37.187-3.815,37.26-9.39
		c0.074-5.575-8.266-19.495-15.333-26.8c4.897-4.12,9.323-14.175,4.804-13.241c-4.519,0.933-5.767,4.018-5.767,4.018
		s1.405-6.887-3.846-7.216c-5.25-0.329-5.138,6.149-5.138,6.149s-6.52-8.785-7.819-5.924
		C91.272,146.459,97.621,155.779,97.621,155.779z"/>
	<g>
		<path fill="#FFFFFF" d="M101.354,170.858c0.291,0.187,0.523,0.43,0.698,0.728c0.146,0.246,0.248,0.51,0.309,0.789
			c0.062,0.279,0.064,0.586,0.009,0.922c-0.066,0.404-0.235,0.785-0.505,1.143c-0.27,0.356-0.653,0.577-1.149,0.66
			c0.366,0.224,0.607,0.494,0.723,0.813s0.123,0.776,0.023,1.373l-0.096,0.572c-0.064,0.39-0.094,0.656-0.084,0.8
			c0.01,0.228,0.092,0.408,0.247,0.54l-0.036,0.215l-1.965-0.328c-0.022-0.197-0.035-0.356-0.039-0.476
			c-0.007-0.247,0.009-0.495,0.047-0.747l0.121-0.793c0.082-0.545,0.049-0.923-0.101-1.134c-0.151-0.212-0.474-0.358-0.97-0.44
			l-1.738-0.29l-0.557,3.341l-1.74-0.291l1.421-8.519l4.074,0.679C100.627,170.523,101.063,170.671,101.354,170.858z
			 M97.465,171.505l-0.382,2.289l1.916,0.319c0.38,0.063,0.673,0.064,0.88,0.004c0.362-0.105,0.584-0.397,0.664-0.875
			c0.086-0.517-0.019-0.891-0.314-1.122c-0.167-0.131-0.434-0.227-0.799-0.288L97.465,171.505z"/>
		<path fill="#FFFFFF" d="M109.161,174.91c0.423,0.629,0.547,1.469,0.372,2.521c-0.186,1.109-0.577,1.913-1.177,2.411
			c-0.599,0.499-1.294,0.682-2.085,0.55c-0.504-0.084-0.902-0.279-1.193-0.585c-0.16-0.169-0.305-0.401-0.435-0.696l-0.547,3.283
			l-1.63-0.272l1.463-8.778l1.578,0.263l-0.155,0.931c0.224-0.244,0.449-0.429,0.679-0.553c0.414-0.22,0.876-0.287,1.384-0.203
			C108.156,173.904,108.737,174.281,109.161,174.91z M107.699,175.884c-0.161-0.411-0.493-0.658-0.995-0.741
			c-0.603-0.102-1.065,0.113-1.386,0.642c-0.166,0.281-0.288,0.653-0.365,1.115c-0.122,0.732-0.012,1.279,0.332,1.642
			c0.204,0.212,0.466,0.346,0.786,0.398c0.463,0.077,0.845-0.041,1.147-0.355c0.303-0.313,0.504-0.766,0.602-1.354
			C107.901,176.744,107.861,176.295,107.699,175.884z"/>
	</g>
</g>
<g>
	<path fill="#FFCA1A" d="M63.936,152.32c-17.818,2.672-37.494,23.048-14.666,36.448c22.829,13.401,37.303,2.446,38.306-3.038
		s-4.896-20.602-10.645-28.982c5.517-3.246,11.558-12.42,6.946-12.254c-4.61,0.165-6.355,2.998-6.355,2.998s2.534-6.555-2.588-7.756
		c-5.121-1.201-6.092,5.205-6.092,5.205s-4.961-9.75-6.721-7.146C59.232,142.071,63.936,152.32,63.936,152.32z"/>
	<g>
		<path fill="#FFFFFF" d="M65.1,167.812c0.255,0.232,0.443,0.511,0.565,0.834c0.103,0.267,0.159,0.543,0.173,0.829
			c0.015,0.285-0.034,0.59-0.145,0.91c-0.135,0.388-0.364,0.735-0.689,1.042c-0.324,0.308-0.739,0.461-1.244,0.46
			c0.324,0.281,0.517,0.589,0.578,0.922c0.061,0.333-0.009,0.785-0.206,1.357l-0.19,0.549c-0.128,0.373-0.201,0.631-0.217,0.774
			c-0.027,0.226,0.023,0.417,0.154,0.573l-0.071,0.205l-1.883-0.65c0.011-0.199,0.024-0.357,0.041-0.477
			c0.034-0.244,0.092-0.486,0.171-0.728l0.252-0.763c0.172-0.523,0.202-0.901,0.09-1.135c-0.113-0.233-0.407-0.432-0.882-0.596
			l-1.666-0.576l-1.106,3.201l-1.667-0.576l2.822-8.163l3.904,1.35C64.438,167.359,64.844,167.578,65.1,167.812z M61.156,167.8
			l-0.759,2.192l1.836,0.635c0.364,0.127,0.653,0.177,0.866,0.151c0.376-0.044,0.644-0.294,0.802-0.752
			c0.171-0.495,0.13-0.882-0.123-1.159c-0.143-0.156-0.389-0.295-0.739-0.416L61.156,167.8z"/>
		<path fill="#FFFFFF" d="M72.12,173.109c0.313,0.691,0.294,1.54-0.054,2.548c-0.368,1.063-0.889,1.79-1.563,2.182
			s-1.391,0.456-2.148,0.193c-0.482-0.167-0.842-0.426-1.079-0.776c-0.129-0.193-0.233-0.446-0.312-0.758l-1.088,3.145l-1.562-0.539
			l2.909-8.412l1.511,0.522l-0.308,0.892c0.261-0.203,0.515-0.347,0.761-0.432c0.445-0.147,0.912-0.137,1.398,0.031
			C71.297,171.951,71.808,172.419,72.12,173.109z M70.516,173.826c-0.09-0.433-0.376-0.732-0.857-0.898
			c-0.577-0.199-1.068-0.065-1.473,0.402c-0.211,0.25-0.394,0.596-0.547,1.038c-0.242,0.702-0.225,1.26,0.054,1.675
			c0.166,0.242,0.401,0.418,0.708,0.523c0.444,0.153,0.841,0.101,1.191-0.158c0.352-0.259,0.624-0.671,0.819-1.236
			C70.572,174.707,70.607,174.258,70.516,173.826z"/>
	</g>
</g>
<g>
	<path fill="#FAAB6D" d="M70.733,148.299c0,0,10.1,2.583,10.608,6.244c0.508,3.661-1.014,5.097-2.003,4.967
		c-0.982,2.266-5.563,11.801-7.223,11.829c-1.657,0.028-8.472,0.217-12.161-5.421L70.733,148.299z"/>
	<path fill="#E8833E" d="M62.09,168.322c-0.774-0.654-1.502-1.438-2.135-2.404l10.778-17.619c0,0,1.414,0.362,3.208,1.006
		C71.242,153.523,66.013,161.772,62.09,168.322z"/>
	<path fill="#FAEBE1" d="M31.969,96.338c0,0-15.65,36.567,27.868,71.719c2.017-3.41,12.435-20.092,12.435-20.092
		c-18.211-7.464-43.226-17.107-35.999-48.5L31.969,96.338z"/>
</g>
</svg>
