<?xml version="1.0" encoding="utf-8"?>
<!-- Generator: Adobe Illustrator 16.0.0, SVG Export Plug-In . SVG Version: 6.00 Build 0)  -->
<!DOCTYPE svg PUBLIC "-//W3C//DTD SVG 1.0//EN" "http://www.w3.org/TR/2001/REC-SVG-20010904/DTD/svg10.dtd">
<svg version="1.0" id="Layer_1" xmlns="http://www.w3.org/2000/svg" xmlns:xlink="http://www.w3.org/1999/xlink" x="0px" y="0px"
	 width="155px" height="262.004px" viewBox="0 0 155 262.004" enable-background="new 0 0 155 262.004" xml:space="preserve">
<path fill="#636363" d="M27.246,57.004c0,0,64.46-3.752,106.069-19.1C102.62,24.943,84.544,26.99,84.544,26.99L43.958,37.222
	L27.246,57.004z"/>
<path fill="#C0B8A7" d="M27.042,119.247c0,0-21.739,7.033-24.938,11.509c-3.196,4.477,10.231,42.842,15.347,42.202
	s28.134-10.87,30.053-14.067C49.422,155.693,35.354,121.165,27.042,119.247z"/>
<g>
	<g>
		<path fill="#995D33" d="M86.953,78.288C64.102,94.658,41.25,111.029,18.399,127.4c-3.115,2.231-0.124,7.439,3.028,5.181
			C44.278,116.21,67.13,99.839,89.981,83.468C93.096,81.237,90.105,76.029,86.953,78.288L86.953,78.288z"/>
	</g>
</g>
<path fill="#E8833E" d="M118.677,71.744c0,0-8.03-6.634-6.933-10.16c1.1-3.527,3.086-4.177,3.926-3.639
	c1.853-1.63,10.053-8.3,11.564-7.619c1.512,0.68,7.752,3.41,8.688,10.078L118.677,71.744z"/>
<path fill="#E8833E" d="M133.459,95.268c-4.143-8.431-10.427-17.45-16.314-23.876c0,0,14.474-10.646,17.748-12.871
	c5.23,10.791,13.943,29.43,8.151,38.716L133.459,95.268z"/>
<g>
	<path fill="#E8833E" d="M133.115,88.305c-8.02,8.66-19.156,13.831-36.285,8.547l-3.43,4.062c0,0,21.782,11.268,49.644-3.677
		L133.115,88.305z"/>
</g>
<polygon fill="#FAAB6D" points="76.709,110.375 103.624,110.72 102.849,92.133 73.887,91.787 "/>
<path fill="#E8833E" d="M102.82,93.24c0,0-5.472,5.595-13.414,5.768c-13.218,0.287-18.617-5.089-18.617-5.089
	S94.122,88.504,102.82,93.24z"/>
<g>
	<path fill="#424242" d="M50.537,34.235c-8.45-3.978-13.783,3.071-0.83,31.449c10.664,23.359,5.162-5.796,5.162-5.796L50.537,34.235
		z"/>
	<path fill="#FAAB6D" d="M117.395,78.221c-1.544,4.222-4.083,8.008-8.017,11.021c-5.14,3.936-12.715,5.877-18.986,6.939
		c-8.695,1.473-17.829,1.933-24.953-4.041C53.65,82.256,52.014,64.12,50.336,49.979c-0.669-5.632-0.604-10.154-0.128-13.045
		c3.484-0.48,6.97-0.961,10.452-1.441c0.59-0.08,1.179-0.161,1.768-0.243c11.624-1.604,23.247-3.206,34.872-4.808
		c1.112-0.153,2.228-0.307,3.341-0.462c4.174-0.575,8.348-1.149,12.522-1.726c0.836,2.549,1.502,6.584,2.601,11.587
		C118.245,51.152,121.717,66.398,117.395,78.221z"/>
	<path fill="#424242" d="M48.559,50.865c-0.668-5.632-1.49-11.931-1.014-14.822c2.688-0.37,8.039,0.149,10.727-0.222l12.77,6.165
		c0,0-8.967,5.583-10.487,6.982c-1.521,1.398-1.168,10.422-1.168,10.422l0.882,27.056C53.1,76.207,49.953,62.605,48.559,50.865z"/>
	<circle fill="#424242" cx="111.904" cy="51.875" r="4.252"/>
	<circle fill="#424242" cx="82.439" cy="59.229" r="4.252"/>
	<g>
		<path fill="#424242" d="M117.004,41.223c-4.574-3.364-10.021-0.388-13.242,3.326c-1.606,1.853-4.729-0.375-3.11-2.242
			c4.591-5.296,12.21-8.892,18.596-4.195C121.236,39.575,118.996,42.688,117.004,41.223L117.004,41.223z"/>
	</g>
	<g>
		<path fill="#424242" d="M71,48.509c4.575-6.472,12.94-5.466,18.969-1.892c2.125,1.26-0.134,4.361-2.244,3.11
			c-4.23-2.509-10.336-3.612-13.614,1.024C72.684,52.771,69.573,50.526,71,48.509L71,48.509z"/>
	</g>
	<g>
		<g>
			<path fill="#F6A569" d="M59.386,59.391c-11.691-4.596-13.693,15.552,1.222,8.291L59.386,59.391z"/>
			<path fill="#E8833E" d="M58.017,63.369c-5.375-1.582-4.662,4.825,0.482,2.298L58.017,63.369z"/>
		</g>
		
			<ellipse transform="matrix(-0.937 0.3493 -0.3493 -0.937 125.6152 99.5944)" opacity="0.3" fill="#FFFFFF" cx="53.829" cy="61.122" rx="1.873" ry="1.087"/>
	</g>
	<g>
		<g>
			<path fill="#BD7E50" d="M108.658,75.005c-3.462,5.696-11.457,4.789-16.723,2.892c-1.825-0.658-2.604,2.242-0.798,2.893
				c6.646,2.395,15.921,2.625,20.111-4.271C112.256,74.861,109.661,73.354,108.658,75.005L108.658,75.005z"/>
		</g>
	</g>
</g>
<g>
	<path fill="#E8833E" d="M106.917,247.863l12.925,5.155c0,0,10.614-0.821,12.33,5.224c1.125,3.965,1.494,3.76,1.494,3.76
		c-10.383-0.815-37.293-1.459-37.293-1.459c0.09-3.415,4.415-12.262,4.415-12.262L106.917,247.863z"/>
	<path fill="#333333" d="M107.371,181.277c0,0,14.879,15.105,14.252,36.987c-0.254,8.874-6.49,21.34-6.747,34.12
		c-1.643,1.385-18.631,5.441-18.631,5.441c1.689-8.408,9.027-28.555,13.201-38.916c2.621-6.509-1.976-25.025-15.808-35.747
		L107.371,181.277z"/>
</g>
<g>
	<path fill="#FAAB6D" d="M80.807,247.896l13.323,4.018c0,0,10.503-1.736,12.735,4.137c1.463,3.854,1.888,5.262,1.888,5.262
		c-10.415,0.086-37.352,0.128-37.352,0.128c-0.207-3.409,2.985-11.307,2.985-11.307L80.807,247.896z"/>
	<path fill="#424242" d="M87.587,180.859c0,0,17.138,20.773,13.596,41.034c-1.685,9.639-4.643,14.764-9.048,30.194
		c-1.9,1.005-20.747,5.565-20.747,5.565c1.524-9.835,7.794-19.316,18.864-39.21c3.65-6.562-6.896-22.887-17.928-37.04
		L87.587,180.859z"/>
</g>
<path fill="#FAEBE1" d="M102.684,93.431c-0.018,11.515,17.38,71.327,17.008,71.833l-59.678-0.167
	c0.268-2.23,11.222-65.771,12.585-69.39c0,0,14.333,13.86,22.263,13.86S102.684,93.431,102.684,93.431z"/>
<path fill="#424242" d="M119.691,165.264c0,0-1.125,12.294-6.475,16.005c-5.354,3.71-34.714,12.085-50.081-0.957
	c-3.223-3.327-4.038-10.992-3.22-15.524L119.691,165.264z"/>
<g>
	<path fill="#FAAB6D" d="M77.506,162.724c0,0,7.313,7.418,5.86,10.813c-1.452,3.396-3.495,3.841-4.275,3.22
		c-2.009,1.433-10.847,7.231-12.281,6.401c-1.435-0.831-7.364-4.184-7.614-10.912L77.506,162.724z"/>
	<path fill="#FAAB6D" d="M71.116,98.256c-1.926,0.113-30.205,23.232-11.079,75.762c3.484-1.881,17.934-10.787,17.934-10.787
		c-11.738-15.779-27.155-36.933-4.782-60.078C73.188,103.152,76.7,97.931,71.116,98.256z"/>
</g>
<g>
	<g>
		<path fill="#995D33" d="M148.343,36.337c-8.186,6.139-16.371,12.278-24.557,18.417c-3.056,2.292-0.07,7.505,3.028,5.181
			c8.186-6.139,16.371-12.278,24.557-18.417C154.427,39.227,151.442,34.013,148.343,36.337L148.343,36.337z"/>
	</g>
</g>
<path fill="#C0B8A7" d="M133.315,37.904c0,0-19.358-6.724-27.83-3.371c-22.306,8.828-27.421,2.348-46.18,8.486
	c-18.758,6.14-19.1,6.14-32.06,13.984C35.09,45.407,40.548,39.95,41.57,33.812c1.023-6.14,2.803-27.704,29.672-32.742
	c27.285-5.116,37.518,15.348,41.27,20.805C116.263,27.331,129.905,31.424,133.315,37.904z"/>
</svg>
