<?xml version="1.0" encoding="utf-8"?>
<!-- Generator: Adobe Illustrator 16.0.0, SVG Export Plug-In . SVG Version: 6.00 Build 0)  -->
<!DOCTYPE svg PUBLIC "-//W3C//DTD SVG 1.0//EN" "http://www.w3.org/TR/2001/REC-SVG-20010904/DTD/svg10.dtd">
<svg version="1.0" id="Layer_1" xmlns="http://www.w3.org/2000/svg" xmlns:xlink="http://www.w3.org/1999/xlink" x="0px" y="0px"
	 width="104.005px" height="254.829px" viewBox="0 0 104.005 254.829" enable-background="new 0 0 104.005 254.829"
	 xml:space="preserve">
<g>
	<path fill="#046938" d="M25,101c0,0-14.5,32-11,43c0,0,10-10.5,11.5-5.5c6-4,4.5-37.5,4.5-37.5H25z"/>
	<path fill="#046938" d="M3,29.5c-6.127-9.19-9,78.5,39.5,76c20.858-1.075,35.5,5,34.5-25C69.5,89.5,41,86.5,3,29.5z"/>
	<g>
		<path fill="#FAAB6D" d="M95.621,135.49c0,0,8.167,2.741,8.364,5.789c0.197,3.049-1.144,4.139-1.951,3.973
			c-0.947,1.808-5.301,9.388-6.67,9.311c-1.368-0.077-6.995-0.335-9.694-5.205L95.621,135.49z"/>
		<path fill="#E8833E" d="M87.283,151.469c-0.598-0.586-1.15-1.277-1.613-2.111l9.951-13.867c0,0,1.144,0.384,2.584,1.023
			C95.725,139.827,90.914,146.309,87.283,151.469z"/>
		<path fill="#8EC641" d="M66.823,90.316c0,0-15.114,29.188,18.62,60.797c1.869-2.688,11.466-15.805,11.466-15.805
			c-14.556-7.256-34.587-16.721-26.728-42.154L66.823,90.316z"/>
	</g>
	<g>
		<path fill="#424242" d="M71.889,232.299c3.967,2.773,19.087,8.135,19.902,12.499c0.932,4.986-5.082,7.706-13.755,5.523
			c-8.674-2.183-10.719-6.485-10.719-6.485l0.344,5.617l-3.534,0.217c0,0-3.044-17.059,0.553-17.336
			C68.275,232.058,71.889,232.299,71.889,232.299z"/>
		<path fill="#FAAB6D" d="M67.879,168.805c0.938,2.209,6.279,18.72,11.035,33.449c2.425,7.508-4.096,26.242-2.35,29.771
			c2.801,5.659,6.145,5.423,6.635,7.835c0.788,3.867-6.064,5.437-16.104-2.86c-6.073-5.02,7.647-19.197,3.183-30.263
			c-7.026-17.412-12.297-34.576-12.297-34.576L67.879,168.805z"/>
	</g>
	<g>
		<path fill="#424242" d="M39.963,233.137c3.123,3.697,16.365,12.752,16.036,17.18c-0.377,5.059-6.886,6.146-14.711,1.815
			s-8.7-9.014-8.7-9.014l-1.106,5.519l-3.471-0.696c0,0,1.426-17.27,4.974-16.616C36.531,231.979,39.963,233.137,39.963,233.137z"/>
		<path fill="#FAAB6D" d="M52.348,170.732c0.34,2.377,1.275,19.705,2.101,35.16c0.421,7.879-10.681,24.318-9.896,28.176
			c1.258,6.189,4.551,6.816,4.407,9.273c-0.229,3.939-7.254,3.702-14.834-6.89c-4.586-6.407,12.309-16.598,10.826-28.438
			c-2.332-18.631-3.031-36.573-3.031-36.573L52.348,170.732z"/>
	</g>
	<path fill="#046938" d="M74.763,155l11.236,71.641c0,0-33.122,17.867-64.417,0.072L31.504,155H74.763z"/>
	<path fill="#696969" d="M35.74,91.949c0,0,9.946,3.217,32.821,0.323l-3.483,5.796l-23.617-0.176L35.74,91.949z"/>
	<rect x="39.887" y="89.112" fill="#FAAB6D" width="24.862" height="17.848"/>
	<path fill="#E8833E" d="M64.749,91.158c0,0-6.173,4.739-13.8,4.739s-11.063-4.739-11.063-4.739S56.338,86.723,64.749,91.158z"/>
	<g>
		<path fill="#FAAB6D" d="M78.771,76.484c-1.492,4.051-3.938,7.68-7.722,10.564c-4.942,3.768-12.22,5.614-18.244,6.621
			c-8.352,1.395-12.179-0.588-20.184-4.537c-17.084-8.427-16.591-26.331-18.171-39.912c-0.63-5.408-0.559-9.75-0.094-12.525
			c3.346-0.452,4.693-5.906,8.037-6.36c0.567-0.075,3.134,0.849,3.699,0.771c11.163-1.514,11.481-7.014,22.646-8.525
			c1.068-0.145,20.567-2.945,24.577-3.489c0.797,2.449,2.93,15.735,3.973,20.541C79.648,50.499,82.948,65.145,78.771,76.484z"/>
		<g>
			<path fill="#424242" d="M77.645,44.542c-4.385-3.24-9.62-0.395-12.721,3.165c-1.547,1.774-4.541-0.371-2.981-2.16
				c4.42-5.074,11.742-8.51,17.862-3.986C81.712,42.971,79.554,45.953,77.645,44.542L77.645,44.542z"/>
		</g>
		<g>
			<path fill="#424242" d="M26.631,50.049c4.406-6.202,12.437-5.218,18.216-1.773c2.037,1.215-0.138,4.188-2.161,2.981
				c-4.056-2.418-9.916-3.491-13.073,0.953C28.237,54.145,25.257,51.983,26.631,50.049L26.631,50.049z"/>
		</g>
		<path fill="#424242" d="M77.29,39.633C70,23.5,60.31,22.512,60.31,22.512S28.5,20.5,22.92,47.869
			c-3.067,4.726-1.859,31.205-1.859,31.205s-6.899-6.994-11.13-18.9C4.172,43.107,0.435,9.319,41.641,2.741
			c45.549-7.271,39.54,46.072,37.701,46.95C78.809,46.848,77.29,39.633,77.29,39.633z"/>
		<g>
			<circle fill="#424242" cx="70.844" cy="55.059" r="4.082"/>
			<g>
				<g>
					<path fill="#424242" d="M71.693,53.857c2.645,0.852,5.792,0.326,6.868-2.531c0.487-1.293-1.512-2.069-1.999-0.776
						c-0.654,1.735-2.695,1.759-4.092,1.309C71.159,51.437,70.378,53.434,71.693,53.857L71.693,53.857z"/>
				</g>
				<g>
					<path fill="#424242" d="M70.889,53.744c2.73-0.009,5.686-1.412,5.795-4.477c0.05-1.373-2.082-1.617-2.131-0.237
						c-0.044,1.219-0.721,1.918-1.852,2.294c-0.379,0.125-0.778,0.197-1.174,0.245c-0.188,0.023-0.809,0.045-0.401,0.043
						C69.76,51.617,69.511,53.748,70.889,53.744L70.889,53.744z"/>
				</g>
			</g>
		</g>
		<g>
			<circle fill="#424242" cx="42.296" cy="59.616" r="4.082"/>
			<g>
				<g>
					<path fill="#424242" d="M39.73,57.085c-1.189,0.864-3.135,1.477-4.297,0.03c-0.863-1.075-2.523,0.282-1.657,1.36
						c1.912,2.38,5.066,1.899,7.314,0.267C42.208,57.932,40.846,56.275,39.73,57.085L39.73,57.085z"/>
				</g>
				<g>
					<path fill="#424242" d="M40.932,56.433c0.357-0.116-0.139,0.032-0.336,0.073c-0.41,0.084-0.832,0.145-1.251,0.143
						c-1.193-0.005-2.052-0.456-2.474-1.604c-0.476-1.293-2.427-0.402-1.951,0.889c1.058,2.878,4.304,3.293,6.9,2.451
						C43.129,57.961,42.233,56.011,40.932,56.433L40.932,56.433z"/>
				</g>
			</g>
		</g>
		<g>
			<g>
				<path fill="#F6A569" d="M21.855,58.361c-11.215-4.439-13.182,14.899,1.154,7.962L21.855,58.361z"/>
				<path fill="#E8833E" d="M20.532,62.178c-5.157-1.532-4.487,4.622,0.457,2.207L20.532,62.178z"/>
			</g>
			
				<ellipse transform="matrix(-0.9379 0.3469 -0.3469 -0.9379 52.8257 110.5645)" opacity="0.3" fill="#FFFFFF" cx="16.516" cy="60.011" rx="1.799" ry="1.044"/>
		</g>
		<path fill="#046938" d="M80,47c0,0-4.5-21.5-33-21.5S15,74.5,36.5,91c0,0-30.5-7.5-36-48S46.5-6.5,62,3S83.5,24.5,80,47z"/>
		<g>
			<g>
				<path fill="#BD7E50" d="M67.658,75.005c-3.462,5.696-11.457,4.789-16.723,2.892c-1.825-0.658-2.604,2.242-0.798,2.893
					c6.646,2.395,15.921,2.625,20.111-4.271C71.256,74.861,68.661,73.354,67.658,75.005L67.658,75.005z"/>
			</g>
		</g>
	</g>
	<path fill="#8EC641" d="M68.562,92.272c0.054,4.563,7.909,16.685,5.083,29.323c-2.664,11.921,4.414,37.221,4.209,37.508
		l-48.295,0.604c0.125-1.164,1.49-19.812,0.873-37.524c-0.568-16.299,4.731-28.637,5.309-30.233l25.032,9.755L68.562,92.272z"/>
	<g>
		<path fill="#FAAB6D" d="M55.424,147.638c0,0,7.685,3.894,7.438,6.938c-0.245,3.045-1.73,3.93-2.505,3.647
			c-1.199,1.651-6.604,8.522-7.947,8.248c-1.343-0.274-6.873-1.344-8.839-6.554L55.424,147.638z"/>
		<path fill="#E8833E" d="M44.861,162.24c-0.508-0.666-0.953-1.43-1.291-2.322l11.854-12.28c0,0,1.075,0.545,2.408,1.386
			C54.897,151.943,49.2,157.66,44.861,162.24z"/>
		<path fill="#8EC641" d="M31.912,101.423c-3.915,7.591-12.275,30.758,11.18,60.2c2.238-2.39,13.633-13.979,13.633-13.979
			c-13.114-9.12-31.146-21.113-20.933-44.303c0.345-0.781,0.222-1.689-0.344-2.328L35.437,101
			C34.437,99.869,32.604,100.081,31.912,101.423z"/>
	</g>
	<path fill="#046938" d="M27.5,81c0,0,12,21.5,35,10C78,83,77,80.5,77,80.5s6.5,33-12.5,33S13.5,122,27.5,81z"/>
</g>
</svg>
