<?xml version="1.0" encoding="utf-8"?>
<!-- Generator: Adobe Illustrator 16.0.0, SVG Export Plug-In . SVG Version: 6.00 Build 0)  -->
<!DOCTYPE svg PUBLIC "-//W3C//DTD SVG 1.0//EN" "http://www.w3.org/TR/2001/REC-SVG-20010904/DTD/svg10.dtd">
<svg version="1.0" id="Layer_1" xmlns="http://www.w3.org/2000/svg" xmlns:xlink="http://www.w3.org/1999/xlink" x="0px" y="0px"
	 width="130.51px" height="264.272px" viewBox="0 0 130.51 264.272" enable-background="new 0 0 130.51 264.272"
	 xml:space="preserve">
<g>
	<path fill="#7D4926" d="M116.926,129.025c0,0,10.398-1.763,12.374,1.413c1.975,3.177,1.157,5.129,0.189,5.415
		c0.022,2.499-0.294,13.197-1.816,13.905c-1.521,0.708-7.743,3.683-13.472-0.015L116.926,129.025z"/>
	<g>
		<path fill="#046938" d="M71.125,113.641c-2.74-4.027-4.869-9.121-6.129-15.604l-5.265-1.121c0,0-0.462,9.634,5.255,20.494
			C66.871,116.252,69.5,114.391,71.125,113.641z"/>
	</g>
	<path fill="#7D4926" d="M71.125,113.641c-1.625,0.75-3.668,1.772-5.552,2.932c6.513,12.369,22.842,26.836,51.958,34.617
		c0.462-3.981,0.094-22.266,0.094-22.266C101.753,129.389,81.909,129.492,71.125,113.641z"/>
	<path fill="#7D4926" d="M66.615,118.416l5.73-3.107c-0.418-0.537-0.827-1.089-1.221-1.668c-1.625,0.75-3.668,1.772-5.552,2.932
		C65.895,117.182,66.246,117.797,66.615,118.416z"/>
</g>
<path fill="#696969" d="M31.82,97.48c0,0,9.419,1.486,33.581-1.244l-3.754,16.295l-24.901-8.703L31.82,97.48z"/>
<rect x="35.083" y="92.674" transform="matrix(-0.9999 -0.0133 0.0133 -0.9999 95.0182 204.8035)" fill="#995D33" width="26.218" height="18.822"/>
<path fill="#7D4926" d="M61.396,95.008c0,0-6.574,4.911-14.617,4.804s-11.599-5.152-11.599-5.152S52.59,90.213,61.396,95.008z"/>
<g>
	<path fill="#424242" d="M71.868,28.174c0,0-2.248-28.174-28.851-28.174C20.508,0,1.067,10.231,0.045,36.834
		C-0.979,63.438,71.868,28.174,71.868,28.174z"/>
	<path fill="#424242" d="M8.46,36.276c-8.556-4.027-13.955,1.063-0.84,29.796c10.797,23.651,5.228-5.869,5.228-5.869L8.46,36.276z"
		/>
	<path fill="#995D33" d="M76.152,78.764c-1.563,4.275-4.134,8.108-8.117,11.16c-5.203,3.985-12.873,5.95-19.223,7.026
		c-8.804,1.491-18.052,1.957-25.265-4.092C11.613,82.85,9.956,64.488,8.256,50.17c-0.677-5.702-0.611-10.281-0.129-13.208
		c3.527-0.485,7.057-0.973,10.582-1.46c0.598-0.08,1.194-0.162,1.791-0.245c11.769-1.624,23.537-3.247,35.307-4.868
		c1.127-0.155,2.256-0.31,3.383-0.467c4.226-0.582,8.452-1.164,12.679-1.748c0.847,2.581,1.521,6.666,2.633,11.732
		C77.014,51.359,80.529,66.795,76.152,78.764z"/>
	<path fill="#424242" d="M6.457,51.067c-0.676-5.702-1.509-12.079-1.025-15.007c2.721-0.375,8.139,0.15,10.859-0.225l12.93-1.943
		c0,0-9.079,13.839-10.618,15.255C17.063,50.563,17.42,59.7,17.42,59.7l0.893,27.393C11.055,76.726,7.869,62.954,6.457,51.067z"/>
	<circle fill="#424242" cx="70.594" cy="52.09" r="4.305"/>
	<circle fill="#424242" cx="40.762" cy="59.536" r="4.305"/>
	<g>
		<path fill="#424242" d="M75.757,41.305c-4.632-3.406-10.146-0.393-13.407,3.368c-1.627,1.876-4.789-0.38-3.149-2.271
			c4.649-5.361,12.362-9.001,18.827-4.246C80.042,39.637,77.773,42.788,75.757,41.305L75.757,41.305z"/>
	</g>
	<g>
		<path fill="#424242" d="M29.179,48.682c4.632-6.552,13.103-5.533,19.205-1.915c2.151,1.276-0.135,4.416-2.271,3.149
			c-4.284-2.54-10.467-3.657-13.785,1.037C30.883,52.996,27.734,50.725,29.179,48.682L29.179,48.682z"/>
	</g>
	<g>
		<g>
			<path fill="#995D33" d="M17.419,59.7c-11.837-4.653-13.864,15.745,1.237,8.394L17.419,59.7z"/>
			<path fill="#7D4926" d="M16.033,63.729c-5.442-1.604-4.72,4.885,0.488,2.326L16.033,63.729z"/>
		</g>
	</g>
	<g>
		<g>
			<path fill="#BD7E50" d="M64.398,78.273c-2.412,3.489-6.869,3.625-10.407,1.592c-1.26-0.725-2.393,1.22-1.136,1.942
				c4.621,2.655,10.297,2.213,13.485-2.398C67.168,78.211,65.217,77.088,64.398,78.273L64.398,78.273z"/>
		</g>
	</g>
</g>
<g>
	<path fill="#232323" d="M65.545,250.525l13.086,5.22c0,0,10.746-0.831,12.483,5.288c1.139,4.016,1.513,3.809,1.513,3.809
		c-10.513-0.826-37.758-1.479-37.758-1.479c0.09-3.457,4.47-12.414,4.47-12.414L65.545,250.525z"/>
	<path fill="#588591" d="M66.004,183.108c0,0,15.064,15.294,14.43,37.449c-0.257,8.985-6.57,21.606-6.831,34.546
		c-1.663,1.402-18.863,5.51-18.863,5.51c1.71-8.514,9.14-28.912,13.365-39.402c2.654-6.59-2-25.338-16.005-36.193L66.004,183.108z"
		/>
</g>
<g>
	<path fill="#2E2E2E" d="M39.108,250.56l13.489,4.068c0,0,10.634-1.759,12.894,4.188c1.481,3.901,1.911,5.327,1.911,5.327
		c-10.544,0.088-37.816,0.13-37.816,0.13c-0.211-3.451,3.021-11.448,3.021-11.448L39.108,250.56z"/>
	<path fill="#76A5B5" d="M45.973,182.686c0,0,17.352,21.032,13.766,41.546c-1.706,9.76-4.701,14.948-9.161,30.572
		c-1.924,1.017-21.006,5.634-21.006,5.634c1.543-9.957,7.892-19.557,19.099-39.699c3.697-6.644-6.98-23.173-18.15-37.502
		L45.973,182.686z"/>
</g>
<path fill="#00A79C" d="M65.401,96.236c-0.018,11.659,13.454,70.146,13.077,70.658l-60.424-0.169
	c0.271-2.259,11.361-65.581,12.742-69.245c0,0,16.852,9.852,24.641,9.852C63.226,107.332,65.401,96.236,65.401,96.236z"/>
<path fill="#76A5B5" d="M78.479,166.895c0,0-1.14,12.447-6.556,16.205c-5.422,3.757-35.147,12.236-50.706-0.969
	c-3.264-3.369-4.09-11.13-3.26-15.719L78.479,166.895z"/>
<g>
	<path fill="#995D33" d="M35.766,164.322c0,0,7.404,7.511,5.934,10.949c-1.471,3.439-3.539,3.889-4.328,3.26
		c-2.035,1.45-10.982,7.322-12.436,6.48c-1.451-0.84-7.456-4.234-7.71-11.047L35.766,164.322z"/>
	<g>
		<path fill="#00A79C" d="M22.121,117.973c1.729-4.554,4.684-9.217,9.273-13.965l-2.098-4.957c0,0-8.161,5.143-13.783,16.053
			C17.543,115.983,20.575,117.07,22.121,117.973z"/>
	</g>
	<path fill="#995D33" d="M22.121,117.973c-1.546-0.902-3.555-1.989-5.584-2.869c-6.403,12.426-8.898,34.099,1.413,62.418
		c3.528-1.903,18.3-12.686,18.3-12.686C26.771,152.097,15.313,135.896,22.121,117.973z"/>
	<path fill="#7D4926" d="M15.623,117.014l5.831,2.916c0.201-0.65,0.418-1.303,0.667-1.957c-1.546-0.902-3.555-1.989-5.584-2.869
		C16.222,115.716,15.918,116.357,15.623,117.014z"/>
</g>
</svg>
