<?xml version="1.0" encoding="utf-8"?>
<!-- Generator: Adobe Illustrator 16.0.0, SVG Export Plug-In . SVG Version: 6.00 Build 0)  -->
<!DOCTYPE svg PUBLIC "-//W3C//DTD SVG 1.0//EN" "http://www.w3.org/TR/2001/REC-SVG-20010904/DTD/svg10.dtd">
<svg version="1.0" id="Layer_1" xmlns="http://www.w3.org/2000/svg" xmlns:xlink="http://www.w3.org/1999/xlink" x="0px" y="0px"
	 width="298.377px" height="91.969px" viewBox="0 0 298.377 91.969" enable-background="new 0 0 298.377 91.969"
	 xml:space="preserve">
<g>
	<path fill="#D8D1BD" d="M273.75,15.641h-12.298L236.948,86.42c-0.66,2.834,1.493,5.549,4.405,5.549h0.091
		c2.104,0,3.931-1.451,4.408-3.5l17.161-39.248c1.133-4.853,8.045-4.853,9.175,0l17.164,39.248c0.478,2.049,2.304,3.5,4.403,3.5
		h0.094c2.914,0,5.069-2.715,4.407-5.549L273.75,15.641z"/>
	<polygon fill="#C0B8A7" points="272.374,9.731 262.829,9.731 261.452,15.641 273.75,15.641 	"/>
	<path fill="#402313" d="M288.75,9.731h-49.485V0h49.485c2.662,0,4.817,2.155,4.817,4.814v0.098
		C293.567,7.576,291.412,9.731,288.75,9.731"/>
	<path fill="#D8D1BD" d="M5.699,91.969h0.093c2.103,0,3.929-1.451,4.406-3.5l17.163-39.248c1.131-4.853,8.043-4.853,9.174,0
		l17.163,39.248c0.478,2.049,2.302,3.5,4.405,3.5h0.094c2.912,0,5.065-2.715,4.405-5.549L38.096,15.641H25.8L1.294,86.42
		C0.634,89.254,2.787,91.969,5.699,91.969"/>
	<polygon fill="#C0B8A7" points="27.175,9.731 25.8,15.641 38.096,15.641 36.72,9.731 	"/>
	<path fill="#735043" d="M240.664,9.731H4.819C2.159,9.731,0,7.576,0,4.912V4.814C0,2.155,2.159,0,4.819,0h235.845
		c2.661,0,4.819,2.155,4.819,4.814v0.098C245.483,7.576,243.325,9.731,240.664,9.731"/>
	<rect x="7.39" y="70.533" fill="#C0B8A7" width="49.995" height="7.785"/>
	<rect x="242.072" y="70.533" fill="#C0B8A7" width="49.995" height="7.785"/>
</g>
</svg>
