<?xml version="1.0" encoding="utf-8"?>
<!-- Generator: Adobe Illustrator 16.0.0, SVG Export Plug-In . SVG Version: 6.00 Build 0)  -->
<!DOCTYPE svg PUBLIC "-//W3C//DTD SVG 1.0//EN" "http://www.w3.org/TR/2001/REC-SVG-20010904/DTD/svg10.dtd">
<svg version="1.0" id="Layer_1" xmlns="http://www.w3.org/2000/svg" xmlns:xlink="http://www.w3.org/1999/xlink" x="0px" y="0px"
	 width="271.561px" height="204.988px" viewBox="0 0 271.561 204.988" enable-background="new 0 0 271.561 204.988"
	 xml:space="preserve">
<g>
	<path fill="#D8D1BD" d="M201.006,128.386c1.48,0,2.681-1.202,2.681-2.685v-10.842c0-1.482-1.2-2.684-2.681-2.684
		c-1.482,0-2.685,1.201-2.685,2.684v10.842C198.321,127.184,199.523,128.386,201.006,128.386"/>
	<path fill="#D8D1BD" d="M250.854,128.386c1.482,0,2.685-1.202,2.685-2.685v-10.842c0-1.482-1.202-2.684-2.685-2.684
		c-1.48,0-2.683,1.201-2.683,2.684v10.842C248.171,127.184,249.373,128.386,250.854,128.386"/>
	<path fill="#D8D1BD" d="M188.919,204.988h5.367v-66.75c0-3.899,3.172-7.071,7.071-7.071h49.142c3.9,0,7.074,3.172,7.074,7.071
		v66.75h5.367v-66.75c0-6.857-5.581-12.439-12.441-12.439h-49.142c-6.857,0-12.438,5.582-12.438,12.439V204.988z"/>
	<path fill="#D8D1BD" d="M21.092,128.386c1.482,0,2.685-1.202,2.685-2.685v-10.842c0-1.482-1.202-2.684-2.685-2.684
		s-2.685,1.201-2.685,2.684v10.842C18.407,127.184,19.609,128.386,21.092,128.386"/>
	<path fill="#D8D1BD" d="M70.939,128.386c1.482,0,2.685-1.202,2.685-2.685v-10.842c0-1.482-1.202-2.684-2.685-2.684
		c-1.48,0-2.683,1.201-2.683,2.684v10.842C68.257,127.184,69.459,128.386,70.939,128.386"/>
	<path fill="#D8D1BD" d="M9.005,204.988h5.369v-66.75c0-3.899,3.172-7.071,7.071-7.071h49.142c3.899,0,7.072,3.172,7.072,7.071
		v66.75h5.366v-66.75c0-6.857-5.58-12.439-12.438-12.439H21.445c-6.857,0-12.44,5.582-12.44,12.439V204.988z"/>
	<rect y="110.469" fill="#402313" width="271.561" height="8.782"/>
	<rect x="180.299" y="110.469" fill="#735043" width="91.262" height="8.782"/>
</g>
<g>
	<path fill="#ECF1EF" d="M196.226,104.494h61.215c2.896,0,5.242,2.346,5.242,5.241h-71.698
		C190.984,106.84,193.331,104.494,196.226,104.494"/>
	<path fill="#ECF1EF" d="M221.251,86.241l-108.628,0.018c-3.708,0.002-6.71-3.079-6.708-6.879l0.045-72.477
		c0.004-3.802,3.01-6.884,6.719-6.885L221.319,0c3.709,0,6.713,3.08,6.709,6.882l-0.059,72.477
		C227.964,83.159,224.957,86.241,221.251,86.241"/>
	<path fill="#D8D1BD" d="M215.196,86.241l-108.63,0.018c-3.706,0.002-6.708-3.079-6.706-6.879l0.045-72.477
		c0.002-3.802,3.011-6.884,6.719-6.885L215.265,0c3.709,0,6.711,3.08,6.709,6.882l-0.061,72.477
		C221.911,83.159,218.902,86.241,215.196,86.241"/>
	<path fill="#D8D1BD" d="M157.398,86.229h13.496V51.384h-10.142c-1.853,0-3.354,1.502-3.354,3.356V86.229z"/>
	<path fill="#E1DCD2" d="M130.529,109.197h21.523l6.593-44.949c1.435-9.035,7.278-12.864,12.249-12.864h-15.873
		c-7.084,0-13.532,5.298-14.998,12.321L130.529,109.197z"/>
	<path fill="#ECF1EF" d="M150.984,109.197h36.438c0-2.33-1.889-4.219-4.219-4.219h-27.421l5.272-40.73
		c0.638-4.93,4.868-8.646,9.839-8.646v-4.219c-7.086,0-13.114,5.298-14.022,12.321L150.984,109.197z"/>
</g>
</svg>
