<?xml version="1.0" encoding="utf-8"?>
<!-- Generator: Adobe Illustrator 16.0.0, SVG Export Plug-In . SVG Version: 6.00 Build 0)  -->
<!DOCTYPE svg PUBLIC "-//W3C//DTD SVG 1.0//EN" "http://www.w3.org/TR/2001/REC-SVG-20010904/DTD/svg10.dtd">
<svg version="1.0" id="Layer_1" xmlns="http://www.w3.org/2000/svg" xmlns:xlink="http://www.w3.org/1999/xlink" x="0px" y="0px"
	 width="298.906px" height="206.456px" viewBox="0 0 298.906 206.456" enable-background="new 0 0 298.906 206.456"
	 xml:space="preserve">
<g>
	<g>
		<polygon fill="#C0BEBE" points="111.794,166.712 108.181,163.098 108.181,157.985 111.794,154.367 116.906,154.367 
			120.522,157.985 120.522,163.098 116.906,166.712 		"/>
		<polygon fill="#DDE2E2" points="106.7,157.197 103.085,153.583 103.085,148.471 106.7,144.86 111.812,144.86 115.428,148.471 
			115.428,153.583 111.812,157.197 		"/>
		<polygon fill="#DDE2E2" points="68.267,206.456 64.652,202.837 64.652,197.726 68.267,194.111 73.378,194.111 76.994,197.726 
			76.994,202.837 73.378,206.456 		"/>
		<polygon fill="#FFFFFF" points="89.941,168.158 85.873,164.095 85.873,158.342 89.941,154.274 95.693,154.274 99.76,158.342 
			99.76,164.095 95.693,168.158 		"/>
		<polygon fill="#C0BEBE" points="95.78,161.312 91.712,157.243 91.712,151.495 95.78,147.427 101.532,147.427 105.599,151.495 
			105.599,157.243 101.532,161.312 		"/>
		<polygon fill="#FFFFFF" points="106.38,168.256 102.313,164.188 102.313,158.436 106.38,154.367 112.132,154.367 116.197,158.436 
			116.197,164.188 112.132,168.256 		"/>
		<polygon fill="#735043" points="120.081,163.255 81.975,163.255 81.975,173.452 84.145,173.452 84.145,206.456 117.911,206.456 
			117.911,173.452 120.081,173.452 		"/>
		<rect x="84.145" y="173.452" fill="#402313" width="33.682" height="4.021"/>
	</g>
	<path fill="#DDE2E2" d="M143.448,86.515h-0.002c0.307-0.627,0.41-1.349,0.267-2.057l-16.72-81.873
		c-0.264-1.278-1.277-2.243-2.526-2.466l0,0l-0.002-0.003c-0.173-0.031-0.347-0.046-0.524-0.046c-2.206-0.159-6.38,0.002-6.38,0.002
		l3.597,5.741l15.758,77.772l-2.429,7.4c0,0,6.711-0.339,8.876-4.318c0.023-0.042,0.051-0.085,0.072-0.132
		C143.435,86.536,143.443,86.523,143.448,86.515"/>
	<path fill="#D8D1BD" d="M134.486,90.986H31.807c-2.554,0-4.757-1.803-5.265-4.31L10.24,6.224c-0.646-3.182,1.787-6.156,5.035-6.156
		h102.146c1.497,0,2.787,1.057,3.084,2.525l17.129,84.542C138.037,89.124,136.517,90.986,134.486,90.986"/>
	<path fill="#E1DCD2" d="M78.403,114.547H60.076c-2.488,0-4.389-2.214-4.007-4.675L63.805,62.1h23.064l-2.626,52.447H78.403z"/>
	<path fill="#DDE2E2" d="M100.499,106.813h-8.861c-3.449,0-6.084-3.08-5.549-6.486l5.457-32.822c0.445-2.839-1.75-5.405-4.622-5.405
		h-0.055l-7.261,44.714l-0.373,2.401c-0.437,2.804,1.732,5.332,4.568,5.332h0.053h23.359v-1.019
		C107.216,109.821,104.208,106.813,100.499,106.813"/>
	<path fill="#D8D1BD" d="M274.28,130.128h-12.298l-24.505,70.779c-0.659,2.834,1.493,5.549,4.405,5.549h0.092
		c2.104,0,3.931-1.451,4.407-3.5l17.162-39.248c1.132-4.853,8.045-4.853,9.175,0l17.164,39.248c0.477,2.049,2.303,3.5,4.403,3.5
		h0.093c2.915,0,5.069-2.715,4.407-5.549L274.28,130.128z"/>
	<polygon fill="#C0B8A7" points="272.903,124.219 263.358,124.219 261.982,130.128 274.28,130.128 	"/>
	<path fill="#402313" d="M289.28,124.219h-49.486v-9.731h49.486c2.662,0,4.816,2.155,4.816,4.814v0.098
		C294.097,122.063,291.942,124.219,289.28,124.219"/>
	<path fill="#D8D1BD" d="M6.229,206.456h0.093c2.103,0,3.929-1.451,4.405-3.5l17.164-39.248c1.13-4.853,8.043-4.853,9.173,0
		l17.163,39.248c0.479,2.049,2.302,3.5,4.406,3.5h0.093c2.912,0,5.065-2.715,4.406-5.549l-24.507-70.779H26.33L1.823,200.907
		C1.164,203.741,3.317,206.456,6.229,206.456"/>
	<polygon fill="#C0B8A7" points="27.704,124.219 26.33,130.128 38.626,130.128 37.249,124.219 	"/>
	<path fill="#735043" d="M241.194,124.219H5.349c-2.66,0-4.818-2.155-4.818-4.819v-0.098c0-2.659,2.158-4.814,4.818-4.814h235.846
		c2.661,0,4.818,2.155,4.818,4.814v0.098C246.013,122.063,243.855,124.219,241.194,124.219"/>
	<rect x="7.919" y="185.021" fill="#C0B8A7" width="49.996" height="7.784"/>
	<rect x="242.603" y="185.021" fill="#C0B8A7" width="49.995" height="7.784"/>
</g>
</svg>
