<?xml version="1.0" encoding="utf-8"?>
<!-- Generator: Adobe Illustrator 16.0.0, SVG Export Plug-In . SVG Version: 6.00 Build 0)  -->
<!DOCTYPE svg PUBLIC "-//W3C//DTD SVG 1.0//EN" "http://www.w3.org/TR/2001/REC-SVG-20010904/DTD/svg10.dtd">
<svg version="1.0" id="Layer_1" xmlns="http://www.w3.org/2000/svg" xmlns:xlink="http://www.w3.org/1999/xlink" x="0px" y="0px"
	 width="298.376px" height="206.457px" viewBox="0 0 298.376 206.457" enable-background="new 0 0 298.376 206.457"
	 xml:space="preserve">
<g>
	<g>
		<polygon fill="#735043" points="119.551,163.255 81.444,163.255 81.444,173.453 83.614,173.453 83.614,206.457 117.381,206.457 
			117.381,173.453 119.551,173.453 		"/>
		<rect x="83.614" y="173.453" fill="#402313" width="33.682" height="4.021"/>
	</g>
	<path fill="#DDE2E2" d="M142.918,86.515h-0.002c0.307-0.627,0.41-1.349,0.267-2.057l-16.72-81.873
		c-0.264-1.278-1.277-2.244-2.526-2.467l0,0l-0.002-0.002c-0.173-0.031-0.347-0.047-0.524-0.047c-2.206-0.158-6.38,0.003-6.38,0.003
		l3.597,5.741l15.758,77.772l-2.429,7.4c0,0,6.711-0.339,8.876-4.318c0.023-0.042,0.051-0.085,0.072-0.132
		C142.904,86.537,142.913,86.524,142.918,86.515"/>
	<path fill="#D8D1BD" d="M133.956,90.987H31.276c-2.554,0-4.757-1.803-5.265-4.31L9.71,6.224c-0.646-3.182,1.787-6.156,5.035-6.156
		h102.146c1.497,0,2.787,1.057,3.084,2.525l17.129,84.542C137.507,89.125,135.986,90.987,133.956,90.987"/>
	<path fill="#E1DCD2" d="M77.873,114.548H59.546c-2.488,0-4.389-2.215-4.007-4.676l7.735-47.771h23.064l-2.626,52.447H77.873z"/>
	<path fill="#DDE2E2" d="M99.969,106.814h-8.861c-3.449,0-6.084-3.08-5.549-6.486l5.457-32.822c0.445-2.839-1.75-5.404-4.622-5.404
		h-0.055l-7.261,44.713l-0.373,2.401c-0.438,2.804,1.732,5.333,4.568,5.333h0.053h23.359v-1.02
		C106.686,109.822,103.678,106.814,99.969,106.814"/>
	<path fill="#DDE2E2" d="M184.547,106.75h-66.016c-4.299,0-7.784,3.482-7.784,7.784v0.08h66.017v-0.08
		C176.764,110.233,180.25,106.75,184.547,106.75"/>
	<path fill="#FBB93A" d="M197.657,102.666c0-5.15-4.187-9.332-9.33-9.332h-1.337v-1.235h-23.726v10.589
		c0,6.554,5.312,11.861,11.861,11.861c2.778,0,5.33-0.955,7.354-2.555h5.848C193.471,111.994,197.657,107.806,197.657,102.666
		 M194.244,102.666c0,3.262-2.653,5.918-5.917,5.918h-2.906c0.997-1.74,1.569-3.75,1.569-5.896v-5.939h1.337
		C191.591,96.748,194.244,99.399,194.244,102.666"/>
	<path fill="#D8D1BD" d="M273.75,130.128h-12.298l-24.505,70.779c-0.659,2.834,1.493,5.549,4.405,5.549h0.092
		c2.104,0,3.931-1.451,4.407-3.5l17.162-39.248c1.132-4.853,8.045-4.853,9.175,0l17.164,39.248c0.477,2.049,2.302,3.5,4.404,3.5
		h0.092c2.916,0,5.07-2.715,4.408-5.549L273.75,130.128z"/>
	<polygon fill="#C0B8A7" points="272.373,124.219 262.828,124.219 261.452,130.128 273.75,130.128 	"/>
	<path fill="#402313" d="M288.75,124.219h-49.486v-9.731h49.486c2.663,0,4.817,2.155,4.817,4.814v0.098
		C293.567,122.064,291.413,124.219,288.75,124.219"/>
	<path fill="#D8D1BD" d="M5.699,206.457h0.093c2.103,0,3.929-1.451,4.405-3.5l17.164-39.248c1.13-4.853,8.043-4.853,9.173,0
		l17.163,39.248c0.479,2.049,2.302,3.5,4.406,3.5h0.093c2.912,0,5.065-2.715,4.406-5.549l-24.507-70.779H25.8L1.293,200.908
		C0.634,203.742,2.787,206.457,5.699,206.457"/>
	<polygon fill="#C0B8A7" points="27.174,124.219 25.8,130.128 38.096,130.128 36.719,124.219 	"/>
	<path fill="#735043" d="M240.664,124.219H4.818c-2.66,0-4.818-2.155-4.818-4.819v-0.098c0-2.659,2.158-4.814,4.818-4.814h235.846
		c2.661,0,4.818,2.155,4.818,4.814v0.098C245.482,122.064,243.325,124.219,240.664,124.219"/>
	<rect x="7.389" y="185.021" fill="#C0B8A7" width="49.996" height="7.785"/>
	<rect x="242.072" y="185.021" fill="#C0B8A7" width="49.995" height="7.785"/>
</g>
</svg>
