<?xml version="1.0" encoding="utf-8"?>
<!-- Generator: Adobe Illustrator 16.0.0, SVG Export Plug-In . SVG Version: 6.00 Build 0)  -->
<!DOCTYPE svg PUBLIC "-//W3C//DTD SVG 1.1//EN" "http://www.w3.org/Graphics/SVG/1.1/DTD/svg11.dtd">
<svg version="1.1" id="Layer_1" xmlns="http://www.w3.org/2000/svg" xmlns:xlink="http://www.w3.org/1999/xlink" x="0px" y="0px"
	 width="195.917px" height="435.768px" viewBox="0 0 195.917 435.768" enable-background="new 0 0 195.917 435.768"
	 xml:space="preserve">
<g>
	<g>
		<path fill="#424242" d="M81.647,403.986c-6.175,4.906-30.236,15.13-31.128,22.311c-1.02,8.203,9.416,12.028,23.307,7.615
			C87.717,429.5,91,422.297,91,422.297V432h5c0,0,3.255-28.315-2.622-28.408C87.5,403.5,81.647,403.986,81.647,403.986z"/>
		<path fill="#FAAB6D" d="M82.498,302.116C82,308,82.498,373,82.498,392s-18.722,19.53-18.722,23.265
			c0,3.735,15.604,14.266,26.413-4C101,393,99.529,302.289,99.529,302.289L82.498,302.116z"/>
	</g>
	<g>
		<path fill="#424242" d="M139.399,403.986c6.175,4.906,30.236,15.13,31.128,22.311c1.019,8.203-9.439,12.028-23.33,7.615
			C133.306,429.5,130,422.297,130,422.297V432h-4.953c0,0-3.256-28.315,2.622-28.408C133.547,403.5,139.399,403.986,139.399,403.986
			z"/>
		<path fill="#FAAB6D" d="M139.548,302.116c0.499,5.884,0,70.884,0,89.884s17.722,19.53,17.722,23.265
			c0,3.735-15.603,14.266-26.413-4c-10.81-18.265-9.339-108.976-9.339-108.976L139.548,302.116z"/>
	</g>
	<g>
		<path fill="#FAAB6D" d="M11.301,111.279l-3.588-9.615l-5.09-19.547c0,0-2.771-19.474-2.3-20.61
			c1.285-3.101,4.675-2.913,6.25-0.972c1.02,1.256,2.042,16.801,2.042,16.801l2.824-0.234c0,0-0.126-19.494,0.121-23.327
			c0.271-4.208,7.085-3.261,7.248-0.538c0.181,3.012,0.065,21.579,0.065,21.579l3.71,0.022c0,0,0.973-17.101,1.886-22.927
			c0.503-3.202,6.196-2.295,6.535,0.818c0.17,1.57-1.253,22.905-1.253,22.905l4.1,17.615l-2.758,14.77L11.301,111.279z"/>
		<polygon fill="#E8833E" points="33.852,93.25 31.649,83.789 30.916,85.097 17.856,89.174 17.293,99.253 30.238,107.981 
			31.556,105.542 		"/>
		<path fill="#FAAB6D" d="M29.341,108.74c0,0,10.92-12.313,12.011-16.097c1.092-3.782,1.209-10.089,0.854-13.202
			c-0.487-4.289,1.378-6.222,0.063-8.271c-0.997-1.553-5.799-1.869-6.456,1.224c-0.662,3.118-0.611,7.873-0.841,8.84
			c-0.229,0.966-3.494,5.512-3.494,5.512L20.32,89.662l-2.888,9.653L29.341,108.74z"/>
	</g>
	<path fill="#FAEBE1" d="M101.067,179.039c0,0-68.744,9.801-68.744-73.343l-22.134,3.867c0,0-0.044,85.493,91.396,81.302
		L101.067,179.039z"/>
	<path fill="#FAEBE1" d="M135.787,176.196c0,0,44.213,16.304,57.713,38.804s-33.939,49.158-33.939,49.158
		s-10.939-15.641-10.951-15.658c0.951,1.36,21.534-15.553,22.997-17.622c13.592-19.221-24.756-39.725-38.705-44.738L135.787,176.196
		z"/>
	<path fill="#EE8122" d="M74.335,278l-18.31,35.25c0,0,53.975,29.125,104.975,0.125L144.83,278H74.335z"/>
	<path fill="#696969" d="M137.926,175.221c0,0-16.207,5.243-53.485,0.527l5.677,9.445l38.486-0.287L137.926,175.221z"/>
	<rect x="90.654" y="170.598" fill="#FAAB6D" width="40.515" height="29.084"/>
	<path fill="#E8833E" d="M90.654,173.933c0,0,10.058,7.723,22.487,7.723s18.027-7.723,18.027-7.723S104.361,166.705,90.654,173.933z
		"/>
	<g>
		<path fill="#424242" d="M77.538,32.522C74.261,21.52,76.041,0.49,101.842-0.057c25.801-0.548,32.906,23.966,50.354,23.392
			c17.448-0.573,22.612-15.001,22.612-15.001s-7.15,63.287-45.461,64.501C91.036,74.049,77.538,32.522,77.538,32.522z"/>
		<path fill="#EE8122" d="M91.33,30.62c0,0,27.343-26.127,49.341,7.676C140.671,38.296,108.364,52.293,91.33,30.62z"/>
		<g>
			<g>
				<path fill="#F6A569" d="M158.561,112.422c16.906-10.024,25.039,20.591,0.188,13.109L158.561,112.422z"/>
				<path fill="#E8833E" d="M161.67,118.224c7.905-3.79,8.407,6.285-0.17,3.669L161.67,118.224z"/>
			</g>
			
				<ellipse transform="matrix(0.9808 0.1949 -0.1949 0.9808 25.379 -30.4844)" opacity="0.3" fill="#FFFFFF" cx="167.576" cy="113.704" rx="2.931" ry="1.701"/>
		</g>
		<g>
			<g>
				<path fill="#F6A569" d="M59.244,114.182c-18.205-7.407-21.71,24.077,1.758,12.993L59.244,114.182z"/>
				<path fill="#E8833E" d="M57.028,120.381c-8.38-2.576-7.382,7.463,0.712,3.604L57.028,120.381z"/>
			</g>
			
				<ellipse transform="matrix(0.9563 -0.2925 0.2925 0.9563 -32.0363 19.933)" opacity="0.3" fill="#FFFFFF" cx="50.629" cy="117.082" rx="2.931" ry="1.701"/>
		</g>
		<path fill="#FAAB6D" d="M63.86,156.208c3.441,6.136,8.31,11.347,15.139,15.017c8.922,4.794,21.107,5.896,31.06,5.968
			c13.798,0.1,28.02-1.476,37.527-12.485c15.732-18.216,13.723-46.635,12.776-68.895c-0.377-8.866-1.607-15.835-3.067-20.181
			c-5.501,0.131-11.005,0.261-16.503,0.389c-0.932,0.024-1.861,0.047-2.792,0.067c-18.353,0.433-21.306-14.773-39.661-14.338
			c-1.757,0.042-18.916,15.723-20.674,15.762c-6.591,0.156-13.181,0.313-19.772,0.467c-0.653,4.146-0.673,10.545-1.116,18.547
			C55.773,114.617,54.226,139.032,63.86,156.208z"/>
		<circle fill="#424242" cx="83.537" cy="119.692" r="6.652"/>
		<circle fill="#424242" cx="133.754" cy="119.692" r="6.652"/>
		<g>
			<path fill="#424242" d="M72.997,104.516c6.223-6.34,15.38-3.105,21.284,1.825c2.944,2.459,7.211-1.764,4.242-4.242
				c-8.416-7.029-21.082-10.677-29.769-1.825C66.048,103.031,70.287,107.277,72.997,104.516L72.997,104.516z"/>
		</g>
		<g>
			<path fill="#424242" d="M148.74,100.273c-8.686-8.85-21.354-5.203-29.77,1.825c-2.967,2.478,1.297,6.702,4.243,4.242
				c5.906-4.933,15.062-8.165,21.283-1.825C147.206,107.276,151.448,103.032,148.74,100.273L148.74,100.273z"/>
		</g>
		<path fill="#424242" d="M56.776,96.525C81.317,95.066,98.339,64.61,98.339,64.61s16.386,30.347,62.023,31.202
			c0.326,7.574,0.138,15.571,0.138,15.571s5-1,9.95,0.892C175.333,83.333,172.667,28,104.667,28
			c-75.167,0-54.038,85.787-54.038,85.787s2.245-1.49,5.431-0.548C56.187,108.524,56.776,96.525,56.776,96.525z"/>
		<g>
			<g>
				<g>
					<path fill="#424242" d="M80.411,115.498c-2.633,1.337-6.131,1.598-7.772-1.278c-0.718-1.26-2.663-0.126-1.942,1.136
						c2.288,4.01,7.112,3.983,10.851,2.085C82.84,116.783,81.701,114.842,80.411,115.498L80.411,115.498z"/>
				</g>
			</g>
			<g>
				<g>
					<path fill="#424242" d="M82.363,114.819c0.28-0.043-0.497,0.041-0.726,0.053c-0.69,0.036-1.395,0.014-2.078-0.088
						c-2.162-0.324-3.707-1.471-4.14-3.674c-0.28-1.423-2.448-0.819-2.17,0.598c0.893,4.541,5.628,5.92,9.711,5.282
						C84.392,116.766,83.782,114.598,82.363,114.819L82.363,114.819z"/>
				</g>
			</g>
		</g>
		<g>
			<g>
				<g>
					<path fill="#424242" d="M135.782,117.44c3.739,1.899,8.563,1.925,10.852-2.085c0.721-1.262-1.224-2.396-1.942-1.136
						c-1.642,2.876-5.14,2.615-7.773,1.278C135.627,114.842,134.488,116.783,135.782,117.44L135.782,117.44z"/>
				</g>
			</g>
			<g>
				<g>
					<path fill="#424242" d="M134.368,116.989c4.083,0.638,8.818-0.741,9.71-5.282c0.278-1.417-1.89-2.021-2.17-0.598
						c-0.419,2.134-1.81,3.194-3.867,3.626c-0.705,0.147-1.439,0.159-2.156,0.144c-0.263-0.005-1.178-0.1-0.919-0.06
						C133.547,114.598,132.938,116.766,134.368,116.989L134.368,116.989z"/>
				</g>
			</g>
		</g>
		<g>
			<g>
				<path fill="#BD7E50" d="M92.743,154.308c9.907,7.588,23.044,7.335,32.759-0.235c1.525-1.188-0.615-3.295-2.121-2.121
					c-8.725,6.799-20.407,6.442-29.124-0.235C92.721,150.541,91.229,153.148,92.743,154.308L92.743,154.308z"/>
			</g>
		</g>
	</g>
	<path fill="#FAEBE1" d="M84.44,175.748c-0.088,7.435-12.888,27.189-8.283,47.786c4.343,19.426-13.712,60.653-13.376,61.122
		l93.367,0.982c-0.203-1.896-19.799-34.139-9.57-61.149c8.639-22.813-7.711-46.666-8.652-49.269l-25.262,15.896L84.44,175.748z"/>
	<path fill="#424242" d="M146.578,224.489c8.567-22.624-7.434-46.26-8.617-49.188l-26.685,43.324l-26.65-42.627l-0.218,0.292
		c-0.644,7.812-12.749,27.122-8.251,47.244c4.343,19.426-13.712,60.653-13.376,61.122c0,0,15.717,10.466,44.224,10.466
		c30.921,0,49.143-9.483,49.143-9.483C155.945,283.742,136.35,251.5,146.578,224.489z"/>
	<polygon fill="#E1D6CF" points="118.288,188.193 136.169,200.879 137.926,175.221 	"/>
	<polygon fill="#E1D6CF" points="106.237,188.252 89.585,200.879 84.44,175.748 	"/>
	<path fill="#FAAB6D" d="M143.79,246.086c-4.296-0.699-7.321-0.671-8.621,0.507c-1.295,1.173-1.682,4.188,1.493,4.824
		c3.861,0.772,8.116,2.328,8.116,2.328S145,256.992,145,257c-0.051-0.749-8.095-0.201-8.841-0.158
		c-0.565,0.033-1.156,0.079-1.635,0.381c-1.949,1.229-1.44,4.409,0.005,5.767c1.956,1.836,5.596,0.845,8.069,1.305
		c0.708,0.132,4.04,0.605,4.401,1.429l1,2.277c0,0-10.125,0.5-10.594,2.667c-0.345,1.591,0.424,4.078,1.677,4.416
		c2.089,0.563,6.073,0.078,10.526-1.083c8.951-2.333,9.951-9.842,9.951-9.842l-9.951-14.658c0,0-3.325-7.833-5.985-8.167
		C143.704,244.702,143.79,246.086,143.79,246.086z"/>
	<path fill="#E8833E" d="M159.561,264.158c0,0-4.394-0.615-6.228-5.887c-1.833-5.271-4.724-9.771-4.724-9.771L159.561,264.158z"/>
</g>
</svg>
