<?xml version="1.0" encoding="utf-8"?>
<!-- Generator: Adobe Illustrator 16.0.0, SVG Export Plug-In . SVG Version: 6.00 Build 0)  -->
<!DOCTYPE svg PUBLIC "-//W3C//DTD SVG 1.0//EN" "http://www.w3.org/TR/2001/REC-SVG-20010904/DTD/svg10.dtd">
<svg version="1.0" id="Layer_1" xmlns="http://www.w3.org/2000/svg" xmlns:xlink="http://www.w3.org/1999/xlink" x="0px" y="0px"
	 width="156.254px" height="359.501px" viewBox="0 0 156.254 359.501" enable-background="new 0 0 156.254 359.501"
	 xml:space="preserve">
<g>
	<g>
		<path fill="#FAAB6D" d="M142.409,210.974c0,0,12.209,1.338,13.409,5.523c1.201,4.187-0.336,6.113-1.512,6.127
			c-0.771,2.806-4.532,14.688-6.462,14.996c-1.929,0.308-9.847,1.658-15.085-4.307L142.409,210.974z"/>
		<path fill="#E8833E" d="M135.648,235.765c-1.012-0.635-1.99-1.43-2.889-2.451l9.649-22.34c0,0,1.709,0.188,3.909,0.641
			C143.869,216.985,139.138,227.474,135.648,235.765z"/>
		<path fill="#E1D6CF" d="M88.571,156.794c0,0-12.188,45.251,44.405,79.035c1.786-4.314,11.172-25.5,11.172-25.5
			c-22.48-5.686-53.26-12.784-50.038-50.602L88.571,156.794z"/>
	</g>
	<g>
		<path fill="#424242" d="M110.059,333.735c6.028,3.357,28.253,8.763,30.044,14.835c2.046,6.937-6.087,11.668-18.706,9.833
			s-16.145-7.64-16.145-7.64l1.304,7.918l-4.98,0.82c0,0-6.798-23.752-1.737-24.668
			C104.899,333.918,110.059,333.735,110.059,333.735z"/>
		<path fill="#FAAB6D" d="M60.875,266.507c1.65,2.997,45.894,3.395,54.78,23.594c4.53,10.297-1.994,37.814,0.995,42.565
			c4.795,7.62,9.502,6.798,10.549,10.147c1.68,5.37-7.811,8.592-23.256-1.715c-9.344-6.236,8.057-28.34,0.114-43.384
			c-12.497-23.675-56.732-12.876-56.732-12.876L60.875,266.507z"/>
	</g>
	<g>
		<path fill="#424242" d="M68.801,333.735c6.028,3.357,28.254,8.763,30.045,14.835c2.045,6.937-6.088,11.668-18.707,9.833
			c-12.618-1.835-16.145-7.64-16.145-7.64l1.305,7.918l-4.98,0.82c0,0-6.798-23.752-1.737-24.668
			C63.642,333.918,68.801,333.735,68.801,333.735z"/>
		<path fill="#FAAB6D" d="M19.617,266.507c1.651,2.997,45.894,3.395,54.781,23.594c4.529,10.297-1.995,37.814,0.994,42.565
			c4.795,7.62,9.503,6.798,10.55,10.147c1.679,5.37-7.812,8.592-23.257-1.715c-9.344-6.236,8.556-28.613,0.115-43.384
			c-10.083-17.644-56.733-22.583-56.733-22.583L19.617,266.507z"/>
	</g>
	<path fill="#EE8122" d="M75.822,241.865l16.02,30.553c0,0-47.223,25.625-91.842,0.253l14.146-30.806H75.822z"/>
	<path fill="#696969" d="M48.011,147.939c0,0,12.528,8.073,45.109,12.455l-6.921,6.712l-32.479-8.884L48.011,147.939z"/>
	
		<rect x="50.904" y="149.67" transform="matrix(-0.9665 -0.2566 0.2566 -0.9665 93.2808 336.9586)" fill="#FAAB6D" width="35.446" height="25.446"/>
	<path fill="#E8833E" d="M88.273,157.464c0,0-10.239,4.271-20.749,1.48c-10.511-2.79-13.511-10.577-13.511-10.577
		S78.306,148.275,88.273,157.464z"/>
	<g>
		<path fill="#424242" d="M84.957,30.76c3.826-9.288,4.136-27.749-18.273-30.507c-22.409-2.757-30.761,17.952-45.897,15.91
			C5.649,14.123,2.43,1.107,2.43,1.107s0.63,55.719,33.869,60.162S84.957,30.76,84.957,30.76z"/>
		<path fill="#EE8122" d="M89.342,29.533c0,0-21.49-25.158-43.625,2.319C45.717,31.852,72.6,46.891,89.342,29.533z"/>
		<path fill="#FAAB6D" d="M112.965,142.373c-3.538,5.037-8.236,9.143-14.505,11.732c-8.189,3.385-18.894,3.267-27.563,2.449
			c-12.019-1.133-16.567-5.266-26.153-13.636c-20.459-17.862-13.229-42.354-10.438-61.646c1.111-7.684,2.798-13.641,4.453-17.295
			c4.777,0.601,9.557,1.2,14.33,1.798c0.809,0.104,1.616,0.205,2.424,0.306c15.937,1.998,19.852-10.976,35.789-8.975
			c1.526,0.191,29.42,3.467,35.145,4.184c0.201,3.668-1.72,22.756-2.041,29.76C123.68,106.886,122.869,128.275,112.965,142.373z"/>
		<g>
			<path fill="#424242" d="M105.063,90.055c4.855,6.068,13.112,4.063,18.688,0.292c2.779-1.879,6.12,2.174,3.317,4.068
				c-7.947,5.375-19.294,7.43-26.073-1.043C98.883,90.733,102.947,87.412,105.063,90.055L105.063,90.055z"/>
		</g>
		<g>
			<path fill="#424242" d="M76.676,90.904c-8.343,6.936-19.048,2.642-25.75-4.22c-2.364-2.419,1.721-5.72,4.067-3.317
				c4.704,4.815,12.388,8.438,18.364,3.47C75.959,84.673,79.276,88.742,76.676,90.904L76.676,90.904z"/>
		</g>
		<path fill="#424242" d="M124.406,91.05c-14.25-1.447-17.135-29.807-17.135-29.807s12.361,28.694-60.8,21.264
			c-5.956,5.389-13.979,42.32-13.979,42.32s-6.949-12.162-8.423-30.117c-1.692-25.623,5.521-73.551,64.709-67.539
			c65.426,6.645,37.629,77.951,34.773,78.49C123.859,101.546,124.406,91.05,124.406,91.05z"/>
		<g>
			<g>
				<path fill="#F6A569" d="M41.165,96.576c-13.829-10.221-23.614,15.709-1.322,11.395L41.165,96.576z"/>
				<path fill="#E8833E" d="M37.945,101.351c-6.545-3.998-7.873,4.728-0.177,3.208L37.945,101.351z"/>
			</g>
			
				<ellipse transform="matrix(-0.9955 0.0948 -0.0948 -0.9955 75.4488 190.2047)" opacity="0.3" fill="#FFFFFF" cx="33.205" cy="96.895" rx="2.564" ry="1.488"/>
		</g>
		<path fill="#B6E4FA" d="M63.108,108.082c0.448-1.361,1.589,1.615,3.901,2.45c1.348,0.486,2.188-3.18,3.613-3.032
			c1.424,0.147,0.826,0.738,0.957,2.164c0.666,7.201,2.678,7.213,1.932,14.406c-0.745,7.193-4.166,6.838-4.911,14.033
			c-0.452,4.367,1.882,14.311,2.401,18.781c-3.282-1.054-6.396-0.41-9.096-2.164c-0.834-3.721-2.145-14.726-1.592-20.059
			c0.68-6.557,4.1-6.203,4.779-12.76C65.773,115.349,61.052,114.34,63.108,108.082z"/>
		<path fill="#B6E4FA" d="M108.623,109.5c-1.426-0.147-2.266,3.519-3.613,3.032c-2.313-0.835-3.453-3.812-3.901-2.45
			c-2.057,6.259,2.665,7.268,1.985,13.819c-0.68,6.558-4.1,6.204-4.779,12.761c-0.441,4.262,0.307,12.136,1.051,17.029
			c3.004-1.346,5.639-3.047,7.942-5.041c-0.527-3.313-0.916-6.527-0.707-8.547c0.745-7.194,4.166-6.84,4.911-14.033
			c0.746-7.193-1.266-7.205-1.932-14.406C109.449,110.238,110.046,109.647,108.623,109.5z"/>
		<g>
			<path fill="#424242" d="M73.642,108.086c-1.426,1.241-3.228,2.152-5.091,2.474c-3.664,0.63-6.504-1.338-8.591-4.186
				c-1.315-1.795,1.682-3.521,2.983-1.744c2.224,3.035,5.775,3.172,8.254,1.013C72.867,104.188,75.321,106.623,73.642,108.086
				L73.642,108.086z"/>
		</g>
		<g>
			<g>
				<path fill="#424242" d="M59.547,106.783c-1.151,0.836-3.035,1.429-4.16,0.029c-0.836-1.042-2.443,0.272-1.604,1.316
					c1.852,2.305,4.905,1.84,7.082,0.258C61.945,107.602,60.627,105.998,59.547,106.783L59.547,106.783z"/>
			</g>
			<g>
				<path fill="#424242" d="M60.71,106.15c0.346-0.111-0.134,0.031-0.326,0.07c-0.396,0.082-0.805,0.141-1.21,0.14
					c-1.155-0.005-1.987-0.442-2.396-1.552c-0.46-1.254-2.349-0.391-1.89,0.859c1.024,2.787,4.168,3.188,6.682,2.373
					C62.838,107.63,61.971,105.742,60.71,106.15L60.71,106.15z"/>
			</g>
		</g>
		<g>
			<path fill="#424242" d="M99.11,111.086c1.425,1.241,3.227,2.152,5.091,2.474c3.662,0.63,6.504-1.338,8.59-4.186
				c1.315-1.795-1.682-3.521-2.984-1.744c-2.223,3.035-5.774,3.172-8.253,1.013C99.884,107.188,97.43,109.623,99.11,111.086
				L99.11,111.086z"/>
		</g>
		<g>
			<g>
				<path fill="#424242" d="M113.204,109.783c1.151,0.836,3.035,1.429,4.16,0.029c0.837-1.042,2.443,0.272,1.604,1.316
					c-1.852,2.305-4.905,1.84-7.082,0.258C110.806,110.602,112.125,108.998,113.204,109.783L113.204,109.783z"/>
			</g>
			<g>
				<path fill="#424242" d="M112.041,109.15c-0.346-0.111,0.134,0.031,0.326,0.07c0.396,0.082,0.805,0.141,1.21,0.14
					c1.155-0.005,1.987-0.442,2.396-1.552c0.461-1.254,2.35-0.391,1.89,0.859c-1.024,2.787-4.167,3.188-6.682,2.373
					C109.914,110.63,110.781,108.742,112.041,109.15L112.041,109.15z"/>
			</g>
		</g>
		<g>
			<path fill="#BD7E50" d="M77.729,137.662c5.224-3.98,11.877-3.984,17.073,0c1.421,1.088,2.808-1.327,1.404-2.402
				c-5.899-4.523-13.919-4.543-19.882,0C74.919,136.33,76.304,138.748,77.729,137.662L77.729,137.662z"/>
		</g>
	</g>
	<path fill="#FAEBE1" d="M93.12,160.394c-1.595,6.307,4.794,25.884-3.724,42.267c-8.034,15.452-2.022,54.368-2.412,54.688
		L7.813,237.218c0.597-1.559,16.191-24.926,21.82-49.559c5.18-22.668,16.997-37.73,18.377-39.721l30.926,22.602L93.12,160.394z"/>
	<path fill="#424242" d="M27.008,186.962C33.191,166.877,46.305,150.21,47.963,148l28.598,46.811l16.347-34.246l0.119,0.295
		c-1.21,6.75,4.691,25.797-3.63,41.802c-8.034,15.452-2.022,54.368-2.412,54.688c0,0-15.64,5.32-39.745-1.079
		c-26.146-6.942-42.052-19.749-42.052-19.749C5.784,234.962,19.693,210.716,27.008,186.962z"/>
	<polygon fill="#E1D6CF" points="77.114,168.816 61.424,177.539 48.011,147.939 	"/>
	<g>
		<path fill="#FAAB6D" d="M88.686,214.101c0,0,12.077,2.234,12.966,6.498c0.889,4.263-0.786,6.07-1.96,5.997
			c-0.975,2.741-5.603,14.313-7.55,14.479c-1.947,0.165-9.942,0.928-14.728-5.407L88.686,214.101z"/>
		<path fill="#E8833E" d="M80.115,238.326c-0.962-0.707-1.88-1.572-2.701-2.657l11.271-21.567c0,0,1.69,0.313,3.852,0.928
			C89.699,220.203,84.206,230.314,80.115,238.326z"/>
		<path fill="#FAEBE1" d="M37.93,160.352c-2.3,11.956-4.413,47.009,39.517,77.841c2.099-4.17,13.021-24.605,13.021-24.605
			C68.86,206.39,39.37,197.244,44.01,161.414c0.156-1.207-0.377-2.398-1.407-3.045l-0.021-0.014
			C40.758,157.21,38.337,158.238,37.93,160.352z"/>
	</g>
	<polygon fill="#E1D6CF" points="82.027,168.81 89.416,181.076 93.026,160.859 	"/>
</g>
</svg>
