<?xml version="1.0" encoding="utf-8"?>
<!-- Generator: Adobe Illustrator 16.0.0, SVG Export Plug-In . SVG Version: 6.00 Build 0)  -->
<!DOCTYPE svg PUBLIC "-//W3C//DTD SVG 1.1//EN" "http://www.w3.org/Graphics/SVG/1.1/DTD/svg11.dtd">
<svg version="1.1" id="Layer_1" xmlns="http://www.w3.org/2000/svg" xmlns:xlink="http://www.w3.org/1999/xlink" x="0px" y="0px"
	 width="122.518px" height="224.679px" viewBox="0 0 122.518 224.679" enable-background="new 0 0 122.518 224.679"
	 xml:space="preserve">
<g>
	<g>
		<path fill="#FAAB6D" d="M109.346,95.43c0,0,5.796-4.34,7.998-3.021c2.203,1.32,2.317,2.769,1.816,3.248
			c0.798,1.519,3.962,8.15,3.255,9.061c-0.706,0.909-3.572,4.679-8.23,4.219L109.346,95.43z"/>
		<path fill="#E8833E" d="M116.416,108.828c-0.691,0.135-1.433,0.187-2.231,0.107l-4.839-13.506c0,0,0.811-0.607,1.941-1.298
			C112.395,97.43,114.58,103.853,116.416,108.828z"/>
		<path fill="#E1D6CF" d="M64.343,93.776c0,0,12.972,24.396,50.948,16.155c-0.968-2.576-5.457-15.479-5.457-15.479
			c-11.971,6.604-28.084,15.94-41.925-1.644L64.343,93.776z"/>
	</g>
	<g>
		<path fill="#424242" d="M72.988,208.891c3.333,2.331,16.043,6.837,16.729,10.507c0.783,4.19-4.271,6.477-11.562,4.642
			c-7.291-1.834-9.011-5.451-9.011-5.451l0.289,4.723l-2.97,0.182c0,0-2.56-14.34,0.464-14.572S72.988,208.891,72.988,208.891z"/>
		<path fill="#FAAB6D" d="M69.617,155.518c0.788,1.857,5.278,15.736,9.276,28.117c2.038,6.311-3.443,22.059-1.976,25.024
			c2.354,4.758,5.165,4.56,5.577,6.586c0.662,3.251-5.098,4.57-13.536-2.403c-5.105-4.22,6.428-16.138,2.675-25.438
			c-5.906-14.637-10.337-29.065-10.337-29.065L69.617,155.518z"/>
	</g>
	<g>
		<path fill="#424242" d="M15.311,194.027c-0.043,4.068,3.414,17.103,0.772,19.74c-3.018,3.012-7.758,0.131-10.36-6.922
			c-2.602-7.054-0.587-10.515-0.587-10.515l-3.734,2.904l-1.827-2.349c0,0,10.391-10.209,12.289-7.845
			C13.763,191.406,15.311,194.027,15.311,194.027z"/>
		<path fill="#FAAB6D" d="M57.459,161.112c-1.088,1.699-10.008,13.241-17.97,23.53c-4.059,5.246-20.15,9.612-21.771,12.498
			c-2.598,4.63-0.846,6.837-2.286,8.322c-2.31,2.381-6.65-1.628-5.658-12.53c0.6-6.597,16.948-3.805,22.506-12.153
			c8.746-13.139,18.153-24.941,18.153-24.941L57.459,161.112z"/>
	</g>
	<path fill="#EE8122" d="M75.403,144l9.445,18.147c0,0-27.842,15.041-54.148,0.082L39.041,144H75.403z"/>
	<path fill="#696969" d="M42.602,90.914c0,0,8.36,2.704,27.59,0.272l-2.929,4.872L47.411,95.91L42.602,90.914z"/>
	<rect x="46.088" y="88.529" fill="#FAAB6D" width="20.898" height="15.002"/>
	<path fill="#E8833E" d="M66.986,90.25c0,0-5.188,3.983-11.6,3.983c-6.412,0-9.299-3.983-9.299-3.983S59.916,86.521,66.986,90.25z"
		/>
	<g>
		<path fill="#424242" d="M57.73,17.307c1.69-5.675,0.772-16.522-12.536-16.805C31.886,0.219,28.221,12.864,19.22,12.568
			c-9-0.296-11.664-7.738-11.664-7.738s3.688,32.645,23.45,33.271C50.768,38.728,57.73,17.307,57.73,17.307z"/>
		<path fill="#EE8122" d="M60.229,16.326c0,0-14.104-13.477-25.451,3.959C34.777,20.285,51.442,27.506,60.229,16.326z"/>
		<path fill="#FAAB6D" d="M80.807,81.107c-1.775,3.164-4.286,5.853-7.809,7.745c-4.603,2.474-10.888,3.042-16.021,3.079
			c-7.117,0.051-10.031-2.102-16.153-6.44c-13.064-9.259-10.282-24.056-9.794-35.538c0.193-4.573,0.828-8.168,1.582-10.409
			c2.837,0.067,5.677,0.134,8.512,0.2c0.481,0.013,0.961,0.024,1.44,0.035c9.467,0.223,10.99-7.621,20.458-7.396
			c0.907,0.022,17.463,0.281,20.863,0.361c0.337,2.139,0.348,13.449,0.576,17.577C84.979,59.653,85.776,72.247,80.807,81.107z"/>
		<g>
			<path fill="#424242" d="M84.104,54.443c-3.21-3.271-7.934-1.603-10.979,0.941c-1.519,1.268-3.72-0.91-2.188-2.189
				c4.341-3.625,10.875-5.506,15.355-0.941C87.689,53.678,85.502,55.867,84.104,54.443L84.104,54.443z"/>
		</g>
		<g>
			<path fill="#424242" d="M41.029,52.254c4.48-4.564,11.015-2.684,15.355,0.941c1.53,1.279-0.669,3.458-2.188,2.189
				c-3.047-2.545-7.769-4.212-10.979-0.941C41.82,55.867,39.633,53.678,41.029,52.254L41.029,52.254z"/>
		</g>
		<path fill="#424242" d="M84.461,50.321c-8.445,0-11.826-16.463-11.826-16.463s8.96,16.095-34.396,16.095
			c-3.173,3.516-5.679,25.656-5.679,25.656s-4.801-6.721-6.734-17.164c-2.519-14.929-1.144-43.471,33.933-43.471
			c38.772,0,26.716,43.482,25.073,43.968C84.766,56.511,84.461,50.321,84.461,50.321z"/>
		<g>
			<circle fill="#424242" cx="77.065" cy="62.271" r="3.432"/>
			<g>
				<g>
					<path fill="#424242" d="M77.931,61.387c2.081,1.057,4.765,1.038,6.036-1.19c0.576-1.009-0.98-1.919-1.557-0.91
						c-0.772,1.354-2.47,1.103-3.57,0.544C77.809,59.307,76.895,60.861,77.931,61.387L77.931,61.387z"/>
				</g>
				<g>
					<path fill="#424242" d="M77.277,61.187c2.268,0.354,4.906-0.419,5.403-2.948c0.224-1.134-1.514-1.619-1.737-0.479
						c-0.198,1.006-0.853,1.496-1.841,1.658c-0.331,0.055-0.672,0.062-1.007,0.049c-0.159-0.006-0.678-0.07-0.339-0.018
						C76.622,59.271,76.133,61.008,77.277,61.187L77.277,61.187z"/>
				</g>
			</g>
		</g>
		<g>
			<circle fill="#424242" cx="52.765" cy="62.271" r="3.432"/>
			<g>
				<g>
					<path fill="#424242" d="M50.971,59.83c-1.102,0.56-2.797,0.811-3.57-0.544c-0.575-1.007-2.133-0.1-1.557,0.91
						c1.272,2.229,3.955,2.248,6.037,1.19C52.915,60.861,52.004,59.306,50.971,59.83L50.971,59.83z"/>
				</g>
				<g>
					<path fill="#424242" d="M52.055,59.448c0.312-0.049-0.119,0.008-0.289,0.016c-0.352,0.016-0.71,0.011-1.057-0.047
						c-0.99-0.162-1.643-0.65-1.841-1.658c-0.224-1.138-1.962-0.656-1.738,0.479c0.497,2.528,3.137,3.303,5.403,2.948
						C53.676,61.008,53.191,59.271,52.055,59.448L52.055,59.448z"/>
				</g>
			</g>
		</g>
		<g>
			<path fill="#BD7E50" d="M70.52,78.421c-4.513,3.438-10.259,3.441-14.748,0c-1.227-0.94-2.425,1.146-1.213,2.075
				c5.096,3.906,12.023,3.924,17.173,0C72.946,79.57,71.75,77.482,70.52,78.421L70.52,78.421z"/>
		</g>
		<g>
			<g>
				<path fill="#F6A569" d="M35.964,58.521c-8.721-5.171-12.916,10.622-0.097,6.763L35.964,58.521z"/>
				<path fill="#E8833E" d="M34.359,61.514c-4.077-1.955-4.337,3.242,0.088,1.893L34.359,61.514z"/>
			</g>
			
				<ellipse transform="matrix(-0.9809 0.1947 -0.1947 -0.9809 73.5521 111.1329)" opacity="0.3" fill="#FFFFFF" cx="31.313" cy="59.182" rx="1.512" ry="0.878"/>
		</g>
	</g>
	<path fill="#FAEBE1" d="M70.191,91.187c0.045,3.835,6.647,14.024,4.272,24.648c-2.24,10.021,7.073,31.286,6.899,31.528
		l-48.16,0.507c0.104-0.979,5.455-16.653,4.936-31.542c-0.478-13.701,3.978-24.072,4.463-25.414l21.042,8.199L70.191,91.187z"/>
	<path fill="#424242" d="M36.537,116.328c0.485-12.381,5.437-23.862,6.047-25.373l23.377,22.348l4.135-21.987l0.112,0.149
		c0.332,4.03,6.576,13.991,4.256,24.37c-2.24,10.021,7.073,31.286,6.899,31.528c0,0-8.107,5.398-22.812,5.398
		c-15.95,0-26.951-4.892-26.951-4.892C31.705,146.892,35.963,130.971,36.537,116.328z"/>
	<polygon fill="#E1D6CF" points="62.345,98.406 54.723,105.751 42.602,90.914 	"/>
	<g>
		<path fill="#FAAB6D" d="M15.595,130.938c0,0-0.303,7.234-2.718,8.106s-3.609,0.045-3.663-0.646
			c-1.682-0.342-8.819-2.083-9.078-3.206c-0.258-1.123-1.366-5.727,1.936-9.045L15.595,130.938z"/>
		<path fill="#E8833E" d="M0.744,127.942c0.333-0.62,0.762-1.228,1.327-1.796l13.523,4.791c0,0-0.043,1.012-0.222,2.324
			C12.117,132.034,5.76,129.666,0.744,127.942z"/>
		<path fill="#FAEBE1" d="M42.761,96.854c-7.17-0.352-27.806,1.321-42.161,29.521c2.608,0.88,15.443,5.561,15.443,5.561
			c2.409-13.21,5.304-31.182,26.603-31.444c0.718-0.009,1.368-0.419,1.661-1.074l0.006-0.014
			C44.83,98.243,44.029,96.915,42.761,96.854z"/>
	</g>
	<polygon fill="#E1D6CF" points="65.144,97.66 71.209,103.531 70.208,91.465 	"/>
</g>
</svg>
