<?xml version="1.0" encoding="utf-8"?>
<!-- Generator: Adobe Illustrator 16.0.0, SVG Export Plug-In . SVG Version: 6.00 Build 0)  -->
<!DOCTYPE svg PUBLIC "-//W3C//DTD SVG 1.1//EN" "http://www.w3.org/Graphics/SVG/1.1/DTD/svg11.dtd">
<svg version="1.1" id="Layer_1" xmlns="http://www.w3.org/2000/svg" xmlns:xlink="http://www.w3.org/1999/xlink" x="0px" y="0px"
	 width="105.984px" height="223.829px" viewBox="0 0 105.984 223.829" enable-background="new 0 0 105.984 223.829"
	 xml:space="preserve">
<g>
	<g>
		<path fill="#FAAB6D" d="M98.938,123.515c0,0,6.864,2.304,7.03,4.866s-0.962,3.479-1.641,3.338
			c-0.796,1.521-4.455,7.893-5.606,7.828c-1.149-0.065-5.88-0.282-8.148-4.377L98.938,123.515z"/>
		<path fill="#E8833E" d="M91.929,136.945c-0.503-0.492-0.968-1.073-1.356-1.775l8.365-11.655c0,0,0.961,0.322,2.171,0.86
			C99.023,127.16,94.98,132.607,91.929,136.945z"/>
		<path fill="#E1D6CF" d="M74.729,85.541c0,0-12.705,24.536,15.652,51.105c1.57-2.26,9.638-13.285,9.638-13.285
			c-12.235-6.099-29.073-14.055-22.468-35.435L74.729,85.541z"/>
	</g>
	<g>
		<path fill="#424242" d="M78.988,204.891c3.333,2.331,16.043,6.838,16.729,10.506c0.783,4.191-4.271,6.478-11.562,4.643
			c-7.291-1.834-9.011-5.451-9.011-5.451l0.289,4.723l-2.97,0.182c0,0-2.56-14.34,0.464-14.572S78.988,204.891,78.988,204.891z"/>
		<path fill="#FAAB6D" d="M75.617,151.518c0.788,1.857,5.278,15.736,9.276,28.117c2.038,6.311-3.443,22.059-1.976,25.025
			c2.354,4.757,5.165,4.559,5.577,6.586c0.662,3.25-5.098,4.569-13.536-2.404c-5.105-4.22,6.428-16.138,2.675-25.438
			c-5.906-14.637-10.337-29.065-10.337-29.065L75.617,151.518z"/>
	</g>
	<g>
		<path fill="#424242" d="M52.15,205.595c2.626,3.107,13.758,10.718,13.48,14.44c-0.316,4.252-5.788,5.168-12.365,1.527
			c-6.578-3.641-7.313-7.578-7.313-7.578l-0.931,4.639l-2.917-0.584c0,0,1.198-14.518,4.181-13.968
			C49.267,204.621,52.15,205.595,52.15,205.595z"/>
		<path fill="#FAAB6D" d="M62.562,153.139c0.286,1.998,1.072,16.563,1.766,29.555c0.354,6.623-8.978,20.441-8.318,23.685
			c1.058,5.202,3.825,5.729,3.705,7.795c-0.193,3.312-6.099,3.112-12.47-5.791c-3.855-5.386,10.347-13.952,9.101-23.904
			c-1.961-15.661-2.548-30.743-2.548-30.743L62.562,153.139z"/>
	</g>
	<path fill="#EE8122" d="M81.403,140l9.445,18.147c0,0-27.842,15.041-54.148,0.082L45.041,140H81.403z"/>
	<path fill="#696969" d="M48.602,86.914c0,0,8.36,2.705,27.59,0.271l-2.929,4.873L53.411,91.91L48.602,86.914z"/>
	<rect x="52.088" y="84.529" fill="#FAAB6D" width="20.898" height="15.002"/>
	<path fill="#E8833E" d="M72.986,86.25c0,0-5.188,3.983-11.6,3.983c-6.412,0-9.299-3.983-9.299-3.983S65.916,82.521,72.986,86.25z"
		/>
	<g>
		<path fill="#424242" d="M51.927,14.551C52.702,8.68,50.085-1.888,36.898-0.068C23.712,1.75,22.086,14.814,13.151,15.941
			S0.413,10.139,0.413,10.139s8.788,31.655,28.402,29.158C48.429,36.801,51.927,14.551,51.927,14.551z"/>
		<path fill="#EE8122" d="M54.239,13.188c0,0-16.052-11.085-24.508,7.922C29.731,21.109,47.325,25.612,54.239,13.188z"/>
		<path fill="#FAAB6D" d="M84.772,73.915c-1.254,3.405-3.31,6.455-6.489,8.88c-4.155,3.168-10.272,4.719-15.337,5.565
			c-7.02,1.173-10.236-0.494-16.966-3.813c-14.36-7.084-13.946-22.133-15.274-33.549c-0.529-4.547-0.469-8.197-0.079-10.529
			c2.813-0.381,5.627-0.762,8.438-1.144c0.477-0.063,0.952-0.128,1.428-0.192c9.384-1.272,9.651-9.258,19.036-10.529
			c0.898-0.121,17.289-2.475,20.659-2.933c0.67,2.06,2.463,13.228,3.34,17.267C85.51,52.072,88.284,64.383,84.772,73.915z"/>
		<g>
			<path fill="#424242" d="M83.826,47.064c-3.686-2.724-8.087-0.332-10.693,2.66c-1.3,1.492-3.816-0.313-2.506-1.816
				c3.715-4.265,9.87-7.152,15.015-3.35C87.245,45.743,85.431,48.25,83.826,47.064L83.826,47.064z"/>
		</g>
		<g>
			<path fill="#424242" d="M40.944,51.693c3.704-5.214,10.454-4.387,15.312-1.49c1.713,1.021-0.115,3.52-1.815,2.506
				c-3.41-2.033-8.336-2.935-10.99,0.801C42.295,55.137,39.789,53.319,40.944,51.693L40.944,51.693z"/>
		</g>
		<path fill="#424242" d="M83.528,42.938c-8.34,1.332-14.274-14.393-14.274-14.393S80.64,43.026,37.825,49.861
			c-2.579,3.972-1.563,26.23-1.563,26.23s-5.8-5.879-9.356-15.888c-4.841-14.345-7.982-42.747,26.655-48.276
			c38.288-6.113,33.236,38.727,31.69,39.465C84.805,49.002,83.528,42.938,83.528,42.938z"/>
		<g>
			<circle fill="#424242" cx="78.109" cy="55.904" r="3.431"/>
			<g>
				<g>
					<path fill="#424242" d="M78.823,54.895c2.223,0.716,4.869,0.273,5.773-2.127c0.409-1.088-1.271-1.74-1.681-0.653
						c-0.549,1.458-2.265,1.479-3.439,1.101C78.375,52.859,77.718,54.539,78.823,54.895L78.823,54.895z"/>
				</g>
				<g>
					<path fill="#424242" d="M78.147,54.799c2.295-0.007,4.778-1.187,4.871-3.763c0.041-1.153-1.751-1.359-1.792-0.199
						c-0.037,1.024-0.605,1.612-1.557,1.929c-0.318,0.105-0.653,0.166-0.986,0.206c-0.158,0.019-0.68,0.037-0.337,0.036
						C77.197,53.012,76.988,54.803,78.147,54.799L78.147,54.799z"/>
				</g>
			</g>
		</g>
		<g>
			<circle fill="#424242" cx="54.112" cy="59.735" r="3.432"/>
			<g>
				<g>
					<path fill="#424242" d="M51.956,57.607c-1,0.727-2.635,1.241-3.612,0.025c-0.726-0.904-2.121,0.237-1.393,1.145
						c1.607,2,4.259,1.596,6.148,0.224C54.038,58.319,52.894,56.927,51.956,57.607L51.956,57.607z"/>
				</g>
				<g>
					<path fill="#424242" d="M52.965,57.06c0.301-0.098-0.115,0.026-0.282,0.062c-0.345,0.07-0.699,0.121-1.051,0.12
						c-1.003-0.005-1.725-0.384-2.079-1.349c-0.4-1.087-2.04-0.338-1.641,0.748c0.889,2.418,3.617,2.767,5.801,2.06
						C54.813,58.344,54.06,56.705,52.965,57.06L52.965,57.06z"/>
				</g>
			</g>
		</g>
		<g>
			<g>
				<path fill="#F6A569" d="M36.93,58.68c-9.427-3.73-11.08,12.525,0.971,6.693L36.93,58.68z"/>
				<path fill="#E8833E" d="M35.817,61.889c-4.335-1.288-3.771,3.885,0.385,1.855L35.817,61.889z"/>
			</g>
			
				<ellipse transform="matrix(-0.9378 0.3473 -0.3473 -0.9378 83.7238 105.1299)" opacity="0.3" fill="#FFFFFF" cx="32.442" cy="60.067" rx="1.512" ry="0.878"/>
		</g>
		<ellipse fill="#BD7E50" cx="70.93" cy="76.33" rx="3.758" ry="7"/>
	</g>
	<path fill="#FAEBE1" d="M76.191,87.186c0.045,3.836,6.647,14.025,4.272,24.649c-2.24,10.021,7.073,31.286,6.899,31.528
		l-48.16,0.507c0.104-0.978,5.455-16.653,4.936-31.542c-0.478-13.701,3.978-24.072,4.463-25.414l21.042,8.199L76.191,87.186z"/>
	<path fill="#424242" d="M42.537,112.328c0.485-12.381,5.437-23.861,6.047-25.373l23.377,22.348l4.135-21.988l0.112,0.15
		c0.332,4.03,6.576,13.991,4.256,24.37c-2.24,10.021,7.073,31.286,6.899,31.528c0,0-8.107,5.398-22.812,5.398
		c-15.95,0-26.951-4.892-26.951-4.892C37.705,142.893,41.963,126.971,42.537,112.328z"/>
	<polygon fill="#E1D6CF" points="68.345,94.406 60.723,101.752 48.602,86.914 	"/>
	<g>
		<path fill="#FAAB6D" d="M65.147,133.725c0,0,6.459,3.273,6.253,5.833c-0.207,2.56-1.455,3.304-2.106,3.066
			c-1.009,1.388-5.551,7.163-6.681,6.933c-1.128-0.23-5.777-1.129-7.43-5.508L65.147,133.725z"/>
		<path fill="#E8833E" d="M56.269,146c-0.426-0.56-0.802-1.201-1.085-1.951l9.964-10.324c0,0,0.904,0.459,2.024,1.166
			C64.705,137.345,59.916,142.15,56.269,146z"/>
		<path fill="#FAEBE1" d="M45.383,94.878c-3.29,6.38-10.318,25.854,9.398,50.604c1.881-2.009,11.459-11.751,11.459-11.751
			c-11.023-7.666-26.181-17.746-17.595-37.24c0.289-0.656,0.186-1.42-0.29-1.957l-0.01-0.011
			C47.506,93.571,45.965,93.75,45.383,94.878z"/>
	</g>
	<polygon fill="#E1D6CF" points="71.144,93.66 77.209,99.531 76.208,87.465 	"/>
</g>
</svg>
