<?xml version="1.0" encoding="utf-8"?>
<!-- Generator: Adobe Illustrator 16.0.0, SVG Export Plug-In . SVG Version: 6.00 Build 0)  -->
<!DOCTYPE svg PUBLIC "-//W3C//DTD SVG 1.1//EN" "http://www.w3.org/Graphics/SVG/1.1/DTD/svg11.dtd">
<svg version="1.1" id="Layer_1" xmlns="http://www.w3.org/2000/svg" xmlns:xlink="http://www.w3.org/1999/xlink" x="0px" y="0px"
	 width="150.25px" height="135.15px" viewBox="0 0 150.25 135.15" enable-background="new 0 0 150.25 135.15" xml:space="preserve">
<polygon fill="#6C5747" points="-0.459,101.626 146.234,101.626 120.398,-0.387 -0.459,-0.387 "/>
<g>
	<rect x="95.034" y="6.32" fill="#7E6B57" width="15.305" height="21.446"/>
	<rect x="77.417" y="6.32" fill="#7E6B57" width="15.305" height="21.446"/>
	<rect x="59.8" y="6.32" fill="#7E6B57" width="15.306" height="21.446"/>
	<rect x="95.034" y="29.281" fill="#7E6B57" width="15.305" height="21.445"/>
	<rect x="77.417" y="29.281" fill="#7E6B57" width="15.305" height="21.445"/>
	<rect x="59.8" y="29.281" fill="#7E6B57" width="15.306" height="21.445"/>
	<rect x="95.034" y="52.242" fill="#7E6B57" width="15.305" height="21.445"/>
	<rect x="77.417" y="52.242" fill="#7E6B57" width="15.305" height="21.445"/>
	<rect x="59.8" y="52.242" fill="#7E6B57" width="15.306" height="21.445"/>
	<rect x="95.034" y="75.202" fill="#7E6B57" width="15.305" height="21.446"/>
	<rect x="77.417" y="75.202" fill="#7E6B57" width="15.305" height="21.446"/>
	<rect x="59.8" y="75.202" fill="#7E6B57" width="15.306" height="21.446"/>
</g>
<g>
	<path fill="#424242" d="M89.64,53.383c0,0,2.86,18.625-5.89,16.496c0,0,29.25,26.718,66.5,0.17c0,0-9.912,1.326-7.239-16.484
		C145.685,35.753,89.64,53.383,89.64,53.383z"/>
	<path fill="#FAEBE1" d="M124.521,81.922c0,0,28.769,16.821,3.967,48.08l9.476,5.148c0,0,25.519-32.129-10.109-57.829
		L124.521,81.922z"/>
	<path fill="#FAEBE1" d="M107.187,81.108c0,0-27.575,18.715-0.729,48.238l-9.108,5.772c0,0-27.618-30.342,6.203-58.377
		L107.187,81.108z"/>
	<path fill="#696969" d="M102.48,76.84c0,0,7.778,2.516,25.669,0.254l-2.724,4.532l-18.471-0.138L102.48,76.84z"/>
	<rect x="105.724" y="74.621" fill="#FAAB6D" width="19.444" height="13.959"/>
	<path fill="#E8833E" d="M125.168,76.222c0,0-4.827,3.706-10.793,3.706c-5.965,0-8.651-3.706-8.651-3.706
		S118.59,72.753,125.168,76.222z"/>
	<g>
		<g>
			<path fill="#F6A569" d="M92.578,46.701c-8.114-4.812-12.018,9.882-0.091,6.291L92.578,46.701z"/>
			<path fill="#E8833E" d="M91.085,49.485c-3.794-1.819-4.034,3.017,0.082,1.761L91.085,49.485z"/>
		</g>
		
			<ellipse transform="matrix(-0.9809 0.1947 -0.1947 -0.9809 184.0259 76.5425)" opacity="0.3" fill="#FFFFFF" cx="88.251" cy="47.316" rx="1.407" ry="0.817"/>
	</g>
	<g>
		<g>
			<path fill="#F6A569" d="M140.242,47.545c8.737-3.555,10.42,11.556-0.844,6.236L140.242,47.545z"/>
			<path fill="#E8833E" d="M141.306,50.521c4.021-1.236,3.543,3.582-0.342,1.729L141.306,50.521z"/>
		</g>
		
			<ellipse transform="matrix(-0.9562 -0.2927 0.2927 -0.9562 268.1074 137.9893)" opacity="0.3" fill="#FFFFFF" cx="144.377" cy="48.937" rx="1.406" ry="0.817"/>
	</g>
	<path fill="#FAAB6D" d="M138.027,67.715c-1.652,2.945-3.988,5.445-7.266,7.207c-4.282,2.301-10.131,2.83-14.907,2.864
		c-6.621,0.048-13.447-0.708-18.01-5.992c-7.551-8.742-6.586-22.382-6.132-33.064c0.181-4.255,0.771-7.6,1.472-9.686
		c2.641,0.063,5.282,0.126,7.921,0.187c0.446,0.012,0.894,0.023,1.34,0.033c8.808,0.207,10.225-7.09,19.034-6.881
		c0.844,0.02,9.079,7.545,9.922,7.563c3.163,0.075,6.326,0.15,9.489,0.225c0.313,1.989,0.323,5.061,0.536,8.901
		C141.908,47.754,142.651,59.473,138.027,67.715z"/>
	<g>
		<path fill="#424242" d="M125.496,41.634c1.471,4.001,6.115,4.394,9.671,3.401c1.773-0.496,2.807,2.193,1.02,2.693
			c-5.069,1.414-11.33,0.511-13.384-5.076C122.162,40.912,124.854,39.891,125.496,41.634L125.496,41.634z"/>
	</g>
	<g>
		<path fill="#424242" d="M108.209,42.766c-2.146,5.551-8.424,6.35-13.467,4.852c-1.778-0.529-0.702-3.201,1.063-2.676
			c3.54,1.051,8.189,0.736,9.728-3.24C106.202,39.971,108.878,41.035,108.209,42.766L108.209,42.766z"/>
	</g>
	<g>
		<path fill="#BD7E50" d="M109.518,69.657c4.198-3.198,9.545-3.202,13.722,0c1.142,0.875,2.256-1.065,1.129-1.931
			c-4.741-3.635-11.188-3.65-15.979,0C107.26,68.588,108.373,70.529,109.518,69.657L109.518,69.657z"/>
	</g>
	<path fill="#FAEBE1" d="M128.149,77.094c0.043,3.567,6.186,13.048,3.976,22.933c-2.084,9.323,6.581,29.11,6.42,29.335l-44.81,0.471
		c0.098-0.91,9.502-16.384,4.593-29.347c-4.146-10.948,3.701-22.397,4.152-23.646l12.124,7.629L128.149,77.094z"/>
	<polygon fill="#E1D6CF" points="111.905,83.066 103.324,89.154 102.48,76.84 	"/>
	<path fill="#B6E4FA" d="M104.977,53.787c-0.177-0.814-1.016,0.839-2.403,1.184c-0.809,0.201-1.075-1.971-1.908-1.971
		s-0.522,0.377-0.684,1.194C99.164,58.32,98,58.207,98,62.413s2,4.206,2,8.413c0,1.098-0.201,1.922-0.475,2.626
		c1.23,1.042,2.576,1.839,4.004,2.45c0.693-2.021,1.471-3.53,1.471-6.57c0-3.834-2-3.834-2-7.669
		C103,57.832,105.792,57.531,104.977,53.787z"/>
	<polygon fill="#E1D6CF" points="117.688,83.094 125.681,89.154 128.149,77.094 	"/>
	<g>
		<path fill="#424242" d="M97.805,53.74c1.238,1.078,2.802,1.869,4.42,2.146c3.181,0.548,5.647-1.16,7.459-3.633
			c1.142-1.559-1.46-3.057-2.591-1.514c-1.931,2.634-5.014,2.754-7.166,0.879C98.477,50.355,96.346,52.469,97.805,53.74
			L97.805,53.74z"/>
	</g>
	<g>
		<g>
			<path fill="#424242" d="M97.956,52.607c-1,0.727-2.635,1.241-3.612,0.025c-0.726-0.904-2.121,0.237-1.393,1.145
				c1.607,2,4.259,1.596,6.148,0.224C100.038,53.319,98.894,51.927,97.956,52.607L97.956,52.607z"/>
		</g>
		<g>
			<path fill="#424242" d="M98.965,52.06c0.301-0.098-0.115,0.026-0.282,0.062c-0.345,0.07-0.699,0.121-1.051,0.12
				c-1.003-0.005-1.725-0.384-2.079-1.349c-0.4-1.087-2.04-0.338-1.641,0.748c0.889,2.418,3.617,2.767,5.801,2.06
				C100.813,53.344,100.06,51.705,98.965,52.06L98.965,52.06z"/>
		</g>
	</g>
	<path fill="#424242" d="M118.443,6.184c-32.636,0-33.916,26.557-31.572,40.447c2.376-0.908,4.775-0.428,4.775-0.428
		s-0.09-1.838,0.066-5.474c10.229-0.192,19.162-0.28,26.994-0.252l1.46-5.312l2.492,5.337c7.224,0.069,13.437,0.252,18.768,0.569
		c0,0,0.283,3.758,0.345,6.021c1.527-0.453,2.605,0.263,2.605,0.263S154.518,6.184,118.443,6.184z"/>
	<path fill="#B6E4FA" d="M131.977,53.787c-0.177-0.814-1.016,0.839-2.403,1.184c-0.809,0.201-1.075-1.971-1.908-1.971
		s-0.522,0.377-0.684,1.194C126.164,58.32,125,58.207,125,62.413s2,4.206,2,8.413c0,3.131-1.592,4.103-2.035,6.093
		c1.962-0.413,3.845-1.011,5.512-1.864c0.705-2.102,1.523-2.604,1.523-5.723c0-3.834-2-3.834-2-7.669
		C130,57.832,132.792,57.531,131.977,53.787z"/>
	<g>
		<path fill="#424242" d="M122.805,53.74c1.238,1.078,2.802,1.869,4.42,2.146c3.181,0.548,5.647-1.16,7.459-3.633
			c1.142-1.559-1.46-3.057-2.591-1.514c-1.931,2.634-5.014,2.754-7.166,0.879C123.477,50.355,121.346,52.469,122.805,53.74
			L122.805,53.74z"/>
	</g>
	<g>
		<g>
			<path fill="#424242" d="M135.042,52.607c1,0.727,2.635,1.241,3.611,0.025c0.727-0.904,2.122,0.237,1.394,1.145
				c-1.607,2-4.259,1.596-6.148,0.224C132.96,53.319,134.104,51.927,135.042,52.607L135.042,52.607z"/>
		</g>
		<g>
			<path fill="#424242" d="M134.032,52.06c-0.3-0.098,0.116,0.026,0.283,0.062c0.344,0.07,0.698,0.121,1.051,0.12
				c1.003-0.005,1.725-0.384,2.079-1.349c0.4-1.087,2.04-0.338,1.641,0.748c-0.889,2.418-3.618,2.767-5.801,2.06
				C132.186,53.344,132.938,51.705,134.032,52.06L134.032,52.06z"/>
		</g>
	</g>
</g>
</svg>
