<?xml version="1.0" encoding="utf-8"?>
<!-- Generator: Adobe Illustrator 16.0.0, SVG Export Plug-In . SVG Version: 6.00 Build 0)  -->
<!DOCTYPE svg PUBLIC "-//W3C//DTD SVG 1.0//EN" "http://www.w3.org/TR/2001/REC-SVG-20010904/DTD/svg10.dtd">
<svg version="1.0" id="Layer_1" xmlns="http://www.w3.org/2000/svg" xmlns:xlink="http://www.w3.org/1999/xlink" x="0px" y="0px"
	 width="46.75px" height="35px" viewBox="0 0 46.75 35" enable-background="new 0 0 46.75 35" xml:space="preserve">
<g>
	<ellipse fill="#573B33" cx="24.462" cy="29.75" rx="21.534" ry="5.25"/>
	<path fill="#FBB93A" d="M0.432,14.719c0,6.814,5.547,12.361,12.361,12.361h7.747c2.681,2.119,6.062,3.383,9.743,3.383
		c8.677,0,15.713-7.033,15.713-15.713V0.722H14.563v1.636h-1.771C5.979,2.357,0.432,7.898,0.432,14.719 M4.953,14.719
		c0-4.325,3.516-7.84,7.84-7.84h1.771v7.871c0,2.844,0.759,5.507,2.079,7.812h-3.85C8.469,22.562,4.953,19.043,4.953,14.719"/>
</g>
</svg>
