<?xml version="1.0" encoding="utf-8"?>
<!-- Generator: Adobe Illustrator 16.0.0, SVG Export Plug-In . SVG Version: 6.00 Build 0)  -->
<!DOCTYPE svg PUBLIC "-//W3C//DTD SVG 1.0//EN" "http://www.w3.org/TR/2001/REC-SVG-20010904/DTD/svg10.dtd">
<svg version="1.0" id="Layer_1" xmlns="http://www.w3.org/2000/svg" xmlns:xlink="http://www.w3.org/1999/xlink" x="0px" y="0px"
	 width="132.329px" height="203.261px" viewBox="0 0 132.329 203.261" enable-background="new 0 0 132.329 203.261"
	 xml:space="preserve">
<g>
	<path fill-rule="evenodd" clip-rule="evenodd" fill="#E39560" d="M27.541,28.468L27.541,28.468
		c0.176-4.018,3.622-7.286,7.622-6.984l38.171,2.897c3.999,0.304,7.159,3.603,6.983,7.62l0,0c-0.175,4.017-3.603,7.148-7.619,6.98
		l-38.173-2.895C30.515,35.783,27.367,32.483,27.541,28.468z"/>
	<path fill-rule="evenodd" clip-rule="evenodd" fill="#E39560" d="M32.641,43.887L32.641,43.887
		c-0.465-3.994,2.416-7.771,6.412-8.106L77.2,32.566c3.995-0.337,7.641,2.419,8.107,6.411l0,0c0.465,3.994-2.42,7.631-6.413,8.105
		l-38.146,3.215C36.738,50.636,33.107,47.88,32.641,43.887z"/>
	<polygon fill-rule="evenodd" clip-rule="evenodd" fill="#E39560" points="87.281,86.487 102.313,41.601 69.83,16.675 45.251,18.15 
		59.812,77.74 	"/>
	<path fill-rule="evenodd" clip-rule="evenodd" fill="#FAAB6D" d="M84.687,74.927c11.107,13.916,5.226,29.891-14.003,34.408
		c-15.417,3.621-21.63-8.397-25.629-21.99c-4.326-14.711,4.38-27.361,10.016-28.529C60.705,57.647,75.183,63.028,84.687,74.927z"/>
	<path fill-rule="evenodd" clip-rule="evenodd" fill="#FAAB6D" d="M82.095,94.231L82.095,94.231
		c-3.979-0.594-7.542-4.553-6.149-8.309l16.999-45.859c1.394-3.757,4.334-6.743,8.309-6.148l0,0
		c3.977,0.596,6.733,4.332,6.148,8.309L94.221,88.085C92.822,91.856,86.07,94.827,82.095,94.231z"/>
	<path fill-rule="evenodd" clip-rule="evenodd" fill="#FAAB6D" d="M72.718,12.796L72.718,12.796
		c2.971-2.709,7.559-2.426,10.326,0.473l22.059,22.49c2.807,2.86,2.498,7.615-0.472,10.325l0,0
		c-2.972,2.71-7.606,2.491-10.324-0.474L72.248,23.121C69.433,20.249,69.748,15.507,72.718,12.796z"/>
	<path fill-rule="evenodd" clip-rule="evenodd" fill="#FAAB6D" d="M31.56,9.411L31.56,9.411c0.605-3.975,4.385-6.857,8.326-6.125
		l37.641,6.98c3.943,0.731,6.73,4.352,6.123,8.328l0,0c-0.605,3.975-4.348,6.72-8.326,6.121l-37.641-6.98
		C33.729,17.003,30.954,13.386,31.56,9.411z"/>
	<path fill-rule="evenodd" clip-rule="evenodd" fill="#FAAB6D" d="M84.709,36.531c-1.422,6.739-7.712,33.671-21.208,22.661
		C50.004,48.181,69.856,90.3,69.856,90.3l24.896-13.969C94.753,76.331,103.294,52.538,84.709,36.531z"/>
	<polygon fill-rule="evenodd" clip-rule="evenodd" fill="#FAAB6D" points="94.658,77.571 58.018,83.595 52.598,106.529 
		95.526,104.521 	"/>
	<polygon fill-rule="evenodd" clip-rule="evenodd" fill="#FAEBE1" points="99.052,100.565 43.936,102.707 46.598,203.261 
		99.714,201.119 	"/>
	<g>
		<path fill-rule="evenodd" clip-rule="evenodd" fill="#F2A51E" d="M130.379,66.778l1.877-3.76c0.171-0.34,0.03-0.76-0.311-0.93
			l-22.167-11.072c-0.341-0.168-0.76-0.029-0.928,0.311l-1.881,3.761c-0.169,0.341-0.03,0.759,0.312,0.929l22.169,11.072
			C129.79,67.259,130.206,67.119,130.379,66.778z"/>
		<g>
			<path fill="#F2A51E" d="M121.892,57.64c0.033,0.021,0.068,0.041,0.105,0.059c0.597,0.3,1.323,0.057,1.621-0.541
				c0.185-0.369,0.233-0.463,0.273-0.537l0.003-0.008l0,0l-0.002,0.004l0.002-0.004L121.892,57.64z M121.456,56.077
				c-0.281,0.562-0.083,1.236,0.436,1.563l2.003-1.027l0.001-0.003l-0.001,0.003l0,0l0.001-0.003c1.161-2.22,2.525-4.833-0.95-7.826
				c-1.436-1.235-9.156-5.306-17.482-9.476c-10.194-5.104-21.377-10.399-23.041-10.826c-1.099-0.279-1.841-0.385-2.392-0.342
				c-0.916,0.07-1.39,0.453-1.728,1.082c-0.594,1.104,0.157,2.394,1.282,3.395c0.342,0.303,0.72,0.59,1.096,0.831
				c0.381,0.246,0.77,0.453,1.12,0.589c0.913,0.359,1.714,0.271,2.181-0.442c0.364-0.558,0.205-1.306-0.354-1.669
				c-0.306-0.2-0.668-0.242-0.993-0.148c-0.181-0.075-0.404-0.199-0.647-0.355c-0.271-0.175-0.549-0.387-0.803-0.611
				c-0.097-0.088-0.201-0.152-0.299-0.201c0.25,0.045,0.559,0.115,0.937,0.213c1.541,0.395,12.503,5.603,22.563,10.641
				c8.173,4.091,15.699,8.045,16.99,9.154c2.021,1.742,1.139,3.44,0.385,4.882l-0.003,0.005L121.456,56.077z"/>
		</g>
		<path fill-rule="evenodd" clip-rule="evenodd" fill="#18232D" d="M120.806,63.823l3.34-6.686c0.303-0.605,0.053-1.35-0.551-1.65
			l-87.563-43.51C33.647,10.793,6.896-0.751,6.209,0.624L4.6,3.846C4.01,5.027,29.206,19.684,31.591,20.867l87.563,43.51
			C119.76,64.678,120.501,64.431,120.806,63.823z"/>
		
			<rect x="57.948" y="24.155" transform="matrix(0.8948 0.4464 -0.4464 0.8948 19.2305 -23.3712)" fill-rule="evenodd" clip-rule="evenodd" fill="#F2A51E" width="2.529" height="9.938"/>
		
			<rect x="61.905" y="26.132" transform="matrix(0.8947 0.4468 -0.4468 0.8947 20.5488 -24.9449)" fill-rule="evenodd" clip-rule="evenodd" fill="#F2A51E" width="2.529" height="9.938"/>
	</g>
	<path fill-rule="evenodd" clip-rule="evenodd" fill="#FAAB6D" d="M59.925,72.294L59.925,72.294
		c-4.376,1.771-9.72-0.256-11.174-4.734L35.598,27.087c-1.456-4.479,0.357-9.402,4.733-11.174l0,0
		c4.376-1.771,9.393,0.361,11.174,4.734L64.659,61.12C66.119,65.61,64.303,70.522,59.925,72.294z"/>
</g>
<polygon fill-rule="evenodd" clip-rule="evenodd" fill="#18232D" points="6.209,0.624 0,0 4.6,3.846 "/>
</svg>
