<?xml version="1.0" encoding="utf-8"?>
<!-- Generator: Adobe Illustrator 16.0.0, SVG Export Plug-In . SVG Version: 6.00 Build 0)  -->
<!DOCTYPE svg PUBLIC "-//W3C//DTD SVG 1.0//EN" "http://www.w3.org/TR/2001/REC-SVG-20010904/DTD/svg10.dtd">
<svg version="1.0" id="Layer_1" xmlns="http://www.w3.org/2000/svg" xmlns:xlink="http://www.w3.org/1999/xlink" x="0px" y="0px"
	 width="156.115px" height="111.426px" viewBox="0 0 156.115 111.426" enable-background="new 0 0 156.115 111.426"
	 xml:space="preserve">
<g>
	<rect y="106.746" fill="#C2B59C" width="17.249" height="4.68"/>
	<rect x="128.345" y="106.746" fill="#716759" width="27.771" height="4.68"/>
	<g>
		<path fill="#716759" d="M145.592,3.51c0-1.938-1.569-3.51-3.505-3.51c-1.94,0-3.51,1.571-3.51,3.51
			c0,1.936,1.569,3.506,3.51,3.506C144.022,7.016,145.592,5.445,145.592,3.51z"/>
		<rect x="138.577" y="3.51" fill="#716759" width="7.015" height="103.236"/>
	</g>
	<rect x="128.345" y="106.746" fill="#C2B59C" width="17.247" height="4.68"/>
	<rect x="138.577" fill="#716759" width="3.51" height="11.109"/>
	<g>
		<path fill="#C2B59C" d="M142.087,3.51c0-1.938-1.573-3.51-3.51-3.51c-1.94,0-3.509,1.571-3.509,3.51
			c0,1.936,1.568,3.506,3.509,3.506C140.514,7.016,142.087,5.445,142.087,3.51z"/>
		<rect x="135.068" y="3.51" fill="#C2B59C" width="7.019" height="103.236"/>
	</g>
	<rect x="17.249" y="90.084" fill="#716759" width="121.328" height="11.693"/>
	<rect x="17.249" y="9.084" fill="#FBE82A" width="121.328" height="46.814"/>
	<polygon fill="#424242" points="118.577,55.898 103.19,55.898 123.19,9.084 138.577,9.084 	"/>
	<polygon fill="#424242" points="87.577,55.898 72.19,55.898 92.19,9.084 107.577,9.084 	"/>
	<polygon fill="#424242" points="56.577,55.898 41.19,55.898 61.19,9.084 76.577,9.084 	"/>
	<polygon fill="#424242" points="25.577,55.898 10.19,55.898 30.19,9.084 45.577,9.084 	"/>
	<rect y="106.746" fill="#716759" width="27.774" height="4.68"/>
	<g>
		<path fill="#716759" d="M17.249,3.51c0-1.938-1.571-3.51-3.508-3.51c-1.94,0-3.509,1.571-3.509,3.51
			c0,1.936,1.568,3.506,3.509,3.506C15.678,7.016,17.249,5.445,17.249,3.51z"/>
		<rect x="10.232" y="3.51" fill="#716759" width="7.017" height="103.236"/>
	</g>
	<rect x="10.232" fill="#716759" width="3.509" height="11.109"/>
	<g>
		<path fill="#C2B59C" d="M13.741,3.51c0-1.938-1.573-3.51-3.509-3.51c-1.94,0-3.51,1.571-3.51,3.51c0,1.936,1.569,3.506,3.51,3.506
			C12.168,7.016,13.741,5.445,13.741,3.51z"/>
		<rect x="6.723" y="3.51" fill="#C2B59C" width="7.019" height="103.236"/>
	</g>
</g>
<path fill="#18232D" d="M133.79,7.012c0,1.811,1.464,3.273,3.271,3.273c1.808,0,3.271-1.463,3.271-3.273
	c0-1.805-1.464-3.269-3.271-3.269C135.254,3.743,133.79,5.207,133.79,7.012z"/>
<rect x="16.576" y="4.907" fill="#FFFFFF" width="118.492" height="3.974"/>
<path fill="#FFFFFF" d="M137.013,6.895c0-1.076-0.869-1.943-1.944-1.943c-1.076,0-1.945,0.867-1.945,1.943
	c0,1.073,0.869,1.945,1.945,1.945C136.144,8.84,137.013,7.968,137.013,6.895z"/>
</svg>
