<?xml version="1.0" encoding="utf-8"?>
<!-- Generator: Adobe Illustrator 16.0.0, SVG Export Plug-In . SVG Version: 6.00 Build 0)  -->
<!DOCTYPE svg PUBLIC "-//W3C//DTD SVG 1.0//EN" "http://www.w3.org/TR/2001/REC-SVG-20010904/DTD/svg10.dtd">
<svg version="1.0" id="Layer_1" xmlns="http://www.w3.org/2000/svg" xmlns:xlink="http://www.w3.org/1999/xlink" x="0px" y="0px"
	 width="165px" height="200px" viewBox="0 0 165 200" enable-background="new 0 0 165 200" xml:space="preserve">
<g>
	<rect fill="#C0B8A7" width="154" height="200"/>
	<rect x="4" fill="#E1D6CF" width="154" height="200"/>
	<rect x="11" fill="#FFFFFF" width="154" height="200"/>
	<rect x="32.445" y="38.86" fill="none" width="111.109" height="58.553"/>
	<text transform="matrix(1 0 0 1 39.6484 53.7705)" fill="#8FA73E" font-family="'Helvetica-Bold'" font-size="21">Terpercaya</text>
	<g>
		<g>
			<path fill="#424242" d="M34,92c35,0,70,0,105,0c1.935,0,1.935-3,0-3c-35,0-70,0-105,0C32.065,89,32.065,92,34,92L34,92z"/>
		</g>
	</g>
	<g>
		<g>
			<path fill="#424242" d="M34,113c35,0,70,0,105,0c1.935,0,1.935-3,0-3c-35,0-70,0-105,0C32.065,110,32.065,113,34,113L34,113z"/>
		</g>
	</g>
	<g>
		<g>
			<path fill="#424242" d="M34,124c35,0,70,0,105,0c1.935,0,1.935-3,0-3c-35,0-70,0-105,0C32.065,121,32.065,124,34,124L34,124z"/>
		</g>
	</g>
	<g>
		<g>
			<path fill="#424242" d="M34,145c35,0,70,0,105,0c1.935,0,1.935-3,0-3c-35,0-70,0-105,0C32.065,142,32.065,145,34,145L34,145z"/>
		</g>
	</g>
	<g>
		<g>
			<path fill="#424242" d="M34,156c35,0,70,0,105,0c1.935,0,1.935-3,0-3c-35,0-70,0-105,0C32.065,153,32.065,156,34,156L34,156z"/>
		</g>
	</g>
	<g>
		<g>
			<path fill="#424242" d="M34,177c35,0,70,0,105,0c1.935,0,1.935-3,0-3c-35,0-70,0-105,0C32.065,174,32.065,177,34,177L34,177z"/>
		</g>
	</g>
</g>
</svg>
