<?xml version="1.0" encoding="utf-8"?>
<!-- Generator: Adobe Illustrator 16.0.0, SVG Export Plug-In . SVG Version: 6.00 Build 0)  -->
<!DOCTYPE svg PUBLIC "-//W3C//DTD SVG 1.0//EN" "http://www.w3.org/TR/2001/REC-SVG-20010904/DTD/svg10.dtd">
<svg version="1.0" id="Layer_1" xmlns="http://www.w3.org/2000/svg" xmlns:xlink="http://www.w3.org/1999/xlink" x="0px" y="0px"
	 width="201.502px" height="238.676px" viewBox="0 0 201.502 238.676" enable-background="new 0 0 201.502 238.676"
	 xml:space="preserve">
<g>
	
		<rect x="23.999" y="22" transform="matrix(0.9651 0.2619 -0.2619 0.9651 35.4766 -22.1931)" fill="#C0B8A7" width="154" height="200"/>
	<rect x="13" y="22" fill="#FFFFFF" width="154" height="200"/>
	<rect x="34.445" y="40.86" fill="none" width="111.109" height="58.553"/>
	<text transform="matrix(1 0 0 1 52.1797 55.7705)"><tspan x="0" y="0" fill="#E13726" font-family="'Helvetica-Bold'" font-size="21">Reputasi </tspan><tspan x="12.2" y="25.199" fill="#E13726" font-family="'Helvetica-Bold'" font-size="21">Buruk</tspan></text>
	<g>
		<g>
			<path fill="#424242" d="M36,114c35,0,70,0,105,0c1.935,0,1.935-3,0-3c-35,0-70,0-105,0C34.065,111,34.065,114,36,114L36,114z"/>
		</g>
	</g>
	<g>
		<g>
			<path fill="#424242" d="M36,135c35,0,70,0,105,0c1.935,0,1.935-3,0-3c-35,0-70,0-105,0C34.065,132,34.065,135,36,135L36,135z"/>
		</g>
	</g>
	<g>
		<g>
			<path fill="#424242" d="M36,146c35,0,70,0,105,0c1.935,0,1.935-3,0-3c-35,0-70,0-105,0C34.065,143,34.065,146,36,146L36,146z"/>
		</g>
	</g>
	<g>
		<g>
			<path fill="#424242" d="M36,167c35,0,70,0,105,0c1.935,0,1.935-3,0-3c-35,0-70,0-105,0C34.065,164,34.065,167,36,167L36,167z"/>
		</g>
	</g>
	<g>
		<g>
			<path fill="#424242" d="M36,178c35,0,70,0,105,0c1.935,0,1.935-3,0-3c-35,0-70,0-105,0C34.065,175,34.065,178,36,178L36,178z"/>
		</g>
	</g>
	<g>
		<g>
			<path fill="#424242" d="M36,199c35,0,70,0,105,0c1.935,0,1.935-3,0-3c-35,0-70,0-105,0C34.065,196,34.065,199,36,199L36,199z"/>
		</g>
	</g>
</g>
</svg>
