<?xml version="1.0" encoding="utf-8"?>
<!-- Generator: Adobe Illustrator 16.0.0, SVG Export Plug-In . SVG Version: 6.00 Build 0)  -->
<!DOCTYPE svg PUBLIC "-//W3C//DTD SVG 1.0//EN" "http://www.w3.org/TR/2001/REC-SVG-20010904/DTD/svg10.dtd">
<svg version="1.0" id="Layer_1" xmlns="http://www.w3.org/2000/svg" xmlns:xlink="http://www.w3.org/1999/xlink" x="0px" y="0px"
	 width="79.586px" height="48.729px" viewBox="0 0 79.586 48.729" enable-background="new 0 0 79.586 48.729" xml:space="preserve">
<g>
	<g>
		<path fill="#CDC8B7" d="M74.094,48.729H6.176c-0.411,0-0.744-0.33-0.744-0.741v-4.094c0-0.41,0.333-0.744,0.744-0.744h67.918
			c0.406,0,0.744,0.334,0.744,0.744v4.094C74.838,48.399,74.5,48.729,74.094,48.729"/>
	</g>
	<g>
		<path fill="#F9F9EA" d="M70.642,45.121H9.629c-2.196,0-4.044-1.631-4.318-3.805L0.719,4.953c-0.327-2.6,1.699-4.898,4.317-4.898
			h70.192c2.623,0,4.65,2.299,4.323,4.898l-4.593,36.363C74.685,43.49,72.832,45.121,70.642,45.121"/>
	</g>
	<g>
		<path fill="#E6E3DB" d="M74.21,46.544H6.065c-1.214,0-2.19-0.979-2.19-2.188c0-1.211,0.977-2.189,2.19-2.189H74.21
			c1.203,0,2.18,0.979,2.18,2.189C76.39,45.565,75.413,46.544,74.21,46.544"/>
	</g>
	<g>
		<path fill="#CDC8B7" d="M40.135,31.01L40.135,31.01c-4.33,0-7.872-3.541-7.872-7.875c0-4.332,3.542-7.873,7.872-7.873
			c4.331,0,7.875,3.541,7.875,7.873C48.01,27.469,44.466,31.01,40.135,31.01"/>
	</g>
	<g>
		<path fill="#CDC8B7" d="M78.264,1.313c-0.781-0.766-1.842-1.257-3.03-1.257H5.036c-1.192,0-2.248,0.491-3.03,1.257H78.264z"/>
	</g>
	<circle fill="#F9F9EA" cx="46.791" cy="17.581" r="5.83"/>
</g>
</svg>
