<?xml version="1.0" encoding="utf-8"?>
<!-- Generator: Adobe Illustrator 16.0.0, SVG Export Plug-In . SVG Version: 6.00 Build 0)  -->
<!DOCTYPE svg PUBLIC "-//W3C//DTD SVG 1.0//EN" "http://www.w3.org/TR/2001/REC-SVG-20010904/DTD/svg10.dtd">
<svg version="1.0" id="Layer_1" xmlns="http://www.w3.org/2000/svg" xmlns:xlink="http://www.w3.org/1999/xlink" x="0px" y="0px"
	 width="309.625px" height="376.578px" viewBox="0 0 309.625 376.578" enable-background="new 0 0 309.625 376.578"
	 xml:space="preserve">
<g>
	<rect x="1.037" fill="#4C4C4E" width="308.588" height="210.952"/>
	<rect x="1.037" y="210.952" fill="#656567" width="308.588" height="148.192"/>
	<rect x="1.037" y="359.145" fill="#4C4C4E" width="308.588" height="17.434"/>
	<rect x="12.368" y="222.287" fill="#4C4C4E" width="15.402" height="15.398"/>
	<rect x="33.29" y="222.287" fill="#4C4C4E" width="15.401" height="15.398"/>
	<rect x="54.213" y="222.287" fill="#4C4C4E" width="15.398" height="15.398"/>
	<rect x="75.133" y="222.287" fill="#4C4C4E" width="15.4" height="15.398"/>
	<rect x="96.052" y="222.287" fill="#4C4C4E" width="15.401" height="15.398"/>
	<rect x="116.974" y="222.287" fill="#4C4C4E" width="15.403" height="15.398"/>
	<rect x="137.896" y="222.287" fill="#4C4C4E" width="15.403" height="15.398"/>
	<rect x="158.815" y="222.287" fill="#4C4C4E" width="15.401" height="15.398"/>
	<rect x="179.739" y="222.287" fill="#4C4C4E" width="15.4" height="15.398"/>
	<rect x="200.659" y="222.287" fill="#4C4C4E" width="15.4" height="15.398"/>
	<rect x="221.578" y="222.287" fill="#4C4C4E" width="15.403" height="15.398"/>
	<rect x="242.5" y="222.287" fill="#4C4C4E" width="15.402" height="15.398"/>
	<rect x="263.423" y="222.287" fill="#4C4C4E" width="15.399" height="15.398"/>
	<rect x="283.762" y="222.287" fill="#4C4C4E" width="15.402" height="15.398"/>
	<rect x="12.368" y="243.209" fill="#4C4C4E" width="15.402" height="15.4"/>
	<rect x="33.29" y="243.209" fill="#4C4C4E" width="15.401" height="15.4"/>
	<rect x="54.213" y="243.209" fill="#4C4C4E" width="15.398" height="15.4"/>
	<rect x="75.133" y="243.209" fill="#4C4C4E" width="15.4" height="15.4"/>
	<rect x="96.052" y="243.209" fill="#4C4C4E" width="15.401" height="15.4"/>
	<rect x="116.974" y="243.209" fill="#4C4C4E" width="15.403" height="15.4"/>
	<rect x="137.896" y="243.209" fill="#4C4C4E" width="15.403" height="15.4"/>
	<rect x="158.815" y="243.209" fill="#4C4C4E" width="15.401" height="15.4"/>
	<rect x="179.739" y="243.209" fill="#4C4C4E" width="15.4" height="15.4"/>
	<rect x="200.659" y="243.209" fill="#4C4C4E" width="15.4" height="15.4"/>
	<rect x="221.578" y="243.209" fill="#4C4C4E" width="15.403" height="15.4"/>
	<rect x="242.5" y="243.209" fill="#4C4C4E" width="15.402" height="15.4"/>
	<rect x="263.423" y="243.209" fill="#4C4C4E" width="15.399" height="15.4"/>
	<rect x="283.762" y="243.209" fill="#4C4C4E" width="15.402" height="15.4"/>
	<rect x="12.368" y="264.127" fill="#4C4C4E" width="15.402" height="15.404"/>
	<rect x="33.29" y="264.127" fill="#4C4C4E" width="15.401" height="15.404"/>
	<rect x="54.213" y="264.127" fill="#4C4C4E" width="15.398" height="15.404"/>
	<rect x="75.133" y="264.127" fill="#4C4C4E" width="15.4" height="15.404"/>
	<rect x="96.052" y="264.127" fill="#4C4C4E" width="15.401" height="15.404"/>
	<rect x="116.974" y="264.127" fill="#4C4C4E" width="15.403" height="15.404"/>
	<rect x="137.896" y="264.127" fill="#4C4C4E" width="15.403" height="15.404"/>
	<rect x="158.815" y="264.127" fill="#4C4C4E" width="15.401" height="15.404"/>
	<rect x="179.739" y="264.127" fill="#4C4C4E" width="15.4" height="15.404"/>
	<rect x="200.659" y="264.127" fill="#4C4C4E" width="15.4" height="15.404"/>
	<rect x="221.578" y="264.127" fill="#4C4C4E" width="15.403" height="15.404"/>
	<rect x="242.5" y="264.127" fill="#4C4C4E" width="15.402" height="15.404"/>
	<rect x="263.423" y="264.127" fill="#4C4C4E" width="15.399" height="15.404"/>
	<rect x="283.762" y="264.127" fill="#4C4C4E" width="15.402" height="15.404"/>
	<rect x="12.368" y="283.305" fill="#4C4C4E" width="15.402" height="15.401"/>
	<rect x="33.29" y="283.305" fill="#4C4C4E" width="15.401" height="15.401"/>
	<rect x="54.213" y="283.305" fill="#4C4C4E" width="203.688" height="15.401"/>
	<rect x="263.423" y="283.305" fill="#4C4C4E" width="15.399" height="15.401"/>
	<rect x="283.762" y="283.305" fill="#4C4C4E" width="15.402" height="15.401"/>
	<rect x="116.974" y="303.064" fill="#4C4C4E" width="78.166" height="49.4"/>
	<rect x="19.199" y="21.053" fill="#B6E4FA" width="272.264" height="168.846"/>
</g>
</svg>
