<?xml version="1.0" encoding="utf-8"?>
<!-- Generator: Adobe Illustrator 16.0.0, SVG Export Plug-In . SVG Version: 6.00 Build 0)  -->
<!DOCTYPE svg PUBLIC "-//W3C//DTD SVG 1.1//EN" "http://www.w3.org/Graphics/SVG/1.1/DTD/svg11.dtd">
<svg version="1.1" id="Layer_1" xmlns="http://www.w3.org/2000/svg" xmlns:xlink="http://www.w3.org/1999/xlink" x="0px" y="0px"
	 width="155.497px" height="130.379px" viewBox="0 0 155.497 130.379" enable-background="new 0 0 155.497 130.379"
	 xml:space="preserve">
<rect x="1" y="78" fill="#DDC728" width="154.497" height="52.379"/>
<g>
	<path fill-rule="evenodd" clip-rule="evenodd" fill="#424242" d="M133.008,76.352c0,2.061-1.909,3.735-4.269,3.73l-94.838-0.029
		c-2.354,0-4.265-1.675-4.265-3.73l0.04-72.91c0.01-2.055,1.929-3.74,4.294-3.74l94.822,0.035c2.36,0.004,4.27,1.679,4.27,3.744
		L133.008,76.352z"/>
	<path fill-rule="evenodd" clip-rule="evenodd" fill="#7E6B57" d="M126.702,67.117c0.01,1.298-1.316,2.34-2.942,2.34l-84.864-0.023
		c-1.631-0.005-2.947-1.053-2.947-2.346l0.024-58.461c0.01-1.287,1.322-2.336,2.957-2.336l84.854,0.016
		c1.636,0.004,2.972,1.063,2.958,2.345L126.702,67.117z"/>
</g>
<polygon fill-rule="evenodd" clip-rule="evenodd" fill="#424242" points="19.861,94.609 29.637,80 133,80 144,93.5 144,99 20,99 "/>
</svg>
