<?xml version="1.0" encoding="utf-8"?>
<!-- Generator: Adobe Illustrator 16.0.0, SVG Export Plug-In . SVG Version: 6.00 Build 0)  -->
<!DOCTYPE svg PUBLIC "-//W3C//DTD SVG 1.0//EN" "http://www.w3.org/TR/2001/REC-SVG-20010904/DTD/svg10.dtd">
<svg version="1.0" id="Layer_1" xmlns="http://www.w3.org/2000/svg" xmlns:xlink="http://www.w3.org/1999/xlink" x="0px" y="0px"
	 width="137.65px" height="383.842px" viewBox="0 0 137.65 383.842" enable-background="new 0 0 137.65 383.842"
	 xml:space="preserve">
<path fill="#424242" d="M48.726,140.197c0,0,15.019,5.081,49.769,1.154l-5.4,8.72l-35.813-0.744L48.726,140.197z"/>
<rect x="54.89" y="136.23" transform="matrix(-0.9999 -0.0133 0.0133 -0.9999 145.4822 300.4986)" fill="#424242" width="37.706" height="27.069"/>
<path fill="#424242" d="M92.733,139.586c0,0-9.456,7.063-21.022,6.908c-11.567-0.154-16.681-7.41-16.681-7.41
	S80.067,132.689,92.733,139.586z"/>
<g>
	<path fill="#424242" d="M16.601,52.174C4.295,46.383-3.471,56.646,15.393,97.97c15.527,34.016,7.517-8.44,7.517-8.44L16.601,52.174
		z"/>
	<path fill="#424242" d="M113.955,116.224c-2.248,6.148-5.945,11.661-11.673,16.049c-7.483,5.733-18.515,8.559-27.647,10.106
		c-12.661,2.145-25.962,2.814-36.335-5.885C21.135,122.1,18.752,95.691,16.307,75.1c-0.973-8.201-0.88-14.787-0.186-18.996
		c5.074-0.699,10.149-1.398,15.22-2.1c0.859-0.115,1.718-0.234,2.575-0.354c16.926-2.334,33.851-4.668,50.778-7.001
		c1.621-0.223,3.244-0.445,4.864-0.672c6.078-0.837,12.156-1.674,18.235-2.513c1.218,3.711,2.188,9.587,3.786,16.873
		C115.195,76.809,120.251,99.01,113.955,116.224z"/>
	<path fill="#424242" d="M116.848,38.947c-1,5.155-10.057,9.299-17.771,7.201c0,0,2.832,0.878,7.715,2.098
		c12.078,3.02-49.061,40.762-90.67,7.857C-25.488,23.197,24.406,1.709,49.406,0.543C77.461-0.765,99.291,5.41,111.75,17.96
		s-10.81,6.306-10.81,6.306S119.586,24.816,116.848,38.947z"/>
	<path fill="#FAEBE1" d="M60.014,109.083c6.92,4.042,35.588,2.79,41.756-7.269c6.167-10.057,6.18,24.594-18.66,23.439
		C58.271,124.098,60.014,109.083,60.014,109.083z"/>
</g>
<g>
	<path fill="#424242" d="M98.699,363.252l18.82,7.507c0,0,15.456-1.195,17.954,7.605c1.639,5.774,2.177,5.476,2.177,5.476
		c-15.12-1.187-54.305-2.125-54.305-2.125c0.13-4.973,6.429-17.854,6.429-17.854L98.699,363.252z"/>
	<path fill="#424242" d="M99.359,266.291c0,0,21.666,21.996,20.754,53.86c-0.369,12.923-9.45,31.075-9.824,49.685
		c-2.393,2.017-27.131,7.924-27.131,7.924c2.461-12.244,13.146-41.581,19.223-56.669c3.817-9.478-2.876-36.44-23.018-52.054
		L99.359,266.291z"/>
</g>
<g>
	<path fill="#424242" d="M60.679,363.301l19.4,5.851c0,0,15.294-2.529,18.544,6.022c2.131,5.611,2.749,7.662,2.749,7.662
		c-15.165,0.125-54.39,0.186-54.39,0.186c-0.302-4.963,4.347-16.464,4.347-16.464L60.679,363.301z"/>
	<path fill="#424242" d="M70.551,265.684c0,0,24.955,30.249,19.798,59.752c-2.453,14.036-6.76,21.498-13.176,43.969
		c-2.767,1.463-30.21,8.104-30.21,8.104c2.219-14.322,11.35-28.128,27.469-57.097c5.316-9.554-10.04-33.327-26.105-53.936
		L70.551,265.684z"/>
</g>
<path fill="#424242" d="M98.494,141.352c-0.025,16.77,19.349,100.886,18.807,101.621l-86.901-0.243
	c0.391-3.247,16.341-97.261,18.326-102.532l41.323,9.754L98.494,141.352z"/>
<path fill="#424242" d="M117.301,242.973c0,0-1.639,17.902-9.429,23.307c-7.797,5.402-50.549,17.598-72.926-1.395
	c-4.693-4.844-5.881-16.006-4.688-22.605L117.301,242.973z"/>
<polygon fill="#424242" points="80.625,148.363 65.279,159.396 48.726,140.197 "/>
<polygon fill="#424242" points="98.494,141.352 99.99,154.898 87.438,150.269 "/>
</svg>
