<?xml version="1.0" encoding="utf-8"?>
<!-- Generator: Adobe Illustrator 16.0.0, SVG Export Plug-In . SVG Version: 6.00 Build 0)  -->
<!DOCTYPE svg PUBLIC "-//W3C//DTD SVG 1.0//EN" "http://www.w3.org/TR/2001/REC-SVG-20010904/DTD/svg10.dtd">
<svg version="1.0" id="Layer_1" xmlns="http://www.w3.org/2000/svg" xmlns:xlink="http://www.w3.org/1999/xlink" x="0px" y="0px"
	 width="117.586px" height="49.953px" viewBox="0 0 117.586 49.953" enable-background="new 0 0 117.586 49.953"
	 xml:space="preserve">
<g>
	<path fill="#424242" d="M92.839,17.68c0,0,13.303-7.289,17.481-3.902s3.986,6.426,2.806,7.271
		c1.207,3.386,5.81,18.073,4.074,19.751c-1.734,1.678-8.791,8.648-18.315,6.32L92.839,17.68z"/>
	<path fill="#424242" d="M103.543,47.555c-1.472,0.074-3.025-0.037-4.658-0.436L92.839,17.68c0,0,1.862-1.021,4.41-2.119
		C98.571,22.729,101.206,36.693,103.543,47.555z"/>
	<path fill="#424242" d="M0,0.952c0,0,19.694,54.425,100.886,48.559c-1.246-5.63-6.743-33.714-6.743-33.714
		C67.366,25.954,31.19,40.556,7.683,0L0,0.952z"/>
</g>
</svg>
