<?xml version="1.0" encoding="utf-8"?>
<!-- Generator: Adobe Illustrator 16.0.0, SVG Export Plug-In . SVG Version: 6.00 Build 0)  -->
<!DOCTYPE svg PUBLIC "-//W3C//DTD SVG 1.0//EN" "http://www.w3.org/TR/2001/REC-SVG-20010904/DTD/svg10.dtd">
<svg version="1.0" id="Layer_1" xmlns="http://www.w3.org/2000/svg" xmlns:xlink="http://www.w3.org/1999/xlink" x="0px" y="0px"
	 width="146.959px" height="256.225px" viewBox="0 0 146.959 256.225" enable-background="new 0 0 146.959 256.225"
	 xml:space="preserve">
<g>
	<g>
		<path fill="#FAAB6D" d="M131.658,93.107l3.898-4.963l6.508-10.487c0,0,5.007-10.868,4.893-11.618
			c-0.313-2.044-2.521-2.553-3.854-1.706c-0.863,0.548-4.096,9.439-4.096,9.439l-1.775-0.651c0,0,3.311-11.361,3.787-13.645
			c0.522-2.508-4.012-3.196-4.567-1.636c-0.615,1.726-3.617,12.59-3.617,12.59l-2.388-0.663c0,0,2.209-10.164,2.587-13.732
			c0.208-1.962-3.601-2.47-4.333-0.713c-0.37,0.886-2.99,13.605-2.99,13.605l-5.553,9.539l-0.675,9.129L131.658,93.107z"/>
		<path fill="#FAAB6D" d="M120.489,88.336c0,0-4.976-9.182-5.05-11.59s0.895-6.112,1.639-7.865c1.023-2.416,0.146-3.885,1.33-4.843
			c0.896-0.725,4.035-0.034,3.944,1.892c-0.091,1.941-0.911,4.709-0.925,5.315c-0.012,0.606,1.332,3.855,1.332,3.855l6.686,3.737
			l0.256,6.164L120.489,88.336z"/>
	</g>
	<path fill="#E1D6CF" d="M63.826,114.186c0,0,33.121,26.758,70.589-22.033c-4.27-2.434-16.814-8.961-16.814-8.961
		c-10.48,17.261-28.009,41.328-49.918,27.134L63.826,114.186z"/>
</g>
<path fill="#696969" d="M34.832,100.395c0,0,10.75,3.637,35.623,0.826l-3.865,6.242l-25.633-0.533L34.832,100.395z"/>
<rect x="39.244" y="97.555" transform="matrix(-0.9999 -0.0133 0.0133 -0.9999 104.0449 215.1771)" fill="#FAAB6D" width="26.99" height="19.375"/>
<path fill="#E8833E" d="M66.332,99.957c0,0-6.769,5.055-15.048,4.944s-11.938-5.304-11.938-5.304S57.266,95.021,66.332,99.957z"/>
<g>
	<path fill="#636363" d="M11.838,37.391c-8.807-4.146-14.365,3.201-0.864,32.779c11.114,24.347,5.381-6.042,5.381-6.042
		L11.838,37.391z"/>
	<path fill="#FAAB6D" d="M81.522,83.234c-1.61,4.402-4.256,8.348-8.355,11.488c-5.356,4.104-13.253,6.126-19.79,7.233
		c-9.062,1.535-18.582,2.015-26.007-4.212C15.084,87.441,13.378,68.539,11.629,53.801c-0.697-5.871-0.631-10.584-0.134-13.598
		c3.632-0.5,7.265-1.002,10.894-1.502c0.615-0.084,1.229-0.168,1.844-0.254c12.115-1.671,24.229-3.342,36.346-5.011
		c1.16-0.159,2.322-0.319,3.481-0.481c4.351-0.599,8.701-1.197,13.052-1.799c0.872,2.657,1.566,6.862,2.711,12.078
		C82.409,55.023,86.027,70.914,81.522,83.234z"/>
	<path fill="#636363" d="M9.776,54.724C9.08,48.854,8.223,42.289,8.72,39.275c2.802-0.386,8.379,0.154,11.18-0.231l13.31,6.425
		c0,0-9.346,5.82-10.93,7.279c-1.585,1.457-1.219,10.862-1.219,10.862l0.92,28.198C14.509,81.137,11.229,66.96,9.776,54.724z"/>
	<path fill="#424242" d="M83.592,27.923c-0.716,3.69-7.198,6.657-12.721,5.155c0,0,2.028,0.627,5.522,1.502
		c8.646,2.16-35.116,29.176-64.898,5.623S17.425,1.27,35.32,0.435C55.4-0.502,71.025,3.918,79.943,12.901
		c8.918,8.982-7.737,4.513-7.737,4.513S85.552,17.809,83.592,27.923z"/>
	<circle fill="#424242" cx="75.8" cy="55.776" r="4.432"/>
	<circle fill="#424242" cx="45.09" cy="63.441" r="4.432"/>
	<g>
		<path fill="#424242" d="M67.601,42.161c4.089,4.278,10.218,2.204,14.194-1.028c1.982-1.613,4.787,1.237,2.788,2.862
			c-5.668,4.608-14.137,6.927-19.846,0.955C62.959,43.09,65.82,40.299,67.601,42.161L67.601,42.161z"/>
	</g>
	<g>
		<path fill="#424242" d="M47.559,46.595c0.01,8.261-7.711,12.446-14.99,13.04c-2.566,0.209-2.516-3.789,0.033-3.997
			c5.108-0.417,10.967-3.158,10.96-9.076C43.559,43.985,47.556,44.02,47.559,46.595L47.559,46.595z"/>
	</g>
	<g>
		<g>
			<path fill="#F6A569" d="M21.061,63.609c-12.186-4.79-14.271,16.209,1.273,8.642L21.061,63.609z"/>
			<path fill="#E8833E" d="M19.635,67.757c-5.603-1.649-4.859,5.029,0.502,2.395L19.635,67.757z"/>
		</g>
		
			<ellipse transform="matrix(-0.9371 0.3491 -0.3491 -0.9371 52.4148 121.3813)" opacity="0.3" fill="#FFFFFF" cx="15.269" cy="65.414" rx="1.952" ry="1.134"/>
	</g>
	<g>
		<g>
			<path fill="#BD7E50" d="M72.299,77.585c-0.518,1.321-2.121,3.527-3.482,4.825c-4.715,4.494-11.302,2.721-16.4-0.023
				c-1.703-0.917-3.218,1.673-1.514,2.591c9.068,4.881,20.137,4.002,24.289-6.595C75.898,76.58,72.996,75.806,72.299,77.585
				L72.299,77.585z"/>
		</g>
	</g>
</g>
<g>
	<path fill="#232323" d="M109.692,220.466l13.467-5.386c0,0,7.429-8.24,13.064-4.906c3.698,2.188,3.83,1.768,3.83,1.768
		c-8.431,6.84-29.222,25.675-29.222,25.675c-2.385-2.645-5.469-12.434-5.469-12.434L109.692,220.466z"/>
	<path fill="#333333" d="M62.225,169.836c0,0,22.087,0.729,37.325,17.709c6.181,6.887,10.42,20.782,19.402,30.622
		c-0.247,2.227-10.169,17.489-10.169,17.489c-4.761-7.565-13.684-28.055-17.97-38.88c-2.693-6.799-19.461-17.487-37.61-15.655
		L62.225,169.836z"/>
</g>
<g>
	<path fill="#2E2E2E" d="M89.991,239.239l12.95-6.53c0,0,6.688-8.854,12.591-6.02c3.872,1.859,5.204,2.619,5.204,2.619
		c-7.806,7.543-28.127,26.916-28.127,26.916c-2.604-2.426-5.863-10.686-5.863-10.686L89.991,239.239z"/>
	<path fill="#424242" d="M46.979,183.726c0,0,27.862,3.389,39.734,21.238c5.648,8.491,7.094,14.487,14.846,29.309
		c-0.715,2.124-11.679,19.101-11.679,19.101c-5.91-8.524-7.98-20.189-13.902-43.167c-1.953-7.579-21.643-12.34-40.14-15.11
		L46.979,183.726z"/>
</g>
<path fill="#FAEBE1" d="M70.455,101.221c-0.018,12.003,13.85,72.211,13.461,72.737l-62.201-0.174
	c0.279-2.325,11.696-69.616,13.117-73.39l29.578,6.982L70.455,101.221z"/>
<path fill="#424242" d="M83.916,173.958c0,0-1.172,12.813-6.748,16.682c-5.581,3.868-36.182,12.597-52.198-0.997
	c-3.359-3.469-4.209-11.457-3.355-16.181L83.916,173.958z"/>
<polygon fill="#E1D6CF" points="57.665,106.239 46.682,114.137 34.832,100.395 "/>
<polygon fill="#E1D6CF" points="70.455,101.221 71.526,110.918 62.541,107.604 "/>
<g>
	<polygon fill="#EE8122" points="68.204,113.526 76.277,145.33 67.708,158.002 56.88,144.891 59.166,112.883 	"/>
	<polygon fill="#BE6928" points="68.41,106.717 69.274,113.732 58.393,114.28 57.473,105.938 	"/>
	<polygon fill="#BE6928" points="68.941,116.436 58.891,116.74 59.127,113.43 68.347,114.088 	"/>
	<polygon fill="#EE8122" points="69.391,108.039 70.203,114.438 57.359,114.828 56.521,107.221 	"/>
</g>
<g>
	<path fill="#FAAB6D" d="M40.169,146.979c0,0,10.824,0.844,12.001,4.51c1.177,3.665-0.128,5.41-1.166,5.454
		c-0.604,2.501-3.6,13.103-5.296,13.429s-8.655,1.738-13.448-3.388L40.169,146.979z"/>
	<path fill="#E8833E" d="M34.88,169.068c-0.911-0.532-1.798-1.207-2.62-2.085l7.909-20.005c0,0,1.516,0.118,3.472,0.458
		C41.625,152.248,37.734,161.646,34.88,169.068z"/>
	<path fill="#FAEBE1" d="M33.507,104.396c0,0-51.924,36.516-0.985,64.803c1.459-3.86,9.166-22.838,9.166-22.838
		c-20.02-4.403-30.62-16.223-3.205-39.525L33.507,104.396z"/>
</g>
</svg>
