<?xml version="1.0" encoding="utf-8"?>
<!-- Generator: Adobe Illustrator 16.0.0, SVG Export Plug-In . SVG Version: 6.00 Build 0)  -->
<!DOCTYPE svg PUBLIC "-//W3C//DTD SVG 1.1//EN" "http://www.w3.org/Graphics/SVG/1.1/DTD/svg11.dtd">
<svg version="1.1" id="Layer_1" xmlns="http://www.w3.org/2000/svg" xmlns:xlink="http://www.w3.org/1999/xlink" x="0px" y="0px"
	 width="177.688px" height="208.494px" viewBox="0 0 177.688 208.494" enable-background="new 0 0 177.688 208.494"
	 xml:space="preserve">
<g>
	<path fill="#FAAB6D" d="M168.173,120.334c0,0,8.362,0.857,9.204,3.717c0.842,2.86-0.201,4.187-1.006,4.201
		c-0.515,1.924-3.033,10.074-4.354,10.295c-1.318,0.22-6.731,1.181-10.346-2.877L168.173,120.334z"/>
	<path fill="#E8833E" d="M163.661,137.334c-0.695-0.43-1.369-0.969-1.989-1.664l6.501-15.336c0,0,1.171,0.119,2.679,0.42
		C169.2,124.44,166.011,131.643,163.661,137.334z"/>
	<path fill="#E1D6CF" d="M131.067,83.5c0,0-8.131,31.031,30.766,53.891c1.202-2.961,7.526-17.507,7.526-17.507
		c-15.414-3.786-36.515-8.501-34.486-34.401L131.067,83.5z"/>
</g>
<path fill="#696969" d="M109.874,74.861c0,0,7.177,5.07,26.258,8.472l-4.245,3.779l-18.908-6.05L109.874,74.861z"/>
<rect x="111.205" y="76.393" transform="matrix(-0.9547 -0.2977 0.2977 -0.9547 212.8221 200.1963)" fill="#FAAB6D" width="20.898" height="15.002"/>
<path fill="#E8833E" d="M133.351,81.484c0,0-6.139,2.26-12.26,0.351c-6.12-1.908-7.691-6.57-7.691-6.57
	S127.711,75.82,133.351,81.484z"/>
<g>
	<path fill="#636363" d="M116.836,21.016c-4.669-5.917-11.061-2.748-11.932,22.412c-0.717,20.711,5.816-2.326,5.816-2.326
		L116.836,21.016z"/>
	<path fill="#FAAB6D" d="M149.267,76.87c-2.637,2.493-5.834,4.312-9.761,5.07c-5.13,0.991-11.3-0.337-16.211-1.83
		c-6.811-2.069-13.571-5.028-16.563-11.909c-4.95-11.387,0.402-25.072,4.286-35.889c1.547-4.309,3.223-7.551,4.608-9.467
		c2.689,0.908,5.38,1.818,8.067,2.725c0.455,0.156,0.91,0.31,1.365,0.463c8.971,3.03,17.941,6.061,26.914,9.094
		c0.858,0.29,1.719,0.581,2.578,0.87c3.222,1.089,6.443,2.178,9.665,3.267c-0.314,2.142-1.287,5.295-2.298,9.304
		C159.635,57.631,156.648,69.892,149.267,76.87z"/>
	<path fill="#636363" d="M109.415,32.313c1.547-4.309,3.223-9.153,4.609-11.069c2.074,0.701,5.751,3.005,7.825,3.705l7.001,9.054
		c0,0-8.487,0.801-10.09,1.263s-4.6,7.105-4.6,7.105l-9.112,19.855C103.563,52.248,106.191,41.292,109.415,32.313z"/>
	<path fill="#424242" d="M169.823,39.264c-1.771,2.309-7.288,2.123-10.595-0.827c0,0,1.188,1.137,3.307,2.95
		c5.242,4.486-34.417,8.073-46.909-18.541C103.135-3.77,133.195-2.08,145.883,3.529c14.236,6.294,23.533,14.758,26.606,24.064
		s-6.921,0.452-6.921,0.452S174.678,32.934,169.823,39.264z"/>
	<circle fill="#424242" cx="154.796" cy="55.867" r="3.432"/>
	<circle fill="#424242" cx="130.868" cy="50.561" r="3.432"/>
	<g>
		<path fill="#424242" d="M162.316,50.012c-2.091-4.077-7.097-3.891-10.762-2.369c-1.827,0.76-3.279-1.976-1.438-2.74
			c5.224-2.169,12.021-2.021,14.939,3.672C165.967,50.348,163.227,51.788,162.316,50.012L162.316,50.012z"/>
	</g>
	<g>
		<path fill="#424242" d="M126.47,38.697c5.636-3.025,11.314,0.716,14.38,5.469c1.08,1.676-1.668,3.102-2.741,1.438
			c-2.151-3.337-6.163-6.334-10.2-4.167C126.15,42.381,124.713,39.64,126.47,38.697L126.47,38.697z"/>
	</g>
	<g>
		<path fill="#BD7E50" d="M149.18,70.58c-9.402,3.991-19.719-0.188-25.71-7.889c-0.607-0.781,0.53-1.832,1.144-1.044
			c5.527,7.106,15.082,11.283,23.848,7.563C149.372,68.822,150.098,70.19,149.18,70.58L149.18,70.58z"/>
	</g>
	<g>
		<g>
			<path fill="#F6A569" d="M114.161,42.37c-6.786-7.532-15.492,6.296-2.105,6.427L114.161,42.37z"/>
			<path fill="#E8833E" d="M111.739,44.75c-3.312-3.08-5.105,1.805-0.479,1.833L111.739,44.75z"/>
		</g>
		
			<ellipse transform="matrix(-0.9944 -0.1059 0.1059 -0.9944 214.0251 94.6021)" opacity="0.3" fill="#FFFFFF" cx="109.525" cy="41.617" rx="1.512" ry="0.878"/>
	</g>
</g>
<g>
	<path fill="#696969" d="M40.159,98.43l-1.895,2.459c-2.244,2.91-1.702,7.089,1.209,9.331l12.821,9.882
		c2.91,2.244,7.088,1.703,9.331-1.208l1.896-2.459c-0.194,1.063,1.328-6.479-1.208-9.33L49.49,97.222
		C46.58,94.979,42.402,95.519,40.159,98.43z M42.367,101.44c1.545-2.005,4.583-2.256,6.787-0.558l9.702,7.479
		c2.202,1.696,2.736,4.699,1.19,6.705l-1.306,1.693c-1.546,2.007-4.586,2.255-6.788,0.559l-9.702-7.479
		c-2.204-1.698-2.736-4.698-1.188-6.704L42.367,101.44z"/>
	<path fill="#FAAB6D" d="M65.422,103.407c0,0-3.229,7.762-6.209,7.745c-2.981-0.018-3.951-1.398-3.733-2.173
		c-1.694-1.047-8.775-5.806-8.606-7.132c0.169-1.327,0.807-6.788,5.733-9.08L65.422,103.407z"/>
	<path fill="#E8833E" d="M50.44,94.193c0.611-0.543,1.321-1.033,2.166-1.426l12.815,10.64c0,0-0.452,1.086-1.173,2.444
		C61.193,103.209,55.214,98.081,50.44,94.193z"/>
	<path fill="#7E6B57" d="M1.144,118.896c-2.244,2.91-1.702,7.091,1.208,9.333l41.892,32.288c2.91,2.242,7.09,1.701,9.333-1.21
		l18.684-24.241c2.242-2.91,1.7-7.086-1.211-9.329L29.158,93.45c-2.91-2.243-7.09-1.705-9.332,1.205L1.144,118.896z"/>
	<path fill="#FAEBE1" d="M111.377,78.474c0,0-27.377-16.718-60.465,13.952c2.489,2.004,14.599,12.247,14.599,12.247
		c8.063-13.672,18.651-32.522,42.873-23.125L111.377,78.474z"/>
</g>
<g>
	<path fill="#232323" d="M61.46,186.063l5.512,9.784c0,0,7.085,4.859,5.104,9.525c-1.302,3.063-0.966,3.121-0.966,3.121
		c-6.111-5.771-22.696-19.802-22.696-19.802c1.786-2.101,8.983-5.47,8.983-5.47L61.46,186.063z"/>
	<path fill="#333333" d="M95.463,144.449c0,0,1.701,17.027-9.773,30.461c-4.653,5.448-14.885,10.124-21.518,18.025
		c-1.734,0.038-14.464-6.016-14.464-6.016c5.319-4.428,20.133-13.373,28.002-17.771c4.943-2.762,11.431-16.726,8.168-30.468
		L95.463,144.449z"/>
</g>
<g>
	<path fill="#2E2E2E" d="M142.851,193.259l10.869-2.825c0,0,6.51-5.606,10.514-2.496c2.627,2.042,3.511,2.834,3.511,2.834
		c-7.142,4.432-25.689,15.771-25.689,15.771c-1.574-2.262-2.69-9.046-2.69-9.046L142.851,193.259z"/>
	<path fill="#424242" d="M119.377,144.208c0,0,20.533,7.122,26.599,22.573c2.886,7.352,2.999,12.125,6.442,24.61
		c-0.889,1.49-11.963,12.546-11.963,12.546c-3.079-7.418-2.738-16.585-3.462-34.944c-0.238-6.056-14.361-12.88-27.908-18.002
		L119.377,144.208z"/>
</g>
<path fill="#FAEBE1" d="M136.132,83.333c-2.661,8.904-5.651,56.651-6.055,56.956l-46.129-13.852
	c0.72-1.663,24.039-49.09,25.926-51.576l20.413,11.707L136.132,83.333z"/>
<path fill="#424242" d="M130.077,140.289c0,0-3.697,9.252-8.689,10.894c-4.995,1.639-29.634,1.367-38.522-12.256
	c-1.729-3.315-0.597-9.433,1.079-12.75L130.077,140.289z"/>
<polygon fill="#E1D6CF" points="125.532,84.236 115.638,87.674 109.874,74.861 "/>
<polygon fill="#E1D6CF" points="136.132,83.333 134.788,90.766 128.851,86.324 "/>
<g>
	<polygon fill="#EE8122" points="131.746,91.97 130.723,117.356 121.566,124.871 116.422,112.751 125.181,89.498 	"/>
	<polygon fill="#BE6928" points="133.402,86.96 132.496,92.358 124.298,90.364 125.456,83.971 	"/>
	<polygon fill="#BE6928" points="131.652,94.291 124.125,92.3 125.031,89.896 131.729,92.417 	"/>
	<polygon fill="#EE8122" points="133.838,88.158 133.029,93.088 123.41,90.543 124.467,84.711 	"/>
</g>
</svg>
