<?xml version="1.0" encoding="utf-8"?>
<!-- Generator: Adobe Illustrator 16.0.0, SVG Export Plug-In . SVG Version: 6.00 Build 0)  -->
<!DOCTYPE svg PUBLIC "-//W3C//DTD SVG 1.1//EN" "http://www.w3.org/Graphics/SVG/1.1/DTD/svg11.dtd">
<svg version="1.1" id="Layer_1" xmlns="http://www.w3.org/2000/svg" xmlns:xlink="http://www.w3.org/1999/xlink" x="0px" y="0px"
	 width="354.559px" height="411.912px" viewBox="0 0 354.559 411.912" enable-background="new 0 0 354.559 411.912"
	 xml:space="preserve">
<path fill="#696969" d="M177.926,153.22c0,0-16.207,5.244-53.485,0.528l5.677,9.445l38.486-0.287L177.926,153.22z"/>
<rect x="130.654" y="148.598" fill="#FAAB6D" width="40.515" height="29.084"/>
<path fill="#E8833E" d="M130.654,151.933c0,0,10.058,7.723,22.487,7.723s18.027-7.723,18.027-7.723S144.361,144.705,130.654,151.933
	z"/>
<g>
	<path fill="#636363" d="M196.111,49.547c12.057-8.258,22.057,1.295,9.15,48.364c-10.623,38.746-9.423-7.661-9.423-7.661
		L196.111,49.547z"/>
	<g>
		<g>
			<path fill="#F6A569" d="M198.561,90.421c16.906-10.024,25.039,20.592,0.188,13.11L198.561,90.421z"/>
			<path fill="#E8833E" d="M201.67,96.224c7.905-3.79,8.407,6.286-0.17,3.669L201.67,96.224z"/>
		</g>
		
			<ellipse transform="matrix(0.9808 0.1949 -0.1949 0.9808 21.8578 -38.7037)" opacity="0.3" fill="#FFFFFF" cx="207.576" cy="91.704" rx="2.931" ry="1.701"/>
	</g>
	<path fill="#636363" d="M102.729,121.83c-28.316-40.198-22.374-91.03-1.029-76.764L102.729,121.83z"/>
	<g>
		<g>
			<path fill="#F6A569" d="M99.244,92.181c-18.205-7.407-21.71,24.078,1.758,12.993L99.244,92.181z"/>
			<path fill="#E8833E" d="M97.028,98.381c-8.38-2.576-7.382,7.463,0.712,3.604L97.028,98.381z"/>
		</g>
		
			<ellipse transform="matrix(0.9563 -0.2925 0.2925 0.9563 -23.8454 30.663)" opacity="0.3" fill="#FFFFFF" cx="90.629" cy="95.082" rx="2.931" ry="1.701"/>
	</g>
	<path fill="#FAAB6D" d="M103.86,134.208c3.441,6.135,8.31,11.347,15.139,15.016c8.922,4.794,21.107,5.896,31.06,5.968
		c13.798,0.1,28.02-1.476,37.527-12.485c15.732-18.216,13.723-46.635,12.776-68.896c-0.377-8.866-1.607-15.834-3.067-20.181
		c-5.501,0.131-11.005,0.261-16.503,0.389c-0.932,0.025-1.861,0.047-2.792,0.068c-18.353,0.432-36.705,0.865-55.061,1.3
		c-1.757,0.042-3.517,0.085-5.274,0.124c-6.591,0.156-13.181,0.313-19.772,0.467c-0.653,4.146-0.673,10.544-1.116,18.547
		C95.773,92.617,94.226,117.033,103.86,134.208z"/>
	<path fill="#424242" d="M97.893,55.979c8.993,9.095,38.179,13.545,54.552,8.824c0,0-11.096,8.378-24.4,9.769
		c-13.306,1.391,30.773,21.11,69.251-20.94S179.162-2.637,152.444,0.422c-29.98,3.434-52.071,13.734-63.13,29.186
		c-11.058,15.451,12.548,4.831,12.548,4.831S86.197,44.151,97.893,55.979z"/>
	<circle fill="#424242" cx="123.537" cy="97.692" r="6.652"/>
	<circle fill="#424242" cx="173.754" cy="97.692" r="6.652"/>
	<g>
		<path fill="#424242" d="M112.997,82.516c6.223-6.34,15.38-3.106,21.284,1.825c2.944,2.459,7.211-1.764,4.242-4.243
			c-8.416-7.029-21.082-10.676-29.769-1.825C106.048,81.032,110.287,85.278,112.997,82.516L112.997,82.516z"/>
	</g>
	<g>
		<path fill="#424242" d="M188.74,78.273c-8.686-8.85-21.354-5.203-29.77,1.825c-2.967,2.478,1.297,6.703,4.243,4.243
			c5.906-4.933,15.062-8.165,21.283-1.825C187.206,85.276,191.448,81.033,188.74,78.273L188.74,78.273z"/>
	</g>
	<g>
		<path fill="#BD7E50" d="M122.477,127.239c15.099,12.813,36.604,11.032,52.136,0.234c1.574-1.094,0.076-3.696-1.514-2.59
			c-14.331,9.962-34.425,12.179-48.501,0.234C123.134,123.875,121.002,125.987,122.477,127.239L122.477,127.239z"/>
	</g>
</g>
<g>
	<g>
		<path fill="#FAAB6D" d="M17.525,103.581l-5.227-10.215L4.342,72.377c0,0-5.146-21.143-4.68-22.441
			c1.271-3.541,5.389-3.678,7.474-1.701c1.35,1.278,4.018,18.275,4.018,18.275l3.396-0.543c0,0-1.946-21.433-2-25.674
			c-0.06-4.657,8.274-4.304,8.723-1.326c0.495,3.294,2.063,23.732,2.063,23.732l4.493-0.35c0,0-0.396-18.911,0.173-25.413
			c0.313-3.574,7.287-3.151,7.983,0.239c0.35,1.711,0.591,25.326,0.591,25.326l6.582,18.963L41.18,97.991L17.525,103.581z"/>
		<polygon fill="#E8833E" points="43.158,81.464 39.622,71.279 38.854,72.792 23.426,78.599 23.671,89.744 40.141,98.037 
			41.511,95.218 		"/>
		<path fill="#FAAB6D" d="M39.125,98.961c0,0,12.082-14.651,13.055-18.923c0.973-4.271,0.534-11.222-0.182-14.61
			c-0.984-4.67,1.096-6.985-0.684-9.106c-1.35-1.607-7.19-1.469-7.701,2c-0.515,3.497-0.016,8.723-0.204,9.81
			c-0.188,1.086-3.722,6.417-3.722,6.417l-13.235,4.338l-2.606,10.913L39.125,98.961z"/>
	</g>
	<path fill="#FAEBE1" d="M131.239,164.863c0,0-68.447,36.203-118.301-63.946c8.469-2.854,33.136-10.129,33.136-10.129
		c12.684,34.462,35.573,83.532,79.628,65.839L131.239,164.863z"/>
</g>
<g>
	<path fill="#696969" d="M276.781,229.449l-29.436,10.892c-6.34,3.812-7.874,18.65-7.619,16.571l2.088,5.644
		c2.473,6.684,9.892,10.094,16.572,7.621l29.433-10.891c6.682-2.47,10.096-9.893,7.622-16.573l-2.088-5.645
		C290.881,230.388,283.462,226.978,276.781,229.449z M288.968,245.256c1.707,4.604-1.011,9.852-6.069,11.723l-22.272,8.243
		c-5.055,1.87-10.537-0.344-12.24-4.95l-1.439-3.887c-1.704-4.604,1.017-9.854,6.072-11.724l22.272-8.242
		c5.058-1.871,10.536,0.346,12.238,4.948L288.968,245.256z"/>
	<path fill="#FAAB6D" d="M243.726,231.703c0,0,1.496,16.229,7.023,17.918c5.527,1.688,8.118-0.308,8.162-1.867
		c3.741-0.959,19.591-5.68,20.044-8.234c0.453-2.553,2.425-13.026-5.371-20.112L243.726,231.703z"/>
	<path fill="#E8833E" d="M276.771,223.295c-0.818-1.355-1.851-2.673-3.187-3.888l-29.858,12.296c0,0,0.21,2.271,0.761,5.202
		C251.666,233.777,265.691,227.737,276.771,223.295z"/>
	<path fill="#7E6B57" d="M353.754,297.462c2.473,6.682-0.941,14.106-7.622,16.578l-96.164,35.584
		c-6.681,2.471-14.104-0.944-16.575-7.625l-20.591-55.646c-2.472-6.68,0.942-14.096,7.623-16.569l96.163-35.583
		c6.681-2.472,14.104,0.936,16.576,7.615L353.754,297.462z"/>
	<path fill="#FAEBE1" d="M173.061,159.04c0,0,60.316-15.144,103.856,60.713c-5.764,2.271-34.086,14.243-34.086,14.243
		c-7.034-29.957-15.754-70.956-66.004-67.54L173.061,159.04z"/>
</g>
<path fill="#2E2E2E" d="M189.495,390.287l20.547,7.2c0,0,16.536-1.987,19.62,7.346c2.021,6.125,2.586,5.779,2.586,5.779
	c-16.286-0.585-58.393,0.196-58.393,0.196c-0.087-5.345,6.087-19.46,6.087-19.46L189.495,390.287z"/>
<path fill="#2E2E2E" d="M125.495,390.265l-20.748,6.601c0,0-16.472-2.469-19.824,6.771c-2.199,6.063-2.829,8.275-2.829,8.275
	c16.294-0.11,58.435-0.682,58.435-0.682c0.245-5.337-4.936-17.617-4.936-17.617L125.495,390.265z"/>
<path fill="#424242" d="M185.782,286.172c0,0,24.262,22.624,24.735,56.871c0.192,13.889-8.728,33.789-8.28,53.784
	c-2.478,2.274-28.763,9.743-28.763,9.743c2.082-13.256,12.215-45.236,18.051-61.71c3.665-10.349-4.75-38.987-27.084-54.829
	L185.782,286.172z"/>
<path fill="#424242" d="M113.305,285.553c0,0-26.318,32.901-20.3,64.514c2.863,15.04,7.611,22.987,14.868,47.023
	c2.997,1.526,32.588,8.216,32.588,8.216c-2.617-15.351-12.649-30.034-30.437-60.895c-5.867-10.179,10.245-35.968,27.171-58.369
	L113.305,285.553z"/>
<path fill="#FAEBE1" d="M124.44,153.749c-0.213,18.016-22.231,108.11-21.659,108.908l93.367,0.982
	c-0.374-3.494-16.164-104.728-18.223-110.418l-25.262,15.897L124.44,153.749z"/>
<path fill="#424242" d="M102.781,262.656c0,0,1.504,19.257,9.796,25.175c8.299,5.916,54.056,19.63,78.369-0.454
	c5.111-5.138,6.547-17.112,5.359-24.22L102.781,262.656z"/>
<g>
	<polygon fill="#EE8122" points="142.419,174.756 135.114,223.694 154.176,243.345 171.169,223.266 159.11,173.879 	"/>
	<polygon fill="#BE6928" points="140.375,164.251 140.473,175.059 160.894,176.044 160.575,163.193 	"/>
	<polygon fill="#BE6928" points="141.751,179.231 160.563,179.831 159.316,174.724 142.29,175.619 	"/>
	<polygon fill="#EE8122" points="138.87,166.279 138.914,176.137 162.953,176.902 162.663,165.182 	"/>
</g>
<polygon fill="#E1D6CF" points="159.288,163.193 171.169,173.879 177.926,153.22 "/>
<polygon fill="#E1D6CF" points="144.237,164.251 131.585,173.879 124.44,153.749 "/>
</svg>
