<?xml version="1.0" encoding="utf-8"?>
<!-- Generator: Adobe Illustrator 16.0.0, SVG Export Plug-In . SVG Version: 6.00 Build 0)  -->
<!DOCTYPE svg PUBLIC "-//W3C//DTD SVG 1.0//EN" "http://www.w3.org/TR/2001/REC-SVG-20010904/DTD/svg10.dtd">
<svg version="1.0" id="Layer_1" xmlns="http://www.w3.org/2000/svg" xmlns:xlink="http://www.w3.org/1999/xlink" x="0px" y="0px"
	 width="140.054px" height="256.225px" viewBox="0 0 140.054 256.225" enable-background="new 0 0 140.054 256.225"
	 xml:space="preserve">
<g>
	<path fill="#FAAB6D" d="M115.302,79.601c0,0,3.688-10.212,7.534-10.372c3.847-0.161,5.183,1.56,4.949,2.572
		c2.25,1.246,11.678,6.949,11.54,8.672c-0.136,1.722-0.622,8.805-6.837,12.065L115.302,79.601z"/>
	<path fill="#E8833E" d="M135.195,90.566c-0.756,0.736-1.642,1.412-2.707,1.972l-17.187-12.938c0,0,0.517-1.429,1.363-3.226
		C120.77,79.596,128.797,85.844,135.195,90.566z"/>
	<path fill="#E1D6CF" d="M57.553,114.59c0,0,36.345,19.883,77.143-21.716c-3.335-2.431-19.586-14.901-19.586-14.901
		c-9.561,18.133-22.062,43.102-53.884,32.468L57.553,114.59z"/>
</g>
<path fill="#696969" d="M34.832,100.395c0,0,10.75,3.637,35.623,0.826l-3.865,6.242l-25.633-0.533L34.832,100.395z"/>
<rect x="39.244" y="97.555" transform="matrix(-0.9999 -0.0133 0.0133 -0.9999 104.0449 215.1771)" fill="#FAAB6D" width="26.99" height="19.375"/>
<path fill="#E8833E" d="M66.332,99.957c0,0-6.769,5.055-15.048,4.944s-11.938-5.304-11.938-5.304S57.266,95.021,66.332,99.957z"/>
<g>
	<path fill="#636363" d="M11.838,37.391c-8.807-4.146-14.365,3.201-0.864,32.779c11.114,24.347,5.381-6.042,5.381-6.042
		L11.838,37.391z"/>
	<path fill="#FAAB6D" d="M81.522,83.235c-1.61,4.401-4.256,8.347-8.355,11.487c-5.356,4.104-13.253,6.126-19.79,7.233
		c-9.062,1.535-18.582,2.015-26.007-4.212C15.084,87.441,13.378,68.539,11.629,53.8c-0.697-5.87-0.631-10.583-0.134-13.597
		c3.632-0.5,7.265-1.001,10.894-1.503c0.615-0.083,1.229-0.167,1.844-0.253c12.115-1.671,24.229-3.342,36.346-5.011
		c1.16-0.159,2.322-0.319,3.481-0.481c4.351-0.599,8.701-1.198,13.052-1.799c0.872,2.657,1.566,6.862,2.711,12.077
		C82.409,55.023,86.027,70.914,81.522,83.235z"/>
	<path fill="#636363" d="M9.776,54.724C9.08,48.854,8.223,42.289,8.72,39.275c2.802-0.386,8.379,0.155,11.18-0.231l13.31,6.425
		c0,0-9.346,5.82-10.93,7.278c-1.585,1.458-1.219,10.863-1.219,10.863l0.92,28.198C14.509,81.137,11.229,66.96,9.776,54.724z"/>
	<path fill="#424242" d="M83.592,27.923c-0.716,3.69-7.198,6.656-12.721,5.155c0,0,2.028,0.628,5.522,1.501
		c8.646,2.161-35.116,29.176-64.898,5.624C-18.287,16.65,17.425,1.269,35.32,0.435C55.4-0.502,71.025,3.919,79.943,12.901
		s-7.737,4.513-7.737,4.513S85.552,17.809,83.592,27.923z"/>
	<circle fill="#424242" cx="75.8" cy="55.776" r="4.432"/>
	<circle fill="#424242" cx="45.09" cy="63.441" r="4.432"/>
	<g>
		<path fill="#424242" d="M81.115,44.673c-4.768-3.506-10.445-0.403-13.802,3.468c-1.675,1.931-4.931-0.392-3.242-2.338
			c4.785-5.52,12.726-9.267,19.382-4.371C85.526,42.957,83.191,46.2,81.115,44.673L81.115,44.673z"/>
	</g>
	<g>
		<path fill="#424242" d="M33.166,52.268c4.769-6.744,13.488-5.696,19.771-1.971c2.215,1.313-0.139,4.545-2.338,3.241
			c-4.409-2.614-10.774-3.765-14.19,1.067C34.921,56.709,31.68,54.371,33.166,52.268L33.166,52.268z"/>
	</g>
	<g>
		<g>
			<path fill="#F6A569" d="M21.061,63.61c-12.186-4.791-14.271,16.208,1.273,8.641L21.061,63.61z"/>
			<path fill="#E8833E" d="M19.635,67.757c-5.603-1.649-4.859,5.029,0.502,2.395L19.635,67.757z"/>
		</g>
		
			<ellipse transform="matrix(-0.9371 0.3491 -0.3491 -0.9371 52.4148 121.3813)" opacity="0.3" fill="#FFFFFF" cx="15.269" cy="65.414" rx="1.952" ry="1.134"/>
	</g>
	<g>
		<g>
			<path fill="#BD7E50" d="M72.299,77.585c-0.518,1.321-2.121,3.527-3.482,4.825c-4.715,4.494-11.302,2.721-16.4-0.023
				c-1.703-0.917-3.218,1.673-1.514,2.591c9.068,4.881,20.137,4.002,24.289-6.595C75.898,76.58,72.996,75.806,72.299,77.585
				L72.299,77.585z"/>
		</g>
	</g>
</g>
<g>
	<path fill="#232323" d="M109.692,220.466l13.467-5.386c0,0,7.429-8.241,13.064-4.907c3.698,2.188,3.83,1.769,3.83,1.769
		c-8.431,6.84-29.222,25.675-29.222,25.675c-2.385-2.645-5.469-12.434-5.469-12.434L109.692,220.466z"/>
	<path fill="#333333" d="M62.225,169.835c0,0,22.087,0.729,37.325,17.71c6.181,6.887,10.42,20.782,19.402,30.622
		c-0.247,2.227-10.169,17.489-10.169,17.489c-4.761-7.565-13.684-28.055-17.97-38.88c-2.693-6.799-19.461-17.487-37.61-15.656
		L62.225,169.835z"/>
</g>
<g>
	<path fill="#2E2E2E" d="M89.991,239.239l12.95-6.531c0,0,6.688-8.854,12.591-6.019c3.872,1.859,5.204,2.619,5.204,2.619
		c-7.806,7.543-28.127,26.916-28.127,26.916c-2.604-2.426-5.863-10.686-5.863-10.686L89.991,239.239z"/>
	<path fill="#424242" d="M46.979,183.726c0,0,27.862,3.389,39.734,21.238c5.648,8.492,7.094,14.487,14.846,29.309
		c-0.715,2.124-11.679,19.101-11.679,19.101c-5.91-8.524-7.98-20.189-13.902-43.167c-1.953-7.579-21.643-12.34-40.14-15.11
		L46.979,183.726z"/>
</g>
<path fill="#FAEBE1" d="M70.455,101.221c-0.018,12.003,13.85,72.211,13.461,72.737l-62.201-0.174
	c0.279-2.325,11.696-69.617,13.117-73.39l29.578,6.982L70.455,101.221z"/>
<path fill="#424242" d="M83.916,173.958c0,0-1.172,12.813-6.748,16.682c-5.581,3.868-36.182,12.597-52.198-0.997
	c-3.359-3.468-4.209-11.457-3.355-16.181L83.916,173.958z"/>
<polygon fill="#E1D6CF" points="57.665,106.239 46.682,114.136 34.832,100.395 "/>
<polygon fill="#E1D6CF" points="70.455,101.221 71.526,110.917 62.541,107.604 "/>
<g>
	<polygon fill="#EE8122" points="68.204,113.526 76.277,145.33 67.708,158.002 56.88,144.891 59.166,112.883 	"/>
	<polygon fill="#BE6928" points="68.41,106.716 69.274,113.731 58.393,114.28 57.473,105.938 	"/>
	<polygon fill="#BE6928" points="68.941,116.436 58.891,116.74 59.127,113.43 68.347,114.088 	"/>
	<polygon fill="#EE8122" points="69.391,108.039 70.203,114.438 57.359,114.828 56.521,107.221 	"/>
</g>
<path fill="#DDE2E2" d="M60.781,166.844c-1.43-2.892-3.434-4.899-9.156-5.521c-7.394-0.803-12.45,1.604-18.111,5.313
	C39.633,166.636,60.781,166.844,60.781,166.844"/>
<g>
	<path fill="#FAAB6D" d="M40.169,146.979c0,0,10.824,0.844,12.001,4.51c1.177,3.665-0.128,5.41-1.166,5.454
		c-0.604,2.501-3.6,13.103-5.296,13.429s-8.655,1.737-13.448-3.388L40.169,146.979z"/>
	<path fill="#E8833E" d="M34.88,169.068c-0.911-0.532-1.798-1.207-2.62-2.085l7.909-20.005c0,0,1.516,0.118,3.472,0.458
		C41.625,152.248,37.734,161.646,34.88,169.068z"/>
	<path fill="#FAEBE1" d="M33.507,104.396c0,0-51.924,36.517-0.985,64.803c1.459-3.86,9.166-22.839,9.166-22.839
		c-20.02-4.402-30.62-16.222-3.205-39.525L33.507,104.396z"/>
</g>
</svg>
