<?xml version="1.0" encoding="utf-8"?>
<!-- Generator: Adobe Illustrator 16.0.0, SVG Export Plug-In . SVG Version: 6.00 Build 0)  -->
<!DOCTYPE svg PUBLIC "-//W3C//DTD SVG 1.1//EN" "http://www.w3.org/Graphics/SVG/1.1/DTD/svg11.dtd">
<svg version="1.1" id="Layer_1" xmlns="http://www.w3.org/2000/svg" xmlns:xlink="http://www.w3.org/1999/xlink" x="0px" y="0px"
	 width="106.704px" height="212.842px" viewBox="0 0 106.704 212.842" enable-background="new 0 0 106.704 212.842"
	 xml:space="preserve">
<g>
	<path fill="#FAAB6D" d="M95.804,104.785c0,0,8.261-1.56,9.882,0.941c1.622,2.502,1,4.07,0.232,4.313
		c0.056,1.991-0.037,10.521-1.239,11.108c-1.202,0.586-6.116,3.051-10.737,0.189L95.804,104.785z"/>
	<path fill="#E8833E" d="M96.322,122.367c-0.789-0.214-1.588-0.539-2.381-1.029l1.862-16.553c0,0,1.156-0.218,2.688-0.359
		C97.959,108.43,96.953,116.242,96.322,122.367z"/>
	<path fill="#E1D6CF" d="M49.742,80.051c0,0,1.047,32.061,44.844,42.891c0.309-3.18,2.228-18.924,2.228-18.924
		c-15.854,0.762-37.424,2.254-42.858-23.151L49.742,80.051z"/>
</g>
<path fill="#696969" d="M26.966,77.808c0,0,8.323,2.815,27.583,0.64l-2.992,4.832l-19.849-0.412L26.966,77.808z"/>
<rect x="30.382" y="75.608" transform="matrix(-0.9999 -0.0133 0.0133 -0.9999 80.5526 166.7552)" fill="#FAAB6D" width="20.898" height="15.002"/>
<path fill="#E8833E" d="M51.356,77.469c0,0-5.24,3.914-11.651,3.828c-6.411-0.085-9.245-4.107-9.245-4.107
	S44.337,73.646,51.356,77.469z"/>
<g>
	<path fill="#636363" d="M9.161,29.022c-6.819-3.21-11.124,2.479-0.669,25.382c8.605,18.852,4.166-4.679,4.166-4.679L9.161,29.022z"
		/>
	<path fill="#FAAB6D" d="M63.118,64.521c-1.246,3.407-3.295,6.463-6.47,8.896c-4.147,3.176-10.261,4.742-15.322,5.6
		c-7.018,1.189-14.389,1.561-20.139-3.261c-9.514-7.978-10.834-22.614-12.188-34.026c-0.54-4.545-0.488-8.195-0.104-10.529
		c2.813-0.387,5.626-0.774,8.436-1.162c0.477-0.064,0.952-0.131,1.427-0.196c9.381-1.294,18.762-2.588,28.144-3.88
		c0.898-0.124,1.798-0.248,2.696-0.373c3.368-0.464,6.736-0.928,10.105-1.393c0.675,2.057,1.213,5.313,2.099,9.352
		C63.806,42.676,66.607,54.98,63.118,64.521z"/>
	<path fill="#636363" d="M7.565,42.443c-0.54-4.545-1.203-9.629-0.818-11.962c2.169-0.298,6.487,0.12,8.656-0.179l10.306,4.975
		c0,0-7.236,4.507-8.463,5.636c-1.228,1.129-0.943,8.411-0.943,8.411l0.712,21.835C11.229,62.896,8.689,51.918,7.565,42.443z"/>
	<path fill="#424242" d="M64.721,21.691c-0.554,2.857-5.573,5.154-9.85,3.991c0,0,1.57,0.487,4.276,1.163
		c6.694,1.674-27.19,22.592-50.252,4.354C-14.165,12.963,13.487,1.053,27.344,0.406c15.549-0.725,27.646,2.698,34.552,9.654
		c6.905,6.955-5.99,3.494-5.99,3.494S66.238,13.86,64.721,21.691z"/>
	<circle fill="#424242" cx="58.688" cy="43.258" r="3.431"/>
	<circle fill="#424242" cx="34.909" cy="49.193" r="3.431"/>
	<g>
		<path fill="#424242" d="M62.803,34.661c-3.691-2.715-8.087-0.313-10.687,2.685c-1.296,1.496-3.817-0.303-2.51-1.81
			c3.705-4.273,9.854-7.175,15.007-3.386C66.219,33.332,64.411,35.844,62.803,34.661L62.803,34.661z"/>
	</g>
	<g>
		<path fill="#424242" d="M25.676,40.542c3.692-5.223,10.444-4.411,15.309-1.526c1.715,1.017-0.107,3.52-1.811,2.51
			c-3.414-2.023-8.343-2.914-10.988,0.827C27.034,43.981,24.524,42.17,25.676,40.542L25.676,40.542z"/>
	</g>
	<g>
		<g>
			<path fill="#F6A569" d="M16.303,49.324c-9.436-3.709-11.051,12.551,0.985,6.691L16.303,49.324z"/>
			<path fill="#E8833E" d="M15.198,52.535c-4.338-1.277-3.763,3.895,0.389,1.854L15.198,52.535z"/>
		</g>
		
			<ellipse transform="matrix(-0.937 0.3495 -0.3495 -0.937 40.6158 94.1156)" opacity="0.3" fill="#FFFFFF" cx="11.818" cy="50.722" rx="1.512" ry="0.877"/>
	</g>
	<ellipse fill="#BD7E50" cx="52.697" cy="65.069" rx="4.938" ry="6.46"/>
</g>
<g>
	<path fill="#232323" d="M54.663,201.431l10.431,4.161c0,0,8.566-0.663,9.95,4.215c0.908,3.201,1.207,3.035,1.207,3.035
		c-8.38-0.658-30.098-1.178-30.098-1.178c0.072-2.756,3.563-9.896,3.563-9.896L54.663,201.431z"/>
	<path fill="#333333" d="M55.029,147.692c0,0,12.008,12.19,11.502,29.851c-0.205,7.162-5.237,17.223-5.445,27.537
		c-1.326,1.117-15.036,4.391-15.036,4.391c1.363-6.785,7.285-23.045,10.653-31.406c2.116-5.254-1.594-20.197-12.757-28.85
		L55.029,147.692z"/>
</g>
<g>
	<path fill="#2E2E2E" d="M33.591,201.458l10.752,3.242c0,0,8.477-1.401,10.277,3.339c1.182,3.109,1.524,4.246,1.524,4.246
		C47.739,212.354,26,212.388,26,212.388c-0.168-2.751,2.409-9.124,2.409-9.124L33.591,201.458z"/>
	<path fill="#424242" d="M39.063,147.355c0,0,13.83,16.766,10.973,33.116c-1.36,7.779-3.747,11.915-7.303,24.369
		c-1.533,0.811-16.744,4.491-16.744,4.491c1.23-7.938,6.291-15.59,15.225-31.645c2.946-5.295-5.564-18.471-14.469-29.893
		L39.063,147.355z"/>
</g>
<path fill="#FAEBE1" d="M54.549,78.447c-0.014,9.294,10.724,55.914,10.424,56.321l-48.163-0.135
	c0.216-1.8,9.056-53.905,10.156-56.826l22.903,5.405L54.549,78.447z"/>
<path fill="#424242" d="M64.973,134.769c0,0-0.908,9.922-5.226,12.917c-4.321,2.994-28.016,9.754-40.418-0.772
	c-2.601-2.685-3.259-8.871-2.598-12.528L64.973,134.769z"/>
<polygon fill="#E1D6CF" points="44.646,82.333 36.141,88.447 26.966,77.808 "/>
<polygon fill="#E1D6CF" points="54.549,78.447 55.379,85.955 48.422,83.389 "/>
<g>
	<polygon fill="#EE8122" points="52.806,87.976 59.057,112.602 52.422,122.414 44.037,112.262 45.809,87.477 	"/>
	<polygon fill="#BE6928" points="52.967,82.702 53.635,88.135 45.209,88.559 44.497,82.1 	"/>
	<polygon fill="#BE6928" points="53.378,90.229 45.595,90.464 45.778,87.901 52.917,88.41 	"/>
	<polygon fill="#EE8122" points="53.725,83.727 54.354,88.682 44.409,88.983 43.76,83.092 	"/>
</g>
<g>
	<path fill="#696969" d="M16.54,154.072l1.531,2.701c1.812,3.197,5.874,4.318,9.069,2.506l14.082-7.986
		c3.196-1.813,4.319-5.871,2.505-9.068l-1.531-2.701c0.905,0.592-5.457-3.737-9.067-2.505l-14.083,7.985
		C15.85,146.816,14.727,150.877,16.54,154.072z M20.171,153.205c-1.249-2.201-0.301-5.099,2.119-6.471l10.655-6.042
		c2.419-1.372,5.394-0.7,6.643,1.503l1.055,1.861c1.25,2.203,0.3,5.101-2.118,6.473l-10.657,6.041
		c-2.42,1.373-5.393,0.699-6.641-1.505L20.171,153.205z"/>
	<path fill="#FAAB6D" d="M30.926,132.719c0,0,5.902,5.986,4.73,8.728s-2.82,3.099-3.45,2.598c-1.622,1.156-8.755,5.837-9.912,5.167
		c-1.157-0.671-5.943-3.377-6.146-8.807L30.926,132.719z"/>
	<path fill="#E8833E" d="M16.622,142.953c-0.263-0.773-0.438-1.617-0.474-2.549l14.777-7.686c0,0,0.826,0.838,1.799,2.029
		C29.104,136.539,22.059,140.062,16.622,142.953z"/>
	<path fill="#7E6B57" d="M20.271,197.973c1.813,3.197,5.876,4.32,9.071,2.508l46.01-26.089c3.195-1.813,4.317-5.876,2.504-9.072
		L62.76,138.696c-1.813-3.196-5.872-4.315-9.068-2.503L7.683,162.281c-3.196,1.813-4.321,5.873-2.509,9.069L20.271,197.973z"/>
	<path fill="#FAEBE1" d="M25.77,80.691c0,0-26.028,18.748-10.593,61.143c2.813-1.518,16.951-8.705,16.951-8.705
		c-9.475-12.735-22.742-29.807-4.686-48.486L25.77,80.691z"/>
</g>
</svg>
