<?xml version="1.0" encoding="utf-8"?>
<!-- Generator: Adobe Illustrator 16.0.0, SVG Export Plug-In . SVG Version: 6.00 Build 0)  -->
<!DOCTYPE svg PUBLIC "-//W3C//DTD SVG 1.0//EN" "http://www.w3.org/TR/2001/REC-SVG-20010904/DTD/svg10.dtd">
<svg version="1.0" id="Layer_1" xmlns="http://www.w3.org/2000/svg" xmlns:xlink="http://www.w3.org/1999/xlink" x="0px" y="0px"
	 width="165.346px" height="420.945px" viewBox="0 0 165.346 420.945" enable-background="new 0 0 165.346 420.945"
	 xml:space="preserve">
<path fill="#696969" d="M114.475,153.217c0,0-17.109,5.788-56.701,1.314l6.152,9.935l40.801-0.849L114.475,153.217z"/>
<rect x="64.493" y="148.696" transform="matrix(0.9999 -0.0133 0.0133 0.9999 -2.1786 1.1598)" fill="#FAAB6D" width="42.959" height="30.84"/>
<path fill="#E8833E" d="M64.336,152.52c0,0,10.773,8.045,23.951,7.87c13.18-0.176,19.005-8.442,19.005-8.442
	S78.768,144.662,64.336,152.52z"/>
<g>
	<path fill="#424242" d="M151.074,52.932c14.02-6.6,22.867,5.096,1.377,52.174c-17.69,38.754-8.564-9.615-8.564-9.615
		L151.074,52.932z"/>
	<path fill="#FAAB6D" d="M40.158,125.902c2.562,7.006,6.773,13.286,13.299,18.285c8.526,6.531,21.094,9.75,31.499,11.514
		c14.425,2.443,29.578,3.206,41.397-6.705c19.556-16.398,22.271-46.485,25.056-69.946c1.109-9.344,1.003-16.847,0.212-21.643
		c-5.781-0.796-11.564-1.593-17.34-2.392c-0.979-0.132-1.957-0.267-2.934-0.402c-19.283-2.66-38.566-5.319-57.853-7.977
		c-1.847-0.254-3.696-0.508-5.542-0.766c-6.926-0.953-13.85-1.906-20.775-2.863c-1.387,4.229-2.492,10.923-4.313,19.224
		C38.746,80.998,32.986,106.291,40.158,125.902z"/>
	<path fill="#424242" d="M154.355,80.521c1.109-9.344,2.475-19.793,1.683-24.591c-4.46-0.613-13.337,0.248-17.795-0.367
		L117.059,65.79c0,0,14.875,9.263,17.397,11.584s1.938,17.291,1.938,17.291l-1.463,44.885
		C146.823,122.563,152.044,99.997,154.355,80.521z"/>
	<circle fill="#424242" cx="49.265" cy="82.195" r="7.054"/>
	<circle fill="#424242" cx="98.147" cy="94.396" r="7.054"/>
	<g>
		<path fill="#424242" d="M39.187,71.086c4.515-8.267,14.792-7.615,22.241-4.293c3.715,1.657,6.846-3.885,3.102-5.555
			c-10.619-4.737-24.596-4.795-30.897,6.746C31.668,71.582,37.221,74.688,39.187,71.086L39.187,71.086z"/>
	</g>
	<g>
		<path fill="#424242" d="M121.607,85.326c-1.896-13.01-15.023-17.816-26.625-17.066c-4.09,0.265-3.084,6.55,0.977,6.287
			c8.144-0.527,18.003,2.436,19.361,11.756C115.912,90.361,122.199,89.383,121.607,85.326L121.607,85.326z"/>
	</g>
	<g>
		<g>
			<path fill="#F6A569" d="M136.395,94.665c19.396-7.626,22.717,25.8-2.025,13.754L136.395,94.665z"/>
			<path fill="#E8833E" d="M138.666,101.266c8.917-2.627,7.734,8.005-0.8,3.812L138.666,101.266z"/>
		</g>
		
			<ellipse transform="matrix(0.937 0.3493 -0.3493 0.937 43.2361 -44.7153)" opacity="0.3" fill="#FFFFFF" cx="145.614" cy="97.537" rx="3.108" ry="1.804"/>
	</g>
	<path fill="#EE8122" d="M163.532,75.14L45.154,51.235c0,0,4.502-31.313,10.914-38.474s32.57-14.32,56.367-12.173
		s49.83,22.542,52.924,35.259C168.454,48.563,163.532,75.14,163.532,75.14z"/>
	<polygon fill="#D66F28" points="124.489,67.229 113.9,51.863 48.865,41.967 18.824,53.032 	"/>
	<g>
		<g>
			<path fill="#BD7E50" d="M81.207,129.976c-10.492,2.966-17.854,1.184-25.922-6.249c-1.42-1.308-3.547,0.808-2.121,2.121
				c4.092,3.77,8.435,7.034,13.917,8.384c4.921,1.212,10.178-0.021,14.924-1.363C83.863,132.343,83.072,129.448,81.207,129.976
				L81.207,129.976z"/>
		</g>
	</g>
</g>
<g>
	<path fill="#232323" d="M45.529,401.143l-21.862,7.415c0,0-17.513-2.284-20.882,7.579c-2.209,6.473-2.804,6.1-2.804,6.1
		c17.274-0.445,61.911,0.832,61.911,0.832c0.149-5.666-6.246-20.699-6.246-20.699L45.529,401.143z"/>
	<path fill="#333333" d="M50.577,290.789c0,0-25.966,23.729-26.833,60.036c-0.354,14.724,8.893,35.92,8.205,57.115
		c2.602,2.438,30.393,10.638,30.393,10.638c-2.066-14.077-12.468-48.094-18.479-65.623c-3.776-11.012,5.452-41.287,29.302-57.846
		L50.577,290.789z"/>
</g>
<g>
	<path fill="#2E2E2E" d="M97.597,402.27l-22.19,6.371c0,0-17.384-3.113-21.216,6.58c-2.514,6.359-3.249,8.686-3.249,8.686
		c17.275,0.373,61.958,1.038,61.958,1.038c0.42-5.649-4.701-18.822-4.701-18.822L97.597,402.27z"/>
	<path fill="#424242" d="M87.832,290.915c0,0-28.888,34.081-23.461,67.769c2.582,16.027,7.375,24.594,14.343,50.289
		c3.13,1.708,34.293,9.689,34.293,9.689c-2.312-16.349-12.503-32.215-30.426-65.461c-5.912-10.965,11.942-37.813,30.558-61.047
		L87.832,290.915z"/>
</g>
<path fill="#FAEBE1" d="M57.773,154.531c0.029,19.105-22.044,114.938-21.427,115.777l99.007-0.277
	c-0.445-3.699-18.617-110.811-20.879-116.814l-47.08,11.111L57.773,154.531z"/>
<path fill="#424242" d="M36.347,270.309c0,0,1.866,20.396,10.741,26.553c8.884,6.156,57.592,20.049,83.086-1.588
	c5.346-5.52,6.699-18.236,5.341-25.755L36.347,270.309z"/>
<polygon fill="#E1D6CF" points="78.131,162.52 95.614,175.088 114.475,153.217 "/>
<polygon fill="#E1D6CF" points="57.773,154.531 56.068,169.965 70.37,164.689 "/>
<g>
	<polygon fill="#EE8122" points="61.356,174.117 48.506,224.741 62.146,244.912 79.382,224.042 75.741,173.094 	"/>
	<polygon fill="#BE6928" points="61.027,163.277 59.652,174.445 76.974,175.318 78.437,162.041 	"/>
	<polygon fill="#BE6928" points="60.182,178.748 76.18,179.233 75.804,173.965 61.129,175.012 	"/>
	<polygon fill="#EE8122" points="59.468,165.385 58.174,175.569 78.618,176.189 79.952,164.08 	"/>
</g>
<g>
	<path fill="#FAFCFD" d="M101.698,26.883c-0.583-0.461-1.628-0.154-2.331,0.686c-0.702,0.84-0.8,1.893-0.214,2.355
		c0.583,0.461,1.627,0.154,2.329-0.686C102.187,28.398,102.283,27.344,101.698,26.883"/>
	<path fill="#FAFCFD" d="M98.31,37.57l0.633-3.962c0.173-1.077,0.14-1.708-0.118-2.321c-0.367-0.943-1.179-1.486-2.406-1.683
		c-1.402-0.224-2.483,0.104-3.439,1.057l-0.008-0.009l0.196-1.234l-1.561-0.25l-0.363-0.057l-1.904-0.305l-0.092,0.576l0.104,0.018
		c1.137,0.201,1.242,0.344,1.005,1.828l-0.789,4.945c-0.249,1.558-0.374,1.646-1.569,1.472l-0.086-0.012l-0.102,0.632l5.244,0.838
		l0.102-0.633l-0.105-0.018c-1.171-0.204-1.266-0.309-1.014-1.885l0.569-3.57c0.091-0.57,0.403-1.25,0.772-1.708
		c0.565-0.671,1.261-0.952,1.992-0.835c1.041,0.166,1.41,0.941,1.103,2.869l-0.616,3.854c-0.246,1.541-0.393,1.644-1.551,1.476
		L94.2,38.639L94.1,39.271l5.246,0.838l0.102-0.632l-0.104-0.02C98.15,39.25,98.061,39.128,98.31,37.57"/>
	<path fill="#FAFCFD" d="M67.227,25.031c-0.646-0.103-1.205-0.066-1.717,0.121l-0.142,0.886c0.406-0.282,0.865-0.401,1.305-0.331
		c1.17,0.187,2.056,1.739,1.595,4.619c-0.459,2.877-1.814,4.059-3.043,3.862c-1.988-0.317-1.73-2.163-1.738-2.632
		c0,0,1.684-10.617,1.731-10.837l-1.194-0.19l-2.705-0.432l-0.098,0.612l0.104,0.017c1.191,0.19,1.248,0.486,1.008,1.993
		l-1.232,7.716c-0.481,3.012,2.682,4.16,3.911,4.357c2.779,0.443,5.415-1.14,5.927-4.346C71.408,27.506,69.789,25.441,67.227,25.031
		"/>
	<path fill="#FAFCFD" d="M85.001,28.003c-1.122-0.179-1.973,0.022-2.862,0.65l0.154-0.966l-3.895-0.617l-0.119,0.749
		c0.975,0.17,1.299,0.337,1.195,1.298L77.668,40.43c-0.193,0.928-0.424,0.961-1.432,0.826l-0.102-0.012l-0.1,0.619l5.273,0.842
		l0.099-0.619l-0.099-0.02c-0.779-0.154-1.116-0.25-1.208-0.629l1.646-10.301c0.553-1.764,1.46-2.637,2.553-2.463
		c1.172,0.188,1.658,1.643,1.207,4.467c-0.464,2.906-1.406,4.105-2.766,3.889c-0.283-0.045-0.55-0.174-0.777-0.363l-0.121,0.758
		c0.35,0.176,0.734,0.291,1.206,0.366c1.26,0.201,2.513-0.096,3.361-0.831c0.865-0.748,1.509-2.072,1.76-3.644
		C88.641,30.358,87.511,28.404,85.001,28.003"/>
	<path fill="#FAFCFD" d="M75.184,31c0.008-0.021,0.013-0.043,0.017-0.064l0.561-3.512l1.829,0.292l0.121-0.763l-1.828-0.291
		l0.442-2.77l-1.048-0.168l-0.028,0.086c-0.302,0.844-0.558,1.308-0.948,1.731c-0.494,0.537-1.204,0.677-1.977,0.588l-0.388-0.058
		l-0.116,0.723l1.322,0.211l-0.5,3.127l-0.012,0.104c-0.458,2.836-0.682,3.693-0.238,4.465c0.369,0.644,1.154,1.553,3.125,1.867
		c0.471,0.075,0.875,0.089,1.26,0.031l0.121-0.758c-0.275,0.106-0.568,0.146-0.854,0.101C74.404,35.68,74.576,34.797,75.184,31"/>
	<path fill="#FAFCFD" d="M88.586,22.017c0.123-0.136,0.259-0.241,0.407-0.327c0.158-0.082,0.329-0.14,0.517-0.166
		c0.191-0.033,0.393-0.031,0.607,0.004c0.228,0.036,0.432,0.102,0.609,0.199c0.189,0.099,0.342,0.227,0.46,0.385
		c0.127,0.155,0.212,0.335,0.257,0.543c0.05,0.204,0.055,0.428,0.015,0.673l-0.426,2.669c-0.008,0.053-0.063,0.092-0.117,0.082
		l-0.161-0.025c-0.057-0.008-0.097-0.063-0.088-0.115l0.423-2.646c0.036-0.225,0.03-0.416-0.01-0.572
		c-0.04-0.165-0.108-0.305-0.206-0.415c-0.092-0.116-0.211-0.208-0.352-0.274c-0.138-0.072-0.291-0.124-0.46-0.15
		c-0.236-0.038-0.446-0.025-0.634,0.033c-0.188,0.055-0.354,0.145-0.498,0.27c-0.14,0.123-0.256,0.273-0.348,0.459
		c-0.093,0.184-0.156,0.383-0.191,0.598l-0.363,2.278c-0.008,0.052-0.064,0.091-0.118,0.082l-0.162-0.026
		c-0.053-0.008-0.094-0.063-0.085-0.114l0.643-4.024c0.008-0.051,0.063-0.09,0.116-0.081l0.163,0.026
		c0.054,0.008,0.094,0.063,0.086,0.113L88.586,22.017z"/>
	<path fill="#FAFCFD" d="M79.557,22.842c0.035,0.236,0.106,0.447,0.213,0.637c0.109,0.188,0.258,0.346,0.438,0.476
		c0.182,0.128,0.395,0.212,0.646,0.252c0.257,0.041,0.484,0.026,0.682-0.04c0.207-0.066,0.385-0.174,0.531-0.317
		c0.155-0.153,0.285-0.336,0.382-0.55c0.104-0.215,0.175-0.447,0.214-0.693c0.037-0.227,0.042-0.457,0.014-0.688
		c-0.021-0.234-0.078-0.447-0.174-0.641c-0.094-0.193-0.229-0.361-0.404-0.501c-0.164-0.136-0.38-0.229-0.652-0.273
		c-0.482-0.077-0.888,0.022-1.226,0.292c-0.337,0.265-0.561,0.697-0.659,1.314C79.521,22.361,79.519,22.604,79.557,22.842
		 M79.349,23.436l-0.108,0.679c-0.008,0.052-0.063,0.089-0.116,0.081l-0.163-0.027c-0.053-0.008-0.093-0.06-0.085-0.112l0.894-5.591
		c0.008-0.053,0.063-0.09,0.116-0.082l0.163,0.025c0.053,0.01,0.093,0.063,0.085,0.115l-0.354,2.219
		c0.137-0.168,0.307-0.309,0.504-0.418c0.348-0.191,0.756-0.247,1.218-0.174c0.301,0.049,0.564,0.152,0.782,0.313
		c0.216,0.159,0.385,0.353,0.508,0.583c0.126,0.23,0.209,0.482,0.244,0.76c0.042,0.279,0.04,0.565-0.006,0.856
		c-0.05,0.312-0.139,0.593-0.266,0.847c-0.127,0.252-0.289,0.465-0.488,0.638c-0.19,0.167-0.413,0.288-0.666,0.362
		c-0.25,0.075-0.521,0.088-0.811,0.041c-0.447-0.071-0.812-0.25-1.087-0.541C79.553,23.838,79.432,23.647,79.349,23.436"/>
	<path fill="#FAFCFD" d="M86.674,23.088c-0.043,0.018-0.092,0.031-0.142,0.041c-0.126,0.018-0.269,0.027-0.424,0.024
		c-0.153-0.003-0.318-0.016-0.497-0.039c-0.168-0.021-0.332-0.039-0.496-0.054c-0.159-0.016-0.319-0.02-0.477-0.014
		c-0.141,0-0.274,0.029-0.391,0.083c-0.113,0.046-0.211,0.124-0.295,0.235c-0.077,0.102-0.138,0.252-0.17,0.457
		c-0.017,0.104-0.016,0.209,0.002,0.32c0.021,0.102,0.067,0.193,0.143,0.289c0.074,0.087,0.174,0.168,0.31,0.245
		c0.134,0.069,0.311,0.124,0.53,0.159c0.258,0.041,0.492,0.033,0.701-0.018c0.215-0.051,0.396-0.135,0.547-0.242
		c0.158-0.116,0.284-0.256,0.379-0.42c0.099-0.166,0.163-0.343,0.193-0.528L86.674,23.088z M86.415,24.71l-0.054,0.051
		c-0.122,0.114-0.266,0.206-0.436,0.282c-0.168,0.077-0.351,0.125-0.553,0.149c-0.205,0.029-0.418,0.025-0.645-0.011
		c-0.438-0.07-0.783-0.219-1.03-0.456c-0.251-0.249-0.342-0.575-0.28-0.962c0.041-0.258,0.119-0.471,0.238-0.626
		c0.119-0.149,0.262-0.262,0.428-0.33c0.164-0.075,0.338-0.11,0.53-0.114c0.185-0.011,0.366-0.006,0.544,0.012l0.746,0.08
		c0.203,0.017,0.366,0.016,0.491,0.002c0.129-0.018,0.213-0.057,0.267-0.105c0.055-0.055,0.1-0.144,0.122-0.283
		c0.019-0.115,0.027-0.236,0.027-0.365c-0.002-0.117-0.034-0.23-0.095-0.34c-0.053-0.104-0.146-0.201-0.286-0.286
		c-0.135-0.09-0.332-0.157-0.601-0.2c-0.424-0.068-0.753-0.016-1.003,0.137c-0.248,0.146-0.417,0.391-0.5,0.742
		c-0.011,0.046-0.067,0.082-0.116,0.074l-0.161-0.026c-0.059-0.009-0.099-0.063-0.086-0.118c0.042-0.197,0.115-0.377,0.218-0.537
		c0.105-0.166,0.238-0.305,0.4-0.412c0.167-0.107,0.357-0.178,0.568-0.219c0.221-0.039,0.467-0.036,0.735,0.007
		c0.19,0.03,0.37,0.078,0.534,0.144c0.176,0.068,0.321,0.164,0.441,0.289c0.124,0.121,0.211,0.268,0.269,0.439
		c0.058,0.176,0.069,0.383,0.038,0.611l-0.474,2.969c-0.009,0.052-0.065,0.09-0.117,0.081l-0.162-0.025
		c-0.055-0.009-0.095-0.062-0.087-0.114L86.415,24.71z"/>
	<path fill="#FAFCFD" d="M95.431,26.718l-1.489-2.829l1.695-1.24c0,0,0.064-0.045,0.064-0.072c-0.001-0.019-0.023-0.041-0.041-0.044
		c0,0-0.292-0.042-0.314-0.046c-0.102-0.016-0.174,0.046-0.174,0.046l-2.493,1.735l0.583-3.656c0.01-0.053-0.033-0.105-0.086-0.115
		l-0.198-0.031c-0.054-0.008-0.108,0.029-0.117,0.082l-0.894,5.601c-0.009,0.052,0.031,0.104,0.085,0.113l0.199,0.032
		c0.054,0.008,0.108-0.03,0.117-0.082l0.229-1.432l0.99-0.666l1.298,2.531c0.021,0.041,0.045,0.072,0.125,0.084
		c0.08,0.014,0.352,0.055,0.352,0.055c0.021,0.001,0.053-0.007,0.064-0.021C95.437,26.75,95.438,26.732,95.431,26.718"/>
</g>
<g>
	<path fill="#FAAB6D" d="M81.001,264.411c0,0-14.369,9.601-13.148,15.605c1.222,6.005,4.392,7.411,5.867,6.663
		c2.784,3.002,15.199,15.389,17.809,14.52c2.608-0.869,13.368-4.327,16.03-15.176L81.001,264.411z"/>
	<path fill="#E8833E" d="M105.545,290.959c0.852-1.447,1.557-3.076,2.014-4.936l-26.558-21.612c0,0-2.011,1.345-4.463,3.339
		C83.083,272.861,95.804,282.879,105.545,290.959z"/>
	<path fill="#FAEBE1" d="M112.999,161.81c0,0,44.61,48.561-4.077,127.495c-5.031-4.223-30.51-24.568-30.51-24.568
		c24.364-21.701,58.169-50.559,29.578-95.667L112.999,161.81z"/>
</g>
</svg>
