<?xml version="1.0" encoding="utf-8"?>
<!-- Generator: Adobe Illustrator 16.0.0, SVG Export Plug-In . SVG Version: 6.00 Build 0)  -->
<!DOCTYPE svg PUBLIC "-//W3C//DTD SVG 1.0//EN" "http://www.w3.org/TR/2001/REC-SVG-20010904/DTD/svg10.dtd">
<svg version="1.0" id="Layer_1" xmlns="http://www.w3.org/2000/svg" xmlns:xlink="http://www.w3.org/1999/xlink" x="0px" y="0px"
	 width="130.965px" height="239.805px" viewBox="0 0 130.965 239.805" enable-background="new 0 0 130.965 239.805"
	 xml:space="preserve">
<g>
	<path fill="#FAAB6D" d="M17.629,136.021c0,0-10.111-1.007-11.799,2.177c-1.688,3.182-0.774,5.005,0.176,5.217
		c0.144,2.402,1.154,12.664,2.664,13.243c1.51,0.58,7.687,3.027,12.947-0.904L17.629,136.021z"/>
	<path fill="#E8833E" d="M18.859,157.242c0.928-0.34,1.855-0.816,2.758-1.489l-3.988-19.732c0,0-1.416-0.141-3.274-0.151
		C15.418,140.635,17.453,149.935,18.859,157.242z"/>
	<path fill="#E1D6CF" d="M70.475,101.379c0,0,2.123,38.711-49.464,56.373c-0.708-3.797-4.68-22.551-4.68-22.551
		c19.169-0.756,45.296-1.236,49.158-32.396L70.475,101.379z"/>
</g>
<path fill="#696969" d="M98.416,93.973c0,0-10.06,3.404-33.337,0.773l3.617,5.841l23.988-0.499L98.416,93.973z"/>
<rect x="69.03" y="91.316" transform="matrix(0.9999 -0.0133 0.0133 0.9999 -1.3279 1.095)" fill="#FAAB6D" width="25.257" height="18.131"/>
<path fill="#E8833E" d="M68.938,93.563c0,0,6.334,4.731,14.082,4.628c7.748-0.103,11.174-4.964,11.174-4.964
	S77.422,88.943,68.938,93.563z"/>
<g>
	<path fill="#636363" d="M119.935,35.012c8.243-3.88,13.444,2.996,0.81,30.676c-10.401,22.785-5.035-5.654-5.035-5.654
		L119.935,35.012z"/>
	<path fill="#FAAB6D" d="M54.723,77.914c1.506,4.119,3.982,7.812,7.818,10.75c5.014,3.84,12.402,5.733,18.52,6.77
		c8.481,1.438,17.391,1.886,24.339-3.941c11.498-9.642,13.095-27.331,14.731-41.125c0.652-5.492,0.59-9.904,0.125-12.725
		c-3.398-0.467-6.799-0.936-10.195-1.405c-0.575-0.077-1.15-0.157-1.725-0.237c-11.337-1.563-22.674-3.127-34.014-4.689
		c-1.086-0.148-2.173-0.299-3.258-0.449c-4.072-0.561-8.143-1.122-12.215-1.684c-0.815,2.486-1.465,6.422-2.536,11.302
		C53.893,51.513,50.506,66.384,54.723,77.914z"/>
	<path fill="#636363" d="M121.864,51.232c0.651-5.494,1.454-11.637,0.989-14.457c-2.622-0.361-7.842,0.145-10.463-0.217
		l-12.455,6.014c0,0,8.746,5.445,10.229,6.811c1.483,1.364,1.14,10.166,1.14,10.166l-0.86,26.39
		C117.436,75.95,120.505,62.684,121.864,51.232z"/>
	<path fill="#424242" d="M52.785,26.151c0.67,3.454,6.736,6.229,11.904,4.823c0,0-1.897,0.588-5.168,1.406
		c-8.091,2.022,32.863,27.303,60.734,5.262S114.706,1.207,97.96,0.427C79.168-0.449,64.546,3.688,56.2,12.094s7.24,4.223,7.24,4.223
		S50.951,16.687,52.785,26.151z"/>
	<circle fill="#424242" cx="60.077" cy="52.217" r="4.148"/>
	<circle fill="#424242" cx="88.816" cy="59.39" r="4.147"/>
	<g>
		<path fill="#424242" d="M55.104,41.826c4.461-3.281,9.774-0.377,12.916,3.246c1.566,1.807,4.613-0.367,3.034-2.188
			c-4.479-5.165-11.91-8.672-18.138-4.091C50.975,40.221,53.16,43.256,55.104,41.826L55.104,41.826z"/>
	</g>
	<g>
		<path fill="#424242" d="M99.976,48.934c-4.463-6.312-12.623-5.33-18.502-1.845c-2.073,1.229,0.13,4.255,2.188,3.034
			c4.126-2.447,10.082-3.523,13.279,0.999C98.333,53.091,101.367,50.902,99.976,48.934L99.976,48.934z"/>
	</g>
	<g>
		<g>
			<path fill="#F6A569" d="M111.304,59.549c11.403-4.483,13.356,15.168-1.191,8.086L111.304,59.549z"/>
			<path fill="#E8833E" d="M112.639,63.43c5.243-1.545,4.548,4.706-0.47,2.24L112.639,63.43z"/>
		</g>
		
			<ellipse transform="matrix(0.937 0.3492 -0.3492 0.937 28.7339 -36.9069)" opacity="0.3" fill="#FFFFFF" cx="116.724" cy="61.237" rx="1.827" ry="1.06"/>
	</g>
	<g>
		<g>
			<path fill="#BD7E50" d="M60.554,73.399c3.909,9.975,14.325,10.831,22.872,6.23c1.704-0.917,0.189-3.507-1.514-2.591
				c-4.687,2.523-10.207,4.022-14.765,0.441c-1.512-1.188-3.196-3.592-3.701-4.878C62.749,70.821,59.847,71.595,60.554,73.399
				L60.554,73.399z"/>
		</g>
	</g>
</g>
<g>
	<path fill="#232323" d="M28.359,206.34l-12.603-5.04c0,0-6.952-7.712-12.227-4.593c-3.461,2.049-3.584,1.654-3.584,1.654
		c7.89,6.401,27.347,24.028,27.347,24.028c2.232-2.475,5.118-11.636,5.118-11.636L28.359,206.34z"/>
	<path fill="#333333" d="M72.781,158.958c0,0-20.67,0.682-34.93,16.573c-5.784,6.445-9.752,19.449-18.158,28.657
		c0.231,2.084,9.517,16.366,9.517,16.366c4.455-7.08,12.806-26.254,16.817-36.385c2.521-6.363,18.212-16.365,35.196-14.65
		L72.781,158.958z"/>
</g>
<g>
	<path fill="#2E2E2E" d="M46.797,223.908l-12.119-6.111c0,0-6.259-8.285-11.783-5.633c-3.624,1.74-4.871,2.451-4.871,2.451
		c7.306,7.059,26.322,25.189,26.322,25.189c2.438-2.271,5.487-10,5.487-10L46.797,223.908z"/>
	<path fill="#424242" d="M87.05,171.957c0,0-26.075,3.171-37.186,19.875c-5.286,7.947-6.639,13.559-13.893,27.429
		c0.669,1.987,10.929,17.876,10.929,17.876c5.531-7.979,7.469-18.895,13.011-40.398c1.828-7.092,20.254-11.549,37.564-14.141
		L87.05,171.957z"/>
</g>
<path fill="#FAEBE1" d="M65.079,94.746c0.017,11.232-12.96,67.577-12.598,68.07l58.21-0.163
	c-0.262-2.175-10.945-65.149-12.275-68.681l-27.68,6.534L65.079,94.746z"/>
<path fill="#424242" d="M52.481,162.816c0,0,1.098,11.991,6.315,15.611c5.223,3.619,33.859,11.787,48.85-0.934
	c3.143-3.246,3.938-10.722,3.14-15.143L52.481,162.816z"/>
<polygon fill="#E1D6CF" points="77.049,99.442 87.328,106.832 98.416,93.973 "/>
<polygon fill="#E1D6CF" points="65.079,94.746 64.076,103.82 72.485,100.719 "/>
<g>
	<polygon fill="#EE8122" points="67.186,106.262 59.631,136.025 67.65,147.885 77.783,135.614 75.644,105.66 	"/>
	<polygon fill="#BE6928" points="66.992,99.889 66.184,106.454 76.367,106.968 77.229,99.161 	"/>
	<polygon fill="#BE6928" points="66.495,108.984 75.901,109.27 75.68,106.172 67.053,106.787 	"/>
	<polygon fill="#EE8122" points="66.075,101.127 65.315,107.115 77.334,107.48 78.119,100.36 	"/>
</g>
<path fill="#DDE2E2" d="M74.132,156.158c1.339-2.706,3.214-4.585,8.569-5.166c6.919-0.751,11.65,1.502,16.949,4.972
	C93.923,155.964,74.132,156.158,74.132,156.158"/>
<g>
	<path fill="#FAAB6D" d="M93.422,137.567c0,0-10.13,0.79-11.23,4.22c-1.102,3.432,0.119,5.064,1.092,5.105
		c0.564,2.34,3.367,12.262,4.955,12.566s8.1,1.627,12.585-3.17L93.422,137.567z"/>
	<path fill="#E8833E" d="M98.371,158.24c0.854-0.498,1.684-1.13,2.452-1.951l-7.401-18.722c0,0-1.418,0.11-3.249,0.429
		C92.059,142.499,95.7,151.295,98.371,158.24z"/>
	<path fill="#FAEBE1" d="M99.656,97.718c0,0,48.593,34.173,0.923,60.646c-1.365-3.613-8.578-21.374-8.578-21.374
		c18.735-4.12,28.655-15.181,2.999-36.989L99.656,97.718z"/>
</g>
</svg>
