<?xml version="1.0" encoding="utf-8"?>
<!-- Generator: Adobe Illustrator 16.0.0, SVG Export Plug-In . SVG Version: 6.00 Build 0)  -->
<!DOCTYPE svg PUBLIC "-//W3C//DTD SVG 1.0//EN" "http://www.w3.org/TR/2001/REC-SVG-20010904/DTD/svg10.dtd">
<svg version="1.0" id="Layer_1" xmlns="http://www.w3.org/2000/svg" xmlns:xlink="http://www.w3.org/1999/xlink" x="0px" y="0px"
	 width="101.105px" height="238.512px" viewBox="0 0 101.105 238.512" enable-background="new 0 0 101.105 238.512"
	 xml:space="preserve">
<path fill="#FAAB6D" d="M25.088,66.56c0,0,7.279-6.014,6.283-9.21c-0.995-3.197-2.797-3.786-3.557-3.298
	c-1.681-1.478-9.113-7.523-10.484-6.907c-1.369,0.616-7.026,3.092-7.874,9.136L25.088,66.56z"/>
<path fill="#E8833E" d="M10.277,53.486c-0.383,0.834-0.676,1.758-0.821,2.794L25.088,66.56c0,0,1.019-0.842,2.241-2.062
	C23.488,62.082,16.02,57.34,10.277,53.486z"/>
<path fill="#E1D6CF" d="M11.688,87.883c3.755-7.643,9.451-15.817,14.788-21.643c0,0-14.975-9.65-17.942-11.668
	C3.793,64.354-2.25,81.25,3,89.667L11.688,87.883z"/>
<g>
	<path fill="#E1D6CF" d="M12,81.571c7.27,7.851,17.364,12.537,32.891,7.747L48,93c0,0-19.745,10.214-45-3.333L12,81.571z"/>
</g>
<g>
	<path fill="#424242" d="M10.076,63.255l6.869,6.081c1.566,1.387,3.961,1.241,5.348-0.325l13.206-14.919
		c1.387-1.566,1.241-3.96-0.325-5.347l-6.87-6.081c-1.566-1.387-3.96-1.241-5.347,0.325L9.751,57.908
		C8.364,59.475,8.51,61.868,10.076,63.255z"/>
	<circle fill="#545454" cx="15.604" cy="64.309" r="1.25"/>
	
		<rect x="17.727" y="45.465" transform="matrix(-0.7488 -0.6628 0.6628 -0.7488 5.2947 111.5625)" fill="#B6E4FA" width="12.125" height="18.625"/>
</g>
<path fill="#696969" d="M66.856,87.354c0,0-9.349,3.163-30.981,0.719l3.361,5.428l22.294-0.463L66.856,87.354z"/>
<rect x="39.547" y="84.884" transform="matrix(0.9999 -0.0133 0.0133 0.9999 -1.2377 0.691)" fill="#FAAB6D" width="23.473" height="16.85"/>
<path fill="#E8833E" d="M39.461,86.973c0,0,5.887,4.396,13.087,4.301s10.384-4.613,10.384-4.613S47.346,82.68,39.461,86.973z"/>
<g>
	<path fill="#636363" d="M86.854,32.56c7.659-3.605,12.493,2.784,0.751,28.507c-9.666,21.175-4.679-5.254-4.679-5.254L86.854,32.56z
		"/>
	<path fill="#FAAB6D" d="M26.25,72.43c1.4,3.828,3.701,7.26,7.268,9.99c4.658,3.569,11.524,5.328,17.21,6.291
		c7.882,1.336,16.161,1.752,22.619-3.663c10.685-8.96,12.169-25.399,13.69-38.218c0.605-5.105,0.547-9.204,0.115-11.825
		c-3.158-0.435-6.318-0.87-9.475-1.307c-0.535-0.072-1.068-0.146-1.603-0.22c-10.536-1.453-21.072-2.906-31.61-4.358
		c-1.009-0.139-2.019-0.277-3.027-0.418c-3.784-0.521-7.567-1.042-11.352-1.565c-0.758,2.312-1.361,5.969-2.356,10.504
		C25.479,47.895,22.332,61.714,26.25,72.43z"/>
	<path fill="#636363" d="M88.646,47.634c0.606-5.105,1.352-10.814,0.92-13.436c-2.438-0.336-7.287,0.135-9.724-0.201l-11.575,5.588
		c0,0,8.128,5.062,9.507,6.329c1.378,1.269,1.059,9.448,1.059,9.448l-0.8,24.524C84.531,70.604,87.384,58.275,88.646,47.634z"/>
	<path fill="#424242" d="M24.45,24.325c0.622,3.209,6.261,5.789,11.063,4.483c0,0-1.764,0.546-4.803,1.306
		c-7.52,1.88,30.54,25.374,56.441,4.891c25.902-20.483-5.157-33.86-20.721-34.586c-17.463-0.814-31.053,3.03-38.809,10.842
		s6.729,3.925,6.729,3.925S22.746,15.529,24.45,24.325z"/>
	<circle fill="#424242" cx="31.227" cy="48.549" r="3.854"/>
	<circle fill="#424242" cx="57.936" cy="55.215" r="3.854"/>
	<g>
		<path fill="#424242" d="M26.604,38.893c4.146-3.05,9.084-0.352,12.003,3.016c1.457,1.68,4.287-0.341,2.82-2.033
			c-4.162-4.8-11.068-8.059-16.856-3.802C22.768,37.399,24.799,40.221,26.604,38.893L26.604,38.893z"/>
	</g>
	<g>
		<path fill="#424242" d="M68.305,45.498c-4.146-5.866-11.73-4.955-17.193-1.715c-1.927,1.143,0.121,3.953,2.033,2.819
			c3.834-2.273,9.37-3.274,12.341,0.929C66.779,49.36,69.599,47.326,68.305,45.498L68.305,45.498z"/>
	</g>
	<g>
		<g>
			<path fill="#F6A569" d="M78.833,55.362c10.598-4.167,12.413,14.097-1.107,7.515L78.833,55.362z"/>
			<path fill="#E8833E" d="M80.074,58.969c4.871-1.436,4.226,4.373-0.438,2.082L80.074,58.969z"/>
		</g>
		
			<ellipse transform="matrix(0.937 0.3494 -0.3494 0.937 25.1796 -25.7174)" opacity="0.3" fill="#FFFFFF" cx="83.87" cy="56.931" rx="1.698" ry="0.986"/>
	</g>
	<ellipse fill="#BD7E50" cx="37.955" cy="73.046" rx="5.546" ry="7.257"/>
</g>
<g>
	<path fill="#232323" d="M35.748,226.205l-11.717,4.673c0,0-9.621-0.744-11.176,4.734c-1.02,3.595-1.355,3.409-1.355,3.409
		c9.412-0.739,33.805-1.323,33.805-1.323c-0.08-3.096-4.002-11.114-4.002-11.114L35.748,226.205z"/>
	<path fill="#333333" d="M35.336,165.848c0,0-13.486,13.692-12.919,33.527c0.23,8.044,5.883,19.344,6.116,30.929
		c1.489,1.255,16.889,4.933,16.889,4.933c-1.531-7.622-8.184-25.885-11.967-35.276c-2.376-5.9,1.791-22.685,14.329-32.403
		L35.336,165.848z"/>
</g>
<g>
	<path fill="#2E2E2E" d="M59.415,226.235l-12.076,3.642c0,0-9.521-1.574-11.544,3.75c-1.326,3.492-1.711,4.77-1.711,4.77
		c9.44,0.078,33.857,0.115,33.857,0.115c0.188-3.09-2.706-10.248-2.706-10.248L59.415,226.235z"/>
	<path fill="#424242" d="M53.27,165.469c0,0-15.534,18.83-12.324,37.195c1.527,8.738,4.209,13.383,8.202,27.371
		c1.723,0.91,18.806,5.044,18.806,5.044c-1.381-8.915-7.064-17.51-17.099-35.542c-3.31-5.948,6.249-20.746,16.251-33.575
		L53.27,165.469z"/>
</g>
<path fill="#FAEBE1" d="M35.875,88.072c0.016,10.438-12.044,62.801-11.707,63.259l54.096-0.151
	c-0.242-2.021-10.172-60.545-11.407-63.826l-25.724,6.072L35.875,88.072z"/>
<path fill="#424242" d="M24.168,151.331c0,0,1.02,11.145,5.869,14.509c4.854,3.363,31.467,10.954,45.396-0.868
	c2.922-3.016,3.66-9.964,2.918-14.072L24.168,151.331z"/>
<polygon fill="#E1D6CF" points="46.998,92.437 56.551,99.305 66.856,87.354 "/>
<polygon fill="#E1D6CF" points="35.875,88.072 34.943,96.505 42.758,93.623 "/>
<g>
	<polygon fill="#EE8122" points="37.833,98.774 30.813,126.434 38.265,137.455 47.682,126.052 45.693,98.214 	"/>
	<polygon fill="#BE6928" points="37.653,92.852 36.901,98.953 46.366,99.43 47.166,92.175 	"/>
	<polygon fill="#BE6928" points="37.191,101.304 45.933,101.568 45.727,98.69 37.709,99.262 	"/>
	<polygon fill="#EE8122" points="36.801,94.002 36.095,99.567 47.265,99.906 47.993,93.289 	"/>
</g>
<g>
	<path fill="#FAAB6D" d="M62.408,149.029c0,0-6.629,6.724-5.313,9.802c1.316,3.079,3.168,3.481,3.875,2.918
		c1.821,1.299,9.832,6.556,11.133,5.803c1.3-0.753,6.676-3.791,6.902-9.891L62.408,149.029z"/>
	<path fill="#E8833E" d="M78.474,160.524c0.296-0.869,0.493-1.817,0.532-2.863l-16.598-8.632c0,0-0.928,0.94-2.02,2.279
		C64.455,153.32,72.368,157.276,78.474,160.524z"/>
	<path fill="#FAEBE1" d="M68.199,90.592c0,0,29.235,21.059,11.898,68.675c-3.158-1.704-19.039-9.778-19.039-9.778
		c10.641-14.303,25.543-33.478,5.263-54.458L68.199,90.592z"/>
</g>
</svg>
