<?xml version="1.0" encoding="utf-8"?>
<!-- Generator: Adobe Illustrator 16.0.0, SVG Export Plug-In . SVG Version: 6.00 Build 0)  -->
<!DOCTYPE svg PUBLIC "-//W3C//DTD SVG 1.0//EN" "http://www.w3.org/TR/2001/REC-SVG-20010904/DTD/svg10.dtd">
<svg version="1.0" id="Layer_1" xmlns="http://www.w3.org/2000/svg" xmlns:xlink="http://www.w3.org/1999/xlink" x="0px" y="0px"
	 width="199.492px" height="131.056px" viewBox="0 0 199.492 131.056" enable-background="new 0 0 199.492 131.056"
	 xml:space="preserve">
<g>
	<path fill="#FAAB6D" d="M98.961,38.004c0,0-16.415-5.404-20.394-0.742c-3.978,4.66-3.133,8.023-1.634,8.727
		c-0.649,4.042-2.758,21.451-0.466,22.972c2.291,1.52,11.644,7.864,21.83,3.278L98.961,38.004z"/>
	<path fill="#E8833E" d="M93.169,73.693c1.665-0.223,3.382-0.67,5.129-1.455l0.663-34.234c0,0-2.298-0.756-5.38-1.459
		C93.587,44.85,93.533,61.041,93.169,73.693z"/>
	<path fill="#E1D6CF" d="M199.492,0c0,0-10.769,65.057-102.939,75.333c0.227-6.565,0.558-39.167,0.558-39.167
		c32.104,5.822,75.659,14.672,93.578-35.639L199.492,0z"/>
</g>
<g>
	
		<rect x="1.986" y="5.594" transform="matrix(0.9995 0.0323 -0.0323 0.9995 2.2117 -1.4024)" fill="#EE8122" width="84.924" height="124.121"/>
	<g>
		<path fill="#FFFFFF" d="M15.438,14.788c0.701,0.25,1.262,0.691,1.682,1.324c0.338,0.51,0.563,1.06,0.676,1.645
			c0.111,0.587,0.16,1.145,0.146,1.673c-0.037,1.34-0.337,2.467-0.9,3.382c-0.762,1.231-1.904,1.829-3.428,1.788l-4.343-0.117
			L9.542,14.41l4.343,0.116C14.509,14.553,15.027,14.639,15.438,14.788z M11.538,16.214l-0.177,6.573l1.943,0.053
			c0.995,0.027,1.702-0.444,2.12-1.412c0.229-0.533,0.354-1.169,0.374-1.912c0.028-1.025-0.112-1.816-0.419-2.373
			c-0.308-0.559-0.939-0.851-1.898-0.877L11.538,16.214z"/>
		<path fill="#FFFFFF" d="M25.456,24.008c-0.648,0.758-1.614,1.119-2.895,1.086c-1.278-0.035-2.223-0.449-2.831-1.24
			c-0.607-0.794-0.896-1.736-0.866-2.83c0.028-1.074,0.367-1.995,1.017-2.766c0.65-0.772,1.616-1.14,2.896-1.104
			c1.279,0.034,2.224,0.452,2.83,1.258c0.608,0.806,0.898,1.743,0.869,2.817C26.446,22.321,26.106,23.248,25.456,24.008z
			 M23.929,22.888c0.315-0.396,0.483-0.968,0.505-1.713c0.02-0.746-0.119-1.325-0.413-1.736c-0.295-0.411-0.727-0.624-1.296-0.64
			c-0.568-0.016-1.013,0.174-1.332,0.569c-0.317,0.395-0.487,0.964-0.507,1.71c-0.021,0.746,0.118,1.326,0.414,1.739
			c0.298,0.413,0.731,0.627,1.3,0.643C23.169,23.475,23.611,23.284,23.929,22.888z"/>
		<path fill="#FFFFFF" d="M28.019,14.942l1.914,0.051l-0.146,5.433l2.531-2.742l2.423,0.064l-2.745,2.703l2.648,4.715l-2.37-0.064
			l-1.72-3.231l-0.828,0.817l-0.063,2.344l-1.915-0.052L28.019,14.942z"/>
		<path fill="#FFFFFF" d="M37.693,17.794l-0.12,4.489c-0.012,0.424,0.029,0.744,0.123,0.961c0.167,0.383,0.508,0.582,1.025,0.595
			c0.662,0.019,1.122-0.239,1.383-0.77c0.133-0.288,0.208-0.671,0.221-1.149l0.108-4.053l1.976,0.053l-0.201,7.449l-1.893-0.051
			l0.029-1.053c-0.02,0.021-0.066,0.09-0.143,0.201c-0.076,0.112-0.164,0.211-0.268,0.294c-0.312,0.266-0.609,0.443-0.897,0.538
			c-0.286,0.092-0.62,0.133-1.001,0.122c-1.101-0.029-1.83-0.446-2.19-1.249c-0.201-0.443-0.291-1.09-0.269-1.942l0.122-4.489
			L37.693,17.794z"/>
		<path fill="#FFFFFF" d="M53.595,18.249c0.315,0.136,0.6,0.366,0.85,0.692c0.203,0.266,0.335,0.59,0.398,0.969
			c0.039,0.252,0.052,0.619,0.039,1.103l-0.141,4.694l-1.995-0.055l0.128-4.742c0.007-0.282-0.032-0.516-0.118-0.7
			c-0.163-0.353-0.478-0.533-0.942-0.546c-0.538-0.014-0.916,0.199-1.133,0.641c-0.111,0.234-0.171,0.517-0.181,0.85l-0.119,4.436
			l-1.961-0.054l0.119-4.436c0.013-0.441-0.024-0.764-0.11-0.966c-0.154-0.364-0.471-0.553-0.949-0.566
			c-0.555-0.016-0.934,0.154-1.136,0.51c-0.109,0.203-0.171,0.506-0.182,0.911l-0.12,4.483l-1.976-0.054l0.201-7.435l1.894,0.051
			l-0.029,1.086c0.251-0.381,0.486-0.649,0.705-0.808c0.386-0.282,0.879-0.413,1.48-0.398c0.57,0.015,1.026,0.152,1.37,0.413
			c0.276,0.24,0.482,0.545,0.618,0.912c0.267-0.43,0.593-0.742,0.977-0.938c0.406-0.193,0.855-0.285,1.348-0.271
			C52.958,18.041,53.279,18.113,53.595,18.249z"/>
		<path fill="#FFFFFF" d="M61.597,18.588c0.513,0.246,0.932,0.626,1.255,1.137c0.295,0.451,0.479,0.97,0.553,1.557
			c0.044,0.342,0.052,0.836,0.025,1.479l-5.425-0.146c0.01,0.748,0.255,1.278,0.736,1.593c0.292,0.195,0.646,0.299,1.066,0.31
			c0.442,0.011,0.807-0.093,1.091-0.313c0.153-0.118,0.292-0.285,0.413-0.502l1.988,0.055c-0.063,0.44-0.316,0.882-0.758,1.326
			c-0.686,0.706-1.631,1.043-2.831,1.01c-0.992-0.025-1.857-0.354-2.599-0.986c-0.742-0.631-1.094-1.635-1.057-3.012
			c0.035-1.291,0.402-2.271,1.106-2.939c0.702-0.672,1.599-0.992,2.69-0.963C60.502,18.209,61.082,18.341,61.597,18.588z
			 M58.636,20.191c-0.283,0.277-0.466,0.656-0.549,1.141l3.355,0.09c-0.022-0.52-0.185-0.915-0.487-1.191
			c-0.304-0.275-0.685-0.421-1.145-0.434C59.311,19.783,58.919,19.916,58.636,20.191z"/>
		<path fill="#FFFFFF" d="M70.524,19.105c0.476,0.415,0.703,1.091,0.677,2.025l-0.135,5.016l-1.995-0.055l0.122-4.53
			c0.01-0.392-0.034-0.693-0.132-0.906c-0.179-0.388-0.537-0.589-1.071-0.603c-0.655-0.019-1.112,0.25-1.372,0.804
			c-0.134,0.293-0.208,0.67-0.221,1.13l-0.107,4.031l-1.948-0.052l0.2-7.437l1.887,0.051l-0.029,1.087
			c0.258-0.376,0.503-0.645,0.73-0.808c0.406-0.29,0.917-0.426,1.527-0.41C69.425,18.469,70.047,18.688,70.524,19.105z"/>
		<path fill="#FFFFFF" d="M12.809,34.049c0.347,0.209,0.624,0.49,0.833,0.847l0.096-3.554l1.975,0.054l-0.271,10.06l-1.893-0.052
			l0.027-1.032c-0.289,0.436-0.613,0.748-0.975,0.938s-0.807,0.28-1.334,0.265c-0.87-0.023-1.594-0.393-2.17-1.115
			c-0.574-0.719-0.848-1.631-0.817-2.732c0.034-1.271,0.354-2.264,0.957-2.977c0.606-0.714,1.399-1.057,2.378-1.03
			C12.066,33.73,12.464,33.843,12.809,34.049z M13.146,39.368c0.297-0.401,0.454-0.93,0.473-1.581
			c0.024-0.91-0.188-1.568-0.639-1.973c-0.274-0.244-0.6-0.371-0.974-0.381c-0.569-0.016-0.993,0.188-1.271,0.611
			c-0.278,0.424-0.426,0.955-0.442,1.592c-0.019,0.689,0.103,1.241,0.363,1.66c0.259,0.421,0.664,0.638,1.216,0.654
			C12.423,39.965,12.847,39.771,13.146,39.368z"/>
		<path fill="#FFFFFF" d="M20.282,37.051c0.363-0.037,0.625-0.086,0.783-0.149c0.283-0.11,0.429-0.291,0.436-0.542
			c0.008-0.306-0.095-0.52-0.307-0.641c-0.21-0.123-0.525-0.189-0.939-0.2c-0.467-0.013-0.801,0.093-1.001,0.315
			c-0.143,0.164-0.241,0.391-0.295,0.676l-1.88-0.052c0.06-0.649,0.257-1.18,0.593-1.591c0.535-0.643,1.431-0.946,2.688-0.913
			c0.82,0.022,1.543,0.205,2.17,0.545c0.629,0.341,0.93,0.96,0.905,1.857l-0.092,3.416c-0.007,0.237-0.009,0.525-0.009,0.862
			c0.006,0.254,0.04,0.43,0.101,0.521c0.062,0.094,0.155,0.17,0.28,0.233l-0.008,0.288l-2.117-0.058
			c-0.055-0.151-0.092-0.295-0.111-0.428c-0.019-0.132-0.033-0.282-0.043-0.452c-0.277,0.285-0.596,0.524-0.955,0.721
			c-0.427,0.229-0.907,0.338-1.438,0.324c-0.679-0.02-1.234-0.227-1.666-0.625c-0.432-0.396-0.638-0.947-0.618-1.653
			c0.025-0.915,0.398-1.569,1.121-1.96c0.395-0.213,0.973-0.357,1.733-0.432L20.282,37.051z M21.449,37.992
			c-0.127,0.074-0.255,0.133-0.383,0.177c-0.128,0.046-0.305,0.085-0.526,0.12l-0.446,0.07c-0.417,0.062-0.717,0.143-0.901,0.242
			c-0.312,0.169-0.473,0.44-0.482,0.814c-0.009,0.333,0.077,0.576,0.262,0.729c0.184,0.152,0.409,0.232,0.678,0.24
			c0.426,0.012,0.82-0.101,1.186-0.338c0.365-0.236,0.563-0.68,0.596-1.33L21.449,37.992z"/>
		<path fill="#FFFFFF" d="M31.189,34.853c0.477,0.415,0.704,1.091,0.677,2.024l-0.134,5.017l-1.996-0.054l0.122-4.531
			c0.011-0.392-0.033-0.693-0.131-0.906c-0.18-0.388-0.536-0.59-1.07-0.604c-0.656-0.018-1.113,0.252-1.373,0.805
			c-0.135,0.292-0.209,0.67-0.22,1.129l-0.11,4.032l-1.947-0.053l0.201-7.435l1.887,0.051l-0.029,1.086
			c0.258-0.376,0.502-0.645,0.73-0.807c0.407-0.29,0.916-0.428,1.528-0.411C30.092,34.217,30.712,34.435,31.189,34.853z"/>
		<path fill="#FFFFFF" d="M15.247,53.892c-0.604,0.478-1.452,0.7-2.547,0.671l-2.097-0.057l-0.098,3.621L8.415,58.07l0.271-10.072
			l4.325,0.116c0.998,0.028,1.785,0.31,2.363,0.844c0.58,0.536,0.854,1.349,0.825,2.436C16.167,52.583,15.851,53.416,15.247,53.892z
			 M13.737,50.221c-0.26-0.23-0.631-0.352-1.11-0.365l-1.896-0.051l-0.08,2.965l1.897,0.052c0.479,0.013,0.855-0.099,1.129-0.332
			c0.272-0.235,0.417-0.614,0.431-1.138C14.122,50.827,13.998,50.451,13.737,50.221z"/>
		<path fill="#FFFFFF" d="M22.595,51.15c0.512,0.246,0.934,0.625,1.257,1.137c0.294,0.449,0.478,0.968,0.553,1.557
			c0.042,0.342,0.052,0.836,0.024,1.479l-5.424-0.146c0.009,0.748,0.254,1.279,0.734,1.594c0.294,0.193,0.648,0.297,1.066,0.308
			c0.443,0.013,0.809-0.093,1.092-0.312c0.153-0.119,0.292-0.285,0.414-0.502l1.988,0.054c-0.065,0.44-0.316,0.882-0.758,1.327
			c-0.688,0.706-1.631,1.043-2.831,1.012c-0.992-0.027-1.857-0.357-2.601-0.988c-0.74-0.632-1.092-1.635-1.055-3.012
			c0.034-1.29,0.402-2.271,1.105-2.941c0.702-0.67,1.6-0.99,2.691-0.961C21.5,50.771,22.082,50.902,22.595,51.15z M19.636,52.754
			c-0.283,0.277-0.466,0.656-0.551,1.139l3.355,0.091c-0.021-0.519-0.183-0.915-0.484-1.19c-0.307-0.277-0.688-0.42-1.146-0.433
			C20.31,52.347,19.919,52.477,19.636,52.754z"/>
		<path fill="#FFFFFF" d="M27.316,58.58l-1.947-0.053l0.271-10.072l1.946,0.052L27.316,58.58z"/>
		<path fill="#FFFFFF" d="M32.288,54.18c0.363-0.035,0.624-0.085,0.782-0.15c0.284-0.109,0.429-0.291,0.436-0.542
			c0.008-0.306-0.093-0.519-0.306-0.64c-0.211-0.122-0.525-0.189-0.939-0.201c-0.467-0.012-0.801,0.094-1,0.315
			c-0.145,0.165-0.242,0.391-0.297,0.677l-1.879-0.051c0.058-0.65,0.256-1.181,0.592-1.592c0.536-0.641,1.432-0.945,2.689-0.911
			c0.818,0.021,1.543,0.202,2.17,0.543s0.929,0.96,0.904,1.856l-0.092,3.418c-0.006,0.236-0.01,0.524-0.01,0.861
			c0.007,0.255,0.042,0.43,0.104,0.522c0.061,0.092,0.154,0.171,0.279,0.233l-0.007,0.287l-2.118-0.059
			c-0.057-0.15-0.094-0.293-0.112-0.427c-0.018-0.132-0.032-0.282-0.042-0.452c-0.278,0.285-0.597,0.525-0.956,0.721
			c-0.427,0.229-0.907,0.338-1.438,0.323c-0.678-0.019-1.233-0.226-1.666-0.624c-0.432-0.396-0.637-0.947-0.618-1.654
			c0.025-0.915,0.398-1.568,1.12-1.959c0.397-0.213,0.975-0.357,1.734-0.432L32.288,54.18z M33.454,55.121
			c-0.126,0.074-0.255,0.135-0.383,0.177c-0.127,0.046-0.304,0.085-0.527,0.119L32.1,55.488c-0.417,0.063-0.717,0.143-0.901,0.242
			c-0.313,0.17-0.473,0.439-0.483,0.814c-0.009,0.332,0.079,0.576,0.263,0.729s0.408,0.234,0.677,0.24
			c0.425,0.012,0.82-0.102,1.186-0.338c0.366-0.236,0.563-0.68,0.596-1.33L33.454,55.121z"/>
		<path fill="#FFFFFF" d="M43.442,52.36c0.59,0.659,0.869,1.609,0.836,2.853c-0.036,1.313-0.36,2.305-0.971,2.977
			c-0.614,0.673-1.389,0.996-2.323,0.971c-0.596-0.016-1.087-0.178-1.474-0.484c-0.211-0.17-0.416-0.414-0.613-0.734l-0.105,3.882
			l-1.927-0.052l0.279-10.381l1.866,0.051l-0.029,1.1c0.219-0.317,0.45-0.566,0.693-0.747c0.445-0.321,0.969-0.472,1.569-0.457
			C42.119,51.361,42.852,51.702,43.442,52.36z M41.91,53.721c-0.253-0.449-0.676-0.682-1.27-0.697
			c-0.714-0.02-1.213,0.302-1.497,0.965c-0.148,0.352-0.229,0.801-0.244,1.348c-0.023,0.865,0.191,1.48,0.647,1.844
			c0.271,0.212,0.593,0.322,0.972,0.334c0.548,0.014,0.972-0.185,1.271-0.596c0.299-0.41,0.458-0.965,0.477-1.662
			C42.281,54.682,42.163,54.17,41.91,53.721z"/>
		<path fill="#FFFFFF" d="M51.784,58.327c-0.649,0.759-1.615,1.121-2.895,1.087c-1.28-0.034-2.224-0.447-2.832-1.24
			c-0.607-0.795-0.896-1.736-0.867-2.829c0.029-1.073,0.368-1.997,1.018-2.768c0.65-0.771,1.615-1.138,2.896-1.104
			c1.28,0.035,2.224,0.454,2.831,1.258c0.607,0.806,0.897,1.744,0.867,2.819C52.772,56.643,52.435,57.568,51.784,58.327z
			 M50.255,57.208c0.316-0.396,0.483-0.967,0.504-1.713c0.021-0.747-0.117-1.325-0.411-1.736s-0.727-0.623-1.296-0.638
			c-0.568-0.017-1.013,0.173-1.332,0.566c-0.318,0.395-0.486,0.965-0.508,1.711c-0.02,0.746,0.119,1.326,0.416,1.738
			c0.297,0.414,0.73,0.629,1.299,0.645C49.496,57.796,49.938,57.605,50.255,57.208z"/>
		<path fill="#FFFFFF" d="M58.44,51.79c0.023,0.003,0.079,0.008,0.166,0.015l-0.054,1.994c-0.122-0.016-0.23-0.027-0.327-0.035
			c-0.095-0.007-0.173-0.012-0.232-0.014c-0.783-0.021-1.315,0.22-1.599,0.723c-0.158,0.283-0.245,0.723-0.262,1.32l-0.096,3.561
			l-1.962-0.053l0.201-7.448l1.858,0.05l-0.034,1.297c0.314-0.488,0.585-0.819,0.813-0.996c0.372-0.295,0.852-0.436,1.435-0.42
			C58.384,51.785,58.415,51.787,58.44,51.79z"/>
		<path fill="#FFFFFF" d="M62.614,54.996c0.363-0.035,0.625-0.086,0.783-0.15c0.283-0.11,0.428-0.291,0.436-0.543
			c0.008-0.304-0.094-0.518-0.307-0.639c-0.21-0.123-0.524-0.189-0.939-0.2c-0.467-0.013-0.801,0.093-1,0.315
			c-0.144,0.165-0.242,0.389-0.295,0.675l-1.88-0.05c0.059-0.65,0.257-1.182,0.591-1.592c0.536-0.642,1.432-0.945,2.689-0.912
			c0.821,0.022,1.543,0.205,2.17,0.545c0.628,0.34,0.93,0.959,0.905,1.857l-0.092,3.416c-0.007,0.236-0.009,0.523-0.009,0.861
			c0.006,0.254,0.041,0.43,0.101,0.521c0.063,0.092,0.155,0.171,0.282,0.234l-0.008,0.286l-2.119-0.057
			c-0.055-0.151-0.092-0.295-0.111-0.427c-0.019-0.133-0.033-0.283-0.043-0.452c-0.277,0.284-0.596,0.524-0.955,0.72
			c-0.427,0.229-0.907,0.338-1.438,0.323c-0.68-0.019-1.236-0.226-1.666-0.623c-0.433-0.397-0.638-0.948-0.619-1.653
			c0.025-0.916,0.398-1.569,1.121-1.961c0.396-0.213,0.973-0.357,1.733-0.432L62.614,54.996z M63.782,55.937
			c-0.128,0.075-0.256,0.135-0.384,0.179c-0.128,0.045-0.305,0.084-0.526,0.118l-0.446,0.071c-0.416,0.063-0.718,0.143-0.901,0.242
			c-0.312,0.17-0.472,0.441-0.482,0.814c-0.008,0.333,0.078,0.576,0.262,0.729c0.184,0.153,0.409,0.233,0.678,0.24
			c0.426,0.012,0.82-0.102,1.186-0.337c0.365-0.236,0.564-0.681,0.596-1.332L63.782,55.937z"/>
		<path fill="#FFFFFF" d="M73.521,52.798c0.477,0.415,0.704,1.09,0.678,2.024l-0.135,5.016l-1.996-0.053l0.122-4.531
			c0.011-0.391-0.033-0.693-0.131-0.906c-0.18-0.388-0.536-0.588-1.07-0.603c-0.655-0.019-1.113,0.249-1.373,0.804
			c-0.134,0.292-0.209,0.67-0.221,1.13l-0.108,4.031l-1.948-0.052l0.201-7.436l1.887,0.051l-0.029,1.087
			c0.258-0.376,0.503-0.646,0.73-0.808c0.407-0.291,0.916-0.428,1.528-0.41C72.424,52.163,73.045,52.381,73.521,52.798z"/>
		<path fill="#FFFFFF" d="M15.67,66.068c0.297,0.436,0.437,0.951,0.421,1.549c-0.017,0.615-0.185,1.105-0.507,1.471
			c-0.179,0.205-0.44,0.389-0.783,0.553c0.51,0.199,0.888,0.508,1.14,0.92c0.25,0.412,0.367,0.906,0.352,1.486
			c-0.016,0.597-0.18,1.129-0.49,1.594c-0.198,0.31-0.444,0.568-0.734,0.773c-0.329,0.237-0.713,0.396-1.152,0.476
			s-0.916,0.111-1.428,0.098l-4.539-0.122L8.22,64.794l4.867,0.131C14.314,64.976,15.177,65.356,15.67,66.068z M10.183,66.597
			l-0.061,2.22l2.449,0.066c0.437,0.012,0.793-0.061,1.072-0.219c0.275-0.16,0.42-0.452,0.432-0.875
			c0.013-0.471-0.159-0.785-0.516-0.943c-0.309-0.114-0.704-0.177-1.187-0.189L10.183,66.597z M10.077,70.484l-0.072,2.686
			l2.446,0.066c0.436,0.012,0.778-0.039,1.024-0.15c0.447-0.207,0.679-0.619,0.695-1.24c0.015-0.523-0.189-0.889-0.611-1.096
			c-0.237-0.116-0.571-0.182-1.003-0.199L10.077,70.484z"/>
		<path fill="#FFFFFF" d="M20.937,70.682c0.364-0.036,0.625-0.086,0.782-0.15c0.284-0.111,0.429-0.291,0.436-0.541
			c0.008-0.307-0.093-0.521-0.306-0.641c-0.211-0.123-0.524-0.19-0.939-0.201c-0.467-0.012-0.801,0.093-1,0.316
			c-0.145,0.164-0.242,0.389-0.296,0.674l-1.88-0.051c0.059-0.648,0.256-1.18,0.594-1.59c0.534-0.643,1.43-0.946,2.688-0.912
			c0.819,0.021,1.543,0.203,2.17,0.543c0.628,0.341,0.929,0.961,0.904,1.857l-0.092,3.418c-0.006,0.236-0.009,0.523-0.01,0.859
			c0.008,0.256,0.042,0.432,0.102,0.523c0.063,0.093,0.156,0.17,0.281,0.232l-0.007,0.287l-2.118-0.057
			c-0.056-0.152-0.093-0.295-0.112-0.426c-0.019-0.134-0.032-0.284-0.042-0.453c-0.278,0.285-0.597,0.523-0.955,0.719
			c-0.428,0.231-0.908,0.34-1.438,0.324c-0.679-0.018-1.233-0.227-1.667-0.623c-0.431-0.396-0.637-0.947-0.617-1.654
			c0.024-0.915,0.397-1.568,1.12-1.959c0.396-0.213,0.974-0.356,1.733-0.432L20.937,70.682z M22.103,71.621
			c-0.125,0.075-0.255,0.135-0.383,0.178c-0.127,0.046-0.304,0.086-0.525,0.12l-0.447,0.07c-0.416,0.062-0.717,0.143-0.901,0.242
			c-0.312,0.169-0.473,0.44-0.482,0.813c-0.009,0.334,0.079,0.576,0.261,0.73c0.185,0.152,0.41,0.232,0.68,0.239
			c0.425,0.013,0.819-0.101,1.185-0.337s0.564-0.68,0.597-1.332L22.103,71.621z"/>
		<path fill="#FFFFFF" d="M31.844,68.482c0.476,0.415,0.703,1.09,0.677,2.025l-0.135,5.016L30.39,75.47l0.123-4.53
			c0.01-0.391-0.034-0.694-0.132-0.906c-0.18-0.389-0.537-0.589-1.071-0.604c-0.653-0.018-1.112,0.25-1.371,0.804
			c-0.135,0.292-0.209,0.67-0.22,1.13l-0.109,4.031l-1.947-0.053l0.2-7.434l1.886,0.051l-0.029,1.086
			c0.259-0.375,0.503-0.646,0.73-0.808c0.407-0.29,0.917-0.427,1.529-0.411C30.744,67.848,31.366,68.066,31.844,68.482z"/>
		<path fill="#FFFFFF" d="M34.446,65.533l1.913,0.051l-0.146,5.435l2.532-2.743l2.422,0.065l-2.744,2.702l2.647,4.713l-2.369-0.063
			l-1.72-3.231l-0.829,0.817l-0.063,2.344l-1.912-0.052L34.446,65.533z"/>
		<path fill="#FFFFFF" d="M53.78,67.094c0.297,0.436,0.436,0.952,0.42,1.549c-0.016,0.615-0.184,1.105-0.506,1.471
			c-0.179,0.205-0.441,0.389-0.783,0.553c0.51,0.2,0.888,0.508,1.14,0.92c0.25,0.412,0.367,0.907,0.352,1.486
			c-0.016,0.598-0.18,1.129-0.49,1.594c-0.198,0.311-0.444,0.568-0.734,0.773c-0.329,0.238-0.713,0.396-1.153,0.477
			c-0.439,0.079-0.916,0.111-1.427,0.098l-4.538-0.122l0.271-10.071l4.866,0.131C52.426,66.002,53.286,66.381,53.78,67.094z
			 M48.292,67.623l-0.06,2.22l2.449,0.065c0.437,0.012,0.792-0.061,1.071-0.219c0.276-0.16,0.421-0.451,0.432-0.875
			c0.014-0.47-0.158-0.784-0.514-0.943c-0.31-0.113-0.705-0.178-1.188-0.189L48.292,67.623z M48.188,71.51l-0.072,2.687l2.446,0.065
			c0.436,0.012,0.777-0.039,1.024-0.15c0.448-0.207,0.679-0.619,0.695-1.239c0.015-0.524-0.188-0.89-0.611-1.097
			c-0.237-0.115-0.571-0.182-1.003-0.198L48.188,71.51z"/>
		<path fill="#FFFFFF" d="M63.721,66.287l-0.048,1.783l-3.013-0.08l-0.224,8.288l-2.118-0.058l0.224-8.288l-3.027-0.081l0.048-1.784
			L63.721,66.287z"/>
		<path fill="#FFFFFF" d="M71.562,72.215c-0.604,0.477-1.453,0.699-2.548,0.67l-2.097-0.057l-0.098,3.622l-2.091-0.058l0.271-10.071
			l4.324,0.116c0.999,0.027,1.786,0.309,2.364,0.844c0.58,0.535,0.854,1.348,0.825,2.437C72.48,70.906,72.164,71.738,71.562,72.215z
			 M70.052,68.543c-0.262-0.23-0.631-0.352-1.111-0.365l-1.896-0.051l-0.08,2.966l1.896,0.051c0.48,0.013,0.856-0.099,1.129-0.331
			c0.273-0.234,0.418-0.613,0.432-1.137C70.435,69.15,70.312,68.774,70.052,68.543z"/>
		<path fill="#FFFFFF" d="M74.252,66.571l2.206,0.059l3.81,7.13l0.188-7.021l1.962,0.053l-0.271,10.072l-2.104-0.057l-3.906-7.258
			l-0.193,7.146l-1.961-0.053L74.252,66.571z"/>
	</g>
</g>
</svg>
