<?xml version="1.0" encoding="utf-8"?>
<!-- Generator: Adobe Illustrator 16.0.0, SVG Export Plug-In . SVG Version: 6.00 Build 0)  -->
<!DOCTYPE svg PUBLIC "-//W3C//DTD SVG 1.1//EN" "http://www.w3.org/Graphics/SVG/1.1/DTD/svg11.dtd">
<svg version="1.1" id="Layer_1" xmlns="http://www.w3.org/2000/svg" xmlns:xlink="http://www.w3.org/1999/xlink" x="0px" y="0px"
	 width="55px" height="38px" viewBox="0 0 55 38" enable-background="new 0 0 55 38" xml:space="preserve">
<path fill-rule="evenodd" clip-rule="evenodd" fill="#424242" d="M8.25,9.5c-5.411,0.225-11.5,8.25-6,16s27.5,5.75,27.5,5.75
	L8.25,9.5z"/>
<path fill-rule="evenodd" clip-rule="evenodd" fill="#FAAB6D" d="M43.696,6.918C43.696,6.918,38.258,1,35,0s-7,0-7,0l-3.5,3.418
	c0,0-3.25-2.974-7-3.418S11,3.418,11,3.418V7c0,0-2.25-0.25-5,0s-5,6.5-5,6.5L14.5,17l3.136,9.72c0,0-10.136-4.97-14.636-3.72
	s-2.5,3.72-2.5,3.72L7,38l48-4.607L43.696,6.918z"/>
</svg>
