<?xml version="1.0" encoding="utf-8"?>
<!-- Generator: Adobe Illustrator 16.0.0, SVG Export Plug-In . SVG Version: 6.00 Build 0)  -->
<!DOCTYPE svg PUBLIC "-//W3C//DTD SVG 1.0//EN" "http://www.w3.org/TR/2001/REC-SVG-20010904/DTD/svg10.dtd">
<svg version="1.0" id="Layer_1" xmlns="http://www.w3.org/2000/svg" xmlns:xlink="http://www.w3.org/1999/xlink" x="0px" y="0px"
	 width="297.481px" height="436.873px" viewBox="0 0 297.481 436.873" enable-background="new 0 0 297.481 436.873"
	 xml:space="preserve">
<g>
	<g>
		<path fill="#FAAB6D" d="M274.714,220.295c0,0,17.63-2.594,20.85,2.844c3.219,5.438,1.767,8.706,0.12,9.154
			c-0.055,4.223-0.984,22.281-3.582,23.422c-2.596,1.139-13.217,5.934-22.756-0.522L274.714,220.295z"/>
		<path fill="#E8833E" d="M274.299,257.576c-1.652-0.521-3.317-1.277-4.953-2.384l5.368-34.897c0,0,2.468-0.363,5.724-0.532
			C278.965,228.198,276.162,244.658,274.299,257.576z"/>
		<path fill="#333333" d="M179.285,163.941c0,0-0.542,67.994,91.287,94.703c0.928-6.71,6.347-39.891,6.347-39.891
			c-33.645,0.248-79.457,1.553-88.782-52.723L179.285,163.941z"/>
	</g>
	<path fill="#696969" d="M131.238,153.777c0,0,17.387,6.68,58.365,3.729l-6.754,9.979l-42.002-2.583L131.238,153.777z"/>
	
		<rect x="138" y="150.299" transform="matrix(-0.9985 -0.0539 0.0539 -0.9985 311.1031 340.7931)" fill="#FAAB6D" width="44.299" height="31.801"/>
	<path fill="#E8833E" d="M182.928,155.158c0,0-11.438,7.838-25.008,7.105c-13.571-0.732-19.228-9.494-19.228-9.494
		S168.388,146.457,182.928,155.158z"/>
	<g>
		<path fill="#424242" d="M117.495,39.513c-12.676-9.727-24.158,0.114-12.842,52.265c9.315,42.931,10.74-7.808,10.74-7.808
			L117.495,39.513z"/>
		<path fill="#FAAB6D" d="M213.227,137.385c-4.119,6.496-9.741,11.898-17.414,15.503c-10.024,4.708-23.394,5.193-34.264,4.685
			c-15.07-0.705-30.506-3.264-40.236-15.844c-16.104-20.816-12.234-51.725-9.889-75.975c0.934-9.657,2.688-17.193,4.538-21.852
			c5.999,0.467,54.378-44.038,108.392,8.422c0.469,4.566,0.112,11.553,0.125,20.316C224.508,92.451,224.758,119.2,213.227,137.385z"
			/>
		<path fill="#424242" d="M108.132,66.589c0.934-9.657,1.854-20.485,3.704-25.144c4.628,0.359,13.383,3.176,18.01,3.535l19.1,14.956
			c0,0-17.022,6.067-20.073,7.852c-3.052,1.784-5.749,16.995-5.749,16.995l-8.381,45.545
			C106.49,110.602,106.186,86.721,108.132,66.589z"/>
		<circle fill="#424242" cx="213.646" cy="91.349" r="7.274"/>
		<circle fill="#424242" cx="161.717" cy="92.909" r="7.274"/>
		<g>
			<path fill="#424242" d="M226.049,75.4c-6.42-7.289-16.608-4.297-23.346,0.738c-3.359,2.512-7.769-2.352-4.382-4.883
				c9.604-7.178,23.647-10.413,32.61-0.237C233.725,74.189,228.846,78.576,226.049,75.4L226.049,75.4z"/>
		</g>
		<g>
			<path fill="#424242" d="M146.5,70.824c10.004-9.15,23.621-4.422,32.395,3.747c3.093,2.88-1.812,7.241-4.883,4.382
				c-6.157-5.733-15.963-9.802-23.13-3.246C147.762,78.561,143.381,73.678,146.5,70.824L146.5,70.824z"/>
		</g>
		<g>
			<g>
				<path fill="#F6A569" d="M123.123,84.783c-17.868-11.941-28.553,21.007-0.979,14.303L123.123,84.783z"/>
				<path fill="#E8833E" d="M119.386,90.936c-8.407-4.604-9.551,6.367-0.031,4.016L119.386,90.936z"/>
			</g>
			
				<ellipse transform="matrix(-0.9899 0.1418 -0.1418 -0.9899 237.4122 154.3819)" opacity="0.3" fill="#FFFFFF" cx="113.204" cy="85.653" rx="3.205" ry="1.86"/>
		</g>
		<g>
			<g>
				<path fill="#BD7E50" d="M202.388,129.208c-10.997,5.355-24.778,1.384-34.484-4.646c-1.648-1.024-3.153,1.572-1.514,2.591
					c10.717,6.657,25.507,10.491,37.512,4.646C205.641,130.951,204.119,128.364,202.388,129.208L202.388,129.208z"/>
			</g>
		</g>
		<path fill="#424242" d="M148.945,59.937c0,0-2.12-13.913-0.378-16.526c1.741-2.613,57.513-9.17,75.786,8.914
			c0,0-1.926-47.652-47.917-51.589c-64.448-5.517-75.771,23.515-75.771,47.03C100.666,71.279,148.945,59.937,148.945,59.937z"/>
	</g>
	<g>
		<path fill="#232323" d="M179.299,414.764l22.311,8.299c0,0,18.12-1.828,21.297,8.439c2.083,6.737,2.707,6.371,2.707,6.371
			c-17.792-0.979-63.839-1-63.839-1c0.016-5.845,7.059-21.148,7.059-21.148L179.299,414.764z"/>
		<path fill="#333333" d="M177.405,300.867c0,0,26.052,25.237,25.857,62.687c-0.078,15.187-10.243,36.757-10.171,58.624
			c-2.755,2.436-31.646,10.054-31.646,10.054c2.553-14.448,14.295-49.198,21.018-67.087c4.222-11.236-4.382-42.72-28.468-60.502
			L177.405,300.867z"/>
	</g>
	<g>
		<path fill="#2E2E2E" d="M77.252,394.791l15.896,17.721c0,0,16.894,6.803,14.932,17.37c-1.288,6.933-1.92,9.368-1.92,9.368
			c-15.296-9.137-54.697-33.031-54.697-33.031c2.727-5.166,14.416-13.869,14.416-13.869L77.252,394.791z"/>
		<path fill="#424242" d="M146.779,302.854c0,0,6.57,45.599-16.625,72.057c-11.035,12.588-19.914,17.446-40.076,36.079
			c-3.671-0.223-35.269-10.318-35.269-10.318c10.975-13.018,28.569-21.297,62.438-40.524c11.172-6.342,10.279-39.578,6.743-70.073
			L146.779,302.854z"/>
	</g>
	<path fill="#FAEBE1" d="M189.604,157.506c-0.829,19.683,17.9,119.348,17.229,120.185l-101.997-4.431
		c0.613-3.794,23.821-113.392,26.403-119.482l48.043,13.42L189.604,157.506z"/>
	<path fill="#424242" d="M206.832,277.69c0,0-2.777,20.937-12.179,26.908c-9.411,5.971-60.177,18.246-85.538-5.115
		c-5.277-5.911-6.139-19.069-4.425-26.759L206.832,277.69z"/>
	<polygon fill="#E1D6CF" points="168.295,164.883 149.755,177.102 131.238,153.777 	"/>
	<polygon fill="#E1D6CF" points="189.604,157.506 190.715,173.479 176.2,167.445 	"/>
	<g>
		<polygon fill="#EE8122" points="185.092,177.536 196.212,230.232 181.314,250.443 164.43,228.219 170.314,175.878 		"/>
		<polygon fill="#BE6928" points="185.886,166.381 186.835,177.945 168.951,178.119 168,164.377 		"/>
		<polygon fill="#BE6928" points="186.109,182.355 169.605,182.186 170.214,176.773 185.289,178.467 		"/>
		<polygon fill="#EE8122" points="187.404,168.617 188.31,179.165 167.221,178.947 166.354,166.416 		"/>
	</g>
	<g>
		<path fill="#696969" d="M40.913,284.232l-0.018,6.58c-0.023,7.79,6.277,14.123,14.065,14.143l34.314,0.092
			c7.789,0.022,14.121-6.272,14.141-14.064l0.018-6.58c1.045,2.039-6.119-12.615-14.063-14.14l-34.316-0.093
			C47.266,270.149,40.934,276.443,40.913,284.232z M48.51,286.451c0.014-5.365,4.803-9.704,10.699-9.688l25.966,0.071
			c5.894,0.016,10.665,4.379,10.649,9.746l-0.014,4.533c-0.014,5.369-4.807,9.707-10.699,9.691l-25.969-0.072
			c-5.896-0.016-10.662-4.378-10.645-9.748L48.51,286.451z"/>
		<path fill="#FAAB6D" d="M89.834,260.033c0,0,4.576,17.223-0.461,21.037c-5.038,3.814-8.449,2.742-9.082,1.158
			c-4.2,0.425-22.249,1.549-23.676-0.902c-1.427-2.449-7.396-12.459-2.063-22.669L89.834,260.033z"/>
		<path fill="#E8833E" d="M52.747,263.849c0.329-1.7,0.893-3.44,1.806-5.191l35.281,1.376c0,0,0.641,2.41,1.178,5.625
			C82.464,265.152,65.793,264.234,52.747,263.849z"/>
		<path fill="#7E6B57" d="M1.66,368.977c-0.021,7.789,6.279,14.124,14.067,14.145l112.114,0.307
			c7.788,0.02,14.122-6.281,14.143-14.07l0.177-64.875c0.021-7.787-6.276-14.114-14.065-14.137l-112.113-0.305
			c-7.788-0.021-14.126,6.273-14.146,14.061L1.66,368.977z"/>
		<path fill="#424242" d="M135.001,158.828c0,0-67.618,7.174-83.739,101.439c6.772,0.16,40.354,1.781,40.354,1.781
			c-4.063-33.398-10.555-78.769,42.313-94.189L135.001,158.828z"/>
	</g>
	<polygon fill="#424242" points="131.238,152.035 181.662,216.725 190.715,171.737 208.574,279.433 102.949,274.467 	"/>
	<g>
		<g>
			<path fill="#FAEBE1" d="M164.964,119.148c-9.555,0-17.327-7.771-17.327-17.327c0-9.555,7.772-17.327,17.327-17.327
				s17.327,7.772,17.327,17.327C182.291,111.377,174.519,119.148,164.964,119.148z M164.964,88.494
				c-7.349,0-13.327,5.979-13.327,13.327s5.979,13.327,13.327,13.327s13.327-5.979,13.327-13.327S172.313,88.494,164.964,88.494z"/>
		</g>
		<g>
			<path fill="#FAEBE1" d="M213.365,119.148c-9.555,0-17.327-7.771-17.327-17.327c0-9.555,7.772-17.327,17.327-17.327
				s17.327,7.772,17.327,17.327C230.692,111.377,222.92,119.148,213.365,119.148z M213.365,88.494
				c-7.349,0-13.327,5.979-13.327,13.327s5.979,13.327,13.327,13.327s13.327-5.979,13.327-13.327S220.714,88.494,213.365,88.494z"/>
		</g>
		<g>
			<path fill="#FAEBE1" d="M197,103.531c-9.794-5.948-15.199-0.396-15.253-0.339l-2.912-2.742
				c2.615-2.778,10.212-6.427,20.241-0.339L197,103.531z"/>
		</g>
	</g>
	<g>
		<path fill="#FFFFFF" d="M61.357,341.564c-1.325,1.365-3.242,2.048-5.751,2.048s-4.427-0.683-5.751-2.048
			c-1.777-1.676-2.668-4.088-2.668-7.24c0-3.215,0.891-5.629,2.668-7.239c1.324-1.366,3.242-2.048,5.751-2.048
			s4.426,0.682,5.751,2.048c1.771,1.61,2.655,4.024,2.655,7.239C64.013,337.477,63.128,339.889,61.357,341.564z M59.066,338.896
			c0.852-1.071,1.279-2.596,1.279-4.572c0-1.968-0.428-3.49-1.279-4.566c-0.854-1.076-2.008-1.613-3.46-1.613
			c-1.453,0-2.611,0.536-3.478,1.607c-0.865,1.072-1.298,2.596-1.298,4.572s0.433,3.501,1.298,4.572
			c0.866,1.072,2.024,1.607,3.478,1.607C57.059,340.504,58.212,339.969,59.066,338.896z"/>
		<path fill="#FFFFFF" d="M68.954,336.468v0.405c0.03,1.357,0.17,2.311,0.42,2.862c0.249,0.553,0.784,0.829,1.604,0.829
			c0.813,0,1.351-0.302,1.61-0.906c0.157-0.356,0.235-0.961,0.235-1.809v-12.277h3.667v12.217c0,1.492-0.252,2.676-0.757,3.549
			c-0.854,1.477-2.395,2.215-4.621,2.215c-2.229,0-3.723-0.598-4.482-1.793c-0.761-1.194-1.142-2.824-1.142-4.887v-0.405H68.954z"/>
		<path fill="#FFFFFF" d="M80.433,325.572h3.607v7.231l6.78-7.231h4.739l-7.202,7.22l7.573,10.332h-4.717l-5.407-7.661l-1.767,1.791
			v5.87h-3.607V325.572z"/>
	</g>
</g>
</svg>
