<?xml version="1.0" encoding="utf-8"?>
<!-- Generator: Adobe Illustrator 16.0.0, SVG Export Plug-In . SVG Version: 6.00 Build 0)  -->
<!DOCTYPE svg PUBLIC "-//W3C//DTD SVG 1.0//EN" "http://www.w3.org/TR/2001/REC-SVG-20010904/DTD/svg10.dtd">
<svg version="1.0" id="Layer_1" xmlns="http://www.w3.org/2000/svg" xmlns:xlink="http://www.w3.org/1999/xlink" x="0px" y="0px"
	 width="97.486px" height="100.761px" viewBox="0 0 97.486 100.761" enable-background="new 0 0 97.486 100.761"
	 xml:space="preserve">
<g>
	<g>
		<path fill="#046938" d="M49.81,73.043l17.608-36.995c6.407-13.462,16.333-14.731,16.333-14.731l8.4-17.648l5.334,2.539
			l-8.4,17.648c0,0,5.273,8.504-1.135,21.965L70.343,82.816L49.81,73.043z"/>
		
			<rect x="61.387" y="39.822" transform="matrix(0.9029 0.4298 -0.4298 0.9029 29.1047 -26.2914)" fill="#FAFBF0" width="22.741" height="22.932"/>
		
			<rect x="91.606" y="1.243" transform="matrix(0.903 0.4297 -0.4297 0.903 11.0397 -40.4845)" fill="#E75769" width="7.123" height="5.921"/>
		<circle fill="#FBB93A" cx="71.47" cy="48.615" r="5.872"/>
	</g>
	<path fill="#F1692E" d="M46.809,72.619l2.81-0.971c3.3-1.14,5.064-4.773,3.925-8.07L34.836,9.467
		c-1.14-3.299-4.772-5.064-8.069-3.924l-2.811,0.971c-3.3,1.142-5.064,4.773-3.923,8.07l18.705,54.111
		C39.88,71.994,43.512,73.762,46.809,72.619"/>
	<polygon fill="#F9FAE9" points="36.861,71.853 57.466,64.556 47.901,37.54 22.29,34.254 	"/>
	<path fill="#FBBC3D" d="M46.098,76.691l2.319-1.859c2.725-2.182,3.169-6.193,0.985-8.919L13.612,21.226
		c-2.181-2.724-6.196-3.167-8.921-0.987l-2.32,1.859c-2.722,2.184-3.168,6.197-0.984,8.92l35.791,44.688
		C39.359,78.43,43.374,78.872,46.098,76.691"/>
	<g>
		<path fill="#F1692E" d="M5.162,31.93c-0.354,0-0.665-0.255-0.727-0.612c-0.07-0.401,0.198-0.784,0.601-0.854l9.369-1.635
			c0.415-0.061,0.786,0.201,0.854,0.602c0.07,0.4-0.198,0.783-0.601,0.852l-9.369,1.637C5.247,31.925,5.203,31.93,5.162,31.93z"/>
	</g>
	<g>
		<path fill="#F1692E" d="M10.119,37.439c-0.354,0-0.663-0.25-0.726-0.61c-0.071-0.401,0.198-0.784,0.599-0.854l9.374-1.636
			c0.423-0.066,0.784,0.201,0.854,0.6c0.071,0.402-0.198,0.784-0.599,0.855l-9.374,1.636C10.205,37.436,10.16,37.439,10.119,37.439z
			"/>
	</g>
	<g>
		<path fill="#F1692E" d="M15.082,42.953c-0.354,0-0.665-0.252-0.728-0.611c-0.07-0.401,0.199-0.784,0.601-0.854l9.374-1.635
			c0.415-0.064,0.785,0.202,0.853,0.6c0.071,0.401-0.197,0.784-0.6,0.854l-9.374,1.636C15.166,42.949,15.122,42.953,15.082,42.953z"
			/>
	</g>
	<polygon fill="#F9FAE9" points="36.467,79.309 53.427,65.517 35.345,43.281 10.117,48.787 	"/>
	<path fill="#FBBC3D" d="M81.871,52.09c3.232,11.211-3.235,22.924-14.445,26.158C56.21,81.482,44.5,75.014,41.267,63.801
		C38.031,52.588,44.5,40.877,55.712,37.643C66.925,34.41,78.635,40.877,81.871,52.09"/>
	<path fill="#E6372D" d="M78.816,52.971c2.747,9.525-2.748,19.475-12.272,22.225c-9.526,2.747-19.477-2.75-22.224-12.275
		c-2.749-9.525,2.747-19.477,12.273-22.223C66.118,37.949,76.068,43.443,78.816,52.971"/>
	<path fill="#FBBC3D" d="M76.211,53.723c2.334,8.085-2.33,16.535-10.421,18.867c-8.086,2.333-16.533-2.332-18.867-10.42
		c-2.331-8.088,2.334-16.535,10.42-18.869C65.431,40.968,73.88,45.635,76.211,53.723"/>
	<path fill="#C2B59B" d="M34.05,93.056h34.472c3.372,0,6.328-2.262,7.212-5.517l5.55-20.472H21.288l5.552,20.472
		C27.722,90.794,30.675,93.056,34.05,93.056"/>
	<path fill="#726659" d="M19.759,69.982h62.796c1.577,0,2.852-1.277,2.852-2.854v-1.335c0-1.576-1.274-2.854-2.852-2.854H19.759
		c-1.576,0-2.854,1.278-2.854,2.854v1.335C16.905,68.705,18.183,69.982,19.759,69.982"/>
	<g>
		<path fill="#FBBC3D" d="M34.007,19.091c-0.049,0-0.103-0.005-0.154-0.015l-9.304-1.984c-0.398-0.084-0.653-0.477-0.569-0.876
			c0.085-0.397,0.459-0.665,0.877-0.567l9.305,1.984c0.397,0.084,0.652,0.477,0.568,0.874
			C34.655,18.854,34.349,19.091,34.007,19.091z"/>
		<path fill="#FBBC3D" d="M36.548,26.057c-0.051,0-0.102-0.004-0.155-0.016l-9.305-1.983c-0.397-0.085-0.652-0.477-0.567-0.876
			c0.084-0.397,0.466-0.664,0.875-0.567l9.305,1.983c0.398,0.084,0.654,0.477,0.569,0.875C37.196,25.82,36.891,26.057,36.548,26.057
			z"/>
		<path fill="#FBBC3D" d="M39.092,33.021c-0.051,0-0.102-0.003-0.155-0.015l-9.303-1.983c-0.398-0.084-0.653-0.477-0.569-0.874
			c0.085-0.397,0.471-0.659,0.875-0.569l9.306,1.984c0.397,0.084,0.654,0.476,0.568,0.873C39.74,32.786,39.435,33.021,39.092,33.021
			z"/>
	</g>
</g>
</svg>
