<?xml version="1.0" encoding="utf-8"?>
<!-- Generator: Adobe Illustrator 16.0.0, SVG Export Plug-In . SVG Version: 6.00 Build 0)  -->
<!DOCTYPE svg PUBLIC "-//W3C//DTD SVG 1.1//EN" "http://www.w3.org/Graphics/SVG/1.1/DTD/svg11.dtd">
<svg version="1.1" id="Layer_1" xmlns="http://www.w3.org/2000/svg" xmlns:xlink="http://www.w3.org/1999/xlink" x="0px" y="0px"
	 width="100.781px" height="163.594px" viewBox="0 0 100.781 163.594" enable-background="new 0 0 100.781 163.594"
	 xml:space="preserve">
<g>
	<path fill="#FAAB6D" d="M18.639,54.778c0,0-0.589-8.386-3.419-9.319c-2.831-0.933-4.19,0.066-4.23,0.87
		c-1.94,0.452-10.167,2.707-10.43,4.019c-0.264,1.313-1.397,6.691,2.542,10.434L18.639,54.778z"/>
	<path fill="#E8833E" d="M1.502,58.74c0.407,0.709,0.924,1.399,1.601,2.041l15.537-6.003c0,0-0.082-1.174-0.333-2.691
		C14.567,53.619,7.267,56.574,1.502,58.74z"/>
	<path fill="#C15BB7" d="M54.258,93.051c0,0-31.275,7.127-52.87-32.485c2.997-1.106,17.738-6.96,17.738-6.96
		c3.288,15.529,7.321,36.771,33.273,35.578L54.258,93.051z"/>
</g>
<path fill="#696969" d="M77.034,88.808c0,0-8.323,2.815-27.583,0.64l2.992,4.832l19.849-0.412L77.034,88.808z"/>
<rect x="51.717" y="85.608" transform="matrix(-0.9999 0.0133 -0.0133 -0.9999 125.5661 185.3816)" fill="#FAAB6D" width="20.897" height="15.002"/>
<path fill="#E8833E" d="M51.644,87.469c0,0,5.239,3.914,11.65,3.828s9.245-4.107,9.245-4.107S58.663,83.646,51.644,87.469z"/>
<g>
	<path fill="#424242" d="M93.839,39.022c6.819-3.21,11.124,2.479,0.669,25.382c-8.604,18.853-4.166-4.679-4.166-4.679L93.839,39.022
		z"/>
	<path fill="#FAAB6D" d="M39.882,74.521c1.245,3.407,3.296,6.463,6.471,8.896c4.146,3.176,10.261,4.742,15.321,5.601
		c7.019,1.188,14.39,1.562,20.14-3.261c9.514-7.979,10.834-22.614,12.188-34.026c0.54-4.545,0.488-8.195,0.104-10.529
		c-2.813-0.387-5.626-0.774-8.437-1.162c-0.477-0.064-0.952-0.131-1.427-0.196c-9.381-1.294-18.762-4.588-28.144-5.88
		c-0.898-0.124-1.799-0.248-2.696-0.373c-3.368-0.464-6.736,1.072-10.105,0.607c-0.675,2.057-1.213,5.313-2.099,9.352
		C39.195,52.676,36.393,64.98,39.882,74.521z"/>
	<path fill="#424242" d="M95.435,52.443c0.54-4.545,1.204-9.629,0.817-11.962c-2.169-0.298-6.486,0.12-8.655-0.179l-10.307,4.975
		c0,0,7.236,4.507,8.463,5.636c1.229,1.13,0.943,8.411,0.943,8.411l-0.712,21.835C91.771,72.896,94.311,61.918,95.435,52.443z"/>
	<circle fill="#424242" cx="44.312" cy="53.258" r="3.432"/>
	<circle fill="#424242" cx="68.091" cy="59.193" r="3.431"/>
	<g>
		<path fill="#424242" d="M40.197,44.661c3.691-2.715,8.087-0.313,10.687,2.685c1.297,1.496,3.817-0.303,2.512-1.81
			c-3.706-4.273-9.854-7.175-15.008-3.386C36.781,43.332,38.589,45.844,40.197,44.661L40.197,44.661z"/>
	</g>
	<g>
		<path fill="#424242" d="M77.324,50.543c-3.692-5.224-10.444-4.412-15.309-1.527c-1.716,1.017,0.106,3.52,1.811,2.51
			c3.414-2.023,8.342-2.914,10.988,0.827C75.966,53.981,78.476,52.17,77.324,50.543L77.324,50.543z"/>
	</g>
	<g>
		<g>
			<path fill="#F6A569" d="M86.697,59.324c9.436-3.709,11.051,12.551-0.986,6.691L86.697,59.324z"/>
			<path fill="#E8833E" d="M87.802,62.535c4.338-1.277,3.763,3.895-0.39,1.854L87.802,62.535z"/>
		</g>
		
			<ellipse transform="matrix(0.3491 -0.9371 0.9371 0.3491 2.4431 124.9744)" opacity="0.3" fill="#FFFFFF" enable-background="new    " cx="91.184" cy="60.729" rx="0.877" ry="1.512"/>
	</g>
	<ellipse fill="#BD7E50" cx="50.303" cy="75.069" rx="4.938" ry="6.46"/>
	<path fill="#424242" d="M43.297,34.195c0,0-4.371-11.906,0-23.884C46,14.334,53.898,22.254,53.898,22.254s3.422-17.92,7.428-21.92
		C62,7.666,74.333,22,74.333,22S80.992,5.334,86.829,2.334c0.838,14,15.979,29.187,13.408,38.093
		c-2.57,8.907-14.568-0.39-14.568-0.39S54.926,33.724,43.297,34.195z"/>
</g>
<path fill="#EF7BDE" d="M49.451,89.448c0.014,9.293-10.725,55.913-10.424,56.32l48.163-0.135
	c-0.216-1.801-9.057-53.905-10.156-56.826c0,0-18.223,6.369-22.903,5.404C49.451,93.25,49.451,89.448,49.451,89.448z"/>
<path fill="#424242" d="M39.027,145.769c0,0,0.908,9.922,5.226,12.917c4.321,2.994,28.017,9.754,40.418-0.771
	c2.602-2.686,3.26-8.871,2.6-12.529L39.027,145.769z"/>
<g>
	<path fill="#FAAB6D" d="M30.257,92.18c0,0-5.947-5.941-8.695-4.787c-2.749,1.154-3.118,2.8-2.621,3.434
		c-1.167,1.613-5.895,8.715-5.231,9.877s3.337,5.965,8.767,6.203L30.257,92.18z"/>
	<path fill="#E8833E" d="M19.928,106.417c0.771,0.268,1.614,0.449,2.546,0.49l7.782-14.728c0,0-0.833-0.832-2.019-1.812
		C26.424,93.978,22.855,100.999,19.928,106.417z"/>
	<path fill="#EF7BDE" d="M82.249,97.679c0,0-18.92,25.903-61.211,10.19c1.536-2.804,8.817-16.895,8.817-16.895
		c12.672,9.559,29.656,22.938,48.453,5.005L82.249,97.679z"/>
</g>
<circle fill="#424242" cx="53.899" cy="116.154" r="6.155"/>
<polygon fill="#424242" points="58.333,116.154 63.932,110 56.667,113.079 "/>
<polygon fill="#424242" points="50.803,113.245 48,109 49,115 "/>
</svg>
