<?xml version="1.0" encoding="utf-8"?>
<!-- Generator: Adobe Illustrator 16.0.0, SVG Export Plug-In . SVG Version: 6.00 Build 0)  -->
<!DOCTYPE svg PUBLIC "-//W3C//DTD SVG 1.1//EN" "http://www.w3.org/Graphics/SVG/1.1/DTD/svg11.dtd">
<svg version="1.1" id="Layer_1" xmlns="http://www.w3.org/2000/svg" xmlns:xlink="http://www.w3.org/1999/xlink" x="0px" y="0px"
	 width="62.4px" height="64.861px" viewBox="0 0 62.4 64.861" enable-background="new 0 0 62.4 64.861" xml:space="preserve">
<g>
	<g>
		<path fill="#FAAB6D" d="M8.484,32.783l-2.479-4.845l-3.771-9.951c0,0-2.44-10.022-2.219-10.64
			c0.603-1.679,2.555-1.743,3.543-0.807c0.641,0.605,1.904,8.665,1.904,8.665l1.61-0.258c0,0-0.922-10.162-0.948-12.174
			c-0.027-2.208,3.924-2.04,4.136-0.628C10.495,3.709,11.239,13.4,11.239,13.4l2.131-0.166c0,0-0.188-8.967,0.081-12.05
			c0.148-1.693,3.456-1.493,3.786,0.114c0.166,0.811,0.279,12.008,0.279,12.008l3.121,8.99l-0.938,7.836L8.484,32.783z"/>
		<polygon fill="#E8833E" points="20.637,22.296 18.961,17.467 18.597,18.185 11.282,20.939 11.398,26.222 19.207,30.154 
			19.856,28.818 		"/>
		<path fill="#FAAB6D" d="M18.725,30.593c0,0,5.729-6.947,6.188-8.973c0.46-2.026,0.254-5.32-0.086-6.928
			c-0.467-2.214,0.521-3.312-0.324-4.316c-0.64-0.764-3.408-0.697-3.65,0.947c-0.244,1.657-0.007,4.136-0.098,4.65
			c-0.09,0.516-1.765,3.042-1.765,3.042l-6.275,2.058l-1.234,5.174L18.725,30.593z"/>
	</g>
	<path fill="#C15BB7" d="M62.4,61.839c0,0-32.454,17.165-56.091-30.319c4.016-1.354,15.711-4.803,15.711-4.803
		c6.014,16.34,16.867,39.605,37.755,31.217L62.4,61.839z"/>
</g>
</svg>
