<?xml version="1.0" encoding="utf-8"?>
<!-- Generator: Adobe Illustrator 16.0.0, SVG Export Plug-In . SVG Version: 6.00 Build 0)  -->
<!DOCTYPE svg PUBLIC "-//W3C//DTD SVG 1.1//EN" "http://www.w3.org/Graphics/SVG/1.1/DTD/svg11.dtd">
<svg version="1.1" id="Layer_1" xmlns="http://www.w3.org/2000/svg" xmlns:xlink="http://www.w3.org/1999/xlink" x="0px" y="0px"
	 width="112.793px" height="153.594px" viewBox="0 0 112.793 153.594" enable-background="new 0 0 112.793 153.594"
	 xml:space="preserve">
<g>
	<path fill="#FAAB6D" d="M94.361,44.778c0,0,0.589-8.386,3.419-9.319c2.831-0.933,4.19,0.066,4.23,0.87
		c1.939,0.452,10.167,2.707,10.43,4.019c0.264,1.313,1.396,6.691-2.542,10.434L94.361,44.778z"/>
	<path fill="#E8833E" d="M111.499,48.74c-0.408,0.709-0.926,1.399-1.601,2.041l-15.537-6.003c0,0,0.082-1.174,0.333-2.691
		C98.433,43.619,105.733,46.574,111.499,48.74z"/>
	<path fill="#C15BB7" d="M58.743,83.051c0,0,31.275,7.127,52.87-32.485c-2.997-1.106-17.739-6.96-17.739-6.96
		c-3.287,15.529-7.32,36.771-33.272,35.578L58.743,83.051z"/>
</g>
<path fill="#696969" d="M35.966,78.808c0,0,8.323,2.815,27.583,0.64l-2.992,4.832l-19.849-0.412L35.966,78.808z"/>
<rect x="40.382" y="75.61" transform="matrix(0.9999 0.0133 -0.0133 0.9999 1.1075 -0.6673)" fill="#FAAB6D" width="20.898" height="15.002"/>
<path fill="#E8833E" d="M61.356,77.469c0,0-5.24,3.914-11.651,3.828S40.46,77.19,40.46,77.19S54.336,73.646,61.356,77.469z"/>
<g>
	<path fill="#636363" d="M19.161,29.022c-6.819-3.21-11.124,2.479-0.669,25.382c8.605,18.852,4.166-4.679,4.166-4.679L19.161,29.022
		z"/>
	<path fill="#FAAB6D" d="M73.118,64.521c-1.246,3.407-3.295,6.463-6.47,8.896c-4.147,3.176-10.261,4.742-15.322,5.6
		c-7.018,1.188-14.389,1.562-20.139-3.261c-9.514-7.978-10.834-22.614-12.188-34.026c-0.54-4.545-0.488-8.195-0.104-10.529
		c2.813-0.387,5.626-0.774,8.436-1.162c0.476-0.064,0.952-0.131,1.427-0.196c9.381-1.294,18.762-2.588,28.144-3.88
		c0.897-0.124,1.798-0.248,2.696-0.373c3.367-0.464,6.736-0.928,10.105-1.393c0.674,2.057,1.213,5.313,2.098,9.352
		C73.805,42.676,76.607,54.98,73.118,64.521z"/>
	<path fill="#636363" d="M17.565,42.443c-0.54-4.545-1.203-9.629-0.818-11.962c2.169-0.298,6.487,0.12,8.656-0.179l10.306,4.975
		c0,0-7.236,4.507-8.463,5.636c-1.228,1.13-0.943,8.411-0.943,8.411l0.712,21.835C21.229,62.896,18.689,51.918,17.565,42.443z"/>
	<path fill="#EF7BDE" d="M71.12,30.303c0,0-24.148,12.671-59.01,9.559c0,0-2.199-5.287-0.892-9.559
		C12.525,26.031,69.5,20.5,69.5,20.5L71.12,30.303z"/>
	<path fill="#424242" d="M74.721,21.691c-0.555,2.857-5.573,5.154-9.85,3.991c0,0,1.569,0.487,4.275,1.163
		c6.693,1.674-27.19,22.592-50.252,4.354C-4.165,12.963,23.487,1.053,37.344,0.406c15.549-0.725,27.646,2.698,34.553,9.654
		c6.904,6.955-5.991,3.494-5.991,3.494S76.238,13.86,74.721,21.691z"/>
	<circle fill="#424242" cx="68.688" cy="43.258" r="3.431"/>
	<circle fill="#424242" cx="44.909" cy="49.193" r="3.431"/>
	<g>
		<path fill="#424242" d="M72.803,34.661c-3.691-2.715-8.088-0.313-10.688,2.685c-1.296,1.496-3.816-0.303-2.51-1.81
			c3.705-4.273,9.854-7.175,15.007-3.386C76.219,33.332,74.411,35.844,72.803,34.661L72.803,34.661z"/>
	</g>
	<g>
		<path fill="#424242" d="M35.676,40.543c3.692-5.224,10.443-4.412,15.309-1.527c1.715,1.017-0.107,3.52-1.811,2.51
			c-3.414-2.023-8.343-2.914-10.988,0.827C37.034,43.981,34.524,42.17,35.676,40.543L35.676,40.543z"/>
	</g>
	<g>
		<g>
			<path fill="#F6A569" d="M26.303,49.324c-9.436-3.709-11.051,12.551,0.985,6.691L26.303,49.324z"/>
			<path fill="#E8833E" d="M25.198,52.535c-4.339-1.277-3.763,3.895,0.389,1.854L25.198,52.535z"/>
		</g>
		
			<ellipse transform="matrix(0.3496 0.9369 -0.9369 0.3496 61.7075 12.5503)" opacity="0.3" fill="#FFFFFF" enable-background="new    " cx="21.814" cy="50.72" rx="0.877" ry="1.512"/>
	</g>
	<ellipse fill="#BD7E50" cx="62.697" cy="65.069" rx="4.938" ry="6.46"/>
</g>
<path fill="#EF7BDE" d="M63.549,79.448c-0.014,9.293,10.724,55.913,10.424,56.32l-48.164-0.135
	c0.217-1.801,9.057-53.905,10.157-56.826c0,0,18.223,6.369,22.904,5.404C63.549,83.25,63.549,79.448,63.549,79.448z"/>
<path fill="#424242" d="M73.973,135.769c0,0-0.908,9.922-5.227,12.917c-4.32,2.994-28.016,9.754-40.417-0.771
	c-2.601-2.686-3.259-8.871-2.598-12.529L73.973,135.769z"/>
<g>
	<path fill="#FAAB6D" d="M18.324,131.32c0,0,2.957,7.869,0.771,9.896c-2.186,2.027-3.837,1.685-4.209,0.971
		c-1.951,0.396-10.371,1.771-11.155,0.689c-0.785-1.084-4.058-5.502-2.034-10.545L18.324,131.32z"/>
	<path fill="#E8833E" d="M1.094,134.854c0.074-0.813,0.258-1.656,0.604-2.521l16.627-1.012c0,0,0.413,1.102,0.816,2.586
		C15.104,134.069,7.236,134.422,1.094,134.854z"/>
	<path fill="#EF7BDE" d="M34.77,81.691c0,0-31.403,6.544-34.541,51.552c3.187-0.242,19.026-1.062,19.026-1.062
		c-3.477-15.486-8.656-36.479,15.436-46.201L34.77,81.691z"/>
</g>
<circle fill="#424242" cx="59.101" cy="106.154" r="6.155"/>
<polygon fill="#424242" points="54.667,106.154 49.068,100 56.333,103.079 "/>
<polygon fill="#424242" points="62.197,103.245 65,99 64,105 "/>
</svg>
