<?xml version="1.0" encoding="utf-8"?>
<!-- Generator: Adobe Illustrator 16.0.0, SVG Export Plug-In . SVG Version: 6.00 Build 0)  -->
<!DOCTYPE svg PUBLIC "-//W3C//DTD SVG 1.0//EN" "http://www.w3.org/TR/2001/REC-SVG-20010904/DTD/svg10.dtd">
<svg version="1.0" id="Layer_1" xmlns="http://www.w3.org/2000/svg" xmlns:xlink="http://www.w3.org/1999/xlink" x="0px" y="0px"
	 width="112.794px" height="147.595px" viewBox="0 0 112.794 147.595" enable-background="new 0 0 112.794 147.595"
	 xml:space="preserve">
<g>
	<path fill="#FAAB6D" d="M94.361,38.778c0,0,0.588-8.386,3.419-9.319s4.19,0.066,4.23,0.87c1.939,0.452,10.167,2.707,10.43,4.019
		c0.263,1.313,1.397,6.691-2.542,10.434L94.361,38.778z"/>
	<path fill="#E8833E" d="M111.498,42.74c-0.407,0.709-0.925,1.399-1.6,2.041l-15.537-6.003c0,0,0.082-1.174,0.333-2.691
		C98.433,37.619,105.733,40.574,111.498,42.74z"/>
	<path fill="#9F302E" d="M58.742,77.051c0,0,31.276,7.127,52.871-32.485c-2.998-1.106-17.739-6.96-17.739-6.96
		c-3.288,15.529-7.321,36.771-33.273,35.578L58.742,77.051z"/>
</g>
<path fill="#696969" d="M35.966,72.808c0,0,8.323,2.815,27.583,0.64l-2.992,4.832l-19.849-0.412L35.966,72.808z"/>
<rect x="40.382" y="69.608" transform="matrix(-0.9999 -0.0133 0.0133 -0.9999 100.6317 154.8889)" fill="#FAAB6D" width="20.898" height="15.002"/>
<path fill="#E8833E" d="M61.356,71.469c0,0-5.24,3.914-11.651,3.828c-6.411-0.085-9.245-4.107-9.245-4.107
	S54.336,67.646,61.356,71.469z"/>
<g>
	<path fill="#424242" d="M19.161,23.022c-6.819-3.21-11.124,2.479-0.669,25.382c8.605,18.852,4.166-4.679,4.166-4.679L19.161,23.022
		z"/>
	<path fill="#FAAB6D" d="M73.118,58.521c-1.246,3.407-3.295,6.463-6.47,8.896c-4.147,3.176-10.261,4.742-15.322,5.6
		c-7.018,1.189-14.389,1.561-20.139-3.261c-9.514-7.978-10.834-22.614-12.188-34.026c-0.54-4.545-0.488-8.195-0.104-10.529
		c2.813-0.387,5.626-0.774,8.436-1.162c0.476-0.064,0.952-0.131,1.427-0.196c9.381-1.294,18.762-2.588,28.144-3.88
		c0.898-0.124,1.798-0.248,2.696-0.373c3.368-0.464,6.736-0.928,10.105-1.393c0.675,2.057,1.213,5.313,2.099,9.352
		C73.805,36.676,76.607,48.98,73.118,58.521z"/>
	<path fill="#424242" d="M17.565,36.443c-0.54-4.545-1.203-9.629-0.818-11.962c2.169-0.298,6.487,0.12,8.656-0.179l10.306,4.975
		c0,0-7.236,4.507-8.463,5.636c-1.228,1.13-0.943,8.411-0.943,8.411l0.712,21.835C21.229,56.896,18.689,45.918,17.565,36.443z"/>
	<circle fill="#424242" cx="68.688" cy="37.258" r="3.431"/>
	<circle fill="#424242" cx="44.909" cy="43.193" r="3.431"/>
	<g>
		<path fill="#424242" d="M72.803,28.661c-3.691-2.715-8.087-0.313-10.687,2.685c-1.296,1.496-3.817-0.303-2.51-1.81
			c3.705-4.273,9.854-7.175,15.007-3.386C76.219,27.332,74.41,29.844,72.803,28.661L72.803,28.661z"/>
	</g>
	<g>
		<path fill="#424242" d="M35.676,34.543c3.692-5.224,10.443-4.412,15.309-1.527c1.715,1.017-0.107,3.52-1.811,2.51
			c-3.414-2.023-8.343-2.914-10.988,0.827C37.034,37.981,34.524,36.17,35.676,34.543L35.676,34.543z"/>
	</g>
	<g>
		<g>
			<path fill="#F6A569" d="M26.303,43.324c-9.436-3.709-11.051,12.551,0.985,6.691L26.303,43.324z"/>
			<path fill="#E8833E" d="M25.198,46.535c-4.339-1.277-3.763,3.895,0.389,1.854L25.198,46.535z"/>
		</g>
		
			<ellipse transform="matrix(-0.937 0.3495 -0.3495 -0.937 57.8886 78.9993)" opacity="0.3" fill="#FFFFFF" cx="21.818" cy="44.722" rx="1.512" ry="0.877"/>
	</g>
	<ellipse fill="#BD7E50" cx="62.697" cy="59.069" rx="4.938" ry="6.46"/>
	<path fill="#424242" d="M54.801,20.25c0,0-20.567,20.463-36.06,17.355c0,0-6.554-0.105-6.522-10.355S22.375-1.75,46.688,2
		c16.063-9,33.631,9.77,24.347,21.885C61.75,22.75,54.801,20.25,54.801,20.25z"/>
</g>
<path fill="#E6362D" d="M63.549,73.447c-0.014,9.294,10.724,55.914,10.424,56.321l-48.164-0.135
	c0.217-1.8,9.057-53.905,10.157-56.826c0,0,18.223,6.369,22.903,5.405C63.549,77.25,63.549,73.447,63.549,73.447z"/>
<path fill="#424242" d="M73.973,129.769c0,0-0.908,9.922-5.226,12.917c-4.321,2.994-28.016,9.754-40.418-0.772
	c-2.601-2.685-3.259-8.871-2.598-12.528L73.973,129.769z"/>
<g>
	<path fill="#FAAB6D" d="M18.324,125.32c0,0,2.957,7.869,0.771,9.896s-3.837,1.684-4.209,0.97
		c-1.951,0.397-10.371,1.772-11.155,0.689c-0.785-1.083-4.058-5.501-2.034-10.544L18.324,125.32z"/>
	<path fill="#E8833E" d="M1.094,128.854c0.074-0.813,0.258-1.657,0.604-2.521l16.627-1.012c0,0,0.413,1.101,0.816,2.585
		C15.104,128.069,7.236,128.422,1.094,128.854z"/>
	<path fill="#E6362D" d="M34.77,75.691c0,0-31.403,6.544-34.541,51.551c3.187-0.242,19.026-1.061,19.026-1.061
		c-3.477-15.486-8.656-36.479,15.436-46.201L34.77,75.691z"/>
</g>
<circle fill="#424242" cx="59.101" cy="100.154" r="6.155"/>
<polygon fill="#424242" points="54.667,100.154 49.068,94 56.333,97.078 "/>
<polygon fill="#424242" points="62.197,97.244 65,93 64,99 "/>
</svg>
