<?xml version="1.0" encoding="utf-8"?>
<!-- Generator: Adobe Illustrator 16.0.0, SVG Export Plug-In . SVG Version: 6.00 Build 0)  -->
<!DOCTYPE svg PUBLIC "-//W3C//DTD SVG 1.0//EN" "http://www.w3.org/TR/2001/REC-SVG-20010904/DTD/svg10.dtd">
<svg version="1.0" id="Layer_1" xmlns="http://www.w3.org/2000/svg" xmlns:xlink="http://www.w3.org/1999/xlink" x="0px" y="0px"
	 width="85.953px" height="203.37px" viewBox="0 0 85.953 203.37" enable-background="new 0 0 85.953 203.37" xml:space="preserve">
<path fill="#696969" d="M51.034,68.808c0,0-8.323,2.815-27.583,0.64l2.992,4.832l19.849-0.412L51.034,68.808z"/>
<rect x="25.719" y="65.608" transform="matrix(0.9999 -0.0133 0.0133 0.9999 -0.9704 0.4882)" fill="#FAAB6D" width="20.898" height="15.002"/>
<path fill="#E8833E" d="M25.644,67.469c0,0,5.24,3.914,11.651,3.828c6.411-0.085,9.245-4.107,9.245-4.107
	S32.663,63.646,25.644,67.469z"/>
<g>
	<path fill="#FAAB6D" d="M17.297,14.195c0,0,6.497-19.195,34.934-13.195s21.308,30.179,21.308,30.179L17.297,14.195z"/>
	<path fill="#424242" d="M67.839,19.022c6.819-3.21,11.124,2.479,0.669,25.382c-8.605,18.852-4.166-4.679-4.166-4.679L67.839,19.022
		z"/>
	<path fill="#FAAB6D" d="M13.882,54.521c1.245,3.407,3.295,6.463,6.47,8.896c4.147,3.176,10.261,4.742,15.322,5.6
		c7.018,1.189,14.39,1.561,20.139-3.261c9.514-7.978,10.834-22.614,12.188-34.026c0.54-4.545,0.488-8.195,0.104-10.529
		c-2.813-0.387-5.625-0.774-8.436-1.162c-0.477-0.064-0.952-0.131-1.427-0.196c-9.381-1.294-18.762-2.588-28.144-3.88
		c-0.898-0.124-1.798-0.248-2.696-0.373c-3.368-0.464-6.736-0.928-10.105-1.393c-0.675,2.057-1.213,5.313-2.099,9.352
		C13.195,32.676,10.393,44.98,13.882,54.521z"/>
	<path fill="#424242" d="M69.435,32.443c0.54-4.545,1.204-11.629,0.818-13.962c-2.169-0.298-6.487,2.12-8.656,1.821l-10.306,4.975
		c0,0,7.236,4.507,8.463,5.636c1.228,1.13,0.943,8.411,0.943,8.411l-0.712,21.835C65.771,52.896,68.31,41.918,69.435,32.443z"/>
	<circle fill="#424242" cx="18.312" cy="33.258" r="3.432"/>
	<circle fill="#424242" cx="42.091" cy="39.193" r="3.431"/>
	<g>
		<path fill="#424242" d="M14.197,24.661c3.691-2.715,8.087-0.313,10.687,2.685c1.296,1.496,3.817-0.303,2.511-1.81
			c-3.706-4.273-9.854-7.175-15.008-3.386C10.781,23.332,12.589,25.844,14.197,24.661L14.197,24.661z"/>
	</g>
	<g>
		<path fill="#424242" d="M51.324,30.543c-3.692-5.224-10.444-4.412-15.309-1.527c-1.715,1.017,0.107,3.52,1.811,2.51
			c3.414-2.023,8.342-2.914,10.988,0.827C49.966,33.981,52.476,32.17,51.324,30.543L51.324,30.543z"/>
	</g>
	<g>
		<g>
			<path fill="#F6A569" d="M60.697,39.324c9.436-3.709,11.051,12.551-0.986,6.691L60.697,39.324z"/>
			<path fill="#E8833E" d="M61.802,42.535c4.338-1.277,3.763,3.895-0.389,1.854L61.802,42.535z"/>
		</g>
		
			<ellipse transform="matrix(0.937 0.3495 -0.3495 0.937 18.3402 -20.2111)" opacity="0.3" fill="#FFFFFF" cx="65.182" cy="40.722" rx="1.512" ry="0.877"/>
	</g>
	<path fill="#BD7E50" d="M19.76,51.721c-1.973-4.189,14.423,7.597,22.332-0.896C40,60,29.521,72.441,19.76,51.721z"/>
</g>
<g>
	<path fill="#232323" d="M23.337,192.431l-10.431,4.161c0,0-8.566-0.663-9.951,4.215c-0.907,3.201-1.206,3.035-1.206,3.035
		c8.38-0.658,30.098-1.178,30.098-1.178c-0.072-2.756-3.563-9.896-3.563-9.896L23.337,192.431z"/>
	<path fill="#333333" d="M22.971,138.692c0,0-12.008,12.19-11.502,29.851c0.205,7.162,5.237,17.223,5.445,27.537
		c1.326,1.117,15.036,4.391,15.036,4.391c-1.363-6.785-7.285-23.045-10.653-31.406c-2.116-5.253,1.594-20.197,12.757-28.85
		L22.971,138.692z"/>
</g>
<g>
	<path fill="#2E2E2E" d="M44.409,192.458L33.656,195.7c0,0-8.476-1.401-10.276,3.339c-1.182,3.109-1.524,4.246-1.524,4.246
		C30.261,203.354,52,203.388,52,203.388c0.168-2.751-2.409-9.124-2.409-9.124L44.409,192.458z"/>
	<path fill="#424242" d="M38.938,138.355c0,0-13.831,16.766-10.973,33.116c1.36,7.779,3.747,11.915,7.303,24.369
		c1.533,0.811,16.744,4.491,16.744,4.491c-1.23-7.938-6.291-15.59-15.225-31.645c-2.946-5.295,5.564-18.471,14.469-29.893
		L38.938,138.355z"/>
</g>
<path fill="#E6362D" d="M23.451,69.447c0.014,9.294-10.725,55.914-10.424,56.321l48.163-0.135
	c-0.216-1.8-9.056-53.905-10.156-56.826c0,0-18.223,6.369-22.903,5.405C23.451,73.25,23.451,69.447,23.451,69.447z"/>
<path fill="#424242" d="M13.027,125.769c0,0,0.908,9.922,5.226,12.917c4.321,2.994,28.016,9.754,40.418-0.772
	c2.601-2.685,3.259-8.871,2.599-12.528L13.027,125.769z"/>
<g>
	<path fill="#FAAB6D" d="M68.676,121.32c0,0-2.957,7.869-0.771,9.896s3.837,1.684,4.209,0.97c1.951,0.397,10.37,1.772,11.155,0.689
		s4.057-5.501,2.034-10.544L68.676,121.32z"/>
	<path fill="#E8833E" d="M85.906,124.854c-0.075-0.813-0.258-1.657-0.604-2.521l-16.627-1.012c0,0-0.413,1.101-0.817,2.585
		C71.895,124.069,79.764,124.422,85.906,124.854z"/>
	<path fill="#E6362D" d="M52.23,71.691c0,0,31.403,6.544,34.541,51.551c-3.187-0.242-19.026-1.061-19.026-1.061
		c3.478-15.486,8.656-36.479-15.437-46.201L52.23,71.691z"/>
</g>
<circle fill="#424242" cx="27.899" cy="96.154" r="6.155"/>
<polygon fill="#424242" points="32.333,96.154 37.932,90 30.667,93.078 "/>
<polygon fill="#424242" points="24.803,93.244 22,89 23,95 "/>
</svg>
