<?xml version="1.0" encoding="utf-8"?>
<!-- Generator: Adobe Illustrator 16.0.0, SVG Export Plug-In . SVG Version: 6.00 Build 0)  -->
<!DOCTYPE svg PUBLIC "-//W3C//DTD SVG 1.0//EN" "http://www.w3.org/TR/2001/REC-SVG-20010904/DTD/svg10.dtd">
<svg version="1.0" id="Layer_1" xmlns="http://www.w3.org/2000/svg" xmlns:xlink="http://www.w3.org/1999/xlink" x="0px" y="0px"
	 width="100.781px" height="163.595px" viewBox="0 0 100.781 163.595" enable-background="new 0 0 100.781 163.595"
	 xml:space="preserve">
<g>
	<path fill="#FAAB6D" d="M18.639,54.778c0,0-0.588-8.386-3.419-9.319s-4.19,0.066-4.23,0.87c-1.94,0.452-10.167,2.707-10.43,4.019
		c-0.263,1.313-1.397,6.691,2.542,10.434L18.639,54.778z"/>
	<path fill="#E8833E" d="M1.502,58.74c0.407,0.709,0.924,1.399,1.6,2.041l15.537-6.003c0,0-0.082-1.174-0.333-2.691
		C14.567,53.619,7.267,56.574,1.502,58.74z"/>
	<path fill="#9F302E" d="M54.258,93.051c0,0-31.276,7.127-52.871-32.485c2.998-1.106,17.739-6.96,17.739-6.96
		c3.288,15.529,7.321,36.771,33.273,35.578L54.258,93.051z"/>
</g>
<path fill="#696969" d="M77.034,88.808c0,0-8.323,2.815-27.583,0.64l2.992,4.832l19.849-0.412L77.034,88.808z"/>
<rect x="51.719" y="85.608" transform="matrix(0.9999 -0.0133 0.0133 0.9999 -1.2345 0.8362)" fill="#FAAB6D" width="20.898" height="15.002"/>
<path fill="#E8833E" d="M51.644,87.469c0,0,5.24,3.914,11.651,3.828c6.411-0.085,9.245-4.107,9.245-4.107
	S58.663,83.646,51.644,87.469z"/>
<g>
	<path fill="#424242" d="M93.839,39.022c6.819-3.21,11.124,2.479,0.669,25.382c-8.605,18.852-4.166-4.679-4.166-4.679L93.839,39.022
		z"/>
	<path fill="#FAAB6D" d="M39.882,74.521c1.245,3.407,3.295,6.463,6.47,8.896c4.147,3.176,10.261,4.742,15.322,5.6
		c7.018,1.189,14.389,1.561,20.139-3.261c9.514-7.978,10.834-22.614,12.188-34.026c0.54-4.545,0.488-8.195,0.104-10.529
		c-2.813-0.387-5.626-0.774-8.436-1.162c-0.477-0.064-0.952-0.131-1.427-0.196c-9.381-1.294-18.762-4.588-28.144-5.88
		c-0.898-0.124-1.798-0.248-2.696-0.373c-3.368-0.464-6.736,1.072-10.105,0.607c-0.675,2.057-1.213,5.313-2.099,9.352
		C39.195,52.676,36.393,64.98,39.882,74.521z"/>
	<path fill="#424242" d="M95.435,52.443c0.54-4.545,1.204-9.629,0.818-11.962c-2.169-0.298-6.487,0.12-8.656-0.179l-10.306,4.975
		c0,0,7.236,4.507,8.463,5.636c1.228,1.13,0.943,8.411,0.943,8.411l-0.712,21.835C91.771,72.896,94.311,61.918,95.435,52.443z"/>
	<circle fill="#424242" cx="44.312" cy="53.258" r="3.432"/>
	<circle fill="#424242" cx="68.091" cy="59.193" r="3.431"/>
	<g>
		<path fill="#424242" d="M40.197,44.661c3.691-2.715,8.087-0.313,10.687,2.685c1.296,1.496,3.817-0.303,2.511-1.81
			c-3.706-4.273-9.854-7.175-15.008-3.386C36.781,43.332,38.589,45.844,40.197,44.661L40.197,44.661z"/>
	</g>
	<g>
		<path fill="#424242" d="M77.324,50.543c-3.692-5.224-10.444-4.412-15.309-1.527c-1.715,1.017,0.107,3.52,1.811,2.51
			c3.414-2.023,8.342-2.914,10.988,0.827C75.966,53.981,78.476,52.17,77.324,50.543L77.324,50.543z"/>
	</g>
	<g>
		<g>
			<path fill="#F6A569" d="M86.697,59.324c9.436-3.709,11.051,12.551-0.986,6.691L86.697,59.324z"/>
			<path fill="#E8833E" d="M87.802,62.535c4.338-1.277,3.763,3.895-0.389,1.854L87.802,62.535z"/>
		</g>
		
			<ellipse transform="matrix(0.937 0.3495 -0.3495 0.937 26.9687 -28.036)" opacity="0.3" fill="#FFFFFF" cx="91.182" cy="60.722" rx="1.512" ry="0.877"/>
	</g>
	<ellipse fill="#BD7E50" cx="50.303" cy="75.069" rx="4.938" ry="6.46"/>
	<path fill="#424242" d="M43.297,34.195c0,0-4.371-11.906,0-23.884C46,14.334,53.898,22.254,53.898,22.254s3.422-17.92,7.428-21.92
		C62,7.666,74.333,22,74.333,22S80.992,5.334,86.829,2.334c0.838,14,15.979,29.187,13.408,38.093
		c-2.57,8.907-14.568-0.39-14.568-0.39S54.926,33.724,43.297,34.195z"/>
</g>
<path fill="#E6362D" d="M49.451,89.447c0.014,9.294-10.725,55.914-10.424,56.321l48.163-0.135
	c-0.216-1.8-9.056-53.905-10.156-56.826c0,0-18.223,6.369-22.903,5.405C49.451,93.25,49.451,89.447,49.451,89.447z"/>
<path fill="#424242" d="M39.027,145.769c0,0,0.908,9.922,5.226,12.917c4.321,2.994,28.016,9.754,40.418-0.772
	c2.601-2.685,3.259-8.871,2.599-12.528L39.027,145.769z"/>
<g>
	<path fill="#FAAB6D" d="M30.257,92.18c0,0-5.948-5.941-8.696-4.787c-2.749,1.154-3.118,2.8-2.621,3.433
		c-1.167,1.614-5.894,8.716-5.231,9.878c0.663,1.162,3.337,5.965,8.766,6.203L30.257,92.18z"/>
	<path fill="#E8833E" d="M19.928,106.416c0.771,0.268,1.615,0.449,2.546,0.49l7.783-14.727c0,0-0.833-0.832-2.019-1.812
		C26.424,93.978,22.855,100.999,19.928,106.416z"/>
	<path fill="#E6362D" d="M82.249,97.679c0,0-18.92,25.904-61.211,10.19c1.536-2.803,8.817-16.894,8.817-16.894
		c12.672,9.558,29.656,22.938,48.453,5.005L82.249,97.679z"/>
</g>
<circle fill="#424242" cx="53.899" cy="116.154" r="6.155"/>
<polygon fill="#424242" points="58.333,116.154 63.932,110 56.667,113.078 "/>
<polygon fill="#424242" points="50.803,113.244 48,109 49,115 "/>
</svg>
