<?xml version="1.0" encoding="utf-8"?>
<!-- Generator: Adobe Illustrator 16.0.0, SVG Export Plug-In . SVG Version: 6.00 Build 0)  -->
<!DOCTYPE svg PUBLIC "-//W3C//DTD SVG 1.0//EN" "http://www.w3.org/TR/2001/REC-SVG-20010904/DTD/svg10.dtd">
<svg version="1.0" id="Layer_1" xmlns="http://www.w3.org/2000/svg" xmlns:xlink="http://www.w3.org/1999/xlink" x="0px" y="0px"
	 width="156.461px" height="213.274px" viewBox="0 0 156.461 213.274" enable-background="new 0 0 156.461 213.274"
	 xml:space="preserve">
<g>
	<g>
		<g>
			<path fill="#4C4C4E" d="M149.117,12.305c4.04,0,7.344,3.307,7.344,7.346v186.281c0,4.037-3.304,7.343-7.344,7.343H0V12.305
				H149.117z"/>
		</g>
		<g>
			<path fill="#F3F3F3" d="M146.608,15.383c3.915,0,7.12,3.203,7.12,7.12v179.894c0,3.914-3.205,7.117-7.12,7.117H3.077V15.383
				H146.608z"/>
		</g>
		<g>
			<path fill="#656567" d="M149.117,0c4.04,0,7.344,3.304,7.344,7.342v186.281c0,4.037-3.304,7.344-7.344,7.344H0V0H149.117z"/>
		</g>
		<g>
			<rect x="126.82" fill="#BB8169" width="15.49" height="200.967"/>
		</g>
		<rect x="126.82" y="200.967" fill="#8D6250" width="15.49" height="12.308"/>
	</g>
	<g>
		<path fill="#FFFFFF" d="M26.026,28.844c-0.758,0.633-1.841,0.949-3.249,0.949H20.08v4.658h-2.689V21.496h5.563
			c1.282,0,2.305,0.334,3.067,1.002s1.144,1.702,1.144,3.103C27.164,27.13,26.785,28.211,26.026,28.844z M23.96,24.177
			c-0.343-0.287-0.822-0.431-1.44-0.431H20.08v3.814h2.439c0.618,0,1.098-0.155,1.44-0.466s0.515-0.803,0.515-1.477
			S24.303,24.464,23.96,24.177z"/>
		<path fill="#FFFFFF" d="M38.915,23.79H32.06v2.751h6.293v2.25H32.06v3.331h7.172v2.329h-9.817V21.496h9.501V23.79z"/>
		<path fill="#FFFFFF" d="M48.932,21.777c0.909,0.299,1.645,0.847,2.208,1.644c0.451,0.645,0.76,1.342,0.924,2.092
			s0.246,1.466,0.246,2.145c0,1.723-0.346,3.182-1.038,4.377c-0.938,1.612-2.387,2.417-4.345,2.417h-5.586V21.496h5.586
			C47.729,21.508,48.398,21.602,48.932,21.777z M43.969,23.746v8.455h2.5c1.279,0,2.171-0.63,2.676-1.889
			c0.276-0.692,0.414-1.516,0.414-2.471c0-1.318-0.207-2.33-0.62-3.037c-0.414-0.705-1.237-1.059-2.47-1.059H43.969z"/>
		<path fill="#FFFFFF" d="M64.315,33.3c-0.979,1.008-2.394,1.513-4.245,1.513s-3.267-0.505-4.245-1.513
			c-1.313-1.235-1.969-3.018-1.969-5.344c0-2.373,0.656-4.154,1.969-5.344c0.979-1.007,2.394-1.512,4.245-1.512
			s3.267,0.505,4.245,1.512c1.307,1.189,1.96,2.971,1.96,5.344C66.275,30.282,65.622,32.064,64.315,33.3z M62.623,31.331
			c0.63-0.791,0.945-1.916,0.945-3.375c0-1.453-0.315-2.576-0.945-3.37s-1.48-1.191-2.553-1.191s-1.928,0.396-2.566,1.187
			s-0.958,1.916-0.958,3.375s0.319,2.584,0.958,3.375s1.494,1.187,2.566,1.187S61.993,32.122,62.623,31.331z"/>
		<path fill="#FFFFFF" d="M76.935,21.496h3.896v12.955h-2.522v-8.763c0-0.251,0.003-0.604,0.009-1.06
			c0.006-0.453,0.009-0.804,0.009-1.05L75.87,34.451h-2.631l-2.438-10.872c0,0.246,0.003,0.597,0.009,1.05
			c0.006,0.455,0.009,0.809,0.009,1.06v8.763h-2.522V21.496h3.939l2.358,10.187L76.935,21.496z"/>
		<path fill="#FFFFFF" d="M87.04,21.496h3.063l4.584,12.955h-2.936l-0.855-2.663h-4.771l-0.878,2.663h-2.832L87.04,21.496z
			 M86.861,29.556h3.317l-1.637-5.098L86.861,29.556z"/>
		<path fill="#FFFFFF" d="M96.29,21.496h2.838l5.143,9.033v-9.033h2.522v12.955h-2.706l-5.274-9.192v9.192H96.29V21.496z"/>
		<path fill="#FFFFFF" d="M26.991,44.476c0.396,0.551,0.595,1.21,0.595,1.978c0,0.791-0.2,1.427-0.6,1.907
			c-0.224,0.27-0.554,0.516-0.988,0.738c0.661,0.24,1.16,0.621,1.496,1.143c0.337,0.521,0.505,1.155,0.505,1.898
			c0,0.768-0.192,1.456-0.577,2.065c-0.244,0.404-0.55,0.744-0.917,1.02c-0.414,0.316-0.901,0.533-1.464,0.65
			s-1.173,0.176-1.831,0.176h-5.837V43.096h6.261C25.214,43.119,26.333,43.579,26.991,44.476z M19.957,45.346v2.856h3.148
			c0.563,0,1.02-0.106,1.37-0.321c0.351-0.213,0.526-0.593,0.526-1.138c0-0.604-0.232-1.002-0.696-1.195
			c-0.399-0.135-0.91-0.202-1.53-0.202H19.957z M19.957,50.347v3.454h3.146c0.562,0,0.999-0.076,1.312-0.229
			c0.567-0.281,0.852-0.82,0.852-1.617c0-0.674-0.275-1.137-0.825-1.389c-0.308-0.141-0.738-0.213-1.295-0.22H19.957z"/>
		<path fill="#FFFFFF" d="M39.908,45.39h-6.855v2.751h6.293v2.25h-6.293v3.331h7.172v2.329h-9.817V43.096h9.501V45.39z"/>
		<path fill="#FFFFFF" d="M50.636,43.43c0.478,0.205,0.882,0.508,1.213,0.905c0.274,0.328,0.491,0.691,0.651,1.09
			s0.24,0.853,0.24,1.362c0,0.615-0.155,1.221-0.466,1.814c-0.311,0.596-0.823,1.016-1.538,1.262c0.598,0.24,1.021,0.582,1.27,1.023
			c0.249,0.443,0.374,1.118,0.374,2.026v0.87c0,0.592,0.023,0.993,0.071,1.204c0.071,0.334,0.238,0.58,0.5,0.738v0.325h-2.988
			c-0.082-0.287-0.141-0.519-0.176-0.694c-0.07-0.363-0.108-0.735-0.114-1.116l-0.018-1.204c-0.011-0.826-0.153-1.377-0.428-1.652
			s-0.789-0.413-1.543-0.413h-2.644v5.08h-2.646V43.096h6.196C49.478,43.113,50.159,43.225,50.636,43.43z M45.041,45.346v3.48h2.913
			c0.579,0,1.013-0.07,1.303-0.211c0.512-0.246,0.768-0.732,0.768-1.459c0-0.785-0.248-1.313-0.743-1.582
			c-0.278-0.152-0.695-0.229-1.252-0.229H45.041z"/>
		<path fill="#FFFFFF" d="M57.284,52.052c0.084,0.593,0.248,1.034,0.493,1.327c0.449,0.533,1.218,0.8,2.307,0.8
			c0.652,0,1.182-0.07,1.589-0.211c0.771-0.27,1.157-0.771,1.157-1.503c0-0.428-0.189-0.759-0.567-0.993
			c-0.378-0.229-0.978-0.431-1.799-0.606l-1.402-0.308c-1.378-0.305-2.325-0.636-2.841-0.993c-0.873-0.598-1.31-1.532-1.31-2.804
			c0-1.16,0.427-2.124,1.281-2.892s2.108-1.151,3.764-1.151c1.382,0,2.561,0.362,3.536,1.085c0.977,0.725,1.487,1.774,1.535,3.151
			h-2.602c-0.048-0.779-0.396-1.333-1.045-1.661c-0.433-0.217-0.971-0.325-1.613-0.325c-0.715,0-1.285,0.141-1.712,0.422
			s-0.64,0.675-0.64,1.178c0,0.463,0.21,0.809,0.631,1.038c0.271,0.151,0.844,0.33,1.721,0.535l2.273,0.536
			c0.997,0.234,1.743,0.548,2.241,0.94c0.772,0.609,1.158,1.491,1.158,2.646c0,1.184-0.458,2.167-1.373,2.948
			c-0.915,0.783-2.207,1.174-3.877,1.174c-1.706,0-3.047-0.385-4.024-1.156c-0.978-0.77-1.466-1.829-1.466-3.177H57.284z"/>
		<path fill="#FFFFFF" d="M77.314,54.899c-0.979,1.008-2.394,1.512-4.245,1.512s-3.267-0.504-4.245-1.512
			c-1.313-1.236-1.969-3.018-1.969-5.344c0-2.373,0.656-4.154,1.969-5.344c0.979-1.008,2.394-1.512,4.245-1.512
			s3.267,0.504,4.245,1.512c1.307,1.189,1.96,2.971,1.96,5.344C79.274,51.882,78.621,53.663,77.314,54.899z M75.622,52.931
			c0.63-0.791,0.945-1.916,0.945-3.375c0-1.452-0.315-2.575-0.945-3.37c-0.63-0.794-1.48-1.191-2.553-1.191
			s-1.928,0.396-2.566,1.187s-0.958,1.916-0.958,3.375s0.319,2.584,0.958,3.375s1.494,1.187,2.566,1.187
			S74.992,53.722,75.622,52.931z"/>
		<path fill="#FFFFFF" d="M83.291,52.052c0.084,0.593,0.248,1.034,0.493,1.327c0.449,0.533,1.218,0.8,2.307,0.8
			c0.652,0,1.182-0.07,1.589-0.211c0.771-0.27,1.157-0.771,1.157-1.503c0-0.428-0.189-0.759-0.567-0.993
			c-0.378-0.229-0.978-0.431-1.799-0.606l-1.402-0.308c-1.378-0.305-2.325-0.636-2.841-0.993c-0.873-0.598-1.31-1.532-1.31-2.804
			c0-1.16,0.427-2.124,1.281-2.892s2.108-1.151,3.764-1.151c1.382,0,2.561,0.362,3.536,1.085c0.977,0.725,1.487,1.774,1.535,3.151
			h-2.602c-0.048-0.779-0.396-1.333-1.045-1.661c-0.433-0.217-0.971-0.325-1.613-0.325c-0.715,0-1.285,0.141-1.712,0.422
			s-0.64,0.675-0.64,1.178c0,0.463,0.21,0.809,0.631,1.038c0.271,0.151,0.844,0.33,1.721,0.535l2.273,0.536
			c0.997,0.234,1.743,0.548,2.241,0.94c0.772,0.609,1.158,1.491,1.158,2.646c0,1.184-0.458,2.167-1.373,2.948
			c-0.915,0.783-2.207,1.174-3.877,1.174c-1.706,0-3.047-0.385-4.024-1.156c-0.978-0.77-1.466-1.829-1.466-3.177H83.291z"/>
		<path fill="#FFFFFF" d="M95.815,56.051h-2.689V43.096h2.689V56.051z"/>
		<path fill="#FFFFFF" d="M102.052,43.096h3.063l4.584,12.955h-2.936l-0.855-2.663h-4.771l-0.878,2.663h-2.832L102.052,43.096z
			 M101.873,51.155h3.317l-1.637-5.098L101.873,51.155z"/>
		<path fill="#FFFFFF" d="M111.346,43.096h2.707v10.626h6.469v2.329h-9.176V43.096z"/>
		<path fill="#FFFFFF" d="M25.923,64.695h3.896V77.65h-2.522v-8.763c0-0.252,0.003-0.604,0.009-1.06
			c0.006-0.453,0.009-0.804,0.009-1.05L24.858,77.65h-2.631L19.79,66.778c0,0.246,0.003,0.597,0.009,1.05
			c0.006,0.455,0.009,0.808,0.009,1.06v8.763h-2.522V64.695h3.939l2.358,10.187L25.923,64.695z"/>
		<path fill="#FFFFFF" d="M41.903,66.989h-6.855v2.751h6.293v2.25h-6.293v3.331h7.172v2.329h-9.817V64.695h9.501V66.989z"/>
		<path fill="#FFFFFF" d="M51.92,64.977c0.909,0.299,1.645,0.847,2.208,1.644c0.451,0.645,0.76,1.342,0.924,2.092
			s0.246,1.465,0.246,2.145c0,1.723-0.346,3.182-1.038,4.377c-0.938,1.611-2.387,2.417-4.345,2.417h-5.586V64.695h5.586
			C50.718,64.707,51.387,64.801,51.92,64.977z M46.957,66.945V75.4h2.5c1.279,0,2.171-0.629,2.676-1.89
			c0.276-0.691,0.414-1.515,0.414-2.47c0-1.318-0.207-2.33-0.62-3.037c-0.414-0.705-1.237-1.059-2.47-1.059H46.957z"/>
		<path fill="#FFFFFF" d="M59.798,77.65h-2.689V64.695h2.689V77.65z"/>
		<path fill="#FFFFFF" d="M66.034,64.695h3.063l4.584,12.955h-2.936l-0.855-2.663h-4.771l-0.878,2.663h-2.832L66.034,64.695z
			 M65.855,72.755h3.317l-1.637-5.098L65.855,72.755z"/>
	</g>
</g>
</svg>
