<?xml version="1.0" encoding="utf-8"?>
<!-- Generator: Adobe Illustrator 16.0.0, SVG Export Plug-In . SVG Version: 6.00 Build 0)  -->
<!DOCTYPE svg PUBLIC "-//W3C//DTD SVG 1.0//EN" "http://www.w3.org/TR/2001/REC-SVG-20010904/DTD/svg10.dtd">
<svg version="1.0" id="Layer_1" xmlns="http://www.w3.org/2000/svg" xmlns:xlink="http://www.w3.org/1999/xlink" x="0px" y="0px"
	 width="25.132px" height="39.672px" viewBox="0 0 25.132 39.672" enable-background="new 0 0 25.132 39.672" xml:space="preserve">
<g>
	<path fill="#FFFFFF" d="M18.921,30.813c0,0.986-0.376,1.973-1.128,2.725s-1.737,1.128-2.724,1.128h-5.007
		c-0.986,0-1.972-0.376-2.725-1.128c-0.752-0.752-1.127-1.738-1.127-2.725V7.318c0-0.986,0.375-1.972,1.127-2.725
		c0.753-0.752,1.738-1.127,2.725-1.127h5.007c0.986,0,1.972,0.375,2.724,1.127c0.752,0.753,1.128,1.738,1.128,2.725V30.813z"/>
	<path fill="#1D547A" d="M23.778,28.797c-0.719-0.719-1.616-1.146-2.548-1.293c-0.239-0.037-0.479-0.061-0.721-0.061H4.621
		c-0.24,0-0.481,0.023-0.72,0.061c-0.933,0.146-1.83,0.574-2.548,1.293C0.451,29.699,0,30.882,0,32.064v7.607h25.132v-7.607
		C25.132,30.882,24.681,29.699,23.778,28.797z"/>
	<path fill="#CFCFCE" d="M12.565,34.665c0,0,8.663,0.89,8.665-7.161c-0.239-0.037-0.479-0.061-0.721-0.061H4.621
		c-0.24,0-0.481,0.023-0.72,0.061C3.902,35.555,12.565,34.665,12.565,34.665z"/>
	<g>
		<polygon fill="#F2F2F2" points="11.121,0 9.869,0 9.816,0.938 11.174,0.938 		"/>
		<polygon fill="#F2F2F2" points="9.629,4.285 11.361,4.285 11.241,2.143 9.749,2.143 		"/>
		<polygon fill="#D2D3D4" points="9.791,1.396 9.774,1.685 11.216,1.685 11.2,1.396 		"/>
		<polygon fill="#818285" points="11.07,0.938 9.921,0.938 9.898,1.396 11.092,1.396 		"/>
		<polygon fill="#818285" points="9.863,2.143 11.127,2.143 11.105,1.685 9.885,1.685 		"/>
	</g>
</g>
</svg>
