<?xml version="1.0" encoding="utf-8"?>
<!-- Generator: Adobe Illustrator 16.0.0, SVG Export Plug-In . SVG Version: 6.00 Build 0)  -->
<!DOCTYPE svg PUBLIC "-//W3C//DTD SVG 1.1//EN" "http://www.w3.org/Graphics/SVG/1.1/DTD/svg11.dtd">
<svg version="1.1" id="Layer_1" xmlns="http://www.w3.org/2000/svg" xmlns:xlink="http://www.w3.org/1999/xlink" x="0px" y="0px"
	 width="25.132px" height="39.672px" viewBox="0 0 25.132 39.672" enable-background="new 0 0 25.132 39.672" xml:space="preserve">
<g>
	<path fill="#1C5379" d="M23.757,28.78c-0.717-0.717-1.611-1.145-2.543-1.29c-0.238-0.038-0.479-0.062-0.719-0.062H4.637
		c-0.241,0-0.48,0.023-0.72,0.062c-0.931,0.146-1.825,0.573-2.543,1.29c-0.9,0.9-1.351,2.081-1.351,3.262v7.594h25.085v-7.594
		C25.109,30.861,24.658,29.681,23.757,28.78z"/>
	<path fill="#CECECE" d="M12.566,34.638c0,0,8.646,0.887,8.648-7.147c-0.238-0.038-0.479-0.062-0.719-0.062H4.637
		c-0.241,0-0.48,0.023-0.72,0.062C3.919,35.524,12.566,34.638,12.566,34.638z"/>
	<path fill="#CECECE" d="M12.566,34.638c0,0,7.445,0.887,7.447-7.147c-0.205-0.038-0.412-0.062-0.619-0.062H5.738
		c-0.207,0-0.414,0.023-0.619,0.062C5.12,35.524,12.566,34.638,12.566,34.638z"/>
	<g>
		<polygon fill="#F1F2F2" points="11.125,0.036 9.875,0.036 9.822,0.974 11.177,0.974 		"/>
		<polygon fill="#F1F2F2" points="9.635,4.313 11.365,4.313 11.244,2.175 9.755,2.175 		"/>
		<polygon fill="#D1D3D4" points="9.796,1.43 9.78,1.718 11.218,1.718 11.203,1.43 		"/>
		<polygon fill="#808285" points="11.074,0.974 9.926,0.974 9.904,1.43 11.095,1.43 		"/>
		<polygon fill="#808285" points="9.868,2.175 11.13,2.175 11.109,1.718 9.891,1.718 		"/>
	</g>
	<path fill="#FFFFFF" d="M18.91,30.793c0,0.983-0.375,1.968-1.127,2.718c-0.75,0.751-1.734,1.127-2.719,1.127h-4.998
		c-0.983,0-1.967-0.376-2.718-1.127c-0.751-0.75-1.126-1.734-1.126-2.718V7.341c0-0.984,0.375-1.968,1.126-2.719
		c0.751-0.75,1.734-1.126,2.718-1.126h4.998c0.984,0,1.969,0.376,2.719,1.126c0.752,0.751,1.127,1.734,1.127,2.719V30.793z"/>
	<rect x="7.52" y="7.677" fill="#A6D3EB" width="10.093" height="7.658"/>
	<rect x="7.52" y="14.741" fill="#808285" width="10.093" height="0.594"/>
	<rect x="7.52" y="7.677" fill="#808285" width="10.093" height="0.594"/>
	<g>
		<path fill="#808285" d="M14.398,18.659c-0.238-0.791-0.963-1.371-1.832-1.371s-1.594,0.58-1.832,1.371H14.398z"/>
		<path fill="#808285" d="M10.734,19.764c0.238,0.79,0.963,1.37,1.832,1.37s1.594-0.58,1.832-1.37H10.734z"/>
	</g>
	<g>
		<path fill="#808285" d="M8.979,18.659c0.112-0.533,0.383-1.006,0.761-1.371H7.52v1.371H8.979z"/>
		<path fill="#808285" d="M7.52,19.764v1.37h2.22c-0.378-0.365-0.648-0.838-0.761-1.37H7.52z"/>
	</g>
	<g>
		<path fill="#808285" d="M16.152,18.659c-0.111-0.533-0.383-1.006-0.76-1.371h2.221v1.371H16.152z"/>
		<path fill="#808285" d="M17.613,19.764v1.37h-2.221c0.377-0.365,0.648-0.838,0.76-1.37H17.613z"/>
	</g>
	<g>
		<rect x="7.52" y="23.247" fill="#808285" width="2.22" height="1.635"/>
		<rect x="11.457" y="23.247" fill="#808285" width="2.219" height="1.635"/>
		<rect x="15.392" y="23.247" fill="#808285" width="2.221" height="1.635"/>
		<rect x="7.52" y="26.179" fill="#808285" width="2.22" height="1.635"/>
		<rect x="11.457" y="26.179" fill="#808285" width="2.219" height="1.635"/>
		<rect x="15.392" y="26.179" fill="#808285" width="2.221" height="1.635"/>
		<rect x="7.52" y="29.11" fill="#808285" width="2.22" height="1.635"/>
		<rect x="11.457" y="29.11" fill="#808285" width="2.219" height="1.635"/>
		<rect x="15.392" y="29.11" fill="#808285" width="2.221" height="1.635"/>
	</g>
</g>
</svg>
