<?xml version="1.0" encoding="utf-8"?>
<!-- Generator: Adobe Illustrator 16.0.0, SVG Export Plug-In . SVG Version: 6.00 Build 0)  -->
<!DOCTYPE svg PUBLIC "-//W3C//DTD SVG 1.0//EN" "http://www.w3.org/TR/2001/REC-SVG-20010904/DTD/svg10.dtd">
<svg version="1.0" id="Layer_1" xmlns="http://www.w3.org/2000/svg" xmlns:xlink="http://www.w3.org/1999/xlink" x="0px" y="0px"
	 width="70.702px" height="84.19px" viewBox="0 0 70.702 84.19" enable-background="new 0 0 70.702 84.19" xml:space="preserve">
<g>
	<g>
		<path fill="#424242" d="M58.173,37.725c0,2.15-1.743,3.895-3.895,3.895H16.424c-2.15,0-3.896-1.744-3.896-3.895v-0.866
			c0-2.151,1.745-3.896,3.896-3.896h37.854c2.151,0,3.895,1.744,3.895,3.896V37.725z"/>
		<path fill="#D8D1BD" d="M62.82,55.597c0,2.151-1.745,3.896-3.896,3.896H11.777c-2.15,0-3.895-1.744-3.895-3.896v-13.23
			c0-2.151,1.744-3.896,3.895-3.896h47.146c2.151,0,3.896,1.744,3.896,3.896V55.597z"/>
	</g>
	<g>
		<rect x="16.858" fill="#DBDADA" width="36.984" height="41.424"/>
		<rect x="16.858" y="4.058" fill="#EDEDED" width="36.984" height="41.423"/>
		<g>
			<rect x="16.858" y="8.115" fill="#DBDADA" width="36.984" height="41.422"/>
			<g>
				<path fill="#A9AAB1" d="M49.416,15.761c0,0.538-0.437,0.974-0.975,0.974H22.26c-0.537,0-0.973-0.436-0.973-0.974l0,0
					c0-0.538,0.436-0.974,0.973-0.974h26.182C48.979,14.787,49.416,15.223,49.416,15.761L49.416,15.761z"/>
				<path fill="#A9AAB1" d="M49.416,19.655c0,0.538-0.437,0.974-0.975,0.974H22.26c-0.537,0-0.973-0.436-0.973-0.974l0,0
					c0-0.538,0.436-0.974,0.973-0.974h26.182C48.979,18.682,49.416,19.117,49.416,19.655L49.416,19.655z"/>
				<path fill="#A9AAB1" d="M49.416,23.551c0,0.537-0.437,0.974-0.975,0.974H22.26c-0.537,0-0.973-0.437-0.973-0.974l0,0
					c0-0.538,0.436-0.975,0.973-0.975h26.182C48.979,22.576,49.416,23.013,49.416,23.551L49.416,23.551z"/>
				<path fill="#A9AAB1" d="M49.416,27.445c0,0.538-0.437,0.975-0.975,0.975H22.26c-0.537,0-0.973-0.437-0.973-0.975l0,0
					c0-0.537,0.436-0.973,0.973-0.973h26.182C48.979,26.473,49.416,26.908,49.416,27.445L49.416,27.445z"/>
				<path fill="#A9AAB1" d="M49.416,31.341c0,0.538-0.437,0.974-0.975,0.974H22.26c-0.537,0-0.973-0.436-0.973-0.974l0,0
					c0-0.538,0.436-0.974,0.973-0.974h26.182C48.979,30.367,49.416,30.803,49.416,31.341L49.416,31.341z"/>
				<path fill="#A9AAB1" d="M49.416,35.235c0,0.538-0.437,0.974-0.975,0.974H22.26c-0.537,0-0.973-0.436-0.973-0.974l0,0
					c0-0.538,0.436-0.974,0.973-0.974h26.182C48.979,34.262,49.416,34.697,49.416,35.235L49.416,35.235z"/>
				<path fill="#A9AAB1" d="M49.416,39.131c0,0.537-0.437,0.974-0.975,0.974H22.26c-0.537,0-0.973-0.437-0.973-0.974l0,0
					c0-0.538,0.436-0.975,0.973-0.975h26.182C48.979,38.156,49.416,38.593,49.416,39.131L49.416,39.131z"/>
				<path fill="#A9AAB1" d="M49.416,43.025c0,0.537-0.437,0.974-0.975,0.974H22.26c-0.537,0-0.973-0.437-0.973-0.974l0,0
					c0-0.538,0.436-0.974,0.973-0.974h26.182C48.979,42.052,49.416,42.487,49.416,43.025L49.416,43.025z"/>
			</g>
		</g>
	</g>
	<path fill="#C0B8A7" d="M70.702,77.235c0,2.15-1.744,3.896-3.895,3.896H3.895C1.745,81.131,0,79.386,0,77.235V54.73
		c0-2.15,1.745-3.895,3.895-3.895h62.913c2.15,0,3.895,1.744,3.895,3.895V77.235z"/>
	<g>
		<rect x="13.704" y="72.563" fill="#FFFFFF" width="43.294" height="9.248"/>
		<rect x="11.008" y="77.756" fill="#D8D1BD" width="48.687" height="5.785"/>
		<rect x="19.448" y="76.771" fill="#424242" width="31.806" height="7.419"/>
	</g>
	<g>
		<g>
			<path fill="#D8D1BD" d="M9.818,64.34c0,1.052-0.854,1.904-1.904,1.904H6.095c-1.052,0-1.903-0.853-1.903-1.904l0,0
				c0-1.051,0.852-1.904,1.903-1.904h1.819C8.965,62.436,9.818,63.289,9.818,64.34L9.818,64.34z"/>
			<path fill="#D8D1BD" d="M13.704,64.34c0,0.598-0.484,1.082-1.083,1.082H12.09c-0.598,0-1.082-0.484-1.082-1.082l0,0
				c0-0.598,0.484-1.082,1.082-1.082h0.531C13.22,63.258,13.704,63.742,13.704,64.34L13.704,64.34z"/>
		</g>
		<path fill="#424242" d="M46.604,64.772c0,1.792-1.452,3.245-3.246,3.245H27.344c-1.792,0-3.246-1.453-3.246-3.245l0,0
			c0-1.792,1.454-3.246,3.246-3.246h16.014C45.151,61.526,46.604,62.98,46.604,64.772L46.604,64.772z"/>
	</g>
	<path fill="#424242" d="M60.02,49.518c0,0.896-0.727,1.623-1.623,1.623h-46.09c-0.896,0-1.623-0.727-1.623-1.623l0,0
		c0-0.896,0.727-1.623,1.623-1.623h46.09C59.293,47.895,60.02,48.621,60.02,49.518L60.02,49.518z"/>
</g>
</svg>
