<?xml version="1.0" encoding="utf-8"?>
<!-- Generator: Adobe Illustrator 16.0.0, SVG Export Plug-In . SVG Version: 6.00 Build 0)  -->
<!DOCTYPE svg PUBLIC "-//W3C//DTD SVG 1.1 Tiny//EN" "http://www.w3.org/Graphics/SVG/1.1/DTD/svg11-tiny.dtd">
<svg version="1.1" baseProfile="tiny" id="Layer_1" xmlns="http://www.w3.org/2000/svg" xmlns:xlink="http://www.w3.org/1999/xlink"
	 x="0px" y="0px" width="49.881px" height="50.041px" viewBox="0 0 49.881 50.041" overflow="scroll" xml:space="preserve">
<g>
	<path fill="#EE8122" d="M49.903,25.021c0,13.785-11.177,24.963-24.963,24.963c-13.787,0-24.963-11.178-24.963-24.963
		c0-13.787,11.176-24.964,24.963-24.964C38.727,0.057,49.903,11.234,49.903,25.021L49.903,25.021z M49.903,25.021"/>
	<path fill="#D66F28" d="M49.102,18.726l-7.64-5.906v2.69h-3.706v11.214H12.403v2.73H8.015l-0.049,6.16L28.035,49.74l-0.032,0.049
		c12.341-1.51,21.9-12.02,21.9-24.768C49.903,22.845,49.624,20.738,49.102,18.726L49.102,18.726z M49.102,18.726"/>
	<path fill="#E1D6CF" d="M42.293,34.664c0,0.736-0.54,1.34-1.197,1.34H8.802c-0.657,0-1.196-0.604-1.196-1.34V14.117
		c0-0.737,0.539-1.34,1.196-1.34h32.294c0.657,0,1.197,0.603,1.197,1.34V34.664z M42.293,34.664"/>
	<path fill="#7E6B57" d="M26.164,27.38c-0.593,0.47-1.568,0.475-2.167,0.014L7.605,14.744v2.68l16.392,12.65
		c0.599,0.461,1.574,0.456,2.167-0.013l16.129-12.733v-2.681L26.164,27.38z M26.164,27.38"/>
	<path fill="#FAFCFD" d="M41.096,12.777H8.802c-0.657,0-1.196,0.603-1.196,1.34v0.627l16.392,12.65
		c0.599,0.461,1.574,0.456,2.167-0.014l16.129-12.733v-0.53C42.293,13.379,41.753,12.777,41.096,12.777L41.096,12.777z
		 M41.096,12.777"/>
</g>
</svg>
