<?xml version="1.0" encoding="utf-8"?>
<!-- Generator: Adobe Illustrator 16.0.0, SVG Export Plug-In . SVG Version: 6.00 Build 0)  -->
<!DOCTYPE svg PUBLIC "-//W3C//DTD SVG 1.1 Tiny//EN" "http://www.w3.org/Graphics/SVG/1.1/DTD/svg11-tiny.dtd">
<svg version="1.1" baseProfile="tiny" id="Layer_1" xmlns="http://www.w3.org/2000/svg" xmlns:xlink="http://www.w3.org/1999/xlink"
	 x="0px" y="0px" width="49.881px" height="50.041px" viewBox="0 0 49.881 50.041" overflow="scroll" xml:space="preserve">
<g>
	<path fill="#EE8122" d="M50.062,25.178c0,13.787-11.177,24.963-24.962,24.963c-13.787,0-24.964-11.176-24.964-24.963
		c0-13.786,11.177-24.963,24.964-24.963C38.885,0.215,50.062,11.392,50.062,25.178L50.062,25.178z M50.062,25.178"/>
	<path fill="#D66F28" d="M47.604,35.994l-31.86-24.676l-1.36,8.463l12.842,19.605l10.387,6.999
		C42.837,44.109,45.538,40.283,47.604,35.994z"/>
	<g>
		<path fill="#FAFCFD" d="M40.192,35.666l-7.861-4.525c-0.763-0.439-1.726-0.313-2.349,0.311l-1.548,1.548
			c-0.597,0.597-1.548,0.651-2.205,0.122c-1.214-0.977-2.428-2.064-3.614-3.25c-1.187-1.188-2.273-2.4-3.25-3.614
			c-0.529-0.658-0.476-1.608,0.122-2.205l1.548-1.548c0.623-0.623,0.75-1.586,0.311-2.349l-4.526-7.862
			c-0.639-1.109-2.157-1.311-3.063-0.404l-2.334,2.333c-3.04,3.041,0.503,11.515,7.915,18.927
			c7.413,7.412,15.887,10.956,18.928,7.915l2.333-2.333C41.504,37.824,41.303,36.306,40.192,35.666L40.192,35.666z M40.192,35.666"
			/>
		<path fill="#E1D6CF" d="M13.1,12.545L19.638,23.9l1.397-1.396c0.623-0.623,0.75-1.586,0.311-2.349l-4.526-7.862
			c-0.639-1.109-2.157-1.311-3.063-0.404L13.1,12.545z M13.1,12.545"/>
		<path fill="#E1D6CF" d="M39.941,39.387l0.656-0.656c0.906-0.906,0.705-2.425-0.405-3.064l-7.861-4.525
			c-0.763-0.439-1.726-0.313-2.349,0.311l-1.434,1.434L39.941,39.387z M39.941,39.387"/>
		<path fill="#E1D6CF" d="M19.487,24.052l1.548-1.548c0.623-0.623,0.75-1.586,0.311-2.349l-1.113-1.934
			c-1.177,1.017-2.319,1.997-2.988,2.665c-0.84,0.842-0.531,2.127,2.121,5.37C18.836,25.6,18.89,24.648,19.487,24.052L19.487,24.052
			z M19.487,24.052"/>
		<path fill="#BCB5B1" d="M21.346,20.155l-1.113-1.934c-0.958,0.827-1.889,1.628-2.564,2.259l1.97,3.42l1.397-1.396
			C21.658,21.881,21.785,20.918,21.346,20.155L21.346,20.155z M21.346,20.155"/>
		<path fill="#E1D6CF" d="M40.192,35.666l-1.137-0.654c-1.049,1.199-4.272,4.838-5.298,5.48c-0.597,0.373-1.596,0.784-2.676,0.789
			c3.142,1.186,5.758,1.207,7.183-0.218l2.333-2.333C41.504,37.824,41.303,36.306,40.192,35.666L40.192,35.666z M40.192,35.666"/>
		<path fill="#BCB5B1" d="M40.192,35.666l-1.137-0.654c-0.465,0.531-1.357,1.543-2.296,2.559l3.182,1.816l0.656-0.656
			C41.504,37.824,41.303,36.306,40.192,35.666L40.192,35.666z M40.192,35.666"/>
	</g>
</g>
</svg>
