<?xml version="1.0" encoding="utf-8"?>
<!-- Generator: Adobe Illustrator 16.0.0, SVG Export Plug-In . SVG Version: 6.00 Build 0)  -->
<!DOCTYPE svg PUBLIC "-//W3C//DTD SVG 1.1 Tiny//EN" "http://www.w3.org/Graphics/SVG/1.1/DTD/svg11-tiny.dtd">
<svg version="1.1" baseProfile="tiny" id="Layer_1" xmlns="http://www.w3.org/2000/svg" xmlns:xlink="http://www.w3.org/1999/xlink"
	 x="0px" y="0px" width="49.881px" height="50.041px" viewBox="0 0 49.881 50.041" overflow="scroll" xml:space="preserve">
<g>
	<path fill="#EE8122" d="M49.881,25.295c0,13.786-11.176,24.963-24.963,24.963c-13.786,0-24.963-11.177-24.963-24.963
		c0-13.787,11.177-24.963,24.963-24.963C38.705,0.332,49.881,11.508,49.881,25.295L49.881,25.295z M49.881,25.295"/>
	<path fill="#D66F28" d="M14.877,40.346l13.282,9.695c10.535-1.367,19.009-9.297,21.179-19.559l0.354-6.076L37.17,14.848
		L14.877,40.346z"/>
	<g>
		<polygon fill="#BCB5B1" points="15,32.606 15,40.346 36.336,15.822 		"/>
		<path fill="#FAFCFD" d="M9.413,24.971c-0.63,0.243-1.078,0.811-1.164,1.48c-0.09,0.67,0.193,1.336,0.742,1.731l5.979,4.351
			l21.244-16.711L17.429,34.327l8.179,5.946c0.517,0.377,1.187,0.495,1.808,0.307c0.616-0.189,1.106-0.656,1.331-1.26l8.744-23.939
			c0.09-0.242,0.028-0.517-0.157-0.696c-0.185-0.181-0.454-0.238-0.697-0.144L9.413,24.971z M9.413,24.971"/>
		<polygon fill="#E1D6CF" points="14.877,40.346 17.429,34.327 19.073,35.523 		"/>
	</g>
</g>
</svg>
