<?xml version="1.0" encoding="utf-8"?>
<!-- Generator: Adobe Illustrator 16.0.0, SVG Export Plug-In . SVG Version: 6.00 Build 0)  -->
<!DOCTYPE svg PUBLIC "-//W3C//DTD SVG 1.1//EN" "http://www.w3.org/Graphics/SVG/1.1/DTD/svg11.dtd">
<svg version="1.1" id="Layer_1" xmlns="http://www.w3.org/2000/svg" xmlns:xlink="http://www.w3.org/1999/xlink" x="0px" y="0px"
	 width="20.5px" height="20px" viewBox="0 0 20.5 20" enable-background="new 0 0 20.5 20" xml:space="preserve">
<g>
	<g>
		<path fill="#FFFFFF" d="M0,2c0,2.666,0,5.334,0,8c0,1.93,3,1.934,3,0c0-2.666,0-5.334,0-8C3,0.07,0,0.066,0,2L0,2z"/>
	</g>
	<g>
		<path fill="#FFFFFF" d="M12.268,6.111c-1.886,1.885-3.771,3.771-5.656,5.656c-1.365,1.365,0.754,3.488,2.121,2.121
			c1.886-1.885,3.771-3.771,5.656-5.656C15.754,6.867,13.635,4.744,12.268,6.111L12.268,6.111z"/>
	</g>
	<g>
		<path fill="#FFFFFF" d="M19,17c0,0-5,0-8,0c-1,0-1,3,0,3c3,0,6,0,8,0S21,17,19,17C19,17,21,17,19,17z"/>
	</g>
</g>
</svg>
