<?xml version="1.0" encoding="utf-8"?>
<!-- Generator: Adobe Illustrator 16.0.0, SVG Export Plug-In . SVG Version: 6.00 Build 0)  -->
<!DOCTYPE svg PUBLIC "-//W3C//DTD SVG 1.0//EN" "http://www.w3.org/TR/2001/REC-SVG-20010904/DTD/svg10.dtd">
<svg version="1.0" id="Layer_1" xmlns="http://www.w3.org/2000/svg" xmlns:xlink="http://www.w3.org/1999/xlink" x="0px" y="0px"
	 width="36.023px" height="36.025px" viewBox="0 0 36.023 36.025" enable-background="new 0 0 36.023 36.025" xml:space="preserve">
<g>
	<circle id="XMLID_30_" fill="#E62E34" cx="18.012" cy="18.012" r="18.012"/>
	<g>
		<path id="XMLID_27_" fill="#FFFFFF" d="M25.671,17.673c-0.131,0-0.258,0-0.391,0c0-0.026,0-0.052,0-0.077c0-0.102,0-0.187,0-0.27
			c0.002-0.496,0.008-0.99-0.004-1.485c-0.002-0.081-0.086-0.228-0.136-0.229c-0.452-0.018-0.904-0.011-1.383-0.011
			c0,0.594,0,1.156,0,1.729c0,0.113,0,0.226,0,0.338c-0.692,0-1.36,0-2.074,0c0,0.155-0.005,0.261,0,0.363
			c0.016,0.375,0.033,0.75,0.05,1.123c0.365,0.014,0.731,0.031,1.098,0.039c0.306,0.005,0.611,0,0.949,0c0,0.713,0,1.376,0,2.039
			c0.509,0,0.982,0,1.496,0c0-0.676,0-1.341,0-2.045c0.703,0,1.368,0,2.045,0c0-0.394,0-0.765,0-1.145c0-0.123,0-0.245,0-0.37
			C26.771,17.673,26.228,17.673,25.671,17.673z"/>
		<path id="XMLID_26_" fill="#FFFFFF" d="M19.8,17.499c-1.293,0.017-2.584,0.008-3.875,0.008c-0.369,0-0.739-0.007-1.107,0.007
			c-0.07,0.003-0.196,0.087-0.196,0.136c-0.013,0.743-0.009,1.489-0.009,2.272c1.065,0,2.097,0,3.164,0
			c-0.043,0.154-0.068,0.266-0.104,0.373c-0.485,1.439-1.972,2.152-3.564,1.891c-1.979-0.324-3.21-2.158-2.858-4.141
			c0.051-0.279,0.138-0.545,0.252-0.796c0.652-1.438,2.271-2.312,3.872-1.962c0.573,0.125,1.063,0.402,1.486,0.771
			c0.575-0.58,1.134-1.144,1.729-1.744c-0.039-0.031-0.094-0.07-0.145-0.113c-1.396-1.178-3-1.612-4.797-1.317
			c-2.583,0.422-4.44,2.456-4.856,4.832c-0.177,1.015-0.093,2.093,0.312,3.135c0.983,2.524,3.521,4.062,6.232,3.764
			c1.323-0.146,2.506-0.624,3.43-1.609c1.363-1.45,1.713-3.206,1.496-5.128C20.225,17.557,20.095,17.495,19.8,17.499z"/>
	</g>
</g>
</svg>
