<?xml version="1.0" encoding="utf-8"?>
<!-- Generator: Adobe Illustrator 16.0.0, SVG Export Plug-In . SVG Version: 6.00 Build 0)  -->
<!DOCTYPE svg PUBLIC "-//W3C//DTD SVG 1.0//EN" "http://www.w3.org/TR/2001/REC-SVG-20010904/DTD/svg10.dtd">
<svg version="1.0" id="Layer_1" xmlns="http://www.w3.org/2000/svg" xmlns:xlink="http://www.w3.org/1999/xlink" x="0px" y="0px"
	 width="36.024px" height="36.025px" viewBox="0 0 36.024 36.025" enable-background="new 0 0 36.024 36.025" xml:space="preserve">
<g>
	<circle id="XMLID_115_" fill="#874D2E" cx="18.012" cy="18.012" r="18.012"/>
	<path fill="#FFFFFF" d="M24.556,7.345H11.467c-2.273,0-4.122,1.849-4.122,4.122v4.357v1.603v7.132c0,2.272,1.849,4.122,4.122,4.122
		h13.089c2.274,0,4.125-1.85,4.125-4.122V17.43v-1.605v-4.357C28.681,9.193,26.83,7.345,24.556,7.345z M25.739,9.805l0.471-0.002
		v0.471v3.145l-3.603,0.012l-0.013-3.615L25.739,9.805z M14.968,15.824c0.684-0.947,1.791-1.566,3.045-1.566
		c1.253,0,2.361,0.619,3.045,1.566c0.082,0.113,0.156,0.234,0.226,0.357c0.306,0.543,0.485,1.166,0.485,1.83
		c0,2.07-1.687,3.756-3.756,3.756c-2.071,0-3.756-1.686-3.756-3.756c0-0.664,0.18-1.288,0.485-1.83
		C14.812,16.059,14.886,15.938,14.968,15.824z M26.603,24.559c0,1.127-0.918,2.045-2.047,2.045H11.467
		c-1.128,0-2.044-0.918-2.044-2.045V16.93v-1.105h3.185c-0.08,0.195-0.147,0.396-0.206,0.602c-0.144,0.504-0.223,1.036-0.223,1.586
		c0,3.218,2.617,5.835,5.834,5.835s5.834-2.617,5.834-5.835c0-0.55-0.08-1.082-0.225-1.586c-0.059-0.206-0.127-0.407-0.206-0.602
		h3.187v1.105V24.559z"/>
</g>
</svg>
