<?xml version="1.0" encoding="utf-8"?>
<!-- Generator: Adobe Illustrator 16.0.0, SVG Export Plug-In . SVG Version: 6.00 Build 0)  -->
<!DOCTYPE svg PUBLIC "-//W3C//DTD SVG 1.0//EN" "http://www.w3.org/TR/2001/REC-SVG-20010904/DTD/svg10.dtd">
<svg version="1.0" id="Layer_1" xmlns="http://www.w3.org/2000/svg" xmlns:xlink="http://www.w3.org/1999/xlink" x="0px" y="0px"
	 width="36.023px" height="36.025px" viewBox="0 0 36.023 36.025" enable-background="new 0 0 36.023 36.025" xml:space="preserve">
<g>
	<circle id="XMLID_49_" fill="#48BDED" cx="18.012" cy="18.012" r="18.012"/>
	<path id="XMLID_47_" fill="#FFFFFF" d="M28.68,12.517c-0.784,0.343-1.627,0.573-2.513,0.678c0.904-0.533,1.597-1.378,1.925-2.385
		c-0.846,0.495-1.783,0.854-2.781,1.047c-0.797-0.837-1.935-1.36-3.193-1.36c-2.418,0-4.377,1.93-4.377,4.309
		c0,0.338,0.039,0.666,0.111,0.982c-3.637-0.18-6.863-1.896-9.021-4.503C8.454,11.92,8.236,12.66,8.236,13.45
		c0,1.495,0.775,2.813,1.948,3.587c-0.717-0.023-1.393-0.217-1.983-0.539c0,0.018,0,0.036,0,0.054c0,0.552,0.108,1.077,0.3,1.562
		c0.535,1.352,1.738,2.373,3.213,2.665c-0.368,0.097-0.754,0.151-1.154,0.151c-0.281,0-0.556-0.027-0.823-0.078
		c0.558,1.711,2.174,2.957,4.089,2.992c-1.499,1.156-3.386,1.846-5.438,1.846c-0.354,0-0.701-0.021-1.045-0.061
		c1.938,1.223,4.241,1.936,6.711,1.936c6.843,0,11.048-4.74,12.158-9.659c0.196-0.869,0.298-1.745,0.298-2.601
		c0-0.186-0.004-0.373-0.012-0.558C27.352,14.14,28.095,13.381,28.68,12.517z"/>
</g>
</svg>
