<?xml version="1.0" encoding="utf-8"?>
<!-- Generator: Adobe Illustrator 16.0.0, SVG Export Plug-In . SVG Version: 6.00 Build 0)  -->
<!DOCTYPE svg PUBLIC "-//W3C//DTD SVG 1.0//EN" "http://www.w3.org/TR/2001/REC-SVG-20010904/DTD/svg10.dtd">
<svg version="1.0" id="Layer_1" xmlns="http://www.w3.org/2000/svg" xmlns:xlink="http://www.w3.org/1999/xlink" x="0px" y="0px"
	 width="36.023px" height="36.025px" viewBox="0 0 36.023 36.025" enable-background="new 0 0 36.023 36.025" xml:space="preserve">
<g>
	<circle id="XMLID_41_" fill="#F15C4C" cx="18.012" cy="18.012" r="18.012"/>
	<path fill="#FFFFFF" d="M28.466,13.614c0,0-0.208-1.534-0.847-2.209c-0.812-0.884-1.721-0.891-2.137-0.941
		c-2.987-0.224-7.465-0.224-7.465-0.224h-0.01c0,0-4.48,0-7.465,0.225c-0.417,0.05-1.324,0.057-2.138,0.941
		c-0.638,0.675-0.847,2.209-0.847,2.209s-0.215,1.799-0.215,3.601v0.216v1.471c0,1.801,0.215,3.602,0.215,3.602
		s0.209,1.533,0.847,2.208c0.813,0.886,1.88,0.858,2.354,0.95c1.707,0.17,7.253,0.224,7.253,0.224s4.483-0.008,7.471-0.231
		c0.416-0.053,1.325-0.057,2.137-0.943c0.639-0.674,0.847-2.207,0.847-2.207s0.215-1.801,0.215-3.602v-1.377v-0.31
		C28.681,15.414,28.466,13.614,28.466,13.614z M21.572,17.836l-5.762,3.113l-0.002-4.793v-1.458l2.599,1.415L21.572,17.836z"/>
</g>
</svg>
