<?xml version="1.0" encoding="utf-8"?>
<!-- Generator: Adobe Illustrator 16.0.0, SVG Export Plug-In . SVG Version: 6.00 Build 0)  -->
<!DOCTYPE svg PUBLIC "-//W3C//DTD SVG 1.0//EN" "http://www.w3.org/TR/2001/REC-SVG-20010904/DTD/svg10.dtd">
<svg version="1.0" id="Layer_1" xmlns="http://www.w3.org/2000/svg" xmlns:xlink="http://www.w3.org/1999/xlink" x="0px" y="0px"
	 width="36.023px" height="36.025px" viewBox="0 0 36.023 36.025" enable-background="new 0 0 36.023 36.025" xml:space="preserve">
<g>
	<circle id="XMLID_25_" fill="#E62E34" cx="18.012" cy="18.013" r="18.012"/>
	<path id="XMLID_23_" fill="#FFFFFF" d="M18.91,6.658c-6.016,0.001-9.051,4.175-9.051,7.655c0,0.644,0.078,1.265,0.236,1.838
		c0.356,1.304,1.129,2.358,2.356,2.845c0.292,0.113,0.552,0.004,0.635-0.308c0.059-0.216,0.196-0.757,0.259-0.985
		c0.084-0.307,0.053-0.413-0.182-0.682c-0.307-0.35-0.545-0.762-0.688-1.266c-0.096-0.336-0.15-0.711-0.15-1.137
		c0-3.098,2.396-5.871,6.236-5.871c3.4,0,5.27,2.012,5.27,4.696c0,0.791-0.081,1.554-0.234,2.263
		c-0.529,2.457-1.918,4.254-3.779,4.254c-1.326,0-2.318-1.061-2.001-2.36c0.183-0.74,0.444-1.507,0.669-2.229
		c0.248-0.794,0.45-1.533,0.45-2.119c0-1.003-0.557-1.839-1.708-1.839c-1.354,0-2.443,1.354-2.443,3.171
		c0,0.342,0.037,0.65,0.086,0.916c0.119,0.635,0.319,1.024,0.319,1.024s-1.387,5.681-1.63,6.677
		c-0.482,1.982-0.072,4.412-0.037,4.657c0.02,0.146,0.214,0.181,0.302,0.071c0.125-0.157,1.737-2.086,2.286-4.011
		c0.155-0.546,0.891-3.368,0.891-3.368c0.439,0.813,1.727,1.526,3.094,1.526c3.315,0,5.762-2.383,6.556-5.864
		c0.182-0.793,0.276-1.643,0.276-2.535C26.928,10.043,23.746,6.658,18.91,6.658z"/>
</g>
</svg>
