<?xml version="1.0" encoding="utf-8"?>
<!-- Generator: Adobe Illustrator 16.0.0, SVG Export Plug-In . SVG Version: 6.00 Build 0)  -->
<!DOCTYPE svg PUBLIC "-//W3C//DTD SVG 1.0//EN" "http://www.w3.org/TR/2001/REC-SVG-20010904/DTD/svg10.dtd">
<svg version="1.0" id="Layer_1" xmlns="http://www.w3.org/2000/svg" xmlns:xlink="http://www.w3.org/1999/xlink" x="0px" y="0px"
	 width="132.291px" height="285.565px" viewBox="0 0 132.291 285.565" enable-background="new 0 0 132.291 285.565"
	 xml:space="preserve">
<g>
	<path fill="#232323" d="M71.628,269.479l-12.044,2.335c0,0-5.268,12.53-5.268,13.751c0,0.813,41.126,0,41.126,0
		s-0.765-3.661-2.546-4.677C91.115,279.866,71.628,269.479,71.628,269.479"/>
	<path fill="#424242" d="M82.012,272.64H93.09l12.694-49.419c0.863-2.948-0.845-6.035-3.798-6.874
		c-2.943-0.834-6.006,0.876-6.838,3.819L82.012,272.64z"/>
	<path fill="#2E2E2E" d="M93.785,269.479l-12.046,2.335c0,0-5.268,12.53-5.268,13.751c0,0.813,41.126,0,41.126,0
		s-0.765-3.661-2.546-4.677C113.268,279.866,93.785,269.479,93.785,269.479"/>
	<path fill="#333333" d="M59.536,272.64h11.078l12.694-49.419c0.863-2.948-0.842-6.035-3.798-6.874
		c-2.943-0.834-6.004,0.876-6.835,3.819L59.536,272.64z"/>
	<path fill="#424242" d="M96.078,212.648H43.106c0,5.628,4.562,10.186,10.186,10.186h52.593
		C105.885,217.209,101.705,212.648,96.078,212.648"/>
	<path fill="#424242" d="M81.218,207.183H28.246c0,5.625,4.561,10.188,10.186,10.188h52.594
		C91.025,211.743,86.846,207.183,81.218,207.183"/>
	<path fill="#FAEBE1" d="M62.675,140.742c0,0,8.961,32.169,9.716,42.116c0.754,9.945,0.235,18.995-2.025,24.861l-16.827-0.705
		l-25.292,0.168c0,0-2.564-66.68-2.564-68.167c0-1.482,26.938-0.106,26.938-0.106L62.675,140.742z"/>
	<path fill="#FAEBE1" d="M61.375,134.516l9.897,13.221c0,0,0.249,0.348-0.299,0.427s-3.067,0.159-3.313,0.466
		c-0.249,0.313-0.045,0.735,0.539,1.813c0.583,1.077,9.037,17.75,16.012,18.081c0,0,2.369,0.458,3.59,1.557
		c1.218,1.093,1.164,3.107,1.164,3.107s0.106,2.827-1.942,3.748c-2.052,0.919-2.316,0.778-2.316,0.778s-4.1,0.283-9.225-3.356
		c-5.127-3.643-5.127-4.633-5.127-4.633l-7.21-21.377l-1.885-6.527c0,0-0.447-2.165-0.144-3.605
		C61.424,136.781,61.375,134.516,61.375,134.516"/>
	<path fill="#FAAB6D" d="M7.717,113.52c0,0,4.027,5.516,5.797,7.354c1.768,1.836,5.407,4.771,6.964,5.619
		c1.556,0.85,5.09,2.547,6.292,5.373c1.201,2.83,1.307,3.217,1.307,3.217l3.926,2.9l29.281,3.807l0.26,0.031
		c0,0-0.266-0.817-0.168-2.371c0.159-2.245-0.14-6.521,3.395-8.997c3.536-2.475,8.872-3.571,15.837-11.878
		c6.964-8.306,9.685-15.59,11.17-28.242c1.485-12.658-1.062-36.553-1.062-36.553s-1.294-7.152-1.495-7.531
		c-0.201-0.375-64.157-0.222-64.157-0.222L7.717,113.52z"/>
	<path fill="#636363" d="M-0.272,52.649c0.495-6.224,4.939-38.59,29.411-47.299c16.564-5.896,39.893-5.374,52.288-3.438
		c12.396,1.932,15.275,9.859,10.938,16.693c0,0,0.199,1.874,3.253,4.305c11.418,9.09,7.777,18.803,3.677,20.878
		s-9.815,3.522-9.815,3.522s-2.713,2.896-6.979,2.78c-1.242,2.188-2.722,6.188-4.132,13.494
		c-3.338,17.274-1.769,26.837-1.769,26.837s-3.859-3.209-7.327-0.328c-2.933,2.436-2.684,5.627-1.897,9.161
		c0.783,3.533,5.495,5.89,5.495,5.89s-3.737,8.603-5.766,13.06c-0.392,0.588-1.89,8.923-28.389,14.614c0,0-24.283-2.98-31.38-18.648
		l-2.724-6.133c0,0,0.005-0.016,0.016-0.047C2.61,103.191,0.381,95.186,0.08,82.907C0.08,82.907-0.768,58.869-0.272,52.649"/>
	<path fill="#FAEBE1" d="M61.813,135.135c0,0-2.03-0.198-9.559,0.132c-7.527,0.328-25.795-1.577-25.795-1.577
		s-3.79,2.43-0.777,5.326c3.009,2.895,37.833,3.488,37.833,3.488L61.813,135.135z"/>
	<path fill="#FAEBE1" d="M111.417,168.188c0,0-15.066,2.943-25.552,0.772c-1.773-0.368-3.589,0.387-4.61,1.88
		c-1.893,2.771-0.218,6.564,3.104,7.022c6.855,0.947,17.748,0.892,28.291-1.396C112.446,175.02,111.417,168.188,111.417,168.188"/>
	<path fill="#FAAB6D" d="M111.361,168.301c0,0,2.777-5.183,10.032-3.552c7.256,1.633,10.897,9.82,10.897,13.073h-19.752
		L111.361,168.301z"/>
	<path fill="#424242" d="M89.479,47.311c0,0,5.715-1.447,9.815-3.522S107.035,32,95.617,22.91c-3.053-2.431-3.254-4.304-3.254-4.304
		c4.339-6.835,1.459-14.763-10.937-16.694C69.031-0.023,45.703-0.545,29.139,5.35C4.667,14.06,0.223,46.426-0.272,52.649
		c-0.233,2.933-0.169,9.824-0.034,16.291C9.316,77.742,23.662,82,41.992,82C64.77,82,75.64,65.831,80.016,56.514
		c0.87-3.051,1.722-5.08,2.483-6.423C86.766,50.207,89.479,47.311,89.479,47.311z"/>
</g>
</svg>
