<?xml version="1.0" encoding="utf-8"?>
<!-- Generator: Adobe Illustrator 16.0.0, SVG Export Plug-In . SVG Version: 6.00 Build 0)  -->
<!DOCTYPE svg PUBLIC "-//W3C//DTD SVG 1.0//EN" "http://www.w3.org/TR/2001/REC-SVG-20010904/DTD/svg10.dtd">
<svg version="1.0" id="Layer_1" xmlns="http://www.w3.org/2000/svg" xmlns:xlink="http://www.w3.org/1999/xlink" x="0px" y="0px"
	 width="280.199px" height="232.934px" viewBox="0 0 280.199 232.934" enable-background="new 0 0 280.199 232.934"
	 xml:space="preserve">
<g>
	<g>
		<path fill="#424242" d="M138.252,214.967H84.833v2.281c0,8.488,6.882,15.369,15.369,15.369h53.419v-2.281
			C153.621,221.849,146.74,214.967,138.252,214.967"/>
		<polygon fill="#FAAB6D" points="198.029,230.93 234.248,231.291 231.414,218.955 195.364,219.334 		"/>
		<path fill="#424242" d="M203.71,232.578l-4.042-17.588l-60.171-0.055c-4.997-0.293-9.277,3.543-9.529,8.541
			c-0.254,4.978,3.583,9.214,8.558,9.457L203.71,232.578z"/>
		<path fill="#FAAB6D" d="M231.207,218.811c0,0,22.69-21.215,27.69-21.622c4.999-0.407-5.696,33.812-10.297,33.812S231,231,231,231
			L231.207,218.811z"/>
	</g>
	<g>
		<path fill="#FAAB6D" d="M169.387,198.211c0,0,15.065-3.155,18.125,1.365c3.059,4.521,1.977,7.414,0.581,7.887
			c0.173,3.643,0.313,19.262-1.867,20.381c-2.178,1.117-11.086,5.806-19.647,0.736L169.387,198.211z"/>
		<path fill="#E8833E" d="M170.973,230.377c-1.451-0.362-2.927-0.928-4.395-1.797l2.809-30.369c0,0,2.108-0.441,4.906-0.758
			C173.464,204.804,171.906,219.142,170.973,230.377z"/>
		<path fill="#E1D6CF" d="M84.168,154.6c0,0,3.079,58.654,83.647,76.893c0.45-5.833,3.392-34.725,3.392-34.725
			c-28.995,1.969-68.428,5.482-79.299-40.827L84.168,154.6z"/>
	</g>
	<path fill="#696969" d="M44.593,155.238c0,0,15.72-3.424,43.902-24.992l-0.144,10.407l-31.547,18.059L44.593,155.238z"/>
	
		<rect x="46.127" y="137.54" transform="matrix(-0.9757 0.219 -0.219 -0.9757 162.0606 284.5865)" fill="#FAAB6D" width="38.265" height="27.469"/>
	<path fill="#FAEBE1" d="M157.939,208.836l-88.734,12.182c-1.355-3.03-23.587-60.156-24.612-65.779l41.047-13.1
		C85.64,142.139,158.026,207.912,157.939,208.836z"/>
	<g>
		<path fill="#636363" d="M14.964,48.967C3.066,41.973-5.734,51.625,9.495,95.133c12.536,35.814,8.379-7.832,8.379-7.832
			L14.964,48.967z"/>
		<path fill="#FAAB6D" d="M107.403,122.723c-2.843,6.005-7.089,11.232-13.284,15.135c-8.095,5.1-19.504,6.932-28.877,7.648
			c-12.994,0.992-26.496,0.436-36.172-9.317c-16.012-16.138-15.97-43.046-16.529-64.081c-0.224-8.379,0.481-15.025,1.574-19.215
			c5.191-0.234,10.386-0.472,15.574-0.709c0.88-0.037,1.758-0.078,2.635-0.119c17.32-0.789,34.641-1.577,51.964-2.363
			c1.658-0.075,3.319-0.15,4.978-0.229c6.221-0.281,12.439-0.564,18.661-0.848c0.886,3.863,1.321,9.891,2.261,17.402
			C112.313,83.008,115.362,105.911,107.403,122.723z"/>
		<path fill="#636363" d="M9.807,73.171c-0.223-8.378-0.582-17.757,0.51-21.948c4.006-0.181,11.81,1.306,15.814,1.123l17.958,10.797
			c0,0-13.949,7.005-16.375,8.857c-2.427,1.854-3.128,15.18-3.128,15.18l-2.356,39.932C13.065,111.074,10.271,90.635,9.807,73.171z"
			/>
		<path fill="#424242" d="M117.494,44.899c-1.488,5.117-11.025,8.465-18.627,5.629c0,0,2.781,1.149,7.602,2.836
			c11.926,4.172-53.358,36.64-92.354-0.472C-24.881,15.781,27.533-1.307,52.905-0.166c28.472,1.281,49.958,9.547,61.384,23.385
			c11.427,13.837-11.508,5.369-11.508,5.369S121.572,30.875,117.494,44.899z"/>
		<circle fill="#424242" cx="92.884" cy="83.213" r="6.283"/>
		<circle fill="#424242" cx="48.533" cy="90.055" r="6.283"/>
		<g>
			<path fill="#424242" d="M81.182,65.187c6.305,5.535,14.703,1.847,19.918-3.211c2.602-2.522,6.916,1.156,4.294,3.698
				c-7.435,7.211-19.108,11.533-27.911,3.806C74.74,67.071,78.436,62.775,81.182,65.187L81.182,65.187z"/>
		</g>
		<g>
			<path fill="#424242" d="M60.123,66.576c-3.342,11.225-15.529,13.775-25.658,11.625c-3.571-0.759-1.877-6.169,1.668-5.416
				c7.109,1.51,16.181,0.164,18.574-7.877C55.75,61.407,61.165,63.076,60.123,66.576L60.123,66.576z"/>
		</g>
		<g>
			<g>
				<path fill="#F6A569" d="M24.586,87.18c-16.582-8.343-22.25,21.033,0.678,12.365L24.586,87.18z"/>
				<path fill="#E8833E" d="M22.035,92.85c-7.695-3.057-7.513,6.47,0.398,3.445L22.035,92.85z"/>
			</g>
			
				<ellipse transform="matrix(-0.965 0.2621 -0.2621 -0.965 55.1071 170.6004)" opacity="0.3" fill="#FFFFFF" cx="16.175" cy="88.976" rx="2.768" ry="1.608"/>
		</g>
		<g>
			<g>
				<path fill="#BD7E50" d="M83.081,122.904c-8.63-5.142-19.64-5.607-28.092,0c-1.604,1.064-0.104,3.664,1.514,2.591
					c7.583-5.03,17.331-4.607,25.064,0C83.233,126.487,84.741,123.893,83.081,122.904L83.081,122.904z"/>
			</g>
		</g>
	</g>
	<g>
		<path fill="#424242" d="M158.252,214.967h-53.419v2.281c0,8.488,6.882,15.369,15.369,15.369h53.419v-2.281
			C173.621,221.849,166.74,214.967,158.252,214.967"/>
		<polygon fill="#FAAB6D" points="218.029,230.93 254.248,231.291 251.414,218.955 215.364,219.334 		"/>
		<path fill="#424242" d="M223.71,232.578l-4.042-17.588l-60.171-0.055c-4.997-0.293-9.277,3.543-9.529,8.541
			c-0.254,4.978,3.583,9.214,8.558,9.457L223.71,232.578z"/>
		<path fill="#FAAB6D" d="M251.207,218.811c0,0,22.69-21.215,27.69-21.622c4.999-0.407-5.696,33.812-10.297,33.812S251,231,251,231
			L251.207,218.811z"/>
	</g>
	<path fill="#424242" d="M149,233H93c0,0-26.443-4-26.443-19H139L149,233z"/>
	<g>
		<path fill="#FAAB6D" d="M136.732,199.494c0,0,14.746-4.412,18.175-0.166c3.429,4.247,2.595,7.222,1.243,7.811
			c0.48,3.615,1.935,19.167-0.143,20.465c-2.077,1.297-10.559,6.719-19.517,2.389L136.732,199.494z"/>
		<path fill="#E8833E" d="M141.022,231.412c-1.478-0.238-2.995-0.678-4.531-1.42l0.241-30.498c0,0,2.064-0.617,4.825-1.168
			C141.351,205.721,141.005,220.139,141.022,231.412z"/>
		<path fill="#FAEBE1" d="M48.144,163.215c0,0,8.008,58.188,89.826,69.575c-0.043-5.851,0.455-34.888,0.455-34.888
			c-28.727,4.404-67.723,11.227-82.455-34.003L48.144,163.215z"/>
	</g>
</g>
</svg>
