<?xml version="1.0" encoding="utf-8"?>
<!-- Generator: Adobe Illustrator 16.0.0, SVG Export Plug-In . SVG Version: 6.00 Build 0)  -->
<!DOCTYPE svg PUBLIC "-//W3C//DTD SVG 1.0//EN" "http://www.w3.org/TR/2001/REC-SVG-20010904/DTD/svg10.dtd">
<svg version="1.0" id="Layer_1" xmlns="http://www.w3.org/2000/svg" xmlns:xlink="http://www.w3.org/1999/xlink" x="0px" y="0px"
	 width="157.153px" height="208.494px" viewBox="0 0 157.153 208.494" enable-background="new 0 0 157.153 208.494"
	 xml:space="preserve">
<g>
	<path fill="#FAAB6D" d="M120.173,120.334c0,0,8.362,0.857,9.204,3.717c0.842,2.86-0.201,4.187-1.006,4.201
		c-0.515,1.924-3.033,10.074-4.354,10.295c-1.318,0.22-6.732,1.181-10.346-2.877L120.173,120.334z"/>
	<path fill="#E8833E" d="M115.66,137.334c-0.695-0.43-1.368-0.969-1.988-1.664l6.501-15.336c0,0,1.171,0.119,2.679,0.42
		C121.2,124.44,118.01,131.643,115.66,137.334z"/>
	<path fill="#E1D6CF" d="M83.067,83.5c0,0-8.131,31.031,30.765,53.891c1.203-2.961,7.527-17.507,7.527-17.507
		c-15.414-3.786-36.515-8.501-34.486-34.401L83.067,83.5z"/>
</g>
<path fill="#696969" d="M61.875,74.861c0,0,7.176,5.07,26.257,8.472l-4.245,3.779l-18.908-6.05L61.875,74.861z"/>
<rect x="63.205" y="76.392" transform="matrix(-0.9547 -0.2977 0.2977 -0.9547 118.9979 185.9084)" fill="#FAAB6D" width="20.898" height="15.003"/>
<path fill="#E8833E" d="M85.351,81.484c0,0-6.138,2.26-12.259,0.351c-6.121-1.908-7.692-6.57-7.692-6.57S79.711,75.82,85.351,81.484
	z"/>
<g>
	<path fill="#636363" d="M68.836,21.016c-4.669-5.917-11.061-2.748-11.932,22.412c-0.717,20.711,5.816-2.326,5.816-2.326
		L68.836,21.016z"/>
	<path fill="#FAAB6D" d="M101.266,76.87c-2.636,2.493-5.833,4.312-9.76,5.07c-5.129,0.991-11.3-0.337-16.211-1.83
		c-6.811-2.069-13.572-5.028-16.563-11.909c-4.95-11.387,0.402-25.072,4.286-35.889c1.547-4.309,3.223-7.551,4.609-9.467
		c2.688,0.908,5.379,1.818,8.066,2.725c0.455,0.156,0.91,0.31,1.365,0.463c8.971,3.03,17.941,6.061,26.914,9.094
		c0.858,0.29,1.719,0.581,2.578,0.87c3.222,1.089,6.443,2.178,9.665,3.267c-0.315,2.142-1.288,5.295-2.298,9.304
		C111.635,57.631,108.648,69.892,101.266,76.87z"/>
	<path fill="#636363" d="M61.416,32.313c1.547-4.309,3.222-9.153,4.608-11.069c2.074,0.701,5.751,3.005,7.825,3.705l7,9.054
		c0,0-8.486,0.801-10.089,1.263s-4.599,7.105-4.599,7.105l-9.113,19.855C55.563,52.248,58.191,41.292,61.416,32.313z"/>
	<path fill="#424242" d="M127.667,11.167c0,0-1.922,19.117-11.451,23.167l14.118,3c0,0-50.215,12.126-62.707-14.488
		C55.135-3.77,85.195-2.08,97.883,3.529c14.236,6.294,16.951,0.805,16.951,0.805l-0.5,14.13L127.667,11.167z"/>
	<circle fill="#424242" cx="106.796" cy="55.867" r="3.432"/>
	<circle fill="#424242" cx="82.868" cy="50.561" r="3.432"/>
	<g>
		<path fill="#424242" d="M105.834,42.232c0.982,4.476,5.871,5.57,9.802,5.033c1.96-0.269,2.669,2.746,0.692,3.016
			c-5.604,0.768-12.14-1.108-13.512-7.356C102.389,40.978,105.405,40.283,105.834,42.232L105.834,42.232z"/>
	</g>
	<g>
		<path fill="#424242" d="M93.375,42.335c-4.787,4.241-11.175,1.909-15.252-2.01c-1.438-1.382,0.908-3.402,2.336-2.03
			c2.861,2.75,7.456,4.743,10.887,1.704C92.838,38.676,94.868,41.012,93.375,42.335L93.375,42.335z"/>
	</g>
	<g>
		<path fill="#BD7E50" d="M99.442,72.39c-6.337-8.011-17.394-9.292-26.345-5.406c-0.906,0.394-0.413,1.861,0.504,1.464
			c8.258-3.586,18.646-2.668,24.553,4.8C98.769,74.024,100.062,73.172,99.442,72.39L99.442,72.39z"/>
	</g>
	<g>
		<g>
			<path fill="#F6A569" d="M66.162,42.37c-6.787-7.532-15.493,6.296-2.105,6.427L66.162,42.37z"/>
			<path fill="#E8833E" d="M63.739,44.75c-3.312-3.08-5.105,1.805-0.479,1.833L63.739,44.75z"/>
		</g>
		
			<ellipse transform="matrix(-0.9944 -0.106 0.106 -0.9944 118.2926 89.5194)" opacity="0.3" fill="#FFFFFF" cx="61.524" cy="41.617" rx="1.511" ry="0.878"/>
	</g>
	<g>
		<path fill="#BD7E50" d="M72.158,50.951c-2.551,2.876-2.298,7.059-0.268,10.12c0.206,0.31,0.717,0.031,0.509-0.283
			c-1.873-2.825-2.217-6.735,0.162-9.416C72.808,51.093,72.407,50.67,72.158,50.951L72.158,50.951z"/>
	</g>
	<g>
		<path fill="#BD7E50" d="M73.688,58.578c-1.583-0.646-3.299,0.077-4.283,1.38c-0.1,0.133,0.093,0.306,0.193,0.172
			c0.908-1.203,2.498-1.923,3.973-1.321C73.724,58.871,73.843,58.64,73.688,58.578L73.688,58.578z"/>
	</g>
	<g>
		<path fill="#BD7E50" d="M72.902,55.76c-1.516-0.618-3.16,0.075-4.103,1.322c-0.096,0.127,0.089,0.293,0.185,0.165
			c0.871-1.151,2.393-1.843,3.805-1.266C72.937,56.041,73.05,55.819,72.902,55.76L72.902,55.76z"/>
	</g>
	<g>
		<path fill="#BD7E50" d="M73.521,54.102c-1.148-1.266-3.009-1.355-4.459-0.605c-0.147,0.077-0.048,0.316,0.1,0.239
			c1.339-0.692,3.083-0.656,4.154,0.524C73.426,54.382,73.633,54.225,73.521,54.102L73.521,54.102z"/>
	</g>
</g>
<g>
	<path fill="#232323" d="M13.46,186.063l5.512,9.784c0,0,7.085,4.859,5.103,9.525c-1.301,3.063-0.965,3.121-0.965,3.121
		c-6.111-5.771-22.695-19.802-22.695-19.802c1.785-2.101,8.982-5.47,8.982-5.47L13.46,186.063z"/>
	<path fill="#333333" d="M47.463,144.449c0,0,1.701,17.027-9.773,30.461c-4.653,5.448-14.885,10.124-21.518,18.025
		c-1.734,0.038-14.463-6.016-14.463-6.016c5.318-4.428,20.132-13.373,28.002-17.771c4.942-2.762,11.43-16.726,8.168-30.468
		L47.463,144.449z"/>
</g>
<g>
	<path fill="#2E2E2E" d="M94.85,193.259l10.87-2.825c0,0,6.51-5.606,10.514-2.496c2.628,2.042,3.511,2.834,3.511,2.834
		c-7.143,4.432-25.689,15.771-25.689,15.771c-1.574-2.262-2.69-9.046-2.69-9.046L94.85,193.259z"/>
	<path fill="#424242" d="M71.377,144.208c0,0,20.533,7.122,26.599,22.573c2.886,7.352,2.999,12.125,6.442,24.61
		c-0.889,1.49-11.963,12.546-11.963,12.546c-3.079-7.418-2.738-16.586-3.462-34.944c-0.239-6.056-14.362-12.88-27.908-18.002
		L71.377,144.208z"/>
</g>
<path fill="#FAEBE1" d="M88.132,83.333c-2.661,8.904-5.651,56.651-6.056,56.956l-46.128-13.852
	c0.72-1.663,24.039-49.09,25.927-51.576l20.412,11.707L88.132,83.333z"/>
<path fill="#424242" d="M82.076,140.289c0,0-3.697,9.252-8.688,10.894c-4.995,1.639-29.634,1.367-38.522-12.256
	c-1.729-3.315-0.598-9.433,1.078-12.75L82.076,140.289z"/>
<polygon fill="#E1D6CF" points="77.532,84.236 67.638,87.674 61.875,74.861 "/>
<polygon fill="#E1D6CF" points="88.132,83.333 86.788,90.766 80.85,86.324 "/>
<g>
	<polygon fill="#EE8122" points="83.746,91.97 82.723,117.356 73.566,124.871 68.422,112.751 77.181,89.498 	"/>
	<polygon fill="#BE6928" points="85.402,86.96 84.496,92.358 76.298,90.364 77.456,83.971 	"/>
	<polygon fill="#BE6928" points="83.652,94.291 76.125,92.3 77.031,89.896 83.729,92.417 	"/>
	<polygon fill="#EE8122" points="85.838,88.158 85.029,93.088 75.41,90.543 76.467,84.711 	"/>
</g>
<g>
	<rect x="105.031" y="66" fill="#FFFFFF" width="11.447" height="43.8"/>
	
		<rect x="98.035" y="71.882" transform="matrix(0.9387 -0.3449 0.3449 0.9387 -25.9758 41.534)" fill="#BBBDBF" width="11.446" height="43.799"/>
	<g>
		<polygon fill="#D3803B" points="152.154,105.783 103.93,105.783 108.047,99.902 156.271,99.902 		"/>
		<g>
			<g>
				<rect x="121.773" y="88.696" fill="#2075BC" width="8.075" height="21.104"/>
				<rect x="116.248" y="88.696" fill-rule="evenodd" clip-rule="evenodd" fill="#29AAE1" width="5.525" height="21.104"/>
				<rect x="117.813" y="104.049" fill="#FFFFFF" width="2.688" height="4.5"/>
			</g>
			<g>
				<rect x="128.955" y="88.696" fill="#046938" width="8.074" height="21.104"/>
				<rect x="123.428" y="88.696" fill-rule="evenodd" clip-rule="evenodd" fill="#8EC641" width="5.527" height="21.104"/>
				<rect x="124.994" y="104.049" fill="#FFFFFF" width="2.688" height="4.5"/>
			</g>
			<g>
				<rect x="136.255" y="83.995" fill="#652930" width="8.075" height="25.805"/>
				<rect x="130.729" y="83.995" fill-rule="evenodd" clip-rule="evenodd" fill="#BE202E" width="5.526" height="25.805"/>
				<rect x="132.293" y="89.632" fill="#FFFFFF" width="2.689" height="16.038"/>
			</g>
			<g>
				<rect x="143.758" y="88.696" fill="#2075BC" width="8.074" height="21.104"/>
				<rect x="138.23" y="88.696" fill-rule="evenodd" clip-rule="evenodd" fill="#29AAE1" width="5.527" height="21.104"/>
				<rect x="139.796" y="104.049" fill="#FFFFFF" width="2.688" height="4.5"/>
			</g>
		</g>
		<polygon fill="#D3803B" points="91.652,112.4 97.975,112.4 103.268,105.783 96.945,105.783 		"/>
		<rect x="97.46" y="105.783" fill="#F89C4A" width="54.401" height="30.436"/>
		<rect x="97.46" y="105.783" fill="#FEC455" width="30.435" height="30.436"/>
		<polygon fill="#FEC455" points="157.153,112.4 133.188,112.4 127.895,105.783 151.861,105.783 		"/>
		<polygon fill="#F89C4A" points="127.895,105.783 97.607,105.783 92.314,99.314 122.602,99.314 		"/>
	</g>
</g>
<g>
	<path fill="#FAAB6D" d="M107.89,104.205c0,0,8.292-1.381,9.858,1.155s0.912,4.091,0.139,4.317
		c0.013,1.991-0.266,10.518-1.48,11.078s-6.182,2.917-10.738-0.043L107.89,104.205z"/>
	<path fill="#E8833E" d="M108.025,121.793c-0.783-0.23-1.576-0.573-2.357-1.08l2.222-16.508c0,0,1.161-0.193,2.694-0.303
		C109.965,107.895,108.789,115.684,108.025,121.793z"/>
	<path fill="#FAEBE1" d="M62.377,78.474c0,0,0.35,32.076,43.9,43.856c0.378-3.173,2.639-18.872,2.639-18.872
		c-15.867,0.417-37.465,1.439-42.346-24.077L62.377,78.474z"/>
</g>
</svg>
