<?xml version="1.0" encoding="utf-8"?>
<!-- Generator: Adobe Illustrator 16.0.0, SVG Export Plug-In . SVG Version: 6.00 Build 0)  -->
<!DOCTYPE svg PUBLIC "-//W3C//DTD SVG 1.0//EN" "http://www.w3.org/TR/2001/REC-SVG-20010904/DTD/svg10.dtd">
<svg version="1.0" id="Layer_1" xmlns="http://www.w3.org/2000/svg" xmlns:xlink="http://www.w3.org/1999/xlink" x="0px" y="0px"
	 width="136.76px" height="224.62px" viewBox="0 0 136.76 224.62" enable-background="new 0 0 136.76 224.62" xml:space="preserve">
<g>
	<path fill="#FAAB6D" d="M25.722,119.916c0,0-9.749-1.842-11.663,1.11c-1.913,2.952-1.18,4.804-0.273,5.09
		c-0.065,2.35,0.044,12.417,1.463,13.11c1.418,0.692,7.219,3.6,12.671,0.224L25.722,119.916z"/>
	<path fill="#E8833E" d="M25.109,140.664c0.931-0.252,1.875-0.636,2.81-1.214l-2.197-19.534c0,0-1.364-0.258-3.172-0.426
		C23.178,124.216,24.365,133.436,25.109,140.664z"/>
	<path fill="#E1D6CF" d="M80.082,90.725c0,0-1.236,37.837-52.924,50.618c-0.364-3.753-2.629-22.335-2.629-22.335
		c18.711,0.9,44.166,2.661,50.581-27.32L80.082,90.725z"/>
</g>
<path fill="#696969" d="M106.961,88.078c0,0-9.822,3.322-32.553,0.754l3.532,5.703l23.424-0.486L106.961,88.078z"/>
<rect x="78.266" y="85.483" transform="matrix(0.9999 -0.0133 0.0133 0.9999 -1.247 1.2137)" fill="#FAAB6D" width="24.663" height="17.705"/>
<path fill="#E8833E" d="M78.176,87.678c0,0,6.186,4.619,13.751,4.518c7.565-0.101,10.91-4.847,10.91-4.847
	S86.461,83.166,78.176,87.678z"/>
<g>
	<path fill="#424242" d="M127.973,30.504c8.049-3.789,13.129,2.926,0.791,29.953c-10.156,22.249-4.918-5.521-4.918-5.521
		L127.973,30.504z"/>
	<path fill="#FAAB6D" d="M64.295,72.396c1.471,4.021,3.889,7.627,7.636,10.497c4.895,3.75,12.11,5.599,18.084,6.61
		c8.28,1.403,16.98,1.841,23.766-3.85c11.228-9.414,12.786-26.688,14.385-40.156c0.637-5.364,0.575-9.672,0.122-12.425
		c-3.318-0.457-6.639-0.915-9.955-1.373c-0.563-0.076-1.124-0.153-1.685-0.231c-11.071-1.526-22.142-3.054-33.213-4.579
		c-1.061-0.146-2.122-0.291-3.182-0.439c-3.976-0.548-7.951-1.095-11.928-1.644c-0.796,2.428-1.431,6.271-2.476,11.036
		C63.484,46.616,60.178,61.137,64.295,72.396z"/>
	<path fill="#424242" d="M129.857,46.343c0.636-5.364,1.419-11.363,0.965-14.117c-2.561-0.353-7.656,0.142-10.216-0.212
		l-12.163,5.872c0,0,8.541,5.317,9.989,6.65c1.448,1.332,1.112,9.927,1.112,9.927l-0.84,25.769
		C125.532,70.479,128.529,57.524,129.857,46.343z"/>
	<circle fill="#424242" cx="69.524" cy="47.304" r="4.05"/>
	<circle fill="#424242" cx="97.587" cy="54.308" r="4.05"/>
	<g>
		<path fill="#424242" d="M63.738,40.927c2.592-4.747,8.492-4.372,12.768-2.465c2.133,0.951,3.931-2.23,1.781-3.189
			c-6.097-2.72-14.12-2.753-17.738,3.874C59.422,41.211,62.609,42.994,63.738,40.927L63.738,40.927z"/>
	</g>
	<g>
		<path fill="#424242" d="M111.056,49.102c-1.089-7.469-8.625-10.229-15.285-9.798c-2.349,0.151-1.771,3.76,0.561,3.609
			c4.675-0.303,10.335,1.398,11.115,6.749C107.786,51.992,111.395,51.431,111.056,49.102L111.056,49.102z"/>
	</g>
	<g>
		<g>
			<path fill="#F6A569" d="M119.545,54.463c11.136-4.378,13.042,14.812-1.163,7.896L119.545,54.463z"/>
			<path fill="#E8833E" d="M120.85,58.252c5.119-1.508,4.439,4.596-0.46,2.188L120.85,58.252z"/>
		</g>
		
			<ellipse transform="matrix(0.937 0.3492 -0.3492 0.937 27.4532 -40.0614)" opacity="0.3" fill="#FFFFFF" cx="124.838" cy="56.111" rx="1.784" ry="1.036"/>
	</g>
	<path fill="#EE8122" d="M135.125,43.254L67.164,29.529c0,0,2.584-17.977,6.266-22.088c3.681-4.11,18.698-8.221,32.36-6.988
		c13.662,1.233,28.608,12.941,30.384,20.242C137.95,27.996,135.125,43.254,135.125,43.254z"/>
	<polygon fill="#D66F28" points="112.71,38.711 106.631,29.891 69.294,24.209 52.048,30.562 	"/>
	<g>
		<g>
			<path fill="#BD7E50" d="M72.789,73.292c5.814-1.637,9.774-0.698,14.26,3.423c1.421,1.306,3.549-0.81,2.121-2.121
				c-5.255-4.828-10.309-6.129-17.179-4.194C70.132,70.923,70.922,73.817,72.789,73.292L72.789,73.292z"/>
		</g>
	</g>
</g>
<g>
	<path fill="#232323" d="M26.01,199.677l-11.403-6.754c0,0-5.552-8.485-11.108-6.266c-3.646,1.457-3.706,1.059-3.706,1.059
		c6.651,7.36,22.78,27.287,22.78,27.287c2.525-2.053,6.685-10.459,6.685-10.459L26.01,199.677z"/>
	<path fill="#333333" d="M75.981,160.625c0,0-20.046-2.443-36.19,10.75c-6.548,5.351-12.327,17.303-21.82,24.926
		c-0.089,2.045,6.727,17.22,6.727,17.22c5.361-6.163,16.295-23.411,21.686-32.583c3.387-5.762,20.029-13.058,36.158-8.855
		L75.981,160.625z"/>
</g>
<g>
	<path fill="#2E2E2E" d="M51.615,209.411l-11.188-7.107c0,0-5.281-8.655-10.905-6.61c-3.689,1.342-4.969,1.912-4.969,1.912
		C30.971,205.17,47.7,224.62,47.7,224.62c2.587-1.971,6.297-9.187,6.297-9.187L51.615,209.411z"/>
	<path fill="#424242" d="M95.739,162.813c0,0-25.642,0.565-38.05,15.726c-5.902,7.213-7.758,12.533-16.145,25.312
		c0.458,1.995,8.895,18.424,8.895,18.424c6.145-7.219,9.08-17.64,16.539-37.999c2.461-6.716,20.795-9.268,37.865-10.117
		L95.739,162.813z"/>
</g>
<path fill="#FAEBE1" d="M74.408,88.832c0.018,10.969-12.655,65.987-12.301,66.468l56.84-0.159
	c-0.255-2.123-10.688-63.616-11.986-67.063l-27.029,6.379L74.408,88.832z"/>
<path fill="#424242" d="M62.107,155.3c0,0,1.071,11.71,6.167,15.244c5.1,3.534,33.063,11.511,47.699-0.911
	c3.069-3.169,3.847-10.47,3.066-14.786L62.107,155.3z"/>
<polygon fill="#E1D6CF" points="86.096,93.418 96.133,100.635 106.961,88.078 "/>
<polygon fill="#E1D6CF" points="74.408,88.832 73.43,97.693 81.64,94.664 "/>
<g>
	<polygon fill="#EE8122" points="76.466,100.077 69.088,129.14 76.919,140.72 86.814,128.738 84.724,99.488 	"/>
	<polygon fill="#BE6928" points="76.276,93.854 75.487,100.265 85.432,100.766 86.271,93.144 	"/>
	<polygon fill="#BE6928" points="75.791,102.735 84.976,103.014 84.76,99.989 76.335,100.59 	"/>
	<polygon fill="#EE8122" points="75.381,95.063 74.639,100.91 86.375,101.267 87.142,94.314 	"/>
</g>
<g>
	<g>
		<path fill="#FAAB6D" d="M47.645,154.189l-6.609,1.106l-13.089,0.727c0,0-12.679-0.865-13.319-1.354
			c-1.747-1.332-1.097-3.648,0.371-4.461c0.95-0.525,10.884,0.988,10.884,0.988l0.298-1.987c0,0-12.276-2.698-14.647-3.416
			c-2.603-0.789-0.937-5.366,0.802-5.09c1.921,0.306,13.576,3.038,13.576,3.038l0.598-2.563c0,0-10.599-3.117-14.118-4.581
			c-1.935-0.805-0.468-4.613,1.542-4.402c1.015,0.107,14.204,4.14,14.204,4.14l11.719-0.318l8.852,4.018L47.645,154.189z"/>
		<path fill="#FAAB6D" d="M48.884,141.349c0,0-6.024-9.312-8.231-10.606c-2.207-1.296-6.153-2.278-8.166-2.478
			c-2.773-0.276-3.695-1.843-5.19-1.226c-1.132,0.467-2.087,3.743-0.245,4.64c1.855,0.903,4.854,1.548,5.425,1.845
			s2.916,3.204,2.916,3.204l0.08,8.134l5.615,3.377L48.884,141.349z"/>
	</g>
	<path fill="#FAEBE1" d="M101.826,101.693c0,0,8.079,44.495-56.474,54.579c-0.096-5.219,0.207-20.235,0.207-20.235
		c21.425-0.98,52.781-5.066,50.705-32.715L101.826,101.693z"/>
</g>
<g>
	<path fill="#FAFCFD" d="M99.626,15.549c-0.335-0.265-0.935-0.088-1.339,0.395c-0.402,0.48-0.459,1.086-0.122,1.352
		c0.335,0.264,0.934,0.088,1.337-0.394C99.906,16.419,99.961,15.813,99.626,15.549"/>
	<path fill="#FAFCFD" d="M97.681,21.685l0.363-2.274c0.099-0.618,0.08-0.98-0.068-1.333c-0.21-0.541-0.677-0.853-1.382-0.966
		c-0.805-0.129-1.425,0.06-1.975,0.606l-0.004-0.005l0.113-0.709l-0.896-0.143l-0.209-0.033l-1.093-0.175l-0.053,0.331l0.06,0.01
		c0.653,0.115,0.714,0.197,0.578,1.05l-0.453,2.839c-0.144,0.895-0.215,0.945-0.901,0.845l-0.05-0.007l-0.058,0.363l3.011,0.481
		l0.058-0.363l-0.06-0.011c-0.673-0.117-0.728-0.178-0.583-1.082l0.327-2.049c0.053-0.328,0.231-0.719,0.443-0.981
		c0.324-0.385,0.724-0.547,1.144-0.479c0.599,0.096,0.81,0.541,0.633,1.646l-0.354,2.214c-0.141,0.884-0.226,0.942-0.89,0.847
		l-0.062-0.009l-0.058,0.363l3.012,0.481l0.059-0.363l-0.06-0.012C97.589,22.649,97.538,22.579,97.681,21.685"/>
	<path fill="#FAFCFD" d="M79.836,14.486c-0.371-0.059-0.692-0.038-0.986,0.069l-0.081,0.509c0.233-0.162,0.497-0.23,0.749-0.19
		c0.672,0.107,1.18,0.999,0.916,2.652c-0.264,1.651-1.042,2.329-1.747,2.217c-1.142-0.183-0.994-1.242-0.998-1.511
		c0,0,0.967-6.096,0.994-6.222l-0.687-0.109l-1.553-0.248l-0.057,0.352l0.062,0.01c0.684,0.109,0.716,0.279,0.577,1.145
		l-0.707,4.429c-0.276,1.729,1.54,2.39,2.246,2.502c1.596,0.256,3.108-0.654,3.402-2.494C82.236,15.906,81.307,14.721,79.836,14.486
		"/>
	<path fill="#FAFCFD" d="M90.04,16.191c-0.646-0.103-1.133,0.014-1.644,0.374l0.089-0.555l-2.235-0.354l-0.069,0.431
		c0.56,0.097,0.746,0.192,0.687,0.745l-1.037,6.494c-0.111,0.532-0.244,0.552-0.822,0.475l-0.059-0.007l-0.057,0.355l3.027,0.483
		l0.057-0.355l-0.057-0.012c-0.447-0.088-0.641-0.144-0.693-0.361l0.944-5.913c0.317-1.013,0.839-1.514,1.466-1.413
		c0.673,0.107,0.952,0.941,0.693,2.563c-0.267,1.668-0.808,2.357-1.588,2.232c-0.162-0.026-0.316-0.1-0.447-0.208l-0.069,0.435
		c0.201,0.101,0.423,0.167,0.693,0.21c0.724,0.115,1.442-0.055,1.93-0.477c0.497-0.43,0.866-1.189,1.01-2.092
		C92.129,17.544,91.481,16.422,90.04,16.191"/>
	<path fill="#FAFCFD" d="M84.403,17.912c0.005-0.012,0.008-0.023,0.01-0.037l0.322-2.016l1.05,0.168l0.07-0.438l-1.051-0.168
		l0.254-1.59l-0.601-0.096l-0.017,0.049c-0.173,0.484-0.32,0.751-0.545,0.994c-0.283,0.309-0.691,0.388-1.135,0.338l-0.223-0.033
		l-0.066,0.414l0.76,0.121l-0.287,1.796l-0.007,0.06c-0.263,1.628-0.392,2.12-0.137,2.563c0.212,0.37,0.662,0.892,1.794,1.072
		c0.271,0.043,0.502,0.051,0.723,0.018l0.07-0.435c-0.158,0.062-0.326,0.084-0.49,0.058C83.956,20.6,84.055,20.093,84.403,17.912"/>
	<path fill="#FAFCFD" d="M92.099,12.756c0.07-0.078,0.148-0.139,0.233-0.188c0.091-0.049,0.189-0.081,0.297-0.096
		c0.109-0.02,0.225-0.018,0.349,0.002c0.13,0.021,0.247,0.058,0.35,0.113c0.109,0.058,0.196,0.131,0.264,0.222
		c0.073,0.089,0.122,0.192,0.147,0.312c0.029,0.117,0.031,0.246,0.009,0.387l-0.245,1.532c-0.004,0.03-0.036,0.052-0.066,0.048
		l-0.094-0.016c-0.031-0.005-0.055-0.036-0.05-0.065l0.243-1.52c0.021-0.13,0.018-0.239-0.006-0.329
		c-0.022-0.095-0.063-0.174-0.118-0.238c-0.053-0.066-0.122-0.119-0.202-0.158c-0.078-0.041-0.167-0.07-0.264-0.086
		c-0.136-0.021-0.256-0.014-0.363,0.02c-0.109,0.031-0.205,0.083-0.287,0.155c-0.08,0.07-0.146,0.157-0.199,0.263
		s-0.09,0.22-0.109,0.344l-0.209,1.308c-0.005,0.029-0.037,0.052-0.067,0.047l-0.094-0.015c-0.03-0.005-0.054-0.036-0.049-0.065
		l0.369-2.312c0.005-0.028,0.036-0.051,0.066-0.046l0.094,0.015c0.03,0.005,0.055,0.037,0.05,0.065L92.099,12.756z"/>
	<path fill="#FAFCFD" d="M86.914,13.229c0.021,0.137,0.062,0.257,0.123,0.365c0.063,0.108,0.147,0.199,0.252,0.273
		c0.104,0.074,0.226,0.122,0.369,0.145c0.148,0.024,0.279,0.016,0.393-0.022c0.119-0.038,0.221-0.1,0.305-0.183
		c0.09-0.088,0.163-0.192,0.219-0.315c0.061-0.123,0.102-0.257,0.123-0.397c0.021-0.131,0.023-0.263,0.008-0.396
		c-0.013-0.134-0.045-0.257-0.1-0.367c-0.055-0.111-0.132-0.208-0.232-0.288c-0.094-0.078-0.219-0.132-0.375-0.157
		c-0.277-0.044-0.509,0.014-0.703,0.169c-0.193,0.151-0.322,0.4-0.378,0.754C86.894,12.953,86.893,13.093,86.914,13.229
		 M86.795,13.57l-0.063,0.389c-0.005,0.03-0.035,0.052-0.066,0.047l-0.094-0.016c-0.03-0.004-0.054-0.034-0.049-0.064l0.513-3.209
		c0.005-0.031,0.036-0.053,0.067-0.048l0.094,0.015c0.029,0.006,0.053,0.036,0.049,0.066l-0.204,1.274
		c0.079-0.098,0.176-0.179,0.289-0.241c0.2-0.109,0.435-0.142,0.699-0.1c0.173,0.028,0.324,0.088,0.45,0.18
		c0.123,0.092,0.22,0.203,0.291,0.336c0.072,0.132,0.119,0.276,0.141,0.436c0.023,0.16,0.022,0.324-0.004,0.492
		c-0.029,0.178-0.08,0.34-0.153,0.485c-0.072,0.146-0.165,0.267-0.28,0.366c-0.108,0.096-0.236,0.166-0.382,0.208
		c-0.144,0.043-0.299,0.051-0.466,0.023c-0.257-0.041-0.465-0.144-0.623-0.31C86.912,13.801,86.842,13.691,86.795,13.57"/>
	<path fill="#FAFCFD" d="M91,13.37c-0.024,0.01-0.052,0.018-0.081,0.023c-0.072,0.011-0.153,0.016-0.243,0.015
		c-0.088-0.002-0.184-0.01-0.285-0.022c-0.097-0.013-0.19-0.022-0.285-0.031c-0.091-0.009-0.184-0.012-0.273-0.008
		c-0.081,0.001-0.158,0.017-0.225,0.048c-0.064,0.025-0.121,0.071-0.169,0.135c-0.044,0.059-0.079,0.145-0.099,0.263
		c-0.009,0.06-0.008,0.12,0.002,0.185c0.013,0.058,0.039,0.11,0.082,0.165c0.043,0.05,0.1,0.097,0.178,0.141
		c0.076,0.04,0.178,0.071,0.304,0.091c0.149,0.024,0.283,0.02,0.403-0.01c0.123-0.029,0.227-0.076,0.313-0.139
		c0.092-0.066,0.163-0.147,0.218-0.241c0.057-0.095,0.094-0.196,0.111-0.303L91,13.37z M90.852,14.302l-0.031,0.029
		c-0.069,0.065-0.152,0.118-0.25,0.161c-0.096,0.045-0.201,0.072-0.316,0.086c-0.118,0.018-0.24,0.015-0.371-0.006
		c-0.25-0.04-0.449-0.126-0.591-0.262c-0.144-0.144-0.196-0.33-0.161-0.552c0.024-0.149,0.068-0.271,0.137-0.36
		c0.068-0.085,0.15-0.149,0.246-0.189c0.094-0.043,0.193-0.063,0.305-0.065c0.105-0.006,0.209-0.003,0.312,0.007l0.429,0.047
		c0.117,0.009,0.21,0.009,0.282,0.001c0.073-0.011,0.122-0.033,0.152-0.062c0.032-0.031,0.058-0.082,0.07-0.162
		c0.011-0.066,0.016-0.136,0.016-0.209c-0.001-0.068-0.02-0.133-0.054-0.195c-0.031-0.061-0.085-0.115-0.165-0.165
		c-0.077-0.052-0.19-0.091-0.345-0.115c-0.243-0.039-0.432-0.009-0.575,0.079c-0.143,0.084-0.239,0.224-0.287,0.426
		c-0.006,0.026-0.038,0.047-0.066,0.043l-0.094-0.016c-0.033-0.005-0.056-0.036-0.048-0.067c0.023-0.113,0.065-0.216,0.124-0.308
		c0.061-0.097,0.137-0.176,0.229-0.237c0.096-0.062,0.206-0.103,0.327-0.126c0.127-0.022,0.268-0.021,0.422,0.004
		c0.109,0.018,0.212,0.045,0.307,0.083c0.101,0.039,0.185,0.094,0.254,0.165c0.071,0.07,0.12,0.154,0.153,0.253
		c0.033,0.101,0.04,0.22,0.022,0.351l-0.272,1.705c-0.005,0.029-0.037,0.051-0.066,0.046l-0.094-0.015
		c-0.031-0.005-0.054-0.035-0.049-0.065L90.852,14.302z"/>
	<path fill="#FAFCFD" d="M96.027,15.454l-0.854-1.624l0.973-0.712c0,0,0.038-0.026,0.037-0.042c0-0.01-0.013-0.023-0.023-0.025
		c0,0-0.167-0.023-0.181-0.025c-0.058-0.01-0.1,0.025-0.1,0.025l-1.432,0.996l0.336-2.099c0.005-0.03-0.02-0.061-0.05-0.065
		l-0.114-0.019c-0.031-0.005-0.063,0.017-0.066,0.047l-0.514,3.216c-0.005,0.029,0.018,0.061,0.049,0.064l0.114,0.019
		c0.031,0.005,0.063-0.017,0.067-0.046l0.131-0.822l0.568-0.383l0.745,1.453c0.012,0.023,0.025,0.041,0.072,0.049
		c0.046,0.008,0.202,0.031,0.202,0.031c0.011,0,0.03-0.004,0.037-0.013C96.031,15.473,96.031,15.463,96.027,15.454"/>
</g>
</svg>
