<?xml version="1.0" encoding="utf-8"?>
<!-- Generator: Adobe Illustrator 16.0.0, SVG Export Plug-In . SVG Version: 6.00 Build 0)  -->
<!DOCTYPE svg PUBLIC "-//W3C//DTD SVG 1.0//EN" "http://www.w3.org/TR/2001/REC-SVG-20010904/DTD/svg10.dtd">
<svg version="1.0" id="Layer_1" xmlns="http://www.w3.org/2000/svg" xmlns:xlink="http://www.w3.org/1999/xlink" x="0px" y="0px"
	 width="182.786px" height="183.805px" viewBox="0 0 182.786 183.805" enable-background="new 0 0 182.786 183.805"
	 xml:space="preserve">
<g>
	<path fill="#FAAB6D" d="M34.331,77.111c0,0-6.351-7.931-9.807-6.912c-3.456,1.02-4.119,2.947-3.606,3.774
		c-1.617,1.783-8.244,9.682-7.604,11.166c0.641,1.483,3.211,7.611,9.701,8.622L34.331,77.111z"/>
	<path fill="#E8833E" d="M20.021,92.832c0.893,0.425,1.881,0.756,2.994,0.93l11.315-16.65c0,0-0.89-1.109-2.182-2.445
		C29.486,78.759,24.263,86.717,20.021,92.832z"/>
	<path fill="#E1D6CF" d="M96.05,90.662c0,0-26.188,28.589-74.888,4.064c2.22-3.161,12.848-19.115,12.848-19.115
		c13.944,13.174,32.559,31.515,57.534,12.485L96.05,90.662z"/>
</g>
<path fill="#696969" d="M101.527,62.28c0,0-1.309,10.539-13.795,30.358l6.832-0.718l9.979-21.821L101.527,62.28z"/>
<rect x="87.384" y="71.092" transform="matrix(0.4227 -0.9063 0.9063 0.4227 -14.9053 136.9173)" fill="#FAAB6D" width="25.258" height="18.132"/>
<path fill="#E8833E" d="M88.344,88.65c0,0,7.014-3.648,10.289-10.671c3.274-7.022,0.387-12.221,0.387-12.221
	S87.871,79.001,88.344,88.65z"/>
<g>
	<path fill="#636363" d="M57.781,17.271c0.09-9.11,8.543-10.806,27.978,12.605c15.999,19.271-7.28,2.076-7.28,2.076L57.781,17.271z"
		/>
	<path fill="#FAAB6D" d="M68.071,94.649c4.364,0.434,8.766-0.191,13.08-2.369c5.638-2.845,10.554-8.677,14.147-13.735
		c4.98-7.014,9.257-14.842,7.029-23.633C98.644,40.367,83.406,31.24,71.696,23.77c-4.664-2.976-8.663-4.837-11.405-5.645
		c-1.898,2.858-3.799,5.717-5.697,8.57c-0.32,0.485-0.642,0.969-0.964,1.451c-6.337,9.53-12.673,19.061-19.009,28.593
		c-0.605,0.913-1.213,1.827-1.821,2.739c-2.275,3.423-4.55,6.846-6.826,10.268c1.885,1.815,5.146,4.111,9.076,7.197
		C43.934,83.92,55.854,93.435,68.071,94.649z"/>
	<path fill="#636363" d="M73.229,22.585c-4.664-2.976-9.796-6.368-12.538-7.176C59.226,17.613,57,22.534,56,24.737v13.831
		c0,0,8.654-5.509,10.528-6.251c1.873-0.743,9.625,3.393,9.625,3.393l23.379,12.246C93.576,37.318,82.95,28.787,73.229,22.585z"/>
	<path fill="#424242" d="M20.612,73.893c3.401,0.898,8.538-3.359,9.52-8.624c0,0-0.296,1.965-0.981,5.265
		c-1.695,8.166,38.875-17.727,31.141-52.408c-7.734-34.681-35.226-10.84-43.208,3.902C8.125,38.57,5.494,53.537,9.437,64.707
		s6.951-4.686,6.951-4.686S11.291,71.43,20.612,73.893z"/>
	<g>
		<path fill="#424242" d="M35.737,78.619c-1.016-5.444,3.908-8.967,8.537-10.222c2.308-0.625,1.675-4.313-0.651-3.684
			c-6.599,1.788-12.987,6.956-11.569,14.557C32.496,81.639,36.18,80.99,35.737,78.619L35.737,78.619z"/>
	</g>
	<g>
		<path fill="#424242" d="M61.644,41.298c-7.624,1.275-10.288,9.05-9.704,15.86c0.205,2.4,3.888,1.732,3.684-0.651
			c-0.41-4.78,1.21-10.612,6.672-11.525C64.673,44.584,64.021,40.9,61.644,41.298L61.644,41.298z"/>
	</g>
	<g>
		<path fill="#424242" d="M53.403,74.809c0.537,3.717-2.668,6.099-5.906,6.835c-1.142,0.26-1.376-1.544-0.243-1.801
			c2.273-0.517,4.733-2.128,4.349-4.792C51.436,73.892,53.236,73.649,53.403,74.809L53.403,74.809z"/>
	</g>
	<g>
		<path fill="#424242" d="M61.32,62.58c3.752-0.154,5.506-3.742,5.636-7.061c0.046-1.17-1.77-1.069-1.815,0.092
			c-0.091,2.329-1.224,5.043-3.912,5.153C60.058,60.813,60.15,62.628,61.32,62.58L61.32,62.58z"/>
	</g>
	<g>
		<g>
			<path fill="#F6A569" d="M76.127,35.71c0.92-12.219,19.467-5.435,6.765,4.588L76.127,35.71z"/>
			<path fill="#E8833E" d="M80.202,36.194c0.889-5.393,6.216-2.05,1.814,1.397L80.202,36.194z"/>
		</g>
		
			<ellipse transform="matrix(0.7219 -0.692 0.692 0.7219 0.4074 64.1377)" opacity="0.3" fill="#FFFFFF" cx="80.003" cy="31.562" rx="1.827" ry="1.061"/>
	</g>
	<ellipse fill="#BD7E50" cx="79.721" cy="73.382" rx="5.283" ry="6.683"/>
</g>
<g>
	<path fill="#232323" d="M100.359,160.34l-12.603-5.04c0,0-6.952-7.712-12.227-4.593c-3.461,2.049-3.584,1.654-3.584,1.654
		c7.89,6.401,27.347,24.028,27.347,24.028c2.232-2.475,5.118-11.636,5.118-11.636L100.359,160.34z"/>
	<path fill="#333333" d="M144.781,112.958c0,0-20.67,0.682-34.93,16.573c-5.784,6.445-9.752,19.449-18.158,28.657
		c0.231,2.084,9.517,16.366,9.517,16.366c4.455-7.079,12.806-26.254,16.817-36.385c2.521-6.362,18.212-16.365,35.196-14.651
		L144.781,112.958z"/>
</g>
<g>
	<path fill="#2E2E2E" d="M118.797,167.908l-12.119-6.111c0,0-6.259-8.285-11.783-5.633c-3.624,1.74-4.871,2.451-4.871,2.451
		c7.306,7.059,26.322,25.189,26.322,25.189c2.438-2.271,5.487-10,5.487-10L118.797,167.908z"/>
	<path fill="#424242" d="M159.05,115.957c0,0-26.075,3.171-37.186,19.875c-5.286,7.947-6.639,13.559-13.893,27.429
		c0.669,1.987,10.929,17.876,10.929,17.876c5.531-7.979,7.469-18.895,13.011-40.398c1.828-7.092,20.254-11.548,37.564-14.141
		L159.05,115.957z"/>
</g>
<path fill="#FAEBE1" d="M87.732,92.639c10.122,4.867,55.224,21.048,55.825,20.936c0,0,45.124,5.326,40.157-7.494
	c-18.382-47.445-78.431-43.463-82.188-43.8l-6.148,27.769L87.732,92.639z"/>
<path fill="#424242" d="M124.481,106.816c0,0,1.097,11.991,6.315,15.611c5.223,3.619,33.859,11.788,48.85-0.934
	c3.143-3.245,3.938-10.722,3.14-15.143L124.481,106.816z"/>
<path fill="#FAEBE1" d="M182.786,106.352c0,0-8.786,3.981-17.786,15.648s-25.433-14.63-43.383-15.648L167,90.569L182.786,106.352z"
	/>
<polygon fill="#E1D6CF" points="87.732,92.639 95.468,97.486 96.33,88.565 "/>
<path fill="#DDE2E2" d="M74.092,92.294H8.076c-4.299,0-7.784,3.482-7.784,7.784v0.08h66.017v-0.08
	C66.309,95.776,69.795,92.294,74.092,92.294"/>
<g>
	<path fill="#FAAB6D" d="M69.438,80.98c0,0-6.551-7.766-9.98-6.658c-3.428,1.107-4.042,3.052-3.508,3.865
		c-1.571,1.824-7.993,9.891-7.314,11.357s3.405,7.526,9.918,8.371L69.438,80.98z"/>
	<path fill="#E8833E" d="M55.537,97.063c0.902,0.402,1.9,0.708,3.016,0.854L69.438,80.98c0,0-0.917-1.087-2.243-2.389
		C64.638,82.752,59.619,90.842,55.537,97.063z"/>
	<path fill="#FAEBE1" d="M105.438,62.791c0,0,0.601,59.403-48.713,36.137c2.138-3.217,12.353-19.438,12.353-19.438
		c14.278,12.812,29.049,14.413,31.79-19.147L105.438,62.791z"/>
</g>
</svg>
