<?xml version="1.0" encoding="utf-8"?>
<!-- Generator: Adobe Illustrator 16.0.0, SVG Export Plug-In . SVG Version: 6.00 Build 0)  -->
<!DOCTYPE svg PUBLIC "-//W3C//DTD SVG 1.0//EN" "http://www.w3.org/TR/2001/REC-SVG-20010904/DTD/svg10.dtd">
<svg version="1.0" id="Layer_1" xmlns="http://www.w3.org/2000/svg" xmlns:xlink="http://www.w3.org/1999/xlink" x="0px" y="0px"
	 width="131.054px" height="239.805px" viewBox="0 0 131.054 239.805" enable-background="new 0 0 131.054 239.805"
	 xml:space="preserve">
<g>
	<path fill="#FAAB6D" d="M115.781,131.579c0,0,9.984-1.886,11.943,1.138c1.96,3.023,1.208,4.918,0.28,5.212
		c0.067,2.406-0.044,12.716-1.498,13.426c-1.452,0.709-7.392,3.687-12.976,0.229L115.781,131.579z"/>
	<path fill="#E8833E" d="M116.408,152.827c-0.953-0.258-1.92-0.651-2.877-1.243l2.25-20.005c0,0,1.397-0.264,3.248-0.437
		C118.386,135.982,117.17,145.425,116.408,152.827z"/>
	<path fill="#E1D6CF" d="M60.111,101.684c0,0,1.266,38.75,54.198,51.839c0.373-3.845,2.692-22.873,2.692-22.873
		c-19.162,0.921-45.23,2.725-51.8-27.979L60.111,101.684z"/>
</g>
<path fill="#696969" d="M32.584,93.974c0,0,10.06,3.403,33.337,0.772l-3.617,5.841l-23.988-0.499L32.584,93.974z"/>
<rect x="36.713" y="91.316" transform="matrix(-0.9999 -0.0133 0.0133 -0.9999 97.3441 201.4101)" fill="#FAAB6D" width="25.257" height="18.131"/>
<path fill="#E8833E" d="M62.063,93.563c0,0-6.334,4.73-14.082,4.627c-7.748-0.103-11.174-4.964-11.174-4.964
	S53.578,88.943,62.063,93.563z"/>
<g>
	<path fill="#636363" d="M11.065,35.012c-8.243-3.88-13.444,2.996-0.81,30.676c10.401,22.785,5.035-5.654,5.035-5.654L11.065,35.012
		z"/>
	<path fill="#FAAB6D" d="M76.277,77.914c-1.506,4.119-3.982,7.812-7.819,10.751c-5.013,3.84-12.401,5.732-18.519,6.769
		c-8.481,1.438-17.391,1.886-24.34-3.941c-11.498-9.642-13.094-27.331-14.73-41.124c-0.652-5.494-0.59-9.905-0.125-12.726
		c3.398-0.467,6.799-0.936,10.195-1.405c0.575-0.077,1.15-0.157,1.725-0.237c11.337-1.563,22.674-3.127,34.014-4.689
		c1.086-0.148,2.173-0.298,3.258-0.449c4.071-0.562,8.143-1.122,12.215-1.684c0.815,2.486,1.465,6.422,2.536,11.302
		C77.107,51.513,80.494,66.384,76.277,77.914z"/>
	<path fill="#636363" d="M9.136,51.232c-0.651-5.493-1.454-11.637-0.988-14.457c2.622-0.361,7.841,0.145,10.462-0.217l12.456,6.014
		c0,0-8.747,5.445-10.229,6.811c-1.483,1.364-1.14,10.166-1.14,10.166l0.86,26.39C13.564,75.95,10.495,62.684,9.136,51.232z"/>
	<path fill="#424242" d="M78.215,26.151c-0.67,3.453-6.736,6.229-11.904,4.823c0,0,1.897,0.588,5.168,1.406
		c8.091,2.022-32.863,27.303-60.734,5.262S16.293,1.207,33.04,0.427C51.832-0.449,66.454,3.688,74.8,12.094s-7.24,4.223-7.24,4.223
		S80.049,16.687,78.215,26.151z"/>
	<circle fill="#424242" cx="70.923" cy="52.217" r="4.148"/>
	<circle fill="#424242" cx="42.183" cy="59.39" r="4.148"/>
	<g>
		<path fill="#424242" d="M75.896,41.826c-4.461-3.281-9.774-0.377-12.916,3.246c-1.566,1.807-4.613-0.367-3.034-2.188
			c4.479-5.165,11.91-8.672,18.138-4.091C80.025,40.221,77.84,43.256,75.896,41.826L75.896,41.826z"/>
	</g>
	<g>
		<path fill="#424242" d="M31.024,48.934c4.463-6.312,12.623-5.33,18.502-1.845c2.073,1.229-0.13,4.255-2.188,3.034
			c-4.126-2.447-10.082-3.523-13.279,0.999C32.666,53.091,29.633,50.902,31.024,48.934L31.024,48.934z"/>
	</g>
	<g>
		<g>
			<path fill="#F6A569" d="M19.696,59.549C8.292,55.065,6.34,74.717,20.888,67.635L19.696,59.549z"/>
			<path fill="#E8833E" d="M18.361,63.43c-5.243-1.545-4.548,4.706,0.47,2.24L18.361,63.43z"/>
		</g>
		
			<ellipse transform="matrix(-0.937 0.3492 -0.3492 -0.937 49.0381 113.6328)" opacity="0.3" fill="#FFFFFF" cx="14.276" cy="61.237" rx="1.827" ry="1.061"/>
	</g>
	<ellipse fill="#BD7E50" cx="63.683" cy="78.577" rx="5.968" ry="7.809"/>
</g>
<g>
	<path fill="#232323" d="M102.641,206.34l12.603-5.04c0,0,6.952-7.712,12.227-4.593c3.461,2.049,3.584,1.654,3.584,1.654
		c-7.89,6.401-27.347,24.028-27.347,24.028c-2.232-2.475-5.118-11.636-5.118-11.636L102.641,206.34z"/>
	<path fill="#333333" d="M58.219,158.958c0,0,20.67,0.682,34.931,16.573c5.783,6.445,9.751,19.449,18.157,28.657
		c-0.231,2.084-9.517,16.366-9.517,16.366c-4.455-7.079-12.806-26.254-16.817-36.385c-2.521-6.362-18.213-16.365-35.196-14.651
		L58.219,158.958z"/>
</g>
<g>
	<path fill="#2E2E2E" d="M84.203,223.908l12.119-6.111c0,0,6.259-8.285,11.783-5.633c3.624,1.74,4.87,2.451,4.87,2.451
		c-7.305,7.059-26.321,25.189-26.321,25.189c-2.438-2.271-5.487-10-5.487-10L84.203,223.908z"/>
	<path fill="#424242" d="M43.95,171.957c0,0,26.075,3.171,37.186,19.875c5.286,7.947,6.639,13.559,13.893,27.429
		c-0.669,1.987-10.929,17.876-10.929,17.876c-5.531-7.979-7.469-18.895-13.011-40.398c-1.828-7.092-20.254-11.548-37.564-14.141
		L43.95,171.957z"/>
</g>
<path fill="#FAEBE1" d="M65.921,94.746c-0.017,11.232,12.96,67.577,12.598,68.07l-58.21-0.163
	c0.262-2.176,10.945-65.149,12.275-68.68l27.68,6.533L65.921,94.746z"/>
<path fill="#424242" d="M78.519,162.816c0,0-1.098,11.991-6.315,15.611c-5.223,3.619-33.859,11.788-48.85-0.934
	c-3.143-3.245-3.938-10.722-3.14-15.143L78.519,162.816z"/>
<polygon fill="#E1D6CF" points="53.951,99.442 43.672,106.833 32.584,93.974 "/>
<polygon fill="#E1D6CF" points="65.921,94.746 66.924,103.82 58.515,100.719 "/>
<g>
	<polygon fill="#EE8122" points="63.814,106.262 71.369,136.025 63.35,147.885 53.217,135.614 55.356,105.66 	"/>
	<polygon fill="#BE6928" points="64.008,99.889 64.816,106.454 54.633,106.968 53.772,99.161 	"/>
	<polygon fill="#BE6928" points="64.505,108.984 55.1,109.27 55.32,106.172 63.947,106.787 	"/>
	<polygon fill="#EE8122" points="64.925,101.127 65.685,107.115 53.665,107.48 52.881,100.36 	"/>
</g>
<g>
	<path fill="#FAAB6D" d="M87.234,131.698c0,0,9.947-2.073,11.963,0.912c2.017,2.986,1.301,4.896,0.379,5.206
		c0.112,2.405,0.195,12.715-1.244,13.452c-1.439,0.736-7.322,3.825-12.97,0.474L87.234,131.698z"/>
	<path fill="#E8833E" d="M88.262,152.932c-0.958-0.24-1.932-0.615-2.899-1.189l1.872-20.044c0,0,1.393-0.29,3.24-0.497
		C89.922,136.053,88.885,145.516,88.262,152.932z"/>
	<path fill="#FAEBE1" d="M31.012,102.858c0,0,1.995,38.718,55.166,50.808c0.301-3.851,2.26-22.92,2.26-22.92
		c-19.141,1.282-45.171,3.577-52.317-26.998L31.012,102.858z"/>
</g>
</svg>
