<?xml version="1.0" encoding="utf-8"?>
<!-- Generator: Adobe Illustrator 16.0.0, SVG Export Plug-In . SVG Version: 6.00 Build 0)  -->
<!DOCTYPE svg PUBLIC "-//W3C//DTD SVG 1.0//EN" "http://www.w3.org/TR/2001/REC-SVG-20010904/DTD/svg10.dtd">
<svg version="1.0" id="Layer_1" xmlns="http://www.w3.org/2000/svg" xmlns:xlink="http://www.w3.org/1999/xlink" x="0px" y="0px"
	 width="166.17px" height="290.82px" viewBox="0 0 166.17 290.82" enable-background="new 0 0 166.17 290.82" xml:space="preserve">
<path fill="#696969" d="M122.218,102.67c0,0-11.818,3.824-39.003,0.385l4.139,6.888l28.066-0.209L122.218,102.67z"/>
<rect x="87.746" y="99.299" fill="#FAAB6D" width="29.544" height="21.209"/>
<path fill="#E8833E" d="M87.746,101.73c0,0,7.334,5.633,16.398,5.633c9.063,0,13.146-5.633,13.146-5.633S97.741,96.46,87.746,101.73
	z"/>
<g>
	<path fill="#424242" d="M125.48,17.067c8.791-6.021,26.084,10.944,16.672,45.269c-7.747,28.256-6.871-5.586-6.871-5.586
		L125.48,17.067z"/>
	<g>
		<g>
			<path fill="#F6A569" d="M137.266,56.875c12.328-7.311,18.26,15.016,0.137,9.56L137.266,56.875z"/>
			<path fill="#E8833E" d="M139.533,61.105c5.765-2.764,6.131,4.584-0.124,2.676L139.533,61.105z"/>
		</g>
		
			<ellipse transform="matrix(0.9808 0.1949 -0.1949 0.9808 14.0281 -26.9297)" opacity="0.3" fill="#FFFFFF" cx="143.84" cy="57.81" rx="2.137" ry="1.241"/>
	</g>
	<path fill="#424242" d="M67.381,79.778C46.731,50.465,61.065,3.396,76.63,13.799L67.381,79.778z"/>
	<g>
		<g>
			<path fill="#F6A569" d="M64.84,58.158c-13.275-5.401-15.832,17.558,1.282,9.475L64.84,58.158z"/>
			<path fill="#E8833E" d="M63.225,62.679c-6.111-1.878-5.384,5.442,0.52,2.628L63.225,62.679z"/>
		</g>
		
			<ellipse transform="matrix(0.9563 -0.2924 0.2924 0.9563 -15.0654 19.7577)" opacity="0.3" fill="#FFFFFF" cx="58.558" cy="60.273" rx="2.137" ry="1.24"/>
	</g>
	<path fill="#FAAB6D" d="M68.206,88.806c2.51,4.474,6.06,8.274,11.04,10.95c6.506,3.496,15.393,4.3,22.65,4.353
		c10.062,0.072,20.433-1.077,27.366-9.104c11.473-13.285,10.007-34.008,9.317-50.242c-0.275-6.465-1.173-11.547-2.237-14.716
		c-4.012,0.096-8.025,0.19-12.034,0.284c-0.68,0.018-1.358,0.033-2.037,0.049c-13.383,0.315-26.767,0.631-40.151,0.948
		c-1.281,0.03-2.565,0.062-3.847,0.09c-4.806,0.114-9.611,0.229-14.419,0.341c-0.476,3.023-0.49,7.689-0.814,13.525
		C62.309,58.476,61.181,76.28,68.206,88.806z"/>
	<circle fill="#424242" cx="82.556" cy="62.177" r="4.852"/>
	<circle fill="#424242" cx="119.175" cy="62.177" r="4.851"/>
	<g>
		<path fill="#424242" d="M74.869,51.109c4.538-4.623,11.216-2.265,15.521,1.331c2.146,1.793,5.258-1.286,3.094-3.094
			c-6.138-5.126-15.375-7.786-21.709-1.331C69.802,50.027,72.893,53.123,74.869,51.109L74.869,51.109z"/>
	</g>
	<g>
		<path fill="#424242" d="M130.104,48.016c-6.334-6.453-15.573-3.794-21.71,1.331c-2.163,1.807,0.946,4.888,3.095,3.094
			c4.308-3.597,10.983-5.954,15.521-1.331C128.985,53.123,132.078,50.027,130.104,48.016L130.104,48.016z"/>
	</g>
	<g>
		<g>
			<path fill="#BD7E50" d="M86.989,86.586c8.63,5.142,19.64,5.607,28.092,0c1.604-1.064,0.104-3.664-1.514-2.591
				c-7.583,5.03-17.331,4.607-25.064,0C86.837,83.003,85.329,85.597,86.989,86.586L86.989,86.586z"/>
		</g>
	</g>
	<path fill="#FAAB6D" d="M63.854,31.758c0,0,0.434-31.415,36.456-31.415s36.032,29.703,36.032,29.703S83.709,42.182,63.854,31.758z"
		/>
</g>
<g>
	<path fill="#FAAB6D" d="M140.642,177.486c0,0-4.383,11.048-1.345,13.97c3.036,2.922,5.381,2.479,5.924,1.479
		c2.748,0.611,14.613,2.771,15.751,1.261s5.876-7.671,3.146-14.852L140.642,177.486z"/>
	<path fill="#E8833E" d="M164.905,182.925c-0.084-1.152-0.321-2.35-0.788-3.58l-23.476-1.858c0,0-0.612,1.547-1.222,3.634
		C145.121,181.456,156.234,182.156,164.905,182.925z"/>
	<path fill="#424242" d="M118.67,106.914c0,0,44.221,10.057,47.5,73.755c-4.498-0.425-26.866-1.987-26.866-1.987
		c5.313-21.801,13.172-51.34-20.632-65.702L118.67,106.914z"/>
</g>
<path fill="#2E2E2E" d="M83.983,275.532l-15.13,4.813c0,0-12.013-1.801-14.457,4.938c-1.604,4.421-2.063,6.035-2.063,6.035
	c11.883-0.081,42.613-0.498,42.613-0.498c0.179-3.892-3.6-12.848-3.6-12.848L83.983,275.532z"/>
<path fill="#FAEBE1" d="M83.215,103.055c-0.156,13.138-16.213,78.838-15.795,79.42l68.086,0.717
	c-0.271-2.549-11.787-76.372-13.288-80.521l-18.422,11.593L83.215,103.055z"/>
<path fill="#424242" d="M67.42,182.475c0,0,1.096,14.043,7.144,18.358c6.052,4.314,39.419,14.315,57.149-0.331
	c3.727-3.747,4.773-12.479,3.908-17.662L67.42,182.475z"/>
<g>
	<polygon fill="#EE8122" points="96.325,118.375 90.998,154.063 104.898,168.392 117.29,153.75 108.497,117.735 	"/>
	<polygon fill="#BE6928" points="94.834,110.714 94.905,118.596 109.797,119.314 109.565,109.942 	"/>
	<polygon fill="#BE6928" points="95.838,121.639 109.557,122.075 108.646,118.352 96.23,119.004 	"/>
	<polygon fill="#EE8122" points="93.737,112.193 93.77,119.381 111.299,119.939 111.088,111.393 	"/>
</g>
<polygon fill="#E1D6CF" points="108.626,109.942 117.29,117.735 122.218,102.67 "/>
<polygon fill="#E1D6CF" points="97.651,110.714 88.424,117.735 83.215,103.055 "/>
<polygon fill="#424242" points="95.113,290.82 93.737,202 82,201 68.854,280.346 "/>
<path fill="#2E2E2E" d="M121.463,275.532l15.13,4.813c0,0,12.013-1.801,14.457,4.938c1.604,4.421,2.063,6.035,2.063,6.035
	c-11.883-0.081-42.613-0.498-42.613-0.498c-0.179-3.892,3.6-12.848,3.6-12.848L121.463,275.532z"/>
<polygon fill="#424242" points="110.333,290.82 111.709,202 123.446,201 136.593,280.346 "/>
<polygon fill="#424242" points="83.069,103.135 102.644,148.67 123.182,102.77 135.621,183 65,183 "/>
<circle fill="#2E2E2E" cx="102.924" cy="155.383" r="2.289"/>
<circle fill="#2E2E2E" cx="102.924" cy="166.383" r="2.289"/>
<g>
	<g>
		<path fill="#FAAB6D" d="M12.114,72.08l-3.403-6.653L3.528,51.758c0,0-3.352-13.77-3.048-14.615
			c0.827-2.306,3.51-2.396,4.867-1.107c0.879,0.832,2.617,11.902,2.617,11.902l2.212-0.354c0,0-1.268-13.958-1.303-16.721
			c-0.038-3.033,5.39-2.804,5.681-0.863c0.322,2.146,1.344,15.456,1.344,15.456l2.926-0.229c0,0-0.258-12.316,0.113-16.551
			c0.203-2.327,4.746-2.052,5.199,0.156c0.229,1.114,0.385,16.494,0.385,16.494l4.287,12.35L27.52,68.439L12.114,72.08z"/>
		<polygon fill="#E8833E" points="28.809,57.676 26.506,51.042 26.006,52.027 15.957,55.81 16.117,63.068 26.843,68.469 
			27.735,66.634 		"/>
		<path fill="#FAAB6D" d="M26.182,69.07c0,0,7.868-9.541,8.502-12.323c0.633-2.782,0.348-7.309-0.118-9.515
			c-0.642-3.041,0.714-4.549-0.446-5.931c-0.878-1.047-4.682-0.957-5.015,1.302c-0.335,2.277-0.01,5.681-0.133,6.389
			c-0.123,0.707-2.424,4.18-2.424,4.18l-8.62,2.824l-1.697,7.107L26.182,69.07z"/>
	</g>
	<path fill="#424242" d="M86.172,111.99c0,0-44.577,23.578-77.045-41.646c5.516-1.858,21.58-6.596,21.58-6.596
		c8.261,22.443,23.168,54.4,51.859,42.879L86.172,111.99z"/>
</g>
</svg>
