<?xml version="1.0" encoding="utf-8"?>
<!-- Generator: Adobe Illustrator 16.0.0, SVG Export Plug-In . SVG Version: 6.00 Build 0)  -->
<!DOCTYPE svg PUBLIC "-//W3C//DTD SVG 1.0//EN" "http://www.w3.org/TR/2001/REC-SVG-20010904/DTD/svg10.dtd">
<svg version="1.0" id="Layer_1" xmlns="http://www.w3.org/2000/svg" xmlns:xlink="http://www.w3.org/1999/xlink" x="0px" y="0px"
	 width="140.054px" height="256.225px" viewBox="0 0 140.054 256.225" enable-background="new 0 0 140.054 256.225"
	 xml:space="preserve">
<path fill="#696969" d="M34.832,100.395c0,0,10.75,3.637,35.623,0.826l-3.865,6.242l-25.633-0.533L34.832,100.395z"/>
<rect x="39.244" y="97.555" transform="matrix(-0.9999 -0.0133 0.0133 -0.9999 104.0449 215.1771)" fill="#FAAB6D" width="26.99" height="19.375"/>
<path fill="#E8833E" d="M66.332,99.957c0,0-6.768,5.055-15.048,4.944c-8.279-0.11-11.938-5.304-11.938-5.304
	S57.266,95.021,66.332,99.957z"/>
<g>
	<path fill="#636363" d="M11.838,37.391c-8.807-4.146-14.365,3.201-0.864,32.779c11.114,24.347,5.381-6.042,5.381-6.042
		L11.838,37.391z"/>
	<path fill="#FAAB6D" d="M81.522,83.234c-1.61,4.402-4.256,8.348-8.355,11.488c-5.356,4.104-13.253,6.126-19.79,7.233
		c-9.062,1.535-18.582,2.015-26.007-4.212C15.084,87.441,13.378,68.539,11.629,53.801c-0.697-5.871-0.631-10.584-0.134-13.598
		c3.632-0.5,7.265-1.002,10.894-1.502c0.615-0.084,1.229-0.168,1.844-0.254c12.115-1.671,24.229-3.342,36.346-5.011
		c1.16-0.159,2.322-0.319,3.481-0.481c4.351-0.599,8.701-1.197,13.052-1.799c0.872,2.657,1.566,6.862,2.711,12.078
		C82.409,55.023,86.027,70.914,81.522,83.234z"/>
	<path fill="#636363" d="M9.776,54.724C9.08,48.854,8.223,42.289,8.72,39.275c2.802-0.386,8.379,0.154,11.181-0.231l13.309,6.425
		c0,0-9.346,5.82-10.93,7.279c-1.585,1.457-1.219,10.862-1.219,10.862l0.92,28.198C14.509,81.137,11.229,66.96,9.776,54.724z"/>
	<path fill="#424242" d="M83.592,27.923c-0.716,3.69-7.198,6.657-12.721,5.155c0,0,2.028,0.627,5.522,1.502
		c8.646,2.16-35.116,29.176-64.898,5.623S17.425,1.27,35.32,0.435C55.4-0.502,71.025,3.918,79.943,12.901
		c8.918,8.982-7.737,4.513-7.737,4.513S85.552,17.809,83.592,27.923z"/>
	<g>
		<path fill="#424242" d="M82.145,45.457c-4.867-3.366-10.452-0.1-13.695,3.867c-1.617,1.979-4.939-0.247-3.309-2.242
			c4.623-5.656,12.451-9.633,19.246-4.934C86.504,43.612,84.265,46.924,82.145,45.457L82.145,45.457z"/>
	</g>
	<g>
		<path fill="#424242" d="M30.162,54.225c4.797-6.725,13.512-5.638,19.778-1.885c2.209,1.322-0.159,4.545-2.353,3.231
			c-4.397-2.634-10.757-3.812-14.194,1.005C31.896,58.674,28.666,56.32,30.162,54.225L30.162,54.225z"/>
	</g>
	<g>
		<path fill="#424242" d="M82.544,57.998c-4.017-3.086-8.929-0.533-11.87,2.719c-1.468,1.623-4.211-0.423-2.732-2.059
			c4.193-4.636,11.055-7.699,16.661-3.393C86.35,56.607,84.293,59.342,82.544,57.998L82.544,57.998z"/>
	</g>
	<g>
		<path fill="#424242" d="M38.281,66.235c3.356-6.222,10.872-6.229,16.593-3.712c2.017,0.887,0.351,3.876-1.651,2.994
			c-4.017-1.766-9.541-2.088-11.946,2.369C40.23,69.828,37.235,68.176,38.281,66.235L38.281,66.235z"/>
	</g>
	<g>
		<g>
			<path fill="#F6A569" d="M21.062,63.609c-12.187-4.79-14.272,16.209,1.272,8.642L21.062,63.609z"/>
			<path fill="#E8833E" d="M19.635,67.757c-5.603-1.649-4.859,5.029,0.502,2.395L19.635,67.757z"/>
		</g>
		
			<ellipse transform="matrix(-0.9371 0.3491 -0.3491 -0.9371 52.4148 121.3813)" opacity="0.3" fill="#FFFFFF" cx="15.269" cy="65.414" rx="1.952" ry="1.134"/>
	</g>
	<g>
		<g>
			<path fill="#BD7E50" d="M72.3,77.585c-0.518,1.321-2.121,3.527-3.483,4.825c-4.715,4.494-11.303,2.721-16.401-0.023
				c-1.703-0.917-3.218,1.673-1.514,2.591c9.068,4.881,20.137,4.002,24.29-6.595C75.899,76.58,72.997,75.806,72.3,77.585
				L72.3,77.585z"/>
		</g>
	</g>
</g>
<g>
	<path fill="#232323" d="M109.692,220.466l13.467-5.386c0,0,7.429-8.24,13.064-4.906c3.698,2.188,3.83,1.768,3.83,1.768
		c-8.431,6.84-29.222,25.675-29.222,25.675c-2.385-2.645-5.469-12.434-5.469-12.434L109.692,220.466z"/>
	<path fill="#333333" d="M62.225,169.836c0,0,22.087,0.729,37.325,17.709c6.181,6.887,10.42,20.782,19.402,30.622
		c-0.247,2.227-10.168,17.489-10.168,17.489c-4.762-7.565-13.685-28.055-17.971-38.88c-2.693-6.799-19.461-17.487-37.609-15.655
		L62.225,169.836z"/>
</g>
<g>
	<path fill="#2E2E2E" d="M89.991,239.239l12.95-6.53c0,0,6.688-8.854,12.591-6.02c3.872,1.859,5.204,2.619,5.204,2.619
		c-7.806,7.543-28.127,26.916-28.127,26.916c-2.604-2.426-5.863-10.686-5.863-10.686L89.991,239.239z"/>
	<path fill="#424242" d="M46.979,183.726c0,0,27.862,3.389,39.734,21.238c5.648,8.491,7.094,14.487,14.846,29.309
		c-0.715,2.124-11.679,19.101-11.679,19.101c-5.91-8.524-7.98-20.189-13.902-43.167c-1.954-7.579-21.643-12.34-40.14-15.11
		L46.979,183.726z"/>
</g>
<path fill="#FAEBE1" d="M70.455,101.221c-0.018,12.003,13.849,72.211,13.461,72.737l-62.201-0.174
	c0.279-2.325,11.696-69.616,13.117-73.39l29.578,6.982L70.455,101.221z"/>
<path fill="#424242" d="M83.916,173.958c0,0-1.172,12.813-6.748,16.682c-5.581,3.868-36.182,12.597-52.198-0.997
	c-3.359-3.469-4.209-11.457-3.355-16.181L83.916,173.958z"/>
<polygon fill="#E1D6CF" points="57.665,106.239 46.682,114.137 34.832,100.395 "/>
<polygon fill="#E1D6CF" points="70.455,101.221 71.526,110.918 62.541,107.604 "/>
<g>
	<polygon fill="#EE8122" points="68.204,113.526 76.277,145.33 67.708,158.002 56.879,144.891 59.166,112.883 	"/>
	<polygon fill="#BE6928" points="68.41,106.717 69.274,113.732 58.393,114.28 57.473,105.938 	"/>
	<polygon fill="#BE6928" points="68.941,116.436 58.891,116.74 59.127,113.43 68.346,114.088 	"/>
	<polygon fill="#EE8122" points="69.391,108.039 70.203,114.438 57.359,114.828 56.521,107.221 	"/>
</g>
<g>
	<path fill="#FAAB6D" d="M74.244,136.466c0,0,7.295-8.042,10.913-6.729c3.619,1.314,4.2,3.414,3.599,4.262
		c1.607,2.008,8.158,10.867,7.377,12.408s-3.925,7.907-10.912,8.56L74.244,136.466z"/>
	<path fill="#E8833E" d="M88.474,154.172c-0.979,0.395-2.057,0.683-3.254,0.795l-10.977-18.501c0,0,1.021-1.125,2.488-2.465
		C79.302,138.542,84.352,147.373,88.474,154.172z"/>
	<path fill="#FAEBE1" d="M36.496,115.666c0,0-2.913,63.413,50.638,40.452c-2.159-3.517-12.448-21.229-12.448-21.229
		c-15.737,13.135-31.571,14.281-33.215-21.663L36.496,115.666z"/>
</g>
</svg>
