<?xml version="1.0" encoding="utf-8"?>
<!-- Generator: Adobe Illustrator 16.0.0, SVG Export Plug-In . SVG Version: 6.00 Build 0)  -->
<!DOCTYPE svg PUBLIC "-//W3C//DTD SVG 1.0//EN" "http://www.w3.org/TR/2001/REC-SVG-20010904/DTD/svg10.dtd">
<svg version="1.0" id="Layer_1" xmlns="http://www.w3.org/2000/svg" xmlns:xlink="http://www.w3.org/1999/xlink" x="0px" y="0px"
	 width="79px" height="50.449px" viewBox="0 0 79 50.449" enable-background="new 0 0 79 50.449" xml:space="preserve">
<g>
	<rect fill="#FAEBE1" width="79" height="54.5"/>
	<rect x="4.016" y="4.246" fill="#B6E4FA" width="70.969" height="46.008"/>
	<g>
		<path fill="#FFD34E" d="M37.997,50.449H6.405c0,0,3.168-6.406,9.604-9.213c0.716-0.314,1.472-0.582,2.269-0.787
			c1.214-0.324,2.521-0.507,3.924-0.507c1.986,0,3.781,0.369,5.389,0.969c0.504,0.188,0.989,0.399,1.458,0.63
			c0.036,0.017,0.072,0.035,0.108,0.053c0.486,0.24,0.949,0.502,1.395,0.778C35.538,45.476,37.997,50.449,37.997,50.449z"/>
		<g>
			<g>
				<g>
					<g>
						<path fill="#DB9E35" d="M18.818,21.108c0,0-5.906,11.399,0,21.652h2.896c0,0-6.426-6.503-1.673-21.652H18.818z"/>
						<circle fill="#FFD34E" cx="17.324" cy="21.711" r="1.629"/>
						<circle fill="#EA8024" cx="21.047" cy="21.711" r="1.629"/>
						<g>
							<g>
								<path fill="#3DB54A" d="M19.191,21.108L7.137,13.879c0,0,5.541-1.281,9.414,1.043
									C20.493,17.285,19.191,21.108,19.191,21.108z"/>
								<path fill="#3DB54A" d="M31.451,13.879l-5.588,3.352l-2.238,1.342l-0.82,0.492l-1.306,0.785l-0.454,0.271l-1.524,0.913
									l-0.123,0.074c0,0-0.032-0.095-0.071-0.263c-0.01-0.045-0.021-0.095-0.031-0.15c-0.091-0.451-0.18-1.23,0-2.125
									c0.235-1.186,0.941-2.57,2.742-3.65c0.507-0.303,1.04-0.545,1.588-0.736C27.265,12.911,31.451,13.879,31.451,13.879z"/>
							</g>
							<g>
								<path fill="#8EC641" d="M19.295,21.108H5.822c0,0,4.483-4.12,8.812-4.12C19.04,16.988,19.295,21.108,19.295,21.108z"/>
								<path fill="#8EC641" d="M32.766,21.108H19.295c0,0,0.006-0.097,0.031-0.263c0.141-0.881,0.856-3.682,4.299-3.848
									c0.108-0.008,0.217-0.01,0.329-0.01c0.638,0,1.279,0.09,1.909,0.242c2.684,0.65,5.158,2.447,6.275,3.35
									C32.539,20.901,32.766,21.108,32.766,21.108z"/>
							</g>
						</g>
					</g>
				</g>
			</g>
		</g>
		<g>
			<g>
				<g>
					<g>
						<path fill="#DB9E35" d="M29.156,41.594c-0.307,1.326-0.805,2.676-1.568,3.998h-2.171c0,0,1.453-1.471,2.173-4.681
							c0.552-2.451,0.674-5.915-0.607-10.51c-0.095-0.343-0.197-0.69-0.31-1.047v-0.001h0.915c0,0,0.303,0.584,0.672,1.586
							C29.057,33.107,30.16,37.229,29.156,41.594z"/>
						<path fill="#FFD34E" d="M29.933,29.806c0,0.675-0.548,1.222-1.222,1.222c-0.16,0-0.313-0.03-0.451-0.088
							c-0.453-0.177-0.772-0.618-0.772-1.134c0-0.159,0.03-0.312,0.087-0.452c0.033-0.082,0.073-0.158,0.122-0.23l0.002-0.002
							c0.196-0.291,0.516-0.491,0.883-0.531h0.004c0.042-0.004,0.084-0.006,0.126-0.006c0.514,0,0.955,0.318,1.132,0.77
							C29.902,29.494,29.933,29.646,29.933,29.806z"/>
						<path fill="#EA8024" d="M27.139,29.806c0,0.217-0.057,0.421-0.156,0.596c-0.207,0.375-0.606,0.626-1.065,0.626
							c-0.676,0-1.222-0.547-1.222-1.222c0-0.159,0.03-0.312,0.088-0.451c0.173-0.439,0.594-0.753,1.092-0.769
							c0.014-0.002,0.029-0.002,0.042-0.002c0.481,0,0.898,0.277,1.095,0.684c0.015,0.026,0.028,0.057,0.038,0.086l0.001,0.001
							C27.108,29.494,27.139,29.646,27.139,29.806z"/>
						<g>
							<g>
								<path fill="#3DB54A" d="M36.351,23.932l-4.194,2.514l-3.571,2.145h-0.004l-0.883,0.531l-0.002,0.002l-0.386,0.23
									c0,0-0.025-0.073-0.054-0.2c-0.008-0.032-0.016-0.069-0.024-0.108v-0.002c-0.066-0.338-0.133-0.92,0-1.588
									c0.175-0.891,0.704-1.93,2.057-2.742C32.195,22.971,36.351,23.932,36.351,23.932z"/>
								<path fill="#3DB54A" d="M27.232,29.043v0.002c-0.008,0.041-0.018,0.078-0.023,0.111c-0.026,0.113-0.049,0.184-0.051,0.197
									l-0.002,0.001l-0.004-0.001l-0.09-0.057l-0.051-0.029l-1.093-0.654l-0.044-0.027l-0.297-0.177l-0.979-0.588l-0.614-0.37
									l-1.679-1.006l-4.192-2.514c0,0,3.142-0.725,5.871,0.229c0.411,0.143,0.811,0.325,1.19,0.553
									c1.352,0.81,1.88,1.849,2.058,2.736v0.006C27.367,28.123,27.301,28.704,27.232,29.043z"/>
							</g>
							<g>
								<path fill="#8EC641" d="M37.336,29.354H27.232c0,0,0.004-0.074,0.024-0.2c0.108-0.682,0.678-2.889,3.472-2.889
									c0.477,0,0.956,0.066,1.428,0.181C34.891,27.107,37.336,29.354,37.336,29.354z"/>
								<path fill="#8EC641" d="M27.232,29.354L27.232,29.354l-10.104,0.001c0,0,0.171-0.155,0.472-0.397
									c0.838-0.676,2.692-2.023,4.706-2.512c0.472-0.114,0.954-0.181,1.431-0.181c0.086,0,0.168,0.002,0.248,0.007
									c2.582,0.125,3.118,2.225,3.225,2.885C27.227,29.27,27.232,29.34,27.232,29.354z"/>
							</g>
						</g>
					</g>
				</g>
			</g>
		</g>
		<path fill="#E7E7E7" d="M27.59,40.911c0.552-2.451,0.674-5.915-0.607-10.51c-0.207,0.375-0.606,0.626-1.065,0.626
			c-0.676,0-1.222-0.547-1.222-1.222c0-0.159,0.03-0.312,0.088-0.451h-7.655c0,0,0.171-0.155,0.472-0.397
			c0.838-0.676,2.692-2.023,4.706-2.512l-4.192-2.514c0,0,3.142-0.725,5.871,0.229c0.411,0.143,0.811,0.325,1.19,0.553
			c1.352,0.81,1.88,1.849,2.058,2.736v0.006c0.175-0.891,0.704-1.93,2.057-2.742c2.906-1.742,7.062-0.781,7.062-0.781l-4.194,2.514
			c2.734,0.662,5.18,2.908,5.18,2.908h-7.493c0.06,0.141,0.09,0.293,0.09,0.452c0,0.675-0.548,1.222-1.222,1.222
			c-0.16,0-0.313-0.03-0.451-0.088c0.797,2.168,1.9,6.289,0.896,10.654c0.486,0.24,0.949,0.502,1.395,0.778
			c4.987,3.104,7.446,8.077,7.446,8.077H22.201V39.942C24.188,39.942,25.982,40.312,27.59,40.911z"/>
	</g>
	<g>
		<path fill="#010101" d="M43.686,10.973h1.066l-0.375,1.752h1.002l-0.182,0.861h-1.002l-0.873,4.096
			c-0.047,0.219-0.004,0.365,0.129,0.439c0.074,0.043,0.207,0.064,0.398,0.064c0.051,0,0.105-0.001,0.164-0.003
			s0.129-0.007,0.211-0.015L44.049,19c-0.129,0.035-0.261,0.061-0.396,0.076S43.375,19.1,43.223,19.1
			c-0.492,0-0.8-0.126-0.923-0.378s-0.142-0.579-0.056-0.981l0.885-4.154h-0.85l0.182-0.861h0.85L43.686,10.973z"/>
		<path fill="#010101" d="M46.428,12.754H47.5L46.176,19h-1.072L46.428,12.754z M46.932,10.393h1.072l-0.258,1.195h-1.072
			L46.932,10.393z"/>
		<path fill="#010101" d="M53.6,14.834h-1.025c0.02-0.387-0.055-0.707-0.223-0.964c-0.168-0.256-0.498-0.384-0.99-0.384
			c-0.672,0-1.223,0.328-1.652,0.984c-0.277,0.426-0.482,0.951-0.615,1.576c-0.137,0.629-0.117,1.158,0.059,1.588
			s0.549,0.645,1.119,0.645c0.438,0,0.813-0.134,1.125-0.401s0.566-0.634,0.762-1.099h1.025c-0.293,0.832-0.715,1.44-1.266,1.825
			s-1.191,0.577-1.922,0.577c-0.82,0-1.411-0.3-1.772-0.899s-0.446-1.349-0.255-2.247c0.234-1.102,0.685-1.959,1.351-2.572
			s1.413-0.92,2.241-0.92c0.707,0,1.245,0.172,1.614,0.516S53.686,13.994,53.6,14.834z"/>
		<path fill="#010101" d="M55.574,10.393h1.014l-1.066,4.998l3.275-2.666h1.348l-2.9,2.35L58.949,19h-1.348l-1.289-3.164
			l-1.055,0.809L54.76,19h-1.014L55.574,10.393z"/>
		<path fill="#010101" d="M65.752,13.709c0.145,0.316,0.207,0.686,0.188,1.107c0.004,0.289-0.063,0.75-0.199,1.383h-4.6
			c-0.117,0.637-0.075,1.147,0.126,1.532s0.597,0.577,1.187,0.577c0.551,0,1.027-0.182,1.43-0.545
			c0.234-0.211,0.42-0.455,0.557-0.732h1.037c-0.078,0.23-0.224,0.487-0.437,0.771c-0.213,0.284-0.435,0.515-0.665,0.694
			c-0.387,0.313-0.828,0.523-1.324,0.633c-0.27,0.063-0.564,0.094-0.885,0.094c-0.781,0-1.383-0.284-1.805-0.853
			s-0.523-1.364-0.305-2.388c0.215-1.008,0.662-1.826,1.342-2.455s1.461-0.943,2.344-0.943c0.445,0,0.855,0.104,1.23,0.313
			S65.607,13.377,65.752,13.709z M64.832,15.361c0.055-0.457,0.033-0.822-0.064-1.096c-0.18-0.508-0.607-0.762-1.283-0.762
			c-0.484,0-0.928,0.175-1.33,0.524s-0.672,0.794-0.809,1.333H64.832z"/>
		<path fill="#010101" d="M68.359,10.973h1.066l-0.375,1.752h1.002l-0.182,0.861h-1.002l-0.873,4.096
			c-0.047,0.219-0.004,0.365,0.129,0.439c0.074,0.043,0.207,0.064,0.398,0.064c0.051,0,0.105-0.001,0.164-0.003
			s0.129-0.007,0.211-0.015L68.723,19c-0.129,0.035-0.261,0.061-0.396,0.076S68.049,19.1,67.896,19.1
			c-0.492,0-0.8-0.126-0.923-0.378s-0.142-0.579-0.056-0.981l0.885-4.154h-0.85l0.182-0.861h0.85L68.359,10.973z"/>
		<path fill="#010101" d="M52.686,21.772h1.066l-0.375,1.752h1.002l-0.182,0.861h-1.002l-0.873,4.096
			c-0.047,0.219-0.004,0.365,0.129,0.439c0.074,0.043,0.207,0.064,0.398,0.064c0.051,0,0.105-0.001,0.164-0.003
			s0.129-0.007,0.211-0.015L53.049,29.8c-0.129,0.036-0.261,0.061-0.396,0.077c-0.135,0.015-0.278,0.022-0.431,0.022
			c-0.492,0-0.8-0.126-0.923-0.378s-0.142-0.579-0.056-0.981l0.885-4.154h-0.85l0.182-0.861h0.85L52.686,21.772z"/>
		<path fill="#010101" d="M60.215,26.53c-0.215,1.013-0.639,1.848-1.271,2.508s-1.467,0.99-2.502,0.99
			c-0.863,0-1.486-0.292-1.869-0.876s-0.471-1.368-0.264-2.353c0.227-1.055,0.674-1.895,1.342-2.52s1.453-0.938,2.355-0.938
			c0.809,0,1.435,0.27,1.878,0.809S60.438,25.483,60.215,26.53z M59.107,26.56c0.125-0.586,0.133-1.063,0.023-1.43
			c-0.176-0.578-0.627-0.867-1.354-0.867c-0.645,0-1.165,0.246-1.562,0.739c-0.396,0.491-0.669,1.085-0.817,1.78
			c-0.141,0.668-0.112,1.225,0.085,1.67s0.614,0.668,1.251,0.668c0.699,0,1.235-0.265,1.608-0.794S58.971,27.209,59.107,26.56z"/>
		<path fill="#010101" d="M47.25,33.597c0.309,0.429,0.463,0.941,0.463,1.538c0,0.615-0.155,1.109-0.467,1.483
			c-0.174,0.21-0.43,0.401-0.769,0.574c0.515,0.187,0.902,0.483,1.164,0.889s0.393,0.897,0.393,1.477
			c0,0.597-0.149,1.133-0.448,1.606c-0.19,0.314-0.429,0.579-0.714,0.793c-0.322,0.246-0.701,0.415-1.139,0.506
			S44.821,42.6,44.31,42.6h-4.54V32.523h4.869C45.867,32.543,46.738,32.899,47.25,33.597z M41.779,34.273v2.222h2.449
			c0.438,0,0.792-0.083,1.065-0.249c0.272-0.167,0.409-0.462,0.409-0.886c0-0.47-0.181-0.779-0.541-0.93
			c-0.312-0.104-0.708-0.157-1.191-0.157H41.779z M41.779,38.163v2.687h2.446c0.437,0,0.777-0.06,1.021-0.178
			c0.441-0.219,0.662-0.638,0.662-1.258c0-0.524-0.214-0.884-0.642-1.08c-0.239-0.109-0.575-0.166-1.007-0.171H41.779z"/>
		<path fill="#010101" d="M52.727,32.523h2.383L58.674,42.6h-2.283l-0.664-2.071h-3.711L51.332,42.6H49.13L52.727,32.523z
			 M52.588,38.793h2.581l-1.272-3.966L52.588,38.793z"/>
		<path fill="#010101" d="M59.956,32.523h2.105v8.265h5.031V42.6h-7.137V32.523z"/>
		<path fill="#010101" d="M70.429,42.6h-2.092V32.523h2.092V42.6z"/>
	</g>
</g>
</svg>
