<?xml version="1.0" encoding="utf-8"?>
<!-- Generator: Adobe Illustrator 16.0.0, SVG Export Plug-In . SVG Version: 6.00 Build 0)  -->
<!DOCTYPE svg PUBLIC "-//W3C//DTD SVG 1.1//EN" "http://www.w3.org/Graphics/SVG/1.1/DTD/svg11.dtd">
<svg version="1.1" id="Layer_1" xmlns="http://www.w3.org/2000/svg" xmlns:xlink="http://www.w3.org/1999/xlink" x="0px" y="0px"
	 width="521.352px" height="197.372px" viewBox="0 0 521.352 197.372" enable-background="new 0 0 521.352 197.372"
	 xml:space="preserve">
<rect id="XMLID_9327_" x="6.467" y="140.918" fill="#9F2F2D" width="9.899" height="22.99"/>
<path id="XMLID_9326_" fill="#EF7BDE" d="M503.613,98.58l-75.972-26.172L377.914,0L274.881,0.134v88.979H15.874v99.322h32.751
	c5.615-31.675,33.318-55.81,66.579-55.81c33.26,0,60.965,24.135,66.579,55.81h10.55H341.67h12.472
	c5.615-31.675,33.319-55.81,66.579-55.81s60.965,24.135,66.58,55.81h16.313L503.613,98.58L503.613,98.58z"/>
<path id="XMLID_9285_" fill="#FFFFFF" d="M349.413,96.985c0-2.406-2.219-4.356-4.956-4.356h-18.072c-2.737,0-4.956,1.95-4.956,4.356
	l0,0c0,2.405,2.219,4.355,4.956,4.355h18.072C347.195,101.342,349.413,99.391,349.413,96.985L349.413,96.985z"/>
<polygon id="XMLID_9186_" fill="#ABE1FA" points="304.23,14.574 368.235,14.471 406.012,72.408 304.23,72.408 "/>
<path id="XMLID_9113_" fill="#C15BB7" d="M66.651,197.372c1.507-25.479,22.703-45.746,48.554-45.746s47.047,20.27,48.554,45.746
	h19.02c-1.525-35.959-31.244-64.744-67.571-64.744s-66.046,28.785-67.572,64.744H66.651z"/>
<path id="XMLID_9089_" fill="#C15BB7" d="M372.166,197.372c1.508-25.479,22.703-45.746,48.555-45.746
	c25.85,0,47.047,20.27,48.554,45.746h19.021c-1.525-35.959-31.245-64.744-67.572-64.744s-66.046,28.785-67.572,64.744H372.166z"/>
<polygon id="XMLID_9033_" fill="#8BD7F8" points="304.23,14.574 304.23,72.408 368.235,14.471 "/>
<path id="XMLID_9032_" fill="#EF7BDE" d="M503.613,98.58c0,0,9.636,6.077,10.009,18.736c0.372,12.66,0,71.119,0,71.119h-10.009
	l-13.45-51.386L503.613,98.58z"/>
<path id="XMLID_9031_" fill="#C15BB7" d="M521.351,176.146c0-2.444-1.563-4.427-3.49-4.427h-37.807
	c-1.927,0-3.489,1.982-3.489,4.427v9.222c0,2.444,1.563,4.426,3.489,4.426h37.807c1.928,0,3.49-1.979,3.49-4.426V176.146z"/>
<path id="XMLID_9030_" fill="#C15BB7" d="M63.521,177.381c0-1.953-1.285-3.537-2.871-3.537H6.104c-1.586,0-2.871,1.584-2.871,3.537
	v10.021c0,1.953,1.285,3.537,2.871,3.537h54.545c1.586,0,2.871-1.584,2.871-3.537L63.521,177.381L63.521,177.381z"/>
<path id="XMLID_9027_" fill="#C15BB7" d="M370.53,177.381c0-1.953-1.285-3.537-2.871-3.537H175.152
	c-1.585,0-2.869,1.584-2.869,3.537v10.021c0,1.953,1.284,3.537,2.869,3.537h192.507c1.586,0,2.871-1.584,2.871-3.537V177.381z"/>
<line id="XMLID_9026_" fill="none" stroke="#C84227" stroke-width="1.4173" stroke-miterlimit="10" x1="290.21" y1="0.77" x2="290.21" y2="180.245"/>
<line id="XMLID_9025_" fill="none" stroke="#C84227" stroke-width="1.4173" stroke-miterlimit="10" x1="15.972" y1="108.008" x2="290.676" y2="108.008"/>
<path id="XMLID_9325_" fill="#322F37" d="M115.478,151.625c-22.74,0-41.865,15.689-47.166,36.811h1.489h92.843
	C157.343,167.316,138.218,151.625,115.478,151.625z"/>
<path id="XMLID_9088_" fill="#322F37" d="M420.992,151.625c-22.738,0-41.863,15.689-47.166,36.811h91.01h3.322
	C462.858,167.316,443.733,151.625,420.992,151.625z"/>
</svg>
