<?xml version="1.0" encoding="utf-8"?>
<!-- Generator: Adobe Illustrator 16.0.0, SVG Export Plug-In . SVG Version: 6.00 Build 0)  -->
<!DOCTYPE svg PUBLIC "-//W3C//DTD SVG 1.0//EN" "http://www.w3.org/TR/2001/REC-SVG-20010904/DTD/svg10.dtd">
<svg version="1.0" id="Layer_1" xmlns="http://www.w3.org/2000/svg" xmlns:xlink="http://www.w3.org/1999/xlink" x="0px" y="0px"
	 width="142.127px" height="264.978px" viewBox="0 0 142.127 264.978" enable-background="new 0 0 142.127 264.978"
	 xml:space="preserve">
<g>
	<path fill="#FAAB6D" d="M19.668,110.129c0,0-8.932-6.174-12.156-4.071c-3.226,2.103-3.314,4.278-2.536,4.968
		c-1.109,2.321-5.474,12.438-4.362,13.761s5.619,6.808,12.572,5.854L19.668,110.129z"/>
	<path fill="#E8833E" d="M9.837,130.605c1.043,0.162,2.157,0.197,3.349,0.035l6.482-20.512c0,0-1.25-0.864-2.982-1.835
		C15.214,113.299,12.304,123.047,9.837,130.605z"/>
	<path fill="#C12B26" d="M87.001,105.089c0,0-18.048,37.29-75.417,27.106c1.304-3.916,7.295-23.504,7.295-23.504
		c18.312,9.213,42.986,22.285,62.723-4.849L87.001,105.089z"/>
</g>
<path fill="#696969" d="M110.168,93.395c0,0-10.75,3.637-35.623,0.826l3.865,6.242l25.633-0.533L110.168,93.395z"/>
<rect x="78.766" y="90.555" transform="matrix(0.9999 -0.0133 0.0133 0.9999 -1.3266 1.2374)" fill="#FAAB6D" width="26.99" height="19.375"/>
<path fill="#E8833E" d="M78.668,92.957c0,0,6.768,5.055,15.048,4.944c8.278-0.11,11.939-5.304,11.939-5.304
	S87.734,88.021,78.668,92.957z"/>
<g>
	<path fill="#E13726" d="M69.104,24.868l-12.602-6.186c-1.518-0.745-0.88-3.044,0.804-2.894c5.782,0.516,15.168,0.17,21.344,2.361
		L69.104,24.868z"/>
	<path fill="#636363" d="M133.162,30.391c8.807-4.146,14.365,3.201,0.863,32.779c-11.113,24.347-5.38-6.042-5.38-6.042
		L133.162,30.391z"/>
	<path fill="#FAAB6D" d="M63.479,76.235c1.608,4.401,4.255,8.347,8.354,11.487c5.356,4.104,13.253,6.126,19.789,7.233
		c9.063,1.535,18.583,2.015,26.008-4.212c12.286-10.303,13.992-29.205,15.741-43.944c0.697-5.87,0.631-10.583,0.134-13.597
		c-3.632-0.5-7.265-1.001-10.895-1.503c-0.614-0.083-1.229-0.167-1.843-0.253c-12.114-1.671-24.229-3.342-36.346-5.011
		c-1.16-0.159-2.322-0.319-3.482-0.481c-4.35-0.599-8.7-1.198-13.052-1.799c-0.87,2.657-1.565,6.862-2.71,12.077
		C62.591,48.023,58.972,63.914,63.479,76.235z"/>
	<path fill="#636363" d="M135.223,47.724c0.697-5.87,1.554-12.435,1.058-15.448c-2.802-0.386-8.379,0.155-11.181-0.231l-13.31,6.425
		c0,0,9.347,5.82,10.931,7.278c1.586,1.458,1.218,10.863,1.218,10.863l-0.919,28.198C130.49,74.137,133.771,59.96,135.223,47.724z"
		/>
	<circle fill="#424242" cx="69.199" cy="48.776" r="4.432"/>
	<circle fill="#424242" cx="99.91" cy="56.441" r="4.432"/>
	<g>
		<path fill="#424242" d="M63.885,37.673c4.768-3.506,10.445-0.403,13.802,3.468c1.675,1.931,4.931-0.392,3.242-2.338
			c-4.786-5.52-12.727-9.267-19.382-4.371C59.474,35.957,61.809,39.2,63.885,37.673L63.885,37.673z"/>
	</g>
	<g>
		<path fill="#424242" d="M111.834,45.268c-4.769-6.744-13.488-5.696-19.771-1.971c-2.214,1.313,0.14,4.545,2.339,3.241
			c4.409-2.614,10.774-3.765,14.19,1.067C110.079,49.709,113.32,47.371,111.834,45.268L111.834,45.268z"/>
	</g>
	<g>
		<g>
			<path fill="#F6A569" d="M123.939,56.61c12.185-4.791,14.271,16.208-1.273,8.641L123.939,56.61z"/>
			<path fill="#E8833E" d="M125.365,60.757c5.603-1.649,4.859,5.029-0.502,2.395L125.365,60.757z"/>
		</g>
		
			<ellipse transform="matrix(0.9371 0.3491 -0.3491 0.9371 28.5567 -41.6164)" opacity="0.3" fill="#FFFFFF" cx="129.731" cy="58.414" rx="1.952" ry="1.134"/>
	</g>
	<g>
		<g>
			<path fill="#BD7E50" d="M69.808,71.383c4.152,10.596,15.221,11.476,24.289,6.595c1.704-0.917,0.189-3.507-1.514-2.591
				c-5.056,2.722-10.99,4.314-15.902,0.456c-1.636-1.285-3.397-3.77-3.981-5.258C72.003,68.806,69.101,69.58,69.808,71.383
				L69.808,71.383z"/>
		</g>
	</g>
	<path fill="#E13726" d="M67.888,24.156c0,0,63.112,23.344,71.612,26.344c8-24-2.5-40-23-47.5S74.276,3.813,67.888,24.156z"/>
</g>
<g>
	<path fill="#232323" d="M80.93,246.232l-13.276,5.839c0,0-11.085-0.47-12.653,5.888c-1.028,4.172-1.421,3.972-1.421,3.972
		c10.786-1.226,38.793-2.872,38.793-2.872c-0.217-3.555-5.043-12.612-5.043-12.612L80.93,246.232z"/>
	<path fill="#333333" d="M78.043,176.891c0,0-14.95,16.273-13.504,39.045c0.585,9.234,7.533,21.993,8.264,35.296
		c1.763,1.383,19.604,4.992,19.604,4.992c-2.064-8.696-10.438-29.417-15.161-40.059c-2.966-6.685,1.15-26.139,15.17-37.808
		L78.043,176.891z"/>
</g>
<g>
	<path fill="#2E2E2E" d="M103.963,250.614l-13.775,4.539c0,0-10.988-1.532-13.158,4.647c-1.424,4.053-1.828,5.531-1.828,5.531
		c10.854-0.186,38.921-0.855,38.921-0.855c0.126-3.557-3.409-11.701-3.409-11.701L103.963,250.614z"/>
	<path fill="#424242" d="M95.124,180.945c0,0-17.306,22.098-13.079,43.114c2.011,9.999,5.229,15.261,10.227,31.222
		c2.008,0.996,21.765,5.249,21.765,5.249c-1.849-10.207-8.633-19.92-20.693-40.354c-3.978-6.74,6.578-24.029,17.698-39.068
		L95.124,180.945z"/>
</g>
<path fill="#E13726" d="M74.545,94.221c0.019,12.003-13.85,72.211-13.461,72.737l62.201-0.174
	c-0.28-2.325-11.696-69.617-13.117-73.39l-29.578,6.982L74.545,94.221z"/>
<path fill="#424242" d="M61.084,166.958c0,0,1.172,12.813,6.748,16.682c5.581,3.868,36.182,12.597,52.198-0.997
	c3.359-3.468,4.209-11.457,3.355-16.181L61.084,166.958z"/>
<g>
	<path fill="#FAAB6D" d="M104.831,139.979c0,0-10.825,0.844-12.001,4.51c-1.177,3.665,0.128,5.41,1.167,5.454
		c0.603,2.501,3.599,13.103,5.295,13.429s8.654,1.737,13.448-3.388L104.831,139.979z"/>
	<path fill="#E8833E" d="M110.12,162.068c0.911-0.532,1.798-1.207,2.62-2.085l-7.909-20.005c0,0-1.516,0.118-3.472,0.458
		C103.374,145.248,107.266,154.646,110.12,162.068z"/>
	<path fill="#E13726" d="M111.492,97.396c0,0,51.925,36.517,0.986,64.803c-1.459-3.86-9.166-22.839-9.166-22.839
		c20.02-4.402,30.62-16.222,3.205-39.525L111.492,97.396z"/>
</g>
<g>
	<path fill="#FFFFFF" d="M85.43,109.432l2.135,0.007l-5.321,10.312l-1.94-0.006l-1.355-10.332l2.193,0.006l0.64,7.844L85.43,109.432
		z"/>
	<path fill="#FFFFFF" d="M95.707,111.293l-5.201-0.017l-0.418,2.192l4.775,0.015l-0.343,1.793l-4.774-0.015l-0.507,2.653
		l5.442,0.018l-0.354,1.855l-7.449-0.023l1.97-10.322l7.209,0.022L95.707,111.293z"/>
	<path fill="#FFFFFF" d="M97.863,109.471l2.153,0.007l2.529,7.209l1.373-7.196l1.914,0.006l-1.969,10.322l-2.055-0.007l-2.604-7.337
		l-1.396,7.324l-1.914-0.006L97.863,109.471z"/>
	<path fill="#FFFFFF" d="M82.893,122.769c0.645,0.24,1.12,0.679,1.426,1.314c0.244,0.515,0.372,1.071,0.383,1.669
		c0.012,0.598-0.035,1.168-0.139,1.709c-0.262,1.373-0.747,2.535-1.453,3.485c-0.957,1.281-2.178,1.921-3.664,1.915l-4.239-0.013
		l1.97-10.322l4.238,0.013C82.021,122.551,82.516,122.627,82.893,122.769z M78.828,124.325l-1.285,6.737l1.896,0.006
		c0.971,0.003,1.744-0.497,2.317-1.5c0.314-0.55,0.545-1.205,0.69-1.966c0.2-1.051,0.196-1.858-0.01-2.421
		c-0.207-0.564-0.777-0.848-1.713-0.851L78.828,124.325z"/>
	<path fill="#FFFFFF" d="M92.814,131.986c-0.896,0.801-2.046,1.198-3.451,1.194c-1.405-0.005-2.402-0.409-2.991-1.215
		c-0.808-0.988-1.035-2.409-0.682-4.263c0.36-1.891,1.13-3.309,2.307-4.253c0.896-0.801,2.045-1.199,3.45-1.194
		c1.405,0.004,2.402,0.408,2.991,1.215c0.812,0.95,1.036,2.371,0.675,4.262C94.76,129.586,93.994,131.004,92.814,131.986z
		 M91.83,130.413c0.598-0.629,1.008-1.524,1.229-2.687c0.221-1.158,0.152-2.054-0.204-2.688c-0.357-0.634-0.943-0.952-1.757-0.954
		c-0.813-0.003-1.522,0.311-2.128,0.938c-0.604,0.629-1.018,1.524-1.239,2.688c-0.222,1.162-0.151,2.06,0.214,2.691
		c0.364,0.632,0.953,0.948,1.767,0.951S91.231,131.042,91.83,130.413z"/>
	<path fill="#FFFFFF" d="M103.911,122.876c0.331,0.165,0.592,0.407,0.782,0.725c0.158,0.262,0.268,0.552,0.329,0.87
		c0.061,0.317,0.053,0.68-0.024,1.086c-0.094,0.49-0.305,0.972-0.63,1.445c-0.325,0.473-0.779,0.807-1.358,1.001
		c0.417,0.192,0.686,0.466,0.809,0.819c0.121,0.353,0.113,0.891-0.025,1.614l-0.133,0.693c-0.089,0.472-0.132,0.792-0.128,0.96
		c0.003,0.266,0.092,0.463,0.267,0.589l-0.049,0.26l-2.268-0.008c-0.019-0.229-0.028-0.413-0.028-0.554
		c0.002-0.289,0.03-0.586,0.083-0.89l0.17-0.959c0.117-0.658,0.092-1.098-0.073-1.317c-0.167-0.22-0.536-0.331-1.107-0.333
		l-2.007-0.007l-0.771,4.048l-2.008-0.006l1.969-10.322l4.702,0.015C103.08,122.621,103.58,122.712,103.911,122.876z M99.375,124.39
		l-0.529,2.773l2.21,0.007c0.439,0.001,0.78-0.054,1.021-0.165c0.426-0.195,0.694-0.581,0.805-1.161
		c0.119-0.625,0.012-1.046-0.323-1.262c-0.188-0.122-0.493-0.184-0.915-0.186L99.375,124.39z"/>
</g>
</svg>
